<?xml version="1.0" encoding="UTF-8"?>
<svg id="Capa_2" data-name="Capa 2" xmlns="http://www.w3.org/2000/svg" viewBox="0 0 1357.91 45.32">
  <defs>
    <style>
      .cls-1 {
        fill: #fff;
      }
    </style>
  </defs>
  <g id="Movil">
    <g id="pc">
      <g>
        <path class="cls-1" d="m226.23,0H0v3.41c3.19,7.55,9.99,13.64,19.11,18.69-2.9-7.85-3.59-14.48.97-19.08,9.89,20.83,21.3,34.57,34.22,41.24-4.8-12.67-7.11-24.16-3.28-32.53,15.93,18.24,32.73,30.87,50.95,33.59-7.46-14.29-11.59-27.03-9.58-37.23,20.56,18.18,40.64,20.34,58.08,10.15-3.07,7.25-6.95,14.07-12.33,18.62,17.78,5.55,35.53-1.62,47.96-21.97h.89c-.62,10.37.72,20.79,3.93,30.4,12-5.64,17.4-15.69,16.14-30.4h.07c4.32,12.61,10.27,19.18,17.02,22.7l1.53-.68,1.65.74c6.74-3.49,12.69-10.02,17.02-22.55h.07c-1.26,14.61,4.14,24.6,16.14,30.2,3.22-9.56,4.56-19.9,3.93-30.2h.89c12.42,20.21,30.16,27.35,47.96,21.83-5.4-4.5-9.27-11.3-12.33-18.49,17.43,10.11,37.52,7.97,58.08-10.1,2.01,10.13-2.12,22.8-9.58,36.99,18.22-2.72,35.02-15.25,50.95-33.37,3.83,8.32,1.52,19.73-3.28,32.33,12.92-6.61,24.33-20.28,34.22-40.96,4.56,4.57,3.87,11.15.97,18.95,9.12-5.02,15.91-11.07,19.11-18.56V.29h-225.21v-.29h-.01Zm.83,15.09c-.41.41-.83.8-1.25,1.2-.48-.46-.97-.91-1.44-1.39h.83v.2h1.86,0Z"/>
        <path class="cls-1" d="m681.17,0h-226.23v3.41c3.19,7.55,9.99,13.64,19.11,18.69-2.9-7.85-3.59-14.48.97-19.08,9.89,20.83,21.3,34.57,34.22,41.24-4.8-12.67-7.11-24.16-3.28-32.53,15.93,18.24,32.73,30.87,50.95,33.59-7.46-14.29-11.59-27.03-9.58-37.23,20.56,18.18,40.64,20.34,58.08,10.15-3.07,7.25-6.95,14.07-12.33,18.62,17.78,5.55,35.53-1.62,47.94-21.97h.89c-.62,10.37.72,20.79,3.93,30.4,12-5.64,17.4-15.69,16.14-30.4h.07c4.32,12.61,10.27,19.18,17.02,22.7l1.53-.68,1.65.74c6.74-3.49,12.69-10.02,17.02-22.55h.07c-1.26,14.61,4.14,24.6,16.14,30.2,3.22-9.56,4.56-19.9,3.93-30.2h.89c12.42,20.21,30.16,27.35,47.96,21.83-5.4-4.5-9.27-11.3-12.33-18.49,17.43,10.11,37.52,7.97,58.08-10.1,2.01,10.13-2.12,22.8-9.58,36.99,18.22-2.72,35.02-15.25,50.95-33.37,3.83,8.32,1.52,19.73-3.28,32.33,12.92-6.61,24.33-20.28,34.22-40.96,4.56,4.57,3.87,11.15.97,18.95,9.12-5.02,15.91-11.07,19.11-18.56V.29h-225.21v-.29h0Zm.83,15.09c-.41.41-.83.8-1.25,1.2-.48-.46-.97-.91-1.44-1.39h.83v.2h1.86Z"/>
        <path class="cls-1" d="m1132.68,0h-226.23v3.41c3.19,7.55,9.99,13.64,19.11,18.69-2.9-7.85-3.59-14.48.97-19.08,9.89,20.83,21.3,34.57,34.22,41.24-4.8-12.67-7.11-24.16-3.28-32.53,15.93,18.24,32.73,30.87,50.95,33.59-7.46-14.29-11.59-27.03-9.58-37.23,20.56,18.18,40.64,20.34,58.08,10.15-3.07,7.25-6.95,14.07-12.33,18.62,17.78,5.55,35.53-1.62,47.96-21.97h.89c-.62,10.37.72,20.79,3.93,30.4,12-5.64,17.4-15.69,16.14-30.4h.07c4.32,12.61,10.27,19.18,17.02,22.7l1.53-.68,1.65.74c6.74-3.49,12.69-10.02,17.02-22.55h.07c-1.26,14.61,4.14,24.6,16.14,30.2,3.22-9.56,4.56-19.9,3.93-30.2h.89c12.42,20.21,30.16,27.35,47.96,21.83-5.4-4.5-9.27-11.3-12.33-18.49,17.43,10.11,37.52,7.97,58.08-10.1,2.01,10.13-2.12,22.8-9.58,36.99,18.22-2.72,35.02-15.25,50.95-33.37,3.83,8.32,1.52,19.73-3.28,32.33,12.92-6.61,24.33-20.28,34.22-40.96,4.56,4.57,3.87,11.15.97,18.95,9.12-5.02,15.91-11.07,19.11-18.56V.29h-225.21v-.29h-.01Zm.83,15.09c-.41.41-.83.8-1.25,1.2-.48-.46-.97-.91-1.44-1.39h.83v.2h1.86Z"/>
      </g>
    </g>
  </g>
</svg>