<?xml version="1.0" encoding="UTF-8"?>
<svg id="Capa_2" data-name="Capa 2" xmlns="http://www.w3.org/2000/svg" viewBox="0 0 281.32 698">
  <defs>
    <style>
      .cls-1 {
        fill: #4b4b4b;
      }

      .cls-2 {
        fill: #a3a3a3;
      }

      .cls-3 {
        fill: #6d6d6d;
      }
    </style>
  </defs>
  <g id="Capa_1-2" data-name="Capa 1">
    <g>
      <polygon class="cls-2" points="1.34 8.31 11.62 21.81 1.34 43.56 7.8 60.07 0 73.46 10.11 102.92 1.34 117.2 14.26 139.51 1.01 154.24 14.26 178.78 1.34 187.71 10.11 197.08 0 226.53 14.26 258.67 0 278.75 14.26 313.56 0 324.27 11.62 334.4 0 340.78 14.26 356.4 0 364.43 14.84 392.55 1.34 415.76 11.62 439.41 1.34 444.76 8.09 455.47 0 462.95 14.26 488.94 1.34 504.56 11.55 541.61 0 558.12 11.55 563.47 4.57 586.68 11.55 610.33 .89 633.54 17.18 652.68 0 681.29 14.84 690.05 4.57 698 .89 693.79 1.34 8.31"/>
      <polygon class="cls-2" points="1.34 2.47 17.18 10.26 37.52 0 59.26 9 78.44 0 87.54 10.26 97.2 0 115.2 7.97 129.98 0 144 10.26 159.16 0 179.24 12.85 190.61 0 206.91 10.26 217.14 0 243.28 10.26 259.58 0 267.16 12.85 279.34 8.31 279.34 .91 1.34 0 1.34 2.47"/>
      <g>
        <g>
          <polygon class="cls-3" points="1.34 191.94 1.34 214.05 7.8 205.34 1.34 191.94"/>
          <polygon class="cls-3" points="1.34 126.95 1.34 191.94 14.26 171.17 1.34 126.95"/>
          <polygon class="cls-3" points="1.34 214.05 1.34 255.74 14.26 239.5 1.34 214.05"/>
          <polygon class="cls-3" points="1.34 99.92 1.34 126.95 14.26 117.57 1.34 99.92"/>
          <polygon class="cls-3" points="1.34 615.16 14.84 602.05 1.34 569.13 1.34 615.16"/>
          <polygon class="cls-3" points="1.34 255.74 1.34 307.84 14.26 293.1 1.34 255.74"/>
          <polygon class="cls-3" points="1.34 55.93 1.34 99.92 14.26 89.43 1.34 55.93"/>
          <polygon class="cls-3" points="1.34 492.75 1.34 540.99 14.84 530.94 1.34 492.75"/>
          <polygon class="cls-3" points="1.34 472.65 1.34 492.75 7.8 484.71 1.34 472.65"/>
          <polygon class="cls-3" points="1.34 540.99 1.34 569.13 8.09 547.02 1.34 540.99"/>
          <polygon class="cls-3" points="1.34 451.88 1.34 472.65 7.8 466.62 1.34 451.88"/>
          <polygon class="cls-3" points="1.34 307.84 1.34 344.02 7.8 324.59 1.34 307.84"/>
          <polygon class="cls-3" points="1.34 344.02 1.34 397.62 14.26 380.2 1.34 344.02"/>
          <polygon class="cls-3" points="1.34 397.62 1.34 451.88 14.26 413.02 1.34 397.62"/>
          <polygon class="cls-3" points="1.34 .55 1.34 19 10.11 6.8 1.34 .55"/>
          <polygon class="cls-3" points="1.34 19 1.34 55.93 10.11 38.35 1.34 19"/>
        </g>
        <polygon class="cls-3" points="4.34 615.16 22.2 641.93 .89 652.41 17.84 669.17 .89 686.1 22.2 697.51 .89 697.51 .89 616.04 4.34 615.16"/>
      </g>
      <polygon class="cls-2" points=".45 689.53 26.21 696.96 51.98 689.53 79.27 696.96 98.49 692.14 110.22 696.96 124.74 687.32 140.79 694.52 152.03 696.96 162.35 687.32 175.88 696.96 186.77 687.32 206.59 696.96 224.02 687.32 242.21 696.96 271.59 687.32 281.32 692.14 281.32 697.51 .59 696.96 .45 689.53"/>
      <polygon class="cls-1" points="1.34 698 22.76 688.64 48.61 698 86.07 688.64 95.62 698 108.2 688.64 117.93 698 144.96 688.64 152.78 698 177.88 683.34 184.93 696 214.7 690.67 222.53 696 248.39 686.37 272.34 698 1.34 698"/>
    </g>
  </g>
</svg>