<svg xmlns="http://www.w3.org/2000/svg" viewBox="0 0 8.42 18.43"><defs><style>.eb2b45b7-fb80-487b-8447-36ec29a712ae{fill:#fff;}</style></defs><g id="ada3d8dc-ff26-49dd-bd9f-7609b0758e9a" data-name="Capa 2"><g id="a249396e-9e81-468a-bac1-e066476e15ba" data-name="Capa 1"><path class="eb2b45b7-fb80-487b-8447-36ec29a712ae" d="M7.57,14.68a5.59,5.59,0,0,1-1.42.72.66.66,0,0,1-.27.06.29.29,0,0,1-.36-.32,1.73,1.73,0,0,1,.05-.45c.22-1,.51-2,.75-3s.55-1.83.75-2.77a3.74,3.74,0,0,0,0-1.85.76.76,0,0,0-.81-.6,4.25,4.25,0,0,0-1.37.29A15.75,15.75,0,0,0,.39,9.22c-.47.37-.49.45-.18,1a.41.41,0,0,0,.05.09.22.22,0,0,0,.3.07,1.39,1.39,0,0,0,.21-.11,6.77,6.77,0,0,1,1.6-.72,1,1,0,0,1,.25,0c.16,0,.23.06.24.23a1.65,1.65,0,0,1,0,.44c-.33,1.41-.67,2.83-1,4.24a9.41,9.41,0,0,0-.43,2.47c0,.11,0,.22,0,.33a1.27,1.27,0,0,0,.92,1.2,1.63,1.63,0,0,0,.82,0,10.15,10.15,0,0,0,3.74-1.73,14.77,14.77,0,0,0,1.42-1.2A.46.46,0,0,0,8.41,15,.53.53,0,0,0,7.57,14.68Z"/><path class="eb2b45b7-fb80-487b-8447-36ec29a712ae" d="M4.57,3.92a4.09,4.09,0,0,0,1.15.17c.13,0,.32,0,.51,0A2.32,2.32,0,0,0,8.18,1.35,1.4,1.4,0,0,0,6.89.05a3.29,3.29,0,0,0-1,0A2.55,2.55,0,0,0,4.24.8a2.33,2.33,0,0,0-.57,2.08A1.26,1.26,0,0,0,4.57,3.92Z"/></g></g></svg>