<svg xmlns="http://www.w3.org/2000/svg" viewBox="0 0 22.12 26.08"><defs><style>.a68ce87e-a35a-459a-8ae9-514a0e2da0fc{fill:#b2b2b2;}</style></defs><g id="a8af173d-3f32-4efb-8ec3-c8d9f4fc7324" data-name="Capa 2"><g id="be484ce3-5c6c-43c4-b89d-7e2e3e0e50d4" data-name="Capa 1"><path class="a68ce87e-a35a-459a-8ae9-514a0e2da0fc" d="M21.73,7.82A10.26,10.26,0,0,0,16.07,1,12.1,12.1,0,0,0,9.17.16a4.61,4.61,0,0,0-3.51,2c-.15.25-.35.21-.56.19a3.22,3.22,0,0,0-2.3.73A7.51,7.51,0,0,0,.05,10a10.38,10.38,0,0,0,1.24,3.58c.1.05.11.14.12.23a2.37,2.37,0,0,1,.47,1.38c.08.4,0,.86.39,1.19l.31-.91,0-.35.06-.15a.06.06,0,0,1,0-.07l-.08-.14a1.55,1.55,0,0,1-.38-.89,1.55,1.55,0,0,0,.38.89h.1a10,10,0,0,1,2.22-4l0-.22H5L5.72,8.8c0-.11.11-.21.25-.21H6l0-.46c.31-.57.63-.19.94,0,.13,0,.26,0,.35.13a.66.66,0,0,1,.61.34l.56,0h0c.08.13.22.12.35.12h0V9c.27.1.64,0,.71.45.49-.08.84.28,1.28.38.09.11.27.15.28.34a1.27,1.27,0,0,1,.92.58l.22.1.33,0h0l1.54,1.4a1.67,1.67,0,0,0-.16.24c-.1.2-.47.32-.2.63s.49.1.69,0A4.68,4.68,0,0,1,16.49,13a.37.37,0,0,1,.32.22l.46.05c.14.28.27.56.61.65a27.83,27.83,0,0,1,1,2.95l.13.59c.78-.07,1-.77,1.38-1.26a3.66,3.66,0,0,0,.49-1c.07-.17.13-.32.34-.34l0-.12a2.48,2.48,0,0,1,.1-.39A9.94,9.94,0,0,0,21.73,7.82ZM13.16,10.9l-.06,0Zm3.05-.78.13.13-.13-.13Zm.23.19h0Zm.25-8.2a2.8,2.8,0,0,1,1.18.94,2.29,2.29,0,0,1,.93.75,2.29,2.29,0,0,0-.93-.75,2.8,2.8,0,0,0-1.18-.94,3.56,3.56,0,0,0-1.62-.76A3.52,3.52,0,0,1,16.69,2.11Zm-2-.82h0l-.18,0Zm-7.18.12A6.63,6.63,0,0,1,10.8.7a6.63,6.63,0,0,0-3.31.71,1.29,1.29,0,0,0-.75.49A1.29,1.29,0,0,1,7.49,1.41ZM6.65,2c-.29.33-.6.65-.9,1a.61.61,0,0,1,0,.13.61.61,0,0,0,0-.13h0C6.05,2.65,6.36,2.33,6.65,2ZM1.86,5.29a1.74,1.74,0,0,1,.59-.93c.42-.41.75-1,1.4-1.06A1.84,1.84,0,0,1,5.14,3a1.86,1.86,0,0,0-1.29.35c-.65.11-1,.65-1.4,1.06a1.74,1.74,0,0,0-.59.93.38.38,0,0,0-.31.23A.38.38,0,0,1,1.86,5.29Zm11.3,5.61,0-.05Zm2,1c-.18,0-.36,0-.39-.23h0l0-.35c0-.17-.07-.33-.1-.5a1.33,1.33,0,0,0-.26-.81,1.11,1.11,0,0,0-.59-1.18,1.43,1.43,0,0,1,0,.36,1.43,1.43,0,0,0,0-.36.24.24,0,0,0-.11-.23c-.31-.28-.45-.72-.83-.93a1.6,1.6,0,0,1-.66-.43,1.6,1.6,0,0,0,.66.43V7.51c.54,0,.77.64,1.29.75h0a3.1,3.1,0,0,0,.71.69h0l1.29,1.54h0c.24.58.71,1,.95,1.76A3.51,3.51,0,0,0,15.17,11.89Zm-.56-.22h0Z"/><path class="a68ce87e-a35a-459a-8ae9-514a0e2da0fc" d="M2.69,15.77c0,.13,0,.27.11.35s.25-.05.22-.2S2.82,15.78,2.69,15.77Z"/><path class="a68ce87e-a35a-459a-8ae9-514a0e2da0fc" d="M16.21,17.18a.34.34,0,0,0,.36-.35C16.34,16.83,16.23,17,16.21,17.18Z"/><path class="a68ce87e-a35a-459a-8ae9-514a0e2da0fc" d="M5.18,14.54c0,.13.1.15.2.17l0-.34C5.3,14.37,5.18,14.38,5.18,14.54Z"/><path class="a68ce87e-a35a-459a-8ae9-514a0e2da0fc" d="M8.33,12.47a3.51,3.51,0,0,0-1.85-.58,2.31,2.31,0,0,0-1.65.61c-.16.14-.34.32-.21.56s.34.15.52.11c.4-.07.8-.17,1.19-.27,0-.1.09-.16.14-.18a.07.07,0,0,1,.09,0,.07.07,0,0,0-.09,0s-.09.08-.14.18h.36a11.14,11.14,0,0,1,1.42.28c.19,0,.41.06.49-.21S8.52,12.6,8.33,12.47Z"/><path class="a68ce87e-a35a-459a-8ae9-514a0e2da0fc" d="M15.67,15.05a1.38,1.38,0,0,0-1.33,1.41,1.32,1.32,0,0,0,1.37,1.35A1.33,1.33,0,0,0,17,16.42,1.4,1.4,0,0,0,15.67,15.05Z"/><polygon class="a68ce87e-a35a-459a-8ae9-514a0e2da0fc" points="5.41 15.65 5.42 15.64 5.42 15.64 5.41 15.65"/><path class="a68ce87e-a35a-459a-8ae9-514a0e2da0fc" d="M7,15.14,6.8,15H6.57a2.23,2.23,0,0,0-1.15.61l0,.34a1.36,1.36,0,0,0-.09.82l.38.67c.35.13.6.47,1.06.37a1.38,1.38,0,0,0,1.15-1.08A1.31,1.31,0,0,0,7,15.14Z"/><polygon class="a68ce87e-a35a-459a-8ae9-514a0e2da0fc" points="5.64 17.5 5.67 17.47 5.67 17.47 5.67 17.47 5.64 17.5"/><path class="a68ce87e-a35a-459a-8ae9-514a0e2da0fc" d="M13.26,21.19a1.25,1.25,0,0,1-.67.31,10.69,10.69,0,0,1-2.71-.08,3.5,3.5,0,0,1-1-.26c-.34-.13-.66-.24-.88.13s.08.61.34.84a10.73,10.73,0,0,0,1.49.9l.11,0a5,5,0,0,0,2.34,0,8.44,8.44,0,0,0,1.6-1c.2-.22.45-.44.18-.75A.56.56,0,0,0,13.26,21.19Z"/><polygon class="a68ce87e-a35a-459a-8ae9-514a0e2da0fc" points="12.33 23.02 12.32 23.02 12.32 23.02 12.33 23.02"/><path class="a68ce87e-a35a-459a-8ae9-514a0e2da0fc" d="M21.25,16.09c-.21,0-.27.18-.34.35a3.46,3.46,0,0,1-.49,1c-.38.5-.6,1.2-1.38,1.26-.27.28.13.55,0,.82l-.11.48A6,6,0,0,1,18,22l-.13.23A6.55,6.55,0,0,1,16.19,24,7.25,7.25,0,0,1,13,25.3a16.68,16.68,0,0,1-2,.14,8.36,8.36,0,0,1-2.45-.3,7.05,7.05,0,0,1-4.65-3.87c-.16-.12-.1-.3-.11-.47a.2.2,0,0,1-.2-.1l0-.08,0,.08a.2.2,0,0,0,.2.1.22.22,0,0,0-.23-.24,8.08,8.08,0,0,1-.71-2.82v-.35c-.13-.09-.11-.22-.11-.35s0-.27-.11-.35l-.31.9c-.39-.33-.31-.78-.39-1.18A2.37,2.37,0,0,0,1.41,15c-.33.33-.37.8-.6,1.18l0,.23v.95l0,.35a7.55,7.55,0,0,0,.74,1.51l.08,0C2.79,19.8,3,21,3.4,22a.15.15,0,0,1,0,.09c.46.6.93,1.19,1.4,1.79h0L6.36,25l.09,0,2.24.83.23,0c.1,0,.18,0,.24.08l.46,0c.17,0,.34-.07.48.08H12c.14-.15.31-.1.48-.08l.46,0a7.65,7.65,0,0,1,1.41-.35l.23,0A5.59,5.59,0,0,1,15.74,25a.25.25,0,0,1,.24-.11,1.35,1.35,0,0,1,.7-.47h0L18.09,23h0c.44-1,1.11-1.86,1.47-2.89.15-.4.68-.56,1-.86l.09,0a1.58,1.58,0,0,1,.36-.58l.13-.24a2.24,2.24,0,0,1,.24-.7l0-.24C21.33,17,21.54,16.54,21.25,16.09Z"/><path class="a68ce87e-a35a-459a-8ae9-514a0e2da0fc" d="M2.6,16.34h.09l0-.14Z"/><path class="a68ce87e-a35a-459a-8ae9-514a0e2da0fc" d="M2.69,16h-.1a.57.57,0,0,0,.08.13Z"/><path class="a68ce87e-a35a-459a-8ae9-514a0e2da0fc" d="M7.11,12.64A15,15,0,0,1,12,12a1.31,1.31,0,0,0-.92-.59,13.74,13.74,0,0,0-4.18.67c-.22.08-.52.11-.4.44S6.89,12.72,7.11,12.64Z"/><path class="a68ce87e-a35a-459a-8ae9-514a0e2da0fc" d="M11.77,18.91c-.5,0-1,0-1.51,0-.26,0-.41.08-.41.36a1.24,1.24,0,0,0,1.18.85c.56.08.87-.33,1.3-.5C12.45,19.14,12.34,18.87,11.77,18.91Z"/><path class="a68ce87e-a35a-459a-8ae9-514a0e2da0fc" d="M14.4,18.84a2.46,2.46,0,0,0,2.34.05c.22-.11.54-.19.47-.51s-.37-.3-.64-.28h0a.33.33,0,0,1-.36.34,1.33,1.33,0,0,1-1.51-.27c-.29-.29-.48-.17-.61.16A.5.5,0,0,0,14.4,18.84Z"/><path class="a68ce87e-a35a-459a-8ae9-514a0e2da0fc" d="M8.09,10.92a6.91,6.91,0,0,0,1.43-.25c-.07-.41-.44-.35-.71-.45l-.8.13a.3.3,0,0,0-.25.34C7.77,10.91,7.93,10.91,8.09,10.92Z"/><path class="a68ce87e-a35a-459a-8ae9-514a0e2da0fc" d="M5.12,18.7a2,2,0,0,0,1.42.45,1.78,1.78,0,0,0,1.39-.48c.11-.08.34-.13.2-.34s-.23-.28-.44-.15a1.85,1.85,0,0,1-2.23,0,.32.32,0,0,0-.47.09C4.86,18.44,5,18.59,5.12,18.7Z"/><path class="a68ce87e-a35a-459a-8ae9-514a0e2da0fc" d="M8,19.76c-.28.24-.57.46-.86.69s-.35.53-.7.59h0a1,1,0,0,1-.24.52c-.11.14-.36.28-.14.47s.4.08.58-.09l1-.91a3.35,3.35,0,0,1,.77-.78c.18-.14.2-.27.06-.44S8.2,19.6,8,19.76Z"/><path class="a68ce87e-a35a-459a-8ae9-514a0e2da0fc" d="M14,20.37a4.23,4.23,0,0,1,.73.9,5.09,5.09,0,0,1,.87.74c.12.17.35.31.55.09s0-.35-.11-.5-.22-.22-.32-.34c-.25-.31-.66-.49-.76-.92a2.09,2.09,0,0,1-.57-.4c-.15-.16-.35-.32-.54-.11S13.8,20.22,14,20.37Z"/><path class="a68ce87e-a35a-459a-8ae9-514a0e2da0fc" d="M15.67,12.55a.26.26,0,0,0,0-.37.88.88,0,0,0-1-.1c0,.17.07.33.1.5C15.1,12.61,15.4,12.84,15.67,12.55Z"/></g></g></svg>