<svg xmlns="http://www.w3.org/2000/svg" viewBox="0 0 25.31 12.18"><defs><style>.fac2daf4-1a63-47e0-a90a-69efe9343d5f{fill:#b2b2b2;}</style></defs><g id="a324730c-92cc-4994-be77-da5b7bc868bf" data-name="Capa 2"><g id="e35a6a0a-da44-46ee-9abc-0b9a77727b46" data-name="Capa 1"><path class="fac2daf4-1a63-47e0-a90a-69efe9343d5f" d="M25.31,8a.7.7,0,0,1-1,.29.6.6,0,0,1-.32-.5C24,7.19,23.94,6.6,23.87,6a4.54,4.54,0,0,0-.75-2.34A1.75,1.75,0,0,0,22.06,3a.36.36,0,0,0-.2,0l-.51.31v.23c0,1.36,0,2.73,0,4.1a.47.47,0,0,1-.36.53,2.42,2.42,0,0,0-1.72,2,.35.35,0,0,1-.4.33H.23c.22-.31.41-.61.61-.89A23.54,23.54,0,0,1,8,2.87,20,20,0,0,1,20.86.17c.44.06.49.12.49.56a2.08,2.08,0,0,1,0,.25c0,.16.07.21.19.31.42.37,1,.36,1.44.58A3.5,3.5,0,0,1,24.71,4a12.14,12.14,0,0,1,.55,3.05c0,.11,0,.22,0,.34Zm-9-1.67.29,0c.46,0,.92-.07,1.37-.16a.83.83,0,0,0,.78-.85c0-.74,0-1.48-.06-2.22S18.21,2,17.42,1.94c-.12,0-.25,0-.37,0-.87.13-1.74.26-2.61.41a10.78,10.78,0,0,0-3.53,1.12,5.44,5.44,0,0,0-2.06,2A.51.51,0,0,0,9,6.24a.82.82,0,0,0,.28.14c.49.1,1,.18,1.48.27a.41.41,0,0,1,.25.14,1.11,1.11,0,0,0,1,.64c1.06,0,2.11.06,3.17,0A1,1,0,0,0,16.29,6.31Z"/><path class="fac2daf4-1a63-47e0-a90a-69efe9343d5f" d="M0,12.18v-1H20.12v1Z"/><path class="fac2daf4-1a63-47e0-a90a-69efe9343d5f" d="M6.67,3.16V1.81h1v.65a.13.13,0,0,1-.06.1Z"/><path class="fac2daf4-1a63-47e0-a90a-69efe9343d5f" d="M13.66,7H12.18a1.35,1.35,0,0,1-.4-.08.48.48,0,0,1-.18-.83,2.49,2.49,0,0,1,1.82-.81,2.79,2.79,0,0,1,2.1.68l.07.06c.16.19.36.38.23.66a.65.65,0,0,1-.65.36H13.66Z"/></g></g></svg>