<svg xmlns="http://www.w3.org/2000/svg" viewBox="0 0 18.34 17.64"><defs><style>.b8c307b7-d5df-4796-846d-a54ed1aa5540{fill:#b2b2b2;}</style></defs><g id="be994114-ee68-48d6-83d5-8c03a4f1f455" data-name="Capa 2"><g id="a5549230-a3a2-4eac-abbf-8e5ed3c194d3" data-name="Capa 1"><path class="b8c307b7-d5df-4796-846d-a54ed1aa5540" d="M9.76,3.55l.17-.23a6.14,6.14,0,0,1,1.83-1.57l.37-.21a.48.48,0,0,1,.66.19.49.49,0,0,1-.19.67c-.31.19-.63.38-.93.58a4.29,4.29,0,0,0-1,1l-.08.13a.07.07,0,0,0,0,0c.25,0,.5.09.75.16a6.62,6.62,0,0,1,4.22,3.1,7.4,7.4,0,0,1,.39.8.23.23,0,0,0,.21.16,2.48,2.48,0,0,1,1.48.66,2.44,2.44,0,0,1,.66,2.38A2.35,2.35,0,0,1,16.1,13.3a.19.19,0,0,0-.18.12A6.26,6.26,0,0,1,12,17.14a8.13,8.13,0,0,1-6.63-.44,6.17,6.17,0,0,1-2.95-3.27.19.19,0,0,0-.19-.13A2.36,2.36,0,0,1,.11,11.58a2.45,2.45,0,0,1,.61-2.5A2.49,2.49,0,0,1,2.2,8.39a.26.26,0,0,0,.24-.19,6.41,6.41,0,0,1,4-3.7,9.17,9.17,0,0,1,1.65-.37l.51,0c.11,0,.15,0,.16-.16a4.83,4.83,0,0,0,0-1.37A2.09,2.09,0,0,0,7.84,1.2,1.37,1.37,0,0,0,5.78,2a1.12,1.12,0,0,0,.37,1.06.48.48,0,0,0,.21.12.42.42,0,0,0,.45-.11.36.36,0,0,0,0-.43c0-.06-.08-.12-.11-.17a.49.49,0,0,1,.11-.64.47.47,0,0,1,.65,0,1.37,1.37,0,0,1,0,1.92,1.45,1.45,0,0,1-2,0A2.13,2.13,0,0,1,5.69.49a2.36,2.36,0,0,1,3.43.61,3.54,3.54,0,0,1,.61,1.83C9.75,3.13,9.75,3.33,9.76,3.55Zm5.8,8.73.41,0a1.5,1.5,0,0,0,.88-.36,1.41,1.41,0,0,0,.38-1.43,1.21,1.21,0,0,0-1-1,5,5,0,0,0-.87-.07.23.23,0,0,1-.24-.19,5.19,5.19,0,0,0-1.57-2.55A6.34,6.34,0,0,0,9.82,5.14a7.32,7.32,0,0,0-3,.36A5.42,5.42,0,0,0,3.16,9.33.1.1,0,0,1,3,9.42c-.23,0-.47,0-.7,0a1.31,1.31,0,0,0-1.26,1.17,1.33,1.33,0,0,0,1.14,1.61,3.78,3.78,0,0,0,.75,0c.13,0,.19,0,.22.16A5.27,5.27,0,0,0,6.26,16a7.16,7.16,0,0,0,5.17.25A5.3,5.3,0,0,0,15.1,12.6c0-.11,0-.26.12-.31S15.44,12.28,15.56,12.28Z"/><path class="b8c307b7-d5df-4796-846d-a54ed1aa5540" d="M6.12,13.13,7,12.94,7,13A1.6,1.6,0,0,0,8,14.16a2.65,2.65,0,0,0,2.39,0A1.6,1.6,0,0,0,11.3,13s0,0,0-.06l.88.19a2.36,2.36,0,0,1-.58,1.26,3.11,3.11,0,0,1-1.82.93A3.62,3.62,0,0,1,8,15.19a2.61,2.61,0,0,1-1.77-1.62C6.19,13.43,6.16,13.29,6.12,13.13Z"/><path class="b8c307b7-d5df-4796-846d-a54ed1aa5540" d="M6,10.53a.86.86,0,0,1,.86-.86.86.86,0,1,1-.86.86Z"/><path class="b8c307b7-d5df-4796-846d-a54ed1aa5540" d="M11.46,11.38a.86.86,0,1,1,.85-.84A.86.86,0,0,1,11.46,11.38Z"/></g></g></svg>