<svg xmlns="http://www.w3.org/2000/svg" viewBox="0 0 23.07 22.81"><defs><style>.bda1dd6e-bd62-4b3e-80f2-e7e0b3c5f25e{fill:#b2b2b2;}</style></defs><g id="e35ed098-04c6-4071-8358-ce3e4ab0add1" data-name="Capa 2"><g id="bf0a117f-1983-45fd-bee3-130f350cadbd" data-name="Capa 1"><path class="bda1dd6e-bd62-4b3e-80f2-e7e0b3c5f25e" d="M9.62,2.91V1.61H8.16c-.25,0-.41-.15-.41-.36A.36.36,0,0,1,8.15.9H9.62c0-.17,0-.33,0-.49S9.76,0,10,0a.36.36,0,0,1,.36.41c0,.15,0,.29,0,.43s0,0,0,.06h1.52a.37.37,0,0,1,.4.37.36.36,0,0,1-.39.34H10.34V2.9l.83.09a9.75,9.75,0,0,1,3.25,1,9.59,9.59,0,0,1,3.15,2.43.56.56,0,0,1,.15.33.3.3,0,0,1-.21.29.34.34,0,0,1-.39-.07c-.12-.12-.23-.26-.35-.38A9.19,9.19,0,0,0,11.6,3.77a9.1,9.1,0,0,0-5.72.8,9,9,0,0,0-4.82,5.67,8.48,8.48,0,0,0-.35,2.18,8.89,8.89,0,0,0,3,7,9,9,0,0,0,4.68,2.25,8.68,8.68,0,0,0,2.44.09,9.19,9.19,0,0,0,6-3,8.84,8.84,0,0,0,2.21-4.42,9,9,0,0,0-.23-4.25.14.14,0,0,1,0-.07.34.34,0,0,1,.23-.44.33.33,0,0,1,.44.23,12.79,12.79,0,0,1,.33,1.49A11.56,11.56,0,0,1,20,13a9.25,9.25,0,0,1-1,4,9.78,9.78,0,0,1-3.31,3.82,9.8,9.8,0,0,1-3.94,1.61,10.3,10.3,0,0,1-2.48.12,9.83,9.83,0,0,1-6.41-2.92A9.28,9.28,0,0,1,.14,14.37,9.49,9.49,0,0,1,2.76,6a9.7,9.7,0,0,1,5.51-2.9C8.63,3,9,3,9.36,2.94Z"/><path class="bda1dd6e-bd62-4b3e-80f2-e7e0b3c5f25e" d="M20.29,8.12l-.35.29-7.51,6.3-.58.48a.69.69,0,0,1-.92-1l6.39-6.44L20.53,4.5a.7.7,0,0,1,1.13,0l.76.83a.69.69,0,0,1-.06,1L21.09,7.44a.25.25,0,0,0-.1.21,6.38,6.38,0,0,0,.51,2.55c.32.84.68,1.66,1,2.5a7.63,7.63,0,0,1,.57,3.06,10.66,10.66,0,0,1-.32,2.1,18.67,18.67,0,0,1-.8,2.67,4.84,4.84,0,0,1-1.29,1.89,3.83,3.83,0,0,1-.46.33.34.34,0,0,1-.48-.11.33.33,0,0,1,.09-.47A4,4,0,0,0,21.39,20a20.1,20.1,0,0,0,.9-3.49A6.85,6.85,0,0,0,21.84,13c-.33-.83-.68-1.65-1-2.48A7.62,7.62,0,0,1,20.29,8.12ZM21.08,5l-9.22,9.28h0l10-8.4Z"/><path class="bda1dd6e-bd62-4b3e-80f2-e7e0b3c5f25e" d="M10,20a7.34,7.34,0,0,0,6.71-4.36,6.67,6.67,0,0,0,.56-3.69c0-.18-.05-.35-.08-.53a.36.36,0,0,1,.7-.13A5.76,5.76,0,0,1,18,12.7c0,.42,0,.84-.09,1.25A6.75,6.75,0,0,1,17,16.6a7.79,7.79,0,0,1-5.73,3.94,7.86,7.86,0,0,1-7.08-2.28A7.42,7.42,0,0,1,2,14,7.7,7.7,0,0,1,4,7.4,7.9,7.9,0,0,1,8.61,4.94a8,8,0,0,1,2.08-.07,7.86,7.86,0,0,1,4,1.45,7.83,7.83,0,0,1,1.58,1.46.36.36,0,1,1-.55.46,7.29,7.29,0,0,0-2.53-2,7,7,0,0,0-2.66-.7A7.27,7.27,0,0,0,5.33,7.17a6.84,6.84,0,0,0-2.61,4.48A6.92,6.92,0,0,0,4.94,18a7.15,7.15,0,0,0,3.91,1.88C9.23,19.92,9.61,19.93,10,20Z"/><path class="bda1dd6e-bd62-4b3e-80f2-e7e0b3c5f25e" d="M9.65,10.28l1.17,1.14a.31.31,0,0,1,.09.2c0,.15-.19.19-.32.07l-.84-.82c-.11-.11-.21-.24-.33-.37L6.93,12.89l.75.79.37.37c.1.09.11.2,0,.27s-.18.08-.29,0l-1-1-.11-.1-1,1-.16.14a.16.16,0,0,1-.24,0,.16.16,0,0,1,0-.23,3.44,3.44,0,0,1,.27-.27l.85-.92c-.13-.14-.29-.32-.46-.49l-.68-.66a.2.2,0,0,1,0-.33l1-1s.1-.08.09-.1c-.32-.35-.64-.7-1-1L5.15,9.1a.17.17,0,0,1,0-.26.18.18,0,0,1,.26,0L6.49,9.91l.12.11.85-.82.31-.3a.29.29,0,0,1,.46,0L9.39,10l.3-.29.88-.85c.11-.1.21-.12.29,0s.07.19,0,.3Zm-.56,0L8,9.15l-1,1.1L8,11.41Zm-1.4,1.33-1.1-1.06-1,1.06,1,1.14Z"/><path class="bda1dd6e-bd62-4b3e-80f2-e7e0b3c5f25e" d="M20.15,7.06c-.35.06-.52-.11-.39-.43A1.72,1.72,0,0,1,21,5.53c.31-.08.49.11.39.42a1.52,1.52,0,0,1-.58.75l.12-.35A.27.27,0,0,0,20.75,6a.24.24,0,0,0-.33.13c-.09.23-.16.48-.23.71A1.3,1.3,0,0,0,20.15,7.06Z"/></g></g></svg>