<?xml version="1.0" encoding="UTF-8"?>
<svg id="Capa_2" data-name="Capa 2" xmlns="http://www.w3.org/2000/svg" viewBox="0 0 32 32">
  <defs>
    <style>
      .cls-1 {
        fill: #fff;
      }
    </style>
  </defs>
  <g id="Encabezadotransparente">
    <path class="cls-1" d="m28.52,0H3.48C1.56,0,0,1.56,0,3.48v25.03c0,1.92,1.56,3.48,3.48,3.48h25.03c1.92,0,3.48-1.56,3.48-3.48V3.48c0-1.92-1.56-3.48-3.48-3.48Zm-6.97,19.68c.76.76.78,1.98.04,2.72h0c-.74.74-1.96.72-2.72-.04l-3.09-3.09-3.09,3.09c-.76.76-1.98.78-2.72.04h0c-.74-.74-.72-1.96.04-2.73l3.09-3.09-3.09-3.09c-.76-.76-.78-1.98-.04-2.72h0c.74-.74,1.96-.72,2.72.04l3.09,3.09,3.09-3.09c.76-.76,1.98-.78,2.72-.04h0c.74.74.72,1.96-.04,2.73l-3.09,3.09,3.09,3.09Z"/>
  </g>
</svg>