<svg xmlns="http://www.w3.org/2000/svg" viewBox="0 0 10.18 9.39"><defs><style>.b9bd6d86-6036-4b19-a45f-810836f82ce4{fill:#b2b2b2;}</style></defs><g id="b13feb0f-5aa0-4c8c-a7f4-927e3e16f846" data-name="Capa 2"><g id="b1ad2522-267e-4f2a-8632-3f9ae923ef2e" data-name="Capa 1"><path class="b9bd6d86-6036-4b19-a45f-810836f82ce4" d="M0,6.53a.47.47,0,0,1,.5-.26c.19,0,.38,0,.57,0,.38,0,.49.11.49.5s0,.51,0,.77.08.3.3.3H8.33c.21,0,.29-.09.29-.3s0-.53,0-.79.12-.48.5-.48c.18,0,.37,0,.56,0a.47.47,0,0,1,.5.26V9.11a.44.44,0,0,1-.48.28H.48A.44.44,0,0,1,0,9.11Z"/><path class="b9bd6d86-6036-4b19-a45f-810836f82ce4" d="M4.31,4.61c0-.4,0-.8,0-1.2,0-.09-.06-.24-.12-.26a.42.42,0,0,0-.29.09c-.12.09-.22.22-.34.33a.36.36,0,0,1-.53,0c-.19-.17-.38-.36-.56-.55a.36.36,0,0,1,0-.53C3.24,1.69,4,.91,4.82.13a.36.36,0,0,1,.56,0C6.16.91,6.93,1.68,7.7,2.46a.36.36,0,0,1,0,.57c-.16.17-.33.34-.5.5a.38.38,0,0,1-.61,0,2,2,0,0,0-.29-.29A.46.46,0,0,0,6,3.16c-.06,0-.12.17-.12.26,0,.77,0,1.55,0,2.33,0,.45-.1.56-.56.56H4.77c-.32,0-.46-.14-.46-.46S4.31,5,4.31,4.61Z"/></g></g></svg>