<svg xmlns="http://www.w3.org/2000/svg" viewBox="0 0 237 205.18">
  <defs>
    <style>
      .a {
        fill: none;
        stroke: #000;
        stroke-miterlimit: 10;
        stroke-width: 12px;
      }
    </style>
  </defs>
  <path class="a" d="M231,57.21v14c-.86,3.34-1.61,6.72-2.61,10-5,16.77-15.58,30-27.86,41.89q-37.28,36.17-74.82,72.06c-5.54,5.34-8.89,5.32-14.43,0L60.57,146.33c-9-8.66-18.07-17.24-26.95-26C19.75,106.6,9.82,90.61,6,71.22v-14c.33-1.41.75-2.82,1-4.25,2.39-16.16,9.47-29.78,24-37.78,21.8-12,44.1-12.79,65.64,1.06,7.76,5,14.88,11,22.45,16.64.78-.73,1.73-1.65,2.72-2.53,17.4-15.45,36-26.89,61-23.42,21.9,3,39.66,16.87,45.61,38.25C229.48,49.13,230.14,53.2,231,57.21Z"/>
</svg>
