<svg xmlns="http://www.w3.org/2000/svg" viewBox="0 0 246.02 208.63">
  <defs>
    <style>
      .a {
        fill: #1d1d1b;
        stroke: #fff;
        stroke-miterlimit: 10;
      }
    </style>
  </defs>
  <path class="a" d="M.5,7.58V201a7.09,7.09,0,0,0,7.08,7.09H238.43a7.09,7.09,0,0,0,7.09-7.09V7.58A7.08,7.08,0,0,0,238.43.5H7.58A7.08,7.08,0,0,0,.5,7.58Zm211.56,178.2H34a7.09,7.09,0,0,1-7.09-7.09V29.93A7.09,7.09,0,0,1,34,22.85h178.1a7.08,7.08,0,0,1,7.08,7.08V178.69A7.08,7.08,0,0,1,212.06,185.78Z"/>
</svg>
