<svg xmlns="http://www.w3.org/2000/svg" viewBox="0 0 22.49 22.17"><defs><style>.b46b4df4-d6b6-4d2f-80b6-d5310283feb4{fill:#b2b2b2;}</style></defs><g id="a925c419-ae47-4694-9a8e-a62dd4671a7d" data-name="Capa 2"><g id="f369b878-7ea0-4ba3-b1ed-b9f866a72d5f" data-name="Capa 1"><path class="b46b4df4-d6b6-4d2f-80b6-d5310283feb4" d="M0,12.49c.06-.38.1-.77.18-1.14a8.87,8.87,0,0,1,5-6.46,8.68,8.68,0,0,1,8.49.28,8.74,8.74,0,0,1,4.48,6.51,9.07,9.07,0,0,1-7,10.26,8.76,8.76,0,0,1-7.53-1.69A9,9,0,0,1,.11,14.46c0-.29-.07-.58-.11-.87ZM10.75,5.06l.05,0h0a7.93,7.93,0,0,0-3.9.13.25.25,0,0,0-.12.11c-.59,1-1.18,2-1.76,3.06a.28.28,0,0,1-.28.15H2.51a.36.36,0,0,0-.34.18,7.78,7.78,0,0,0-.89,1.92c-.14.46-.23.92-.35,1.41h.78A.24.24,0,0,1,2,12.1l1.7,3a.25.25,0,0,1,0,.31c-.41.72-.82,1.44-1.24,2.15a.26.26,0,0,0,0,.34,8.33,8.33,0,0,0,2.9,2.51c.43.22.89.39,1.33.58.37-.63.71-1.22,1-1.81A.34.34,0,0,1,8,18.92h3.32a.32.32,0,0,1,.32.19c.27.48.55.95.82,1.42h.08a8.26,8.26,0,0,0,3-2.45c.09-.1.06-.17,0-.27l-1-1.82a.26.26,0,0,1,0-.31c.58-1,1.14-2,1.7-2.95a.25.25,0,0,1,.26-.14h.78a.54.54,0,0,1,0-.08A8,8,0,0,0,16,8.55a.34.34,0,0,0-.23-.09q-1.49,0-3,0a.3.3,0,0,1-.29-.17c-.55-1-1.11-1.93-1.66-2.89A1.31,1.31,0,0,1,10.75,5.06Z"/><path class="b46b4df4-d6b6-4d2f-80b6-d5310283feb4" d="M19.82,4,17.23,5.44l-.46.28c-.53.33-.53.33-1-.21l3.56-2-.08-.1A8.21,8.21,0,0,0,15.9,1.28a.26.26,0,0,0-.33.1,7.49,7.49,0,0,0-1.49,2.76L14,4.25l-.6-.32A8.18,8.18,0,0,1,15,1.07,8,8,0,0,0,8.29,2.66l.05.2L6.55,3.1A9.07,9.07,0,0,1,10.2.58a8.88,8.88,0,0,1,4.36-.5,9.15,9.15,0,0,1,7.79,7.48,9,9,0,0,1-3.7,8.94c.11-.45.22-.91.35-1.35a.59.59,0,0,1,.18-.24,8.13,8.13,0,0,0,2.31-4.47c.09-.51.1-1,.15-1.58-.46.05-.85.11-1.24.13-.65,0-1.3,0-1.95,0a.23.23,0,0,1-.18-.08c-.11-.19-.19-.39-.3-.61a14.8,14.8,0,0,0,3.58-.13A8.31,8.31,0,0,0,19.82,4Z"/><path class="b46b4df4-d6b6-4d2f-80b6-d5310283feb4" d="M9.1,16.19H7.43A.28.28,0,0,1,7.14,16L5.45,13.1a.27.27,0,0,1,0-.31c.57-1,1.13-1.95,1.69-2.93a.29.29,0,0,1,.28-.16c1.12,0,2.25,0,3.38,0a.3.3,0,0,1,.29.18c.55,1,1.11,1.94,1.68,2.9a.28.28,0,0,1,0,.34c-.56,1-1.12,1.93-1.67,2.91a.3.3,0,0,1-.3.16Z"/></g></g></svg>