<?xml version="1.0" encoding="UTF-8"?>
<svg id="Capa_2" data-name="Capa 2" xmlns="http://www.w3.org/2000/svg" viewBox="0 0 35.59 33.31">
  <defs>
    <style>
      .cls-1 {
        fill: #afafaf;
      }
    </style>
  </defs>
  <g id="pc">
    <g id="fe87adec-fb4d-4460-9eb9-9a241e4d8bd6">
      <g id="b8d7eccd-18ac-49b1-85f3-5bf41e38db7f">
        <path class="cls-1" d="m0,33.3V6.44h22.09c.69.02,1.35-.26,1.81-.78,1.62-1.59,3.32-3.11,5-4.58.59-.44,1.24-.78,1.94-1,.35-.13.74-.09,1.05.11.21.34.25.76.12,1.14-.24.62-.58,1.2-1,1.72-.95,1.21-1.92,2.41-3,3.53-.57.5-.87,1.24-.82,2,.07.82,0,1.66,0,2.7l1.63-2,3.36,3.16c-1.34,1.39-2.6,2.77-4,4.06-.73.65-1.12,1.6-1.06,2.57.06,4.41,0,8.82,0,13.24v1H0ZM25.1,9.93l-.39-.25c-.7.79-1.36,1.6-2.1,2.34-1.57,1.56-1.71,1.54-3.17-.2-.05-.05-.13-.1-.13-.16,0-.32-.13-.73,0-.95.48-.67,1.06-1.26,1.72-2H2.3v22.39h22.7v-10.79l-5.39,4.95-2.76-3,.4-.42c2.42-2.53,4.86-5,7.28-7.58.29-.26.48-.62.54-1,.07-1.1.03-2.22.03-3.33Z"/>
        <path class="cls-1" d="m29.78,8.46c.66-.58,1.38-1.19,2.07-1.84.89-.84,1.14-.86,2-.06.43.41.84.85,1.3,1.23.46.31.58.93.26,1.39-.06.08-.13.16-.2.22-.77.77-1.57,1.49-2.4,2.28l-3.03-3.22Z"/>
        <path class="cls-1" d="m18.48,11.55l2,2.53c-1.23,1-2.79,2.25-4.28,3.56-.43.37-.75.86-.91,1.4-.36,1.68-1.59,3.03-3.23,3.53-1.19.49-2.34,1.06-3.45,1.7-.68-3.24,1.39-6.42,4.64-7.11.09-.02.19-.04.28-.05.49-.1.93-.37,1.24-.76,1.28-1.55,2.46-3.16,3.71-4.8Z"/>
        <path class="cls-1" d="m13.16,28.84l2.84-5.77,3.14,3-5.84,3-.14-.23Z"/>
      </g>
    </g>
  </g>
</svg>