<?xml version="1.0" encoding="UTF-8"?>
<svg id="Capa_2" data-name="Capa 2" xmlns="http://www.w3.org/2000/svg" viewBox="0 0 19.98 31.15">
  <defs>
    <style>
      .cls-1 {
        fill: #afafaf;
      }
    </style>
  </defs>
  <g id="pc">
    <g id="babc543c-2b12-4a00-8fb2-62223ff713c4">
      <g id="ba08095e-5bcb-43b4-a7e2-0ee0ae8dbc48">
        <path class="cls-1" d="m10.02,0c3.12,3.11,6.2,6.15,9.23,9.24.97.97.97,2.55,0,3.52-.03.03-.07.07-.1.1-.99.98-2.58.98-3.57,0-1.69-1.62-3.29-3.25-4.9-4.86-.23-.27-.45-.55-.65-.84-.8.83-1.46,1.52-2.13,2.2-1.16,1.17-2.3,2.34-3.49,3.47-.99.98-2.58.98-3.57,0-1.03-.92-1.11-2.49-.2-3.52.03-.04.06-.07.1-.1C3.78,6.15,6.86,3.11,10.02,0Z"/>
        <path class="cls-1" d="m9.84,23.94l4.27-4.27c.47-.48.94-1,1.43-1.42.99-.97,2.58-.97,3.57,0,1.02.94,1.08,2.53.13,3.55,0,0,0,0-.01.01-.69.78-1.47,1.5-2.21,2.24-2.33,2.34-4.66,4.69-7.07,7.1l-5.77-5.81c-1.09-1.11-2.16-2.2-3.3-3.34-1.05-.95-1.14-2.58-.19-3.63.04-.04.08-.08.12-.12,1.03-1,2.67-.98,3.68.04.02.03.05.05.07.08,1.59,1.63,3.16,3.18,4.73,4.77.21.25.39.52.55.8Z"/>
      </g>
    </g>
  </g>
</svg>