<?xml version="1.0" encoding="UTF-8"?>
<svg id="Capa_2" data-name="Capa 2" xmlns="http://www.w3.org/2000/svg" viewBox="0 0 66.87 69.07">
  <g id="Capa_1-2" data-name="Capa 1">
    <g>
      <g>
        <path d="m55.34,59.51c-6.81,4.92-14.83,3.19-18.97-1.87-4.37-5.35-4.14-13.05.54-17.94,4.76-4.98,12.45-5.64,17.9-1.64,5.26,3.86,7.77,12.09,2.61,19.39,1.22,1.16,2.48,2.34,3.72,3.55,1.69,1.66,3.37,3.33,5.03,5.02.98,1,.91,2.2-.13,2.81-.96.56-1.68.11-2.36-.57-2.56-2.57-5.13-5.12-7.68-7.7-.28-.29-.44-.69-.67-1.04Zm1.6-10.46c.03-5.65-4.44-10.22-10.04-10.27-5.68-.05-10.31,4.48-10.33,10.11-.03,5.68,4.5,10.25,10.17,10.26,5.63.02,10.18-4.48,10.2-10.1Z"/>
        <path d="m46.36,56.84c-3.93-.09-7.35-3.55-7.46-7.54-.03-1.15.63-1.98,1.6-2.02.92-.03,1.59.67,1.7,1.8.25,2.57,1.85,4.17,4.42,4.43,1.23.13,1.86.75,1.79,1.79-.07.99-.83,1.56-2.05,1.53Z"/>
      </g>
      <g>
        <path d="m7.46,55c-3.53,0-4.97-1.43-4.98-4.97-.02-9.11,0-18.22,0-27.32,0-.64.1-1.28.17-2.06h48.96c.05.71.13,1.42.14,2.14,0,4.03,0,8.05,0,12.08h2.51c0-8.19,0-16.38-.03-24.57,0-2.92-2-5.47-4.77-5.88-2.15-.31-4.38-.06-6.77-.06,0,1.92.06,3.65-.01,5.37-.12,2.92-1.84,4.68-4.41,4.64-2.52-.04-4.23-1.88-4.32-4.77-.06-1.72-.01-3.44-.01-5.22h-13.6c0,1.87.04,3.52,0,5.17-.08,2.88-1.78,4.75-4.29,4.82-2.62.07-4.42-1.82-4.52-4.84-.06-1.65,0-3.3,0-5.33-2.11,0-3.92-.11-5.71.02C2.45,4.49.07,6.89.05,10.27c-.07,13.67-.07,27.34,0,41.02.02,3.4,2.6,6.13,5.94,6.15,8.66.05,17.32.07,25.97.06v-2.49c-8.17,0-16.33,0-24.5,0Z"/>
        <path d="m13.48,10.14c.38,1.02,1.53,2.22,2.5,2.39.66.12,2.22-1.33,2.32-2.2.31-2.68.31-5.45,0-8.14-.1-.86-1.6-2.27-2.3-2.17-.96.13-2.15,1.29-2.53,2.29-.44,1.15-.1,2.6-.1,3.92,0,1.32-.33,2.76.1,3.92Z"/>
        <path d="m35.94,10.15c.35,1.01,1.51,2.19,2.5,2.38.62.12,2.16-1.36,2.26-2.23.3-2.68.3-5.44,0-8.12-.1-.85-1.62-2.27-2.27-2.17-.96.16-2.09,1.32-2.49,2.32-.43,1.06-.1,2.43-.1,3.66,0,1.4-.33,2.91.1,4.16Z"/>
        <path d="m10.59,34.86h7.3v-7.24h-7.3v7.24Z"/>
        <path d="m23.48,34.91h7.35v-7.31h-7.35v7.31Z"/>
        <path d="m43.73,27.57h-7.27v7.3h7.27v-7.3Z"/>
        <path d="m10.58,47.99h7.28v-7.49h-7.28v7.49Z"/>
        <path d="m23.38,47.88h7.43v-7.3h-7.43v7.3Z"/>
      </g>
    </g>
  </g>
</svg>