<svg xmlns="http://www.w3.org/2000/svg" viewBox="0 0 328.96 589.59"><defs><style>.e7256a4f-a466-4004-ae98-4f3bca74cce5{fill:#fff;}</style></defs><g id="e1f0aff8-7dfe-4101-bf76-7d7931c4a5a4" data-name="Capa 2"><g id="a1231b09-5573-4af8-ae84-30183e48394a" data-name="Capa 1"><path class="e7256a4f-a466-4004-ae98-4f3bca74cce5" d="M99.66,445.57q0-68,0-136c0-9.71,1.35-8.58-8.38-8.6-28.32,0-56.65-.1-85,.1-4.66,0-6.33-1.06-6.29-6q.35-43.49,0-87c0-4.29,1.42-5.31,5.45-5.29,29.32.15,58.65,0,88,.23,5.16,0,6.39-1.52,6.38-6.5-.06-20.82-.91-41.73.78-62.43C105.37,75.88,133.5,33.17,187.5,8.92,203.29,1.82,220.32.49,237.37.35c28.66-.24,57.32-.1,86-.35,4.43,0,5.64,1.29,5.6,5.66-.25,30.5-.23,61-.33,91.48,0,6.73-.07,6.75-7.07,6.85-28.15.41-56.31.63-84.45,1.27-14,.32-19.94,5.36-22.4,19.23a153.44,153.44,0,0,0-1.82,24.36c-.25,16.32.08,32.66-.08,49,0,3.92,1.1,5.12,5.11,5.1,35-.14,70,0,105-.15,4.46,0,6.11.95,6.08,5.75q-.31,43.49,0,87c0,4.44-1.3,5.62-5.68,5.59-34.83-.17-69.65,0-104.47-.2-4.94,0-6,1.52-6,6.21q.19,137.46.1,274.93c0,7.48,0,7.48-7.62,7.48-33.32,0-66.65-.09-100,.07-4.33,0-5.7-1.05-5.69-5.55.17-46.16.1-92.31.1-138.47Z"/></g></g></svg>