<?xml version="1.0" encoding="UTF-8"?>
<svg id="Capa_2" data-name="Capa 2" xmlns="http://www.w3.org/2000/svg" viewBox="0 0 65.02 66.71">
  <defs>
    <style>
      .cls-1 {
        fill: #fff;
      }
    </style>
  </defs>
  <g id="Capa_1-2" data-name="Capa 1">
    <g>
      <g>
        <path d="m45.39,66.71c-1.17-1.67-2.32-3.35-3.5-5.02-.86-1.21-.82-1.49.36-2.37,4.3-3.18,8.59-6.36,12.88-9.54.12-.09.31-.16.35-.29.14-.42.24-.86.35-1.3-.45-.02-1-.21-1.32-.02-.99.59-1.89,1.34-2.83,2.02-.91.65-1.32.58-1.99-.3-.41-.53-.8-1.08-1.19-1.62-.5-.68-.37-1.24.29-1.73,2.33-1.72,4.66-3.46,6.99-5.18.9-.66,1.31-.59,1.98.3,2.24,3.02,4.47,6.04,6.72,9.05.16.21.37.38.55.57v2.94c-4.37,3.2-8.75,6.4-13.12,9.61-1.27.93-2.51,1.91-3.76,2.87h-2.75Z"/>
        <path class="cls-1" d="m48.14,66.71c1.25-.96,2.49-1.93,3.76-2.87,4.37-3.21,8.74-6.41,13.12-9.61v12.48h-16.88Z"/>
        <path d="m52.73,34.78c.9,1.23,1.79,2.46,2.7,3.68.48.66.44,1.23-.24,1.73-.66.49-1.33.97-1.99,1.46-.64.47-1.18.37-1.64-.26-.82-1.14-1.65-2.26-2.46-3.41-.42-.6-.33-1.14.26-1.59.7-.53,1.39-1.08,2.08-1.62.43,0,.86,0,1.28,0Z"/>
        <path d="m38.1,45.15c.18-.27.3-.59.54-.79.71-.58,1.45-1.12,2.2-1.65.63-.45,1.2-.36,1.66.28,1.98,2.75,3.96,5.5,5.93,8.25.46.64.35,1.2-.28,1.66-.71.53-1.42,1.05-2.14,1.57-.62.45-1.15.31-1.58-.28-2-2.77-4-5.54-5.99-8.32-.14-.19-.21-.43-.34-.73Z"/>
        <path d="m43.51,55.96c-.21.28-.37.62-.63.83-.66.54-1.36,1.03-2.06,1.53-.61.44-1.15.3-1.57-.29-1.98-2.75-3.96-5.5-5.93-8.25-.45-.62-.4-1.19.23-1.67.66-.49,1.32-.99,1.98-1.48.63-.46,1.2-.4,1.66.24,1.98,2.75,3.96,5.5,5.92,8.25.15.21.23.48.39.83Z"/>
        <path d="m50.63,43.17c-.16.24-.31.58-.57.8-.71.58-1.45,1.12-2.2,1.65-.57.4-1.1.32-1.52-.25-.85-1.16-1.69-2.32-2.53-3.49-.41-.57-.33-1.1.22-1.52.75-.57,1.51-1.14,2.29-1.69.49-.35,1.03-.34,1.39.14.92,1.22,1.8,2.47,2.68,3.72.1.14.13.34.24.64Z"/>
      </g>
      <path d="m34.59,4.34h-14.22v3.89h14.22v-3.89Z"/>
      <path d="m33.79,36.56c1.15-.89,2.26-1.82,3.36-2.77.32-.28.53-.69.67-.88-.05-1.16-.55-1.6-1.42-1.67-1.55-.13-3.11-.2-4.65-.41-.42-.06-.95-.44-1.13-.82-.64-1.38-1.16-2.81-1.71-4.22-.25-.64-.63-1.27-1.35-1.07-.52.14-1.11.6-1.36,1.08-.66,1.29-1.18,2.65-1.68,4.01-.27.75-.71,1.01-1.49,1.03-1.41.02-2.84.08-4.23.27-.55.08-1.23.43-1.52.88-.41.64.04,1.27.6,1.74,1.11.93,2.2,1.9,3.33,2.8.55.43.71.85.51,1.54-.41,1.39-.8,2.8-1.04,4.22-.1.58.02,1.39.38,1.81.54.64,1.3.26,1.93-.13,1.23-.77,2.48-1.51,3.68-2.32.52-.35.93-.32,1.44.02,1.23.83,2.47,1.67,3.78,2.36.51.27,1.42.41,1.8.14.39-.28.55-1.17.46-1.75-.21-1.36-.57-2.7-.96-4.02-.24-.81-.02-1.33.62-1.82Z"/>
      <path d="m52.73,34.78c.74,1.01,1.47,2.01,2.21,3.02,0-5.85,0-11.7,0-17.56,0-3.05.03-6.09,0-9.14-.05-4.33-2.61-6.83-6.93-6.84-1.27,0-2.55-.04-3.82-.04-1.78,0-1.78,0-1.88-1.76C42.21.92,41.43,0,40.21,0c-1.31,0-2.11.92-2.13,2.5-.02,1.84-.02,3.68,0,5.53.02,1.56.64,2.38,1.86,2.53,1.21.14,1.99-.52,2.39-2.03.01-.06.09-.1.17-.19,1.94,0,3.93-.06,5.91.02,1.51.06,2.22.86,2.28,2.39.03.88,0,1.77,0,2.66q0,1.45-1.42,1.45c-14.38,0-28.77,0-43.15,0-.35,0-.71-.03-1.06,0-.6.05-.82-.21-.8-.8.03-1.1-.02-2.2.02-3.29.06-1.57.8-2.36,2.38-2.41,1.94-.06,3.89-.01,5.94-.01.07.3.1.51.17.7.36,1.08,1.2,1.64,2.26,1.52,1.02-.12,1.8-.8,1.83-1.89.06-2.26.06-4.53-.03-6.8C16.77.72,15.85.01,14.75,0c-1.04-.01-1.9.78-2.05,1.92-.06.45-.08.92-.05,1.38.05.69-.2.94-.91.92-1.63-.03-3.26.03-4.89.03C2.71,4.27.06,6.72.04,10.88c-.06,12.51-.05,25.01,0,37.52.02,4.09,2.72,6.66,6.81,6.67,10.09.01,20.18,0,30.27,0-1.02-1.42-2.04-2.83-3.06-4.25-8.94,0-17.87,0-26.81,0-2.32,0-2.99-.67-2.99-2.97,0-9.46,0-18.92,0-28.38,0-.34.03-.69.05-1.08h46.31c.02.38.06.76.06,1.13,0,5.29,0,10.57,0,15.86.25-.2.5-.39.75-.58h1.28Z"/>
    </g>
  </g>
</svg>