<svg xmlns="http://www.w3.org/2000/svg" viewBox="0 0 21.31 15.36"><defs><style>.a2194635-c64b-4f44-b3a4-0d91d3b6921a{fill:#b2b2b2;}</style></defs><g id="bf5100fe-bd25-46e1-80a9-be7ee6d8029f" data-name="Capa 2"><g id="b8cade55-da62-4483-ab75-88b96004daa9" data-name="Capa 1"><path class="a2194635-c64b-4f44-b3a4-0d91d3b6921a" d="M18.09,13.48c0-.33-.08-.61-.12-.89-.11-.83-.23-1.66-.34-2.49s-.24-1.81-.34-2.71c0-.16-.08-.17-.22-.13v.59c0,2,0,4,0,6,0,.1,0,.17-.11.22a16,16,0,0,1-6,1.34H10.9A33.64,33.64,0,0,0,14.81.2a4.88,4.88,0,0,1,1.27.07,5.22,5.22,0,0,1,3.5,2.58A9,9,0,0,1,20.7,6.31c.1.86.24,1.71.35,2.57.1.7.18,1.39.26,2.09a.27.27,0,0,1-.09.21c-.54.45-1.08.92-1.64,1.34S18.62,13.14,18.09,13.48Z"/><path class="a2194635-c64b-4f44-b3a4-0d91d3b6921a" d="M3.22,13.53c-.31-.18-.59-.33-.86-.5A17,17,0,0,1,.14,11.38.37.37,0,0,1,0,11c.16-1.19.3-2.39.47-3.58A23.61,23.61,0,0,1,.87,5,7.17,7.17,0,0,1,2.43,1.91,4.86,4.86,0,0,1,6.28.18h.08c.07.62.14,1.24.22,1.85.15,1.11.28,2.21.46,3.31.21,1.25.46,2.5.72,3.75a25.15,25.15,0,0,0,1.1,3.81,8.62,8.62,0,0,0,.94,1.87c.13.19.28.37.44.57h-.16a15,15,0,0,1-4-.67c-.55-.18-1.09-.39-1.64-.59a.18.18,0,0,1-.14-.2c0-1.66,0-3.32,0-5,0-.56,0-1.11,0-1.68H4.08Z"/><path class="a2194635-c64b-4f44-b3a4-0d91d3b6921a" d="M7.78,1.47v-1A.42.42,0,0,1,8.38,0a7.82,7.82,0,0,1,1.89.85c.08.06.22,0,.33,0H11a.18.18,0,0,0,.1,0,9.69,9.69,0,0,1,2-.87.4.4,0,0,1,.52.37c0,.72,0,1.43,0,2.15a.39.39,0,0,1-.53.37,7.15,7.15,0,0,1-1.79-.78A1.14,1.14,0,0,0,10.67,2c-.46-.06-.76.29-1.14.43s-.85.33-1.28.48a.37.37,0,0,1-.46-.38c0-.36,0-.71,0-1.07Z"/></g></g></svg>