<?xml version="1.0" encoding="UTF-8"?>
<svg id="Capa_2" data-name="Capa 2" xmlns="http://www.w3.org/2000/svg" viewBox="0 0 23.86 23.84">
  <defs>
    <style>
      .cls-1 {
        fill: #848484;
      }
    </style>
  </defs>
  <g id="pc">
    <g id="fd27957a-3166-49e9-a3f7-bd3f36261569">
      <g id="e5a36656-c0bb-4239-b340-2e2f2ae5173a">
        <path class="cls-1" d="m0,23.84c.54-2,1-3.84,1.56-5.7.08-.25.06-.53-.06-.77C-1.59,11.6.59,4.42,6.36,1.33c1.07-.57,2.23-.98,3.43-1.2.76-.14,1.52.05,2.21-.08.86-.1,1.73-.05,2.57.17,4.78,1.1,8.41,4.99,9.17,9.84.94,6.51-3.58,12.54-10.08,13.47-.01,0-.03,0-.04,0-2.31.34-4.66-.03-6.75-1.06-.37-.19-.8-.24-1.2-.12-1.85.51-3.67.98-5.67,1.48Zm2.85-2.8c1.15-.3,2.15-.55,3.24-.85.33-.12.71-.07,1,.13,1.28.77,2.72,1.21,4.21,1.31,5.43.39,10.15-3.69,10.55-9.12.39-5.43-3.69-10.15-9.12-10.55C7.29,1.57,2.57,5.65,2.18,11.09c-.15,2.07.36,4.14,1.45,5.91.16.25.2.55.1.83-.3,1.06-.57,2.1-.88,3.22Z"/>
        <path class="cls-1" d="m14.74,17.46c-1.82-.28-3.52-1.08-4.9-2.29-1.5-1.2-2.71-2.72-3.54-4.45-.67-1.34-.4-2.95.66-4,.48-.53,1.3-.57,1.84-.09.15.14.27.31.34.5.17.5.38.99.62,1.46.38.53.26,1.26-.27,1.64-.55.49-.48.91-.08,1.47.9,1.29,2.14,2.31,3.59,2.94.4.17.68.16.94-.2.14-.21.36-.38.48-.6.35-.64.79-.71,1.4-.36.57.33,1.17.61,1.78.86.31.11.48.43.42.75-.02,1.43-1.22,2.38-3.28,2.37Z"/>
      </g>
    </g>
  </g>
</svg>