<?xml version="1.0" encoding="UTF-8"?>
<svg id="Capa_2" data-name="Capa 2" xmlns="http://www.w3.org/2000/svg" viewBox="0 0 111.35 96.2">
  <defs>
    <style>
      .cls-1 {
        fill: #848484;
      }
    </style>
  </defs>
  <g id="pc">
    <g id="pc-2" data-name="pc">
      <g>
        <path class="cls-1" d="m31.69,66.51h11.51c0,1.85,0,3.74,0,5.62.05,7.71,4.63,12.28,12.37,12.29,10.64.02,21.27.03,31.91,0,7.59-.02,12.23-4.62,12.25-12.19.04-15.87.05-31.75,0-47.62-.02-8.6-4.4-12.86-13.02-12.87-10.31,0-20.63-.01-30.94,0-8.09.01-12.53,4.48-12.57,12.57v4.15h-11.11C29.28,13.3,39.59.52,53.67.19c11.84-.28,23.69-.23,35.53,0,12.08.23,21.81,9.89,21.98,21.99.23,17.32.23,34.65,0,51.97-.16,12.04-10.05,21.64-22.35,21.88-11.52.23-23.05.21-34.56,0-12.95-.23-22.5-10.2-22.57-23.18-.01-2.07,0-4.14,0-6.34h0Z"/>
        <path class="cls-1" d="m26.85,56.5v14.26c-9.19-7.9-17.93-15.41-26.85-23.07,8.91-7.5,17.63-14.84,26.77-22.53v12.82h34.37v17.21c0,1.71-1.34,1.29-2.29,1.3-9.67.02-19.34,0-29.01,0h-2.99Z"/>
      </g>
    </g>
  </g>
</svg>