<svg xmlns="http://www.w3.org/2000/svg" viewBox="0 0 1233.8 1272.67"><g id="f6c47b90-00b7-4316-8f6a-10a2d6577a6b" data-name="Capa 2"><g id="b0f2fc36-0236-4370-8d6e-6a2cfa18e2ba" data-name="Capa 1"><path d="M286.16,421.89c-35.55-70.22-43.32-143.19-20.46-218.55C285.36,138.53,324,87,380,49.11,492.77-27.06,642.22-13.1,739.7,80.41,836.18,172.94,861,329.08,776,452.17c9.37,6.22,18.73,12.46,28.11,18.64q90.54,59.65,185.07,112.74c12.83,7.17,23.76,17.64,36.2,25.6,10.81,6.92,17.7,17.27,24.3,27.26,18.94,28.67,23.31,59.64,10,92.17-.69,1.67-1.38,3.35-2.17,5.25,18.15,11.49,24.5,28.52,22.36,48.9-.89,8.53-3.22,17-5.65,25.25-6.55,22.33-22.2,38.4-38.44,53.82-33.73,32-71.52,58.76-110.5,83.85-57.08,36.74-116.58,69-179.14,95.44-33.92,14.34-68.61,26.3-104.57,34.55-41.87,9.59-83,5.45-123.91-5.52-66.64-17.87-128.85-46.33-189.2-79.2a1181.08,1181.08,0,0,1-150.75-97.74c-43.85-33.38-84.05-70.3-115.49-107.36-20.55-24.23-38.61-50.1-50.91-79.64-19.82-47.63-13-92.21,15.74-134,19.86-28.9,46.45-50.72,75.53-69.72,40.8-26.65,85-46.29,130.68-62.68C250.62,433.54,268.21,427.94,286.16,421.89ZM400.69,680.54a1.72,1.72,0,0,0,.51.84c10.78,7.82,21.53,15.67,32.44,23.3a7.18,7.18,0,0,0,5.16.82c25.26-5.81,50.6-11.36,75.69-17.87,12-3.11,23.51-8.12,35.82-12.47,4,10.34,8,20.66,12.07,31.34a451.11,451.11,0,0,1-76,24.13c-.06.61-.13,1.23-.2,1.84l57.49,16.06c-2.34,10.51-4.74,21.28-7.19,32.24-1.39-.18-2.2-.23-3-.39-35.48-7.08-69.3-18.74-101-36.3a11.36,11.36,0,0,0-7-1.27c-22.92,4.27-45.61,9.46-67.31,18.28-2.52,1-5,2.23-7.45,3.35l0,1.77,57.76,16.14c-2.4,10.68-4.82,21.46-7.24,32.26-28.61-5.35-55.65-13.39-81.35-25.54-3.63-1.71-6-1.54-8.73,1.33-4.79,5.09-10.08,9.74-14.63,15-5.7,6.63-10.87,13.72-16.64,21.08,35.63,19.42,72.59,31.91,111.88,39.43-2.54,11.35-4.94,22.11-7.39,33.11a417,417,0,0,1-115.3-39.35c-1.64,22.56,4,42.15,15,60.45a42,42,0,0,0,16.32,15.58c30.68,16.71,60.88,34.33,91.93,50.33a673.7,673.7,0,0,0,112.72,45.67c1.59.49,3.25.79,6,1.43-9.31-16-13.1-32.25-13.64-49.27-1.09-34.44,14.49-60.48,41.55-80.3,28.53-20.89,61.63-30.68,95.42-39.09,24.17-6,48.37-12.39,71.87-20.58,47.94-16.69,92.9-39.9,136.09-66.47,52.09-32,101.07-68.14,143.66-112.34,7.69-8,14.84-16.49,22.43-25-15.32-15.23-32.6-25.86-50.2-35.2l-37.68,39.41,15,9.17-17.47,29.11c-7.89-4.73-15.27-9.25-22.78-13.55-1.16-.66-3.39-1-4.32-.31-12.27,8.78-24.4,17.76-36.86,26.9l13.83,8.56-17.45,29.1c-9.25-5.54-18-11-27-16a7.67,7.67,0,0,0-6.14-.13c-10.29,5-20.4,10.3-30.92,15.69l-15.33-30.44L786,694.89c-1.44-1-2.18-1.59-3-2.07-13.86-8.3-28.3-15.77-41.4-25.12-9.94-7.09-17.78-7.58-27.85-.57-8.74,6.08-19,10-28.74,15l-15.17-30.41,24-12.38-41.54-25,17.59-29.12c14,8.39,27.35,16.46,40.77,24.48,5.56,3.32,11.24,9.13,16.79,9s10.92-6.18,16.38-9.64c.56-.36,1.14-.69,1.68-1.08l21.73-15.88-47.34-28.5c6.07-10,11.8-19.49,17.6-29.09l57.79,34.63L832.56,530l-78-51c-23.29,25.7-49.71,46.84-80.18,62.63-68.82,35.66-140.77,42.94-215.07,21.4C396.75,544.93,346.49,508.51,308,456c-2.27-3.09-4.26-3.71-7.85-2.49-22.35,7.6-45,14.33-67.13,22.57-42.86,15.95-84.1,35.29-121.65,61.77-24.85,17.53-47.2,37.6-62.58,64.29-13.12,22.77-18.42,47-12.06,73,5.39,22,16.48,41.34,29.23,59.77,17.14,24.75,37.45,46.78,59,67.73,7.94,7.73,16.21,15.11,25.26,23.51,0-3.1-.14-4.86,0-6.6.88-9.09,1.59-18.21,2.85-27.25.7-5,4.31-10.48,3.06-14.69-1.35-4.53-7.06-7.66-10.49-11.72-11.78-13.93-23.39-28-35.36-42.37l27.83-19.86,35.41,42.95,34.83-37.3-30.05-38,27.42-19.65,31.71,38.49c29.34-16.72,60.31-24.69,92.14-31.24l-15.61-21.76,27-19.35c8.51,10.41,16.7,20.25,24.68,30.27,2.17,2.73,4.37,3.46,7.7,2.59,23.16-6.05,46.36-11.94,69.52-18,4.25-1.11,8.39-2.64,12.73-4,3.66,11,7.11,21.33,10.92,32.74ZM540.24,33.9c-141.17.89-254,114.77-253.12,255.74C288,429.17,403.91,543.57,545.66,540.83c134.61-2.59,250.58-113.73,248.11-258.11C791.41,145.05,679.22,34.48,540.24,33.9Zm488.61,635.26a16,16,0,0,0-1.83,1.42c-27.37,31.87-58.71,59.47-92,84.89A864.34,864.34,0,0,1,754.76,861.68c-40.13,17.44-81.83,29.69-124.51,39.13-25.46,5.63-49.79,14.76-71.09,30.46-20.48,15.11-30.62,34.5-27,60.79,4,29.44,33.59,56.85,62.24,55.19a279.91,279.91,0,0,0,41.5-5.42c45.37-9.57,88-27.11,129.85-46.55a1197.7,1197.7,0,0,0,153.38-85.53c35.52-23.35,70.18-47.85,100.34-78.14,13.4-13.45,23.06-28.84,26.12-47.8,1.14-7,2.34-14.41-4.39-19.81-2.22-1.78-4-2-6.29.58-20.36,22.8-43.11,43.07-67.15,61.88-63.67,49.81-133,90.25-206.8,122.94-43.29,19.16-87.67,35.18-134.17,44.78-10.7,2.21-21.51,3.88-32.74,5.88-1.89-11.57-3.66-22.46-5.46-33.51a23.65,23.65,0,0,1,2.83-.75c39.3-5.35,77.06-16.48,114-30.53,56.64-21.53,110.48-48.77,162-80.63,45.15-27.91,88.29-58.58,126-96.15,11.05-11,21.85-22.62,30.63-35.42C1035.21,706.76,1036.15,688.31,1028.85,669.16ZM825.73,587.5c20.34,12.22,40.55,24.43,60.9,36.4,1.24.72,4.22.09,5.4-1,8.33-7.65,16.48-15.51,24.53-23.47,3.73-3.69,7.1-7.75,10.73-11.76l-65.74-39.47Zm-437.56,128c-9.92-8.64-19.75-17.3-29.75-25.77-1-.86-3.13-1-4.58-.67-15.48,3.19-31.09,5.91-46.33,10-14.36,3.85-28.33,9.16-42.47,13.83l-.21,2c.85.52,1.71,1,2.53,1.56,13.55,9.36,27.13,18.66,40.6,28.12,3,2.13,5.34,1.58,8.49,0,13.37-6.65,26.72-13.43,40.5-19.12C367,721.26,377.75,718.74,388.17,715.49ZM233.54,733.87c-12.79,10.2-24,22.5-34.51,37.26l50.48,38.33,32.62-39.67Zm526.9-94.26c19.68,11.81,38.89,23.39,58.21,34.78,1.16.69,3.6.39,4.81-.4,11.8-7.8,23.48-15.78,35.17-23.75a14,14,0,0,0,2-2.1L798.7,611ZM185.27,804.68a13.4,13.4,0,0,0-.44,1.79c-2.74,20.19,1.93,38.93,11.23,56.74a9.39,9.39,0,0,0,2.75,2.8c5.4,4.16,10.8,8.32,16.3,12.35,7.06,5.18,14.22,10.25,22.08,15.9-2.95-15.16-4.14-29.46-1.27-43.61,1.37-6.81,0-10.26-6-14.19C214.75,826.6,200.37,815.55,185.27,804.68Z"/><path d="M1120.26,1250.94v5.61l1,.32,3.76-7c1,3.68,1.58,6.1,2.34,9.06-2.39.89-6.38,2.27-.63,4.78l-6.41,8.51c-.19-2.6-.33-4.54-.47-6.48l-1.11-.3-3.28,7.28-2.79-9.3,3.83-2.39-3-2.3c2.11-3,3.93-5.47,5.74-8Z"/><path d="M1187.51,1251c.72,5.09,1.38,9.74,2,14.39l1.12-.38-4,7.19c-.9-2-1.61-3.59-2.52-5.6h-7.49C1176.54,1261.32,1183.77,1251.3,1187.51,1251Z"/><path d="M1163.41,1269.6l6.61-3.87c-3.19-1.51-6.43-2.18-8.19-4.17-1.25-1.41-1.14-4.77-.51-6.93a5.83,5.83,0,0,1,9.32-2.75c3.77,2.95,3.73,7.17,3.07,11.36-.6,3.81-2.25,7-6.44,7.9a15.36,15.36,0,0,1-4.08-.24C1163.27,1270.47,1163.34,1270,1163.41,1269.6Zm8.35-12-5-3.85c-.92,1.34-2.7,2.78-2.55,4,.17,1.41,2,2.61,3.15,3.91C1168.57,1260.51,1169.74,1259.43,1171.76,1257.56Z"/><path d="M1197.94,1257.2c6.71.87,8.58,2.62,8.47,7.57-.08,3.93-2,6.41-5.89,6.7s-6.46-1.63-7.13-5.78c3.56-2,5.36,6.73,9.09,1.19,2-2.91,0-6.47-3.39-6.2a41,41,0,0,0-5,1.1c.32-3.94.59-7.31.87-10.83h11C1205.9,1256.89,1197.05,1250.2,1197.94,1257.2Z"/><path d="M1129.24,1256.57c.64-4.65,3.39-6.62,7.47-5.76,3.63.77,5.35,3.77,4.44,7.54-.3,1.23-.76,2.72-.34,3.78,1.77,4.46.63,7.83-3.39,9.1s-7.43-.77-8.91-6.39a26.21,26.21,0,0,0,3.88,2.36,10.37,10.37,0,0,0,4.41.8c.57-.06,1.62-2.26,1.31-2.69a11.55,11.55,0,0,0-3.41-2.69,17.69,17.69,0,0,0-2.69-1.11c1.49-3,8.39-1.48,5.61-6.37S1132.58,1257.27,1129.24,1256.57Z"/><path d="M1148.18,1257.46c8,.42,9.94,2.09,10,7.16.06,3.48-1.51,6.38-4.71,6.47-2.43.07-6.69-1.77-7.06-3.43a27,27,0,0,1,.43-12.79c.91-3.13,4.4-4.69,9.5-3.57Zm8.28,6.88c-2.17-1.69-3.55-3.57-4.72-3.45s-3.38,2.31-3.23,3.29c.25,1.6,2,3,3.19,4.42Z"/><path d="M1207.86,1264.78c2.21,1,3.2,1.54,4.24,1.92a15.74,15.74,0,0,0,4.66,1.31c.45,0,1.65-2.65,1.28-3.11-.86-1.09-2.44-1.63-3.77-2.33a28.68,28.68,0,0,0-3.28-1,29.84,29.84,0,0,0,3.87-2,14.14,14.14,0,0,0,3.17-3.15c.24-.36-.83-2.27-1.27-2.26a12.78,12.78,0,0,0-4.36,1,11.27,11.27,0,0,0-2.4,1.79l-1.41-1.15c1.1-1.45,2-3.84,3.33-4.16a11.41,11.41,0,0,1,7.36.61c1.27.67,2.18,3.86,1.75,5.52a8,8,0,0,0,.49,6.18c1.49,3.19-.5,5.73-3.65,7C1214,1272.64,1210.57,1270.91,1207.86,1264.78Z"/><path d="M1233.8,1271.62c-5.24-.5-3-4.35-3.29-6.67a78.31,78.31,0,0,1-.09-9.1h-4.55a6.66,6.66,0,0,1-.39-.78c2.51-1.67,5-3.31,8.32-5.43Z"/><path d="M551.75,60.28c8.38,8.49,16.17,16.39,24.26,24.61L564.78,95.2l23.91,23.72,44.06-44.67L657.2,99.31l-45.07,44.2,24,23.46,44-44.68,24.58,24.48L660,190.71l24.7,24.17c14.4-14.57,29.36-29.69,44.24-44.73l23.9,24.18-44.81,44.43,24.79,24.63c3.1-3.85,6.51-8.1,9.84-12.22l24.84,24.91-13.57,11,14,11.54L743,323l-9.81-11.92-24.7,24.76c14.81,14.5,30.07,29.46,45.25,44.34l-24.51,24.27L685,358.88l-24.35,24.25,45.38,44.32-24.92,24.17-43.88-44.39-23.92,24.29,44.76,44.11L633,499.68,588.93,455l-23.5,24.13L576.5,489.5,551.2,514l-10.3-13.1-11.36,14-24.82-25,11.89-10-24.25-24.61-45,45.36-23.66-24.44L468.43,432,444,407.86,400.2,453.07l-24.42-25.26,44.68-44-24.11-24.27-44.77,45.17c-8-8.17-15.79-16.1-23.94-24.39l45.12-44.43-24.52-23.54-9.34,10.95c-8.82-8.82-16.74-16.76-25.1-25.13l11.6-10.9-12-10.89,24.84-24.71,9.33,12.07,24.57-24.63-44.83-44.49,24-23.79,43.82,44.77,24.42-24.65-44.89-44.11,24.44-24L443.56,168l24.88-24.71L423,98.86l24.29-24.28,44.54,45.13,24.72-24.43L504.18,85.13,529,60.61l11.08,12.66Zm59.48,323.13-22.9-23.18-22.81,22.55L588.79,406Zm48.13-48.52-23-22.4c-7.78,7.58-15.57,15.19-23.23,22.67l23.08,23ZM467.13,239.83l-22-22.6-23,22.62,22.58,22.76Zm25.71,24.66-23.11,22.83,22.9,23,23.18-22.87Zm70.78-25.19-22.75-21.79-22.74,22.37,22.21,22.66ZM706.4,288l-22.1-22.57L661.62,287l22.5,23.19Zm-143,143-23-23.21-22.74,23,23,23.14Zm-.2-95.07L540.5,312.8c-7.6,7.48-15.38,15.11-22.66,22.27l22.93,23.05Zm25.2-166.79-23,22.73,23.08,22.88L611,191.91ZM422.3,334.84,444.78,358,468,335.39l-23.12-23.2Zm-47.69-48.12,22.09,23.21,22.61-22.06L396.77,264.5Zm143-142.79,22.83,22.66,22.76-22.24-23-23.22Zm-47.15,47.22L493,214.52,515.61,192l-23.12-23Zm94.93,96,22.91,23.14,22.48-22.51L588.06,265Zm-72.87,119,23.12-22.95Q504.11,371.63,492.5,360l-23.05,23ZM658.85,240l-22.8-23-22.4,22.2,22.64,23Z"/></g></g></svg>