<svg xmlns="http://www.w3.org/2000/svg" viewBox="0 0 621.78 621.9">
  <path d="M152.85,621.9c-14.78-.65-27.61-5.95-37.84-16.71Q62.33,549.77,9.86,494.13c-13.56-14.37-13-32.11,1-46.12Q201.72,257.16,392.55,66.28q27.57-27.57,55.14-55.13c14.43-14.48,32.08-14.93,46.87-.93,35.35,33.42,70.54,67,106,100.3,8.83,8.28,16.23,17.26,19.26,29.12,5.31,20.75-.53,38.43-15.46,53.37Q536.18,261.25,468,329.44,330.1,467.28,192.26,605.13C181.33,616.06,168.18,621.41,152.85,621.9ZM46,441.92a14.43,14.43,0,0,0-1.48,1l-17,16.95c-9.8,9.79-9.84,13.35-.17,23.55Q77.43,536.21,127.49,589c15.56,16.46,35.27,17.06,51.27,1.07q205.8-205.71,411.53-411.5c15.61-15.62,15.25-35.47-.7-50.6q-42.06-39.93-84.16-79.81C496.84,40,488.28,31.86,479.6,23.82c-4.9-4.54-10.4-5.12-14.82-1-7.74,7.26-15,15-23.25,23.24a41,41,0,0,1,4.15,3.2c8.06,8,16.14,15.91,24.05,24,4.48,4.6,4.57,10.71.61,14.76s-10.09,4-14.73-.45C450,82.19,444.52,76.55,439,71c-3.68-3.78-7.26-7.66-10.11-10.66L394.82,93.75,452.88,152c3.3,3.31,7.23,6.21,9.66,10.06,1.74,2.73,2.77,7.27,1.69,10.05s-5.07,5.74-8.05,6-7.09-1.8-9.47-4.12c-18.12-17.7-35.95-35.69-53.83-53.63-4.21-4.22-8.3-8.57-11.81-12.2l-34.28,33.64c8.28,8.15,16.73,16.43,25.13,24.75,6.78,6.71,7.63,12.31,2.69,17.22-4.69,4.67-10.2,3.74-16.78-2.9-8.41-8.49-16.8-17-24.72-25l-33.95,34c5.57,5.41,11.6,11.14,17.49,17q24.6,24.54,49.09,49.19c5.31,5.34,5.43,11.56.49,15.68-4.22,3.52-9.88,3.13-14.37-1.29q-16-15.81-31.83-31.8c-11.75-11.8-23.46-23.63-34.95-35.21L251.46,237c8.12,8.15,16.43,16.55,24.78,24.9,6.5,6.49,7.64,12.68,3.1,17.28s-10.84,3.69-17.28-2.82c-8.39-8.5-16.77-17-24.37-24.74L203.77,285l38.66,38.7c9.42,9.43,18.82,18.89,28.29,28.27,3.18,3.14,4.68,7.18,2.74,10.86-1.5,2.87-5,6.14-7.87,6.45-3.15.33-7.41-1.77-9.86-4.17-21.08-20.63-41.86-41.57-62.73-62.42-1.27-1.27-2.61-2.49-3.42-3.25L156,332.53c1,1,2.1,2.25,3.27,3.42,8,8,16,16,24,24.1,2.84,2.89,4.31,6.24,3,10.44-1.27,3.89-4,6.84-7.8,6.66-3.46-.17-7.62-1.56-10.07-3.89-9.15-8.68-17.73-18-26-26.46L107.73,381c1.6,1.34,3.51,2.72,5.16,4.36q30.63,30.51,61.22,61.1c2.94,2.93,5.76,6.33,4.19,10.47a14.84,14.84,0,0,1-6.4,7.5c-4,2-8,.33-11.27-2.94q-16.35-16.51-32.81-32.94l-33.93-34L60.27,428c1,1.1,2.27,2.45,3.55,3.72,7.68,7.65,15.44,15.21,23,23a16.31,16.31,0,0,1,3.92,6.2,9.42,9.42,0,0,1-4.86,11c-4.53,2.25-8.77,1.53-12.35-2.07C64.38,460.6,55.28,451.33,46,441.92Z"/>
</svg>
