<svg xmlns="http://www.w3.org/2000/svg" viewBox="0 0 17.93 18.81"><defs><style>.bfe558e3-0624-47a8-a70c-e55e7d11d862{fill:#b2b2b2;}</style></defs><g id="bf5b1af8-47e7-4534-ab4b-eb9461cddb4c" data-name="Capa 2"><g id="af94a26b-b370-43a7-a71f-e0852d152bba" data-name="Capa 1"><path class="bfe558e3-0624-47a8-a70c-e55e7d11d862" d="M9.52,18.81H8.45c-.37,0-.74-.09-1.1-.17A7.9,7.9,0,0,1,2,14.72a.55.55,0,0,0-.32-.28,2.24,2.24,0,0,1-.93-.66,2.8,2.8,0,0,1-.25-3.43A.61.61,0,0,0,.57,10c0-1.22,0-2.45,0-3.67a3.1,3.1,0,0,1,.83-2.16A3.52,3.52,0,0,1,3,3.27a.41.41,0,0,0,.21-.2,4.2,4.2,0,0,1,1.1-1.38A7.1,7.1,0,0,1,7,.3,7.84,7.84,0,0,1,9.89,0a9,9,0,0,1,2.64.74,9,9,0,0,1,4,3.22,4.67,4.67,0,0,1,.85,2.73c0,1.07,0,2.14,0,3.21a.82.82,0,0,0,.13.46,2.79,2.79,0,0,1-1.24,4.07.53.53,0,0,0-.22.2c-.27.38-.5.8-.79,1.16a7.86,7.86,0,0,1-4.77,2.84C10.14,18.73,9.83,18.77,9.52,18.81ZM14.91,8.13l-.34.41c-.33.33-.65.66-1,1a.25.25,0,0,1-.26.05c-.06,0-.09-.15-.1-.24a2.11,2.11,0,0,1,0-.25,1.66,1.66,0,0,0-.4-1.32,11,11,0,0,1-1.15.73,7.3,7.3,0,0,1-4.07.61C7.54,9.09,7.41,9,7.4,9a.37.37,0,0,1,.11-.28,2.2,2.2,0,0,0,.64-2.17A2.66,2.66,0,0,0,6.81,7,3.94,3.94,0,0,0,5.42,8.76.33.33,0,0,1,5.07,9a2.32,2.32,0,0,1-1-.27,2.79,2.79,0,0,1-.92-.83,10.64,10.64,0,0,0-.49,2.93,1.05,1.05,0,0,0-.94,1.28,1,1,0,0,0,.4.68.84.84,0,0,0,.86.12,6.2,6.2,0,0,0,6,4.21,6.22,6.22,0,0,0,6-4.2.92.92,0,0,0,1.21-.73,1.06,1.06,0,0,0-.89-1.37A10.84,10.84,0,0,0,14.91,8.13Z"/><path class="bfe558e3-0624-47a8-a70c-e55e7d11d862" d="M10.86,10.42a.94.94,0,0,1,1.87.05.94.94,0,0,1-1,.92A1,1,0,0,1,10.86,10.42Z"/><path class="bfe558e3-0624-47a8-a70c-e55e7d11d862" d="M7.07,10.45a.94.94,0,1,1-1.87,0,.93.93,0,0,1,.94-.93A1,1,0,0,1,7.07,10.45Z"/><path class="bfe558e3-0624-47a8-a70c-e55e7d11d862" d="M9,12.55a7,7,0,0,1,.79.19A.37.37,0,0,1,10,13a.37.37,0,0,1-.23.26,2,2,0,0,1-1.58,0c-.1,0-.23-.17-.22-.25a.38.38,0,0,1,.22-.26C8.42,12.66,8.69,12.62,9,12.55Z"/></g></g></svg>