<svg xmlns="http://www.w3.org/2000/svg" viewBox="0 0 19.13 24.04"><defs><style>.e1b9f99b-8423-454c-9742-4efc2cb96fea{fill:none;stroke:#b2b2b2;stroke-miterlimit:10;}.b2f0854f-6984-427f-90ae-fb0e5af812ce{fill:#b2b2b2;}</style></defs><g id="a1ad4762-d4fd-4196-a366-343527871df8" data-name="Capa 2"><g id="e4959291-6a87-43ad-9d28-d1466c76bd99" data-name="Capa 1"><path class="e1b9f99b-8423-454c-9742-4efc2cb96fea" d="M18.21,10.6C15.43,11,13,10,10.55,8.9,9.35,8.33,8.15,7.79,7,7.19a4,4,0,0,0-3.77,0c-.28.14-.56.27-.83.42C1,8.32,1,8.32.89,9.81a2,2,0,0,1,0,.24,42.84,42.84,0,0,0-.34,5.67A7.86,7.86,0,0,0,5.7,22.9a11.77,11.77,0,0,0,5.46.54,7.89,7.89,0,0,0,7.29-6.65A17.72,17.72,0,0,0,18.21,10.6Z"/><path class="e1b9f99b-8423-454c-9742-4efc2cb96fea" d="M13.16,9.16a15.24,15.24,0,0,0,1.63.48,8.42,8.42,0,0,0,3.52.12c-.28-1.37-.47-2.68-.81-3.94a6.69,6.69,0,0,0-1.07-2.29,8.35,8.35,0,0,0-2-1.78A9.16,9.16,0,0,0,8.58.54a7.45,7.45,0,0,0-7,5.56c-.12.37-.18.76-.29,1.23l1.32-.69A5,5,0,0,1,7.4,6.53c.5.27,1,.49,1.55.74a38.67,38.67,0,0,0,4.21,1.89"/><path class="b2f0854f-6984-427f-90ae-fb0e5af812ce" d="M9.49,21.89a15.11,15.11,0,0,1-1.43-.77C7.94,21,8,20.71,8,20.5c.2,0,.46-.05.6.05a1.51,1.51,0,0,0,2,0c.21-.17.47-.29.62,0a.68.68,0,0,1-.12.62,2,2,0,0,1-1.54.61Z"/><path class="b2f0854f-6984-427f-90ae-fb0e5af812ce" d="M9.79,20.19c-1-.19-2.22-.11-3.19-.92-.29-.24-.71-.42-.43-.87s.65-.2,1,0a4.27,4.27,0,0,0,4.36.36,8.89,8.89,0,0,0,.79-.45c.28-.17.54-.23.75.09s0,.55-.2.74A4.87,4.87,0,0,1,9.79,20.19Z"/><path class="b2f0854f-6984-427f-90ae-fb0e5af812ce" d="M5.63,14.85a1.15,1.15,0,0,1-1.12-1.16,1.17,1.17,0,0,1,1.15-1.13A1.18,1.18,0,0,1,6.8,13.75,1.16,1.16,0,0,1,5.63,14.85Z"/><path class="b2f0854f-6984-427f-90ae-fb0e5af812ce" d="M12.38,13.84a1.14,1.14,0,1,1,2.28.11A1.19,1.19,0,0,1,13.47,15,1.17,1.17,0,0,1,12.38,13.84Z"/></g></g></svg>