<svg xmlns="http://www.w3.org/2000/svg" viewBox="0 0 18.36 23.05"><defs><style>.ee227dbf-0727-48c2-931a-db42b8bb4a0a{fill:#b2b2b2;}</style></defs><g id="b636dd56-b075-4960-98ba-9f9e3b92b65d" data-name="Capa 2"><g id="e50c59f8-5e05-4085-8c32-5b972c4e00b3" data-name="Capa 1"><path class="ee227dbf-0727-48c2-931a-db42b8bb4a0a" d="M6.48,9.44a6.44,6.44,0,0,1,6.12,4.38c.07.2.12.39-.07.54a.44.44,0,0,1-.58,0l-.23-.16a1.78,1.78,0,0,0-2.23,0,2.07,2.07,0,0,0-.51.62c-.08.13-.11.3-.18.43a.5.5,0,0,1-.82.18,3.05,3.05,0,0,0-.65-.43,1.83,1.83,0,0,0-2.26.87c-.06.13-.11.25-.17.37-.23.46-.52.53-.89.19a1.79,1.79,0,0,0-2.07-.3A1.63,1.63,0,0,0,1,17.1a.93.93,0,0,1-.24.42c-.25.2-.56.06-.63-.28a6.2,6.2,0,0,1,.24-3.49A6.43,6.43,0,0,1,6.48,9.44Z"/><path class="ee227dbf-0727-48c2-931a-db42b8bb4a0a" d="M.83,23.05a2.59,2.59,0,0,1,.86-1.32A6.88,6.88,0,0,1,4.5,20.4c.75-.2,1.53-.31,2.3-.46l.37-.07L6,15.32l.7-.17,1.2,4.67c.22,0,.46,0,.7,0a17.22,17.22,0,0,1,7.11,1.05,7.79,7.79,0,0,1,1.43.82,2.54,2.54,0,0,1,.95,1.39Z"/><path class="ee227dbf-0727-48c2-931a-db42b8bb4a0a" d="M14.34,2.05a2,2,0,1,1-2,2A2,2,0,0,1,14.34,2.05Z"/><path class="ee227dbf-0727-48c2-931a-db42b8bb4a0a" d="M14.64,1v.56c0,.24-.11.41-.38.4s-.35-.16-.35-.39c0-.38,0-.77,0-1.15a.35.35,0,0,1,.36-.4.35.35,0,0,1,.36.38C14.65.58,14.64.78,14.64,1Z"/><path class="ee227dbf-0727-48c2-931a-db42b8bb4a0a" d="M17.38,4.35c-.19,0-.37,0-.56,0s-.41-.11-.4-.38.17-.34.4-.34H18a.34.34,0,0,1,.38.36c0,.24-.16.35-.38.36S17.58,4.35,17.38,4.35Z"/><path class="ee227dbf-0727-48c2-931a-db42b8bb4a0a" d="M13.48,1.94c-.12.14-.19.29-.3.33a.42.42,0,0,1-.38-.1A9.32,9.32,0,0,1,12.11,1a.45.45,0,0,1,.11-.38.46.46,0,0,1,.39,0C12.91,1,13.18,1.46,13.48,1.94Z"/><path class="ee227dbf-0727-48c2-931a-db42b8bb4a0a" d="M12.53,2.78c0,.35-.25.53-.5.4s-.75-.41-1.11-.64a.32.32,0,0,1-.11-.49.32.32,0,0,1,.46-.12q.56.3,1.08.63C12.45,2.61,12.5,2.74,12.53,2.78Z"/><path class="ee227dbf-0727-48c2-931a-db42b8bb4a0a" d="M15.67,5.78a1,1,0,0,1,.25.22c.2.32.39.66.58,1a.34.34,0,0,1-.11.51.33.33,0,0,1-.5-.15c-.21-.34-.41-.68-.6-1A.37.37,0,0,1,15.67,5.78Z"/><path class="ee227dbf-0727-48c2-931a-db42b8bb4a0a" d="M12.13,7.28a4,4,0,0,1,.19-.37l.49-.86c.12-.2.28-.29.5-.17a.34.34,0,0,1,.13.51,11,11,0,0,1-.62,1,.49.49,0,0,1-.42.14C12.29,7.55,12.21,7.37,12.13,7.28Z"/><path class="ee227dbf-0727-48c2-931a-db42b8bb4a0a" d="M16.34,3.14c-.06-.07-.21-.15-.24-.26a.45.45,0,0,1,.1-.38,10.2,10.2,0,0,1,1.16-.66.47.47,0,0,1,.42.14.45.45,0,0,1,0,.41c-.4.27-.82.49-1.24.73Z"/><path class="ee227dbf-0727-48c2-931a-db42b8bb4a0a" d="M17.59,6.23a1.83,1.83,0,0,1-.29-.12c-.32-.17-.63-.36-.95-.54s-.32-.28-.19-.51a.35.35,0,0,1,.54-.12c.33.19.68.36,1,.58a.54.54,0,0,1,.18.42C17.85,6.05,17.68,6.14,17.59,6.23Z"/><path class="ee227dbf-0727-48c2-931a-db42b8bb4a0a" d="M11.17,6.36c-.14-.12-.3-.2-.33-.31a.45.45,0,0,1,.09-.38A10.75,10.75,0,0,1,12.12,5a.38.38,0,0,1,.37.11c.07.09.09.34,0,.38C12.1,5.79,11.64,6.06,11.17,6.36Z"/><path class="ee227dbf-0727-48c2-931a-db42b8bb4a0a" d="M15.57,2.25c-.33,0-.51-.26-.39-.5S15.6,1,15.83.63a.32.32,0,0,1,.46-.11.32.32,0,0,1,.15.46c-.2.38-.42.75-.65,1.11C15.74,2.18,15.62,2.22,15.57,2.25Z"/><path class="ee227dbf-0727-48c2-931a-db42b8bb4a0a" d="M11.26,3.74h.59a.34.34,0,0,1,.38.36.34.34,0,0,1-.37.35H10.65a.33.33,0,0,1-.36-.35.33.33,0,0,1,.35-.36C10.84,3.73,11.05,3.74,11.26,3.74Z"/><path class="ee227dbf-0727-48c2-931a-db42b8bb4a0a" d="M14,7.1c0-.2,0-.4,0-.59s.11-.37.34-.37.36.13.37.37V7.73a.36.36,0,0,1-.71,0c0-.2,0-.41,0-.62Z"/><path class="ee227dbf-0727-48c2-931a-db42b8bb4a0a" d="M4.48,9.37c-.14-.46-.08-.68.18-.74s.4.09.49.57Z"/></g></g></svg>