<svg xmlns="http://www.w3.org/2000/svg" viewBox="0 0 289.18 289.1">
  <g>
    <path d="M156.45,229.05v19.1H130.74v-18c-8.9-1.53-17.29-2.58-25.47-4.52-6.1-1.46-11.93-4.06-17.87-6.19-2.14-.76-3.07-1.86-2.33-4.5,2.56-9.11,4.78-18.3,7.14-27.51,7.49,2.7,14.62,5.79,22.05,7.83,11.63,3.19,23.51,4.82,35.48,1.53,6.87-1.89,12.27-5.64,13.48-13.14,1.17-7.22-2.19-12.94-8.22-16.37-6.6-3.75-13.8-6.47-20.71-9.71-9.75-4.59-20.11-8.27-29.1-14.06-27.91-18-23.92-56.45.58-72.38,7.68-5,16.61-8,25.87-12.37V40.46h26c0,4.15.25,8.25-.06,12.31-.33,4.29.89,5.63,5.55,6.34,10.29,1.56,20.4,4.34,30.51,6.92,1.14.29,2.75,2.68,2.51,3.73-2.09,9.2-4.55,18.32-7,27.74-13.6-6.35-27.38-9.89-42-8.91a36.36,36.36,0,0,0-11.6,2.54c-10,4.19-12,16.26-3.26,22.45,7.23,5.11,15.75,8.43,23.81,12.33,9.11,4.41,18.79,7.83,27.45,13,29.59,17.57,27.11,61.62-1.09,78.57C174.64,222.18,165.65,225,156.45,229.05Z"/>
    <path d="M156.86,289.1c0-9.32-.14-18.63.18-27.92,0-1.12,2.4-2.91,3.87-3.13a112.09,112.09,0,0,0,49.55-20c26.11-18.81,42-44.13,47.13-76,.51-3.15,1.31-4.64,4.86-4.54,8.8.25,17.6.08,26.42.08C284.89,224.83,226.24,285.07,156.86,289.1Z"/>
    <path d="M131.05,0V30.19c-56.69,10.9-90.39,44.5-101,101.32H.25C2.72,72.45,54.16,6.69,131.05,0Z"/>
    <path d="M158.41.07C226,5.9,283.15,61.33,289.18,131.72H266.94c-8.19,0-8.19,0-9.83-7.94C247,74.67,211.42,40.16,162.06,31.41c-1.32-.23-3.47-1.59-3.49-2.46C158.31,19.34,158.41,9.72,158.41.07Z"/>
    <path d="M129.59,258.81v30.24C58.74,282.68,4.3,222.77,0,157.92H30.07C40.41,213.75,73.47,247.32,129.59,258.81Z"/>
  </g>
</svg>
