<?xml version="1.0" encoding="UTF-8"?>
<svg id="Capa_2" data-name="Capa 2" xmlns="http://www.w3.org/2000/svg" viewBox="0 0 68.97 56.77">
  <g id="Capa_1-2" data-name="Capa 1">
    <g>
      <g>
        <path d="m68.97,53.22c-2.69.87-5.37,1.74-8.06,2.6-.93.3-1.86.61-2.92.95-1.29-3.81-2.54-7.53-3.89-11.53,1.98.96,3.7,1.79,5.58,2.69.87-3.76.17-7.09-1.96-10.06-2.91-4.06-6.96-5.94-11.92-5.39-5.02.56-8.53,3.37-10.49,8.01-.41.97-.88,1.26-1.87,1.21-1.51-.08-3.03-.02-4.7-.02.82-4.12,2.63-7.46,5.56-10.14,5.4-4.93,11.74-6.41,18.65-4.21,7.08,2.26,11.38,7.27,12.81,14.64.5,2.56.39,5.1-.29,7.61-.2.76-.17,1.25.68,1.56.96.34,1.87.83,2.81,1.25v.81Z"/>
        <path d="m38.05,56.54c-1.51.35-2.51.14-2.75-1.4-.02-.13-.05-.29-.14-.37-1.34-1.27-2.97-.38-4.46-.54-.34-.04-1.01.61-1.09,1.03-.31,1.52-1.21,1.67-2.62,1.31.75-2.06,1.46-4.12,2.24-6.15.62-1.63,1.27-3.26,2.01-4.84.15-.32.72-.59,1.11-.59.44,0,1.17.2,1.3.51,1.51,3.63,2.93,7.3,4.41,11.06Zm-5.63-9.23c-.69,1.82-1.24,3.26-1.87,4.89h3.78c-.66-1.67-1.22-3.11-1.91-4.89Z"/>
        <path d="m55.66,55.07c.17,1.72.17,1.71-1.5,1.69-2.01-.02-4.02,0-6.13,0v-11.54h2.08c0,.56,0,1.17,0,1.77-.02,2.29-.03,4.59-.09,6.88-.03.94.31,1.26,1.25,1.22,1.43-.07,2.86-.02,4.4-.02Z"/>
        <path d="m46.82,54.96c.06,1.83.06,1.81-1.63,1.79-1.96-.02-3.93,0-6.01,0v-11.52h2.01v9.74h5.63Z"/>
      </g>
      <path d="m29.53,49.64H6.17c0-7.04-.09-13.92.06-20.79.05-2.14,1.57-3.49,3.79-3.5,10.61-.04,21.22-.06,31.84,0,1.27,0,2.22.42,2.87,1.14,2.23-.28,4.56-.13,6.95.49.03-3.26.11-6.51.34-9.76.5-7.01-1.38-11.93-7.64-15.09-1.46-.74-2.95-2-4.44-2.02C28.13-.05,16.32,0,4.52.04,1.16.05.03,1.2.02,4.6c-.03,14.21-.03,28.42,0,42.63,0,3.48,1.21,4.62,4.74,4.63,7,.03,14.01,0,21.01,0,.97,0,1.94,0,2.91,0,.18-.49.35-.98.54-1.46.1-.26.2-.51.3-.77ZM11.61,2.1h28.63c0,5.03.16,9.91-.13,14.76-.06.99-1.83,2.65-2.85,2.68-7.5.23-15.01.14-22.51.12-1.91,0-3.07-1.09-3.11-2.95-.09-4.78-.03-9.56-.03-14.61Z"/>
      <path d="m11.13,34.03c-.59,0-1.17.91-1.75,1.39.53.41,1.05,1.18,1.59,1.19,6.49.05,12.98.05,19.48.05.47-.94,1.02-1.83,1.64-2.66-6.99-.04-13.97-.04-20.96.03Z"/>
      <path d="m11.51,39.04c-.71,0-1.41.85-2.11,1.3.74.4,1.47,1.13,2.22,1.15,4.39.11,8.79.05,13.18.05,1.32,0,2.65,0,3.97.01.18-.89.42-1.74.69-2.56-5.99-.02-11.97-.02-17.96.04Z"/>
      <path d="m32.1,17.45c1.85-.04,4.06.42,4.1-2.53.03-2.79.14-5.59-.08-8.37-.06-.81-1.02-2.02-1.78-2.22-4.57-1.2-6.03-.02-6.03,4.59,0,.6,0,1.2,0,1.79,0,1.4,0,2.79,0,4.19,0,2.72,1.95,2.58,3.78,2.54Z"/>
    </g>
  </g>
</svg>