<?xml version="1.0" encoding="UTF-8"?>
<svg id="Capa_2" data-name="Capa 2" xmlns="http://www.w3.org/2000/svg" viewBox="0 0 15.54 15.52">
  <defs>
    <style>
      .cls-1 {
        fill: #248fb5;
      }
    </style>
  </defs>
  <g id="Tablet">
    <g>
      <path class="cls-1" d="m8.37,13.2c.51-.03,1.02-.03,1.51-.1.53-.08.93-.38,1.16-.88.04-.1.13-.19.22-.25.96-.63,1.92-1.27,2.88-1.89.17-.11.37-.2.57-.25.53-.13.97.29.79.81-.1.3-.31.62-.55.81-.66.5-1.37.95-2.06,1.4-1.15.74-2.31,1.46-3.46,2.21-.86.57-1.73.6-2.64.14-.9-.45-1.8-.89-2.69-1.37-.46-.25-.85-.28-1.27.06-.19.16-.41.28-.63.41-.25.15-.44.1-.56-.17-.54-1.16-1.07-2.33-1.6-3.5-.1-.23-.03-.4.19-.49.93-.4,1.85-.83,2.8-1.19.67-.26,1.38-.23,2.07-.08.48.1.86.41,1.13.8.45.66,1.07.95,1.84,1.01.42.03.84.07,1.26.12.24.03.5.06.72.16.31.13.45.4.43.74-.02.33-.2.56-.51.66-.19.06-.39.11-.59.11-1.28.02-2.57.07-3.82-.29-.22-.06-.42-.01-.47.24-.05.25.1.36.32.42.97.25,1.95.38,2.96.35Z"/>
      <path class="cls-1" d="m10.28,7.98c-.1-.05-.19-.08-.27-.13-.17-.11-.33-.23-.49-.34-.4-.28-.72-.14-.8.34-.04.2-.06.4-.1.59-.04.23-.18.35-.41.35-.29,0-.57,0-.86,0-.25,0-.39-.11-.43-.37-.02-.19-.07-.38-.1-.56-.08-.5-.42-.64-.84-.35-.08.05-.16.11-.24.16q-.53.36-1-.1c-.11-.11-.22-.22-.32-.33-.28-.28-.28-.38-.06-.69.11-.15.2-.31.32-.44.15-.16.13-.3.06-.49-.07-.17-.16-.26-.34-.28-.23-.03-.45-.09-.68-.12-.23-.04-.34-.17-.34-.39,0-.31,0-.61,0-.92,0-.23.12-.35.34-.38.19-.03.38-.08.57-.09.25-.01.43-.1.47-.36.02-.12.02-.26-.03-.36-.11-.2-.25-.38-.38-.57-.14-.2-.14-.39.04-.56.21-.21.42-.42.63-.62.16-.15.33-.17.52-.04.15.11.31.23.46.34.43.31.77.17.86-.36.03-.19.08-.37.11-.56.03-.21.16-.32.37-.32.32,0,.63,0,.95,0,.21,0,.34.12.37.33.03.2.07.4.1.59.08.5.41.64.82.35.16-.11.31-.22.47-.33.19-.14.37-.14.54.03.21.22.43.43.65.65.15.15.16.31.04.49-.13.18-.24.37-.38.54-.14.17-.16.31-.07.52.07.16.16.24.33.26.24.03.47.08.71.12.21.03.32.16.32.37,0,.32,0,.63,0,.95,0,.21-.11.34-.33.37-.2.03-.39.07-.59.11-.52.08-.66.41-.35.83.08.11.15.22.23.33.29.41.29.45-.06.8-.17.17-.34.34-.51.5-.07.07-.17.11-.26.17Zm-1.17-3.56c0-.75-.59-1.36-1.34-1.36-.75,0-1.36.59-1.37,1.33-.01.76.59,1.37,1.35,1.38.75,0,1.35-.6,1.36-1.35Z"/>
      <path class="cls-1" d="m10.64,10.5c.61-.38,1.2-.76,1.82-1.11.44-.25.94-.17,1.25.17-.86.56-1.71,1.12-2.57,1.68-.16-.24-.32-.48-.5-.74Z"/>
      <path class="cls-1" d="m11.77,9c-.64.4-1.24.77-1.84,1.14-.04.02-.09.04-.13.04-.46-.03-.91-.06-1.39-.15.4-.25.78-.52,1.2-.74.33-.18.68-.34,1.04-.45.36-.11.73-.06,1.12.16Z"/>
    </g>
  </g>
</svg>