<svg xmlns="http://www.w3.org/2000/svg" viewBox="0 0 21.18 20.82"><defs><style>.be3710bd-0c5e-4a39-a88e-7651584adc0b{fill:#b2b2b2;}</style></defs><g id="a2dd4966-355d-43eb-88fe-f42c0e6832d8" data-name="Capa 2"><g id="e1185269-a27c-453e-bb86-3c2b0801f8a2" data-name="Capa 1"><path class="be3710bd-0c5e-4a39-a88e-7651584adc0b" d="M3.76,19.94l0,.88h-2l-.07-.88H0V10.83a18.09,18.09,0,0,1,2.66,0,3.27,3.27,0,0,1,1.28.8c1.36,1,.88,1,2.38.21s3-1.59,4.44-2.42a2,2,0,0,0,.74-.79C12.9,5.9,14.26,3.12,15.64.34c0-.1.12-.19.2-.34l1,.42L15.08,4q-1.17,2.37-2.35,4.72c-.16.32-.32.65-.51,1-.65,1-.66,1.18-.07,2.37l8.23-2.87.48,1.37L16.51,12Q11.4,13.83,6.29,15.6a.68.68,0,0,0-.54.75c0,.6,0,1.2,0,1.88H21.18v1.64H19.63l-.05.94h-2l-.06-.87ZM.83,18.26c1.28,0,2.49,0,3.7,0,.36,0,.38-.21.38-.48,0-.9-.07-1.82,0-2.71a2.1,2.1,0,0,0-1.15-2.38,1.22,1.22,0,0,1-.34-.3,2.66,2.66,0,0,0-2.6-.68Zm9.56-7.33c-1.48.81-2.91,1.57-4.32,2.35-.36.2-.41.51-.15.91l4.92-1.73Z"/><path class="be3710bd-0c5e-4a39-a88e-7651584adc0b" d="M16.35,14.09l.41.64a2,2,0,0,0-.26.16c-.49.47-.49.51,0,1a.82.82,0,0,1,.16,1.28c-.2.27-.44.51-.69.8l-.38-.53a1.22,1.22,0,0,1,.09-.17c.56-.58.56-.58,0-1.14A.78.78,0,0,1,15.59,15C15.81,14.67,16.07,14.41,16.35,14.09Z"/><path class="be3710bd-0c5e-4a39-a88e-7651584adc0b" d="M11.63,18l-.4-.63c.17-.15.36-.24.43-.4a.68.68,0,0,0,0-.56c-.77-.9-.77-1.07,0-1.95.08-.09.15-.18.27-.34l.42.58a3.25,3.25,0,0,1-.3.32c-.37.29-.34.54,0,.85.59.49.61.82.12,1.43C12.07,17.47,11.88,17.67,11.63,18Z"/><path class="be3710bd-0c5e-4a39-a88e-7651584adc0b" d="M14.24,14.19l.33.5-.39.36c-.29.24-.26.43,0,.68.69.63.7,1,.1,1.66-.15.17-.31.32-.46.49-.48-.48-.49-.49,0-1,.21-.21.26-.37,0-.62C13,15.35,13.08,14.92,14.24,14.19Z"/></g></g></svg>