<?xml version="1.0" encoding="UTF-8"?>
<svg id="Capa_2" data-name="Capa 2" xmlns="http://www.w3.org/2000/svg" viewBox="0 0 70.63 73.39">
  <defs>
    <style>
      .cls-1 {
        fill: #fff;
      }
    </style>
  </defs>
  <g id="Capa_1-2" data-name="Capa 1">
    <g>
      <g>
        <path d="m7.8,56.01c-6.82-1.49-10.33-9.68-5.69-16.04,4.96-6.8,9.57-13.86,14.32-20.81.59-.86,1.14-1.74,1.81-2.77-1.29-.07-2.3-.12-3.32-.17v-3.19h3.44c-1.99-3.04-3.82-5.83-5.71-8.73.7-.52,1.26-1.08,1.93-1.4C16.71,1.88,18.89.96,21.04,0c2.48,0,4.97,0,7.45,0,2.93,1.08,5.93,2.04,8.35,4.34-1.88,2.88-3.72,5.71-5.62,8.62,5.93.6,8.35,2.55,8.27,6.58-.29.03-.6.05-.9.08-1.23.12-2.15.06-2.69-1.48-.58-1.69-2.42-2.16-4.5-1.56.19.31.36.62.56.91,5.25,7.67,10.52,15.33,15.76,23.01,3.43,5.02,1.98,11.43-3.28,14.45-.86.49-1.84.77-3.03,1.26m-16.77-3.29c4.96,0,9.93,0,14.89,0,2.68,0,4.73-1.2,5.94-3.53,1.24-2.37,1.08-4.77-.47-7.04-5.61-8.18-11.21-16.38-16.81-24.57-1.49-2.18-5.38-2.21-6.86-.04-5.55,8.1-11.07,16.22-16.65,24.3-1.63,2.35-1.98,4.79-.69,7.3,1.3,2.53,3.52,3.62,6.38,3.59,4.76-.05,9.52-.01,14.27-.02ZM17.18,5.24c1.12,1.68,2.4,3.16,3.16,4.87,1.22,2.76,3.25,3.41,5.94,2.96.42-.07.98-.19,1.19-.48,1.66-2.41,3.25-4.87,4.86-7.31-4.16-2.99-10.5-3.02-15.15-.04Z"/>
        <path d="m24.74,47.35c-2.04-2.06-3.94-3.95-5.8-5.89-1.6-1.68-1.86-4.05-.74-6,1.06-1.83,3.08-2.65,5.33-2.29.83.13,1.71.12,2.54-.01,2.24-.35,4.27.51,5.3,2.35,1.07,1.92.84,4.26-.7,5.88-1.89,1.97-3.85,3.87-5.93,5.96Zm-.02-4.35c1.38-1.47,2.45-2.59,3.49-3.73.73-.8.84-1.68.02-2.47-.76-.72-1.58-.63-2.34.07-.37.34-.75.65-1.14.99-.4-.36-.71-.63-1.01-.92-.79-.76-1.65-.9-2.46-.1-.81.81-.64,1.67.08,2.47,1.03,1.14,2.07,2.28,3.36,3.69Z"/>
      </g>
      <g>
        <path class="cls-1" d="m70.63,73.39h-36.85v-36.63h36.85v36.63Zm-13.48-11.98c.22.35.38.76.67,1.04,2.55,2.58,5.12,5.13,7.68,7.7.68.68,1.4,1.13,2.36.57,1.04-.61,1.11-1.81.13-2.81-1.66-1.69-3.34-3.36-5.03-5.02-1.23-1.21-2.5-2.39-3.72-3.55,5.15-7.3,2.65-15.53-2.61-19.39-5.45-4-13.14-3.34-17.9,1.64-4.68,4.9-4.92,12.59-.54,17.94,4.14,5.07,12.16,6.79,18.97,1.87Z"/>
        <path d="m57.16,61.4c-6.81,4.92-14.83,3.19-18.97-1.87-4.37-5.35-4.14-13.05.54-17.94,4.76-4.98,12.45-5.64,17.9-1.64,5.26,3.86,7.77,12.09,2.61,19.39,1.22,1.16,2.48,2.34,3.72,3.55,1.69,1.66,3.37,3.33,5.03,5.02.98,1,.91,2.2-.13,2.81-.96.56-1.68.11-2.36-.57-2.56-2.57-5.13-5.12-7.68-7.7-.28-.29-.44-.69-.67-1.04Zm1.6-10.46c.03-5.65-4.44-10.22-10.04-10.27-5.68-.05-10.31,4.48-10.33,10.11-.03,5.68,4.5,10.25,10.17,10.26,5.63.02,10.18-4.48,10.2-10.1Z"/>
        <path class="cls-1" d="m58.76,50.95c-.03,5.62-4.57,10.12-10.2,10.1-5.67-.02-10.19-4.58-10.17-10.26.03-5.63,4.66-10.16,10.33-10.11,5.6.05,10.07,4.62,10.04,10.27Zm-10.58,7.79c1.22.03,1.98-.54,2.05-1.53.07-1.04-.55-1.66-1.79-1.79-2.57-.26-4.17-1.86-4.42-4.43-.11-1.13-.78-1.83-1.7-1.8-.97.03-1.63.87-1.6,2.02.12,3.99,3.54,7.45,7.46,7.54Z"/>
        <path d="m48.18,58.73c-3.93-.09-7.35-3.55-7.46-7.54-.03-1.15.63-1.98,1.6-2.02.92-.03,1.59.67,1.7,1.8.25,2.57,1.85,4.17,4.42,4.43,1.23.13,1.86.75,1.79,1.79-.07.99-.83,1.56-2.05,1.53Z"/>
      </g>
    </g>
  </g>
</svg>