<svg xmlns="http://www.w3.org/2000/svg" viewBox="0 0 31.43 30.07"><defs><style>.ad063077-a758-435b-a608-4a5fe446c0d2{fill:#273944;}</style></defs><g id="fb4ca114-9890-4103-9c4d-100e4b8321f1" data-name="Capa 2"><g id="aca1733c-4489-4cae-a6c8-0edee0352e21" data-name="Capa 1"><path class="ad063077-a758-435b-a608-4a5fe446c0d2" d="M13.61,30.07A14.16,14.16,0,0,1,2.94,23.92,14.89,14.89,0,0,1,7.47,2.13C11.21,0,15.25-.8,19.37,1c3.5,1.54,5.15,4.48,5.47,8.19a10,10,0,0,1-2.26,7.39,9.82,9.82,0,0,0-1.79,5.2c-.13,1.1-.19,2.2-.34,3.3C19.93,28.87,18.49,30.1,13.61,30.07ZM16.85,4.19a2.17,2.17,0,0,0-2.26-2.06,2.14,2.14,0,0,0-2,2.2,2.24,2.24,0,0,0,2.26,2.11A2.38,2.38,0,0,0,16.85,4.19Zm-9,1A2.24,2.24,0,0,0,5.71,7.22,2.13,2.13,0,1,0,10,7.33,2.26,2.26,0,0,0,7.89,5.15Zm-1.8,8.53A2.14,2.14,0,0,0,4,11.54,2.05,2.05,0,0,0,1.89,13.6a2.12,2.12,0,0,0,2,2.2A2.14,2.14,0,0,0,6.09,13.68ZM6,23.38a2.08,2.08,0,0,0,2.06-2,2.17,2.17,0,0,0-2.28-2.16,2.09,2.09,0,0,0-2,2.14C3.81,22.69,4.57,23.4,6,23.38Z"/><path class="ad063077-a758-435b-a608-4a5fe446c0d2" d="M29.09,2.66c1.39,4.48,1.25,9.07,1.38,13.74H27.75C27.85,11.77,27.71,7.15,29.09,2.66Z"/><path class="ad063077-a758-435b-a608-4a5fe446c0d2" d="M29.47,27.22a2.92,2.92,0,0,1-1.83-4,3,3,0,0,1,1.62-1.32c.87-.28,1.45.41,1.86,1.13a1.74,1.74,0,0,1-.07,2.1C30.53,25.78,30,26.47,29.47,27.22Z"/><path class="ad063077-a758-435b-a608-4a5fe446c0d2" d="M27.58,17.21h3c-.29,1.28-.53,2.46-.85,3.63a.94.94,0,0,1-.67.56.84.84,0,0,1-.65-.54C28.12,19.7,27.88,18.52,27.58,17.21Z"/></g></g></svg>