<svg xmlns="http://www.w3.org/2000/svg" viewBox="0 0 136.54 89.13">
  <path d="M50.41,77.47c1.94-5.11,2-9.75-2.73-12.27A10.56,10.56,0,0,0,39.41,65c-5.2,2.42-4.75,7.37-3.26,12.49-6,0-11.64,0-17.27,0-3.1,0-4-1.52-3.95-4.37.12-4.82,0-9.63,0-15-8.8-.45-15-4-15-13.63.07-6.77,4.45-10.22,15-12.37,0-4.67.15-9.46,0-14.25-.15-3.61,1.15-5.21,4.88-5.08,5,.18,10,.05,14,.05,1.67,4,2.69,7.74,4.72,10.79.89,1.33,3.91,1.92,5.87,1.74,5.46-.5,7.71-4.61,7.05-12.48H91C93.68,4,98.28-.22,104.52,0s10.6,4.48,12.57,13c4.58,0,9.36.07,14.14,0,3.7-.08,5.46,1.25,5.3,5.28-.26,6.47-.07,13-.07,18.19-4.35,1.33-8.23,2-11.56,3.77-1.39.74-2.22,3.73-2.22,5.7,0,5.8,4.56,8.19,13.77,7.37,0,5.67,0,11.3,0,16.94,0,3.24-2,3.85-4.59,3.85-4.95,0-9.91,0-14.75,0-1.78,10.55-6.07,15.24-13.34,15-6.91-.21-11.23-5.18-12.44-15C85.8,75.5,79.54,71.05,74.51,77a2.85,2.85,0,0,1-1.87.49C65.36,77.48,58.08,77.47,50.41,77.47Zm47.44-7.72c-2,5.17-3.33,9.55,1.05,13.09a7.74,7.74,0,0,0,9.31.75c5.87-3.34,4.09-8.55,2.65-13.83h12.47c10,0,10,0,8.85-10a4.59,4.59,0,0,0-.42-1,9.64,9.64,0,0,0-1.29-.5c-7.9-1.78-11.6-5.46-11.9-11.89-.34-7,2.72-10.6,10.84-13.33,1.14-.38,2.72-1.66,2.79-2.63.31-4.23.14-8.49.14-13.23H112.25c.11-9-2.26-12.68-8-12.79S96.22,7.91,96,17.3c-3.29,0-6.59-.07-9.89,0C74.65,17.6,76,14.86,75.76,28.14c0,2.89.74,4.28,3.85,5.15,6.67,1.88,9.76,7,9,13.65-.72,5.79-4.14,9.19-9.65,10.75s-2.53,6.06-2.9,9.23,2.54,2.8,4.63,2.81C86.12,69.77,91.59,69.75,97.85,69.75ZM71.66,37V17.11c-3.58,0-6.7.17-9.79,0-3.66-.25-6.07.29-7.17,4.63-1.26,4.95-6,7.75-11,7.83-5.62.08-10.33-2.62-11.85-8.06-1.13-4-3.1-4.91-6.72-4.39a46.46,46.46,0,0,1-5.83,0V39.17C14.16,36.69,9.11,35.29,6,40.42a11,11,0,0,0-.35,9.1c2.83,5.6,8,4.55,13.57,1.94,0,6-.11,11.24.06,16.49.07,2.16-1.34,5.77,2.87,5.43,3.33-.27,8.1,2.7,9.14-4.12.92-6,5.85-9.49,11.67-9.66,5.32-.15,11.16,3,11.81,8.07.83,6.4,4.48,6.22,9,5.89a23.11,23.11,0,0,1,4,0c3,.28,4.17-1,4.09-4-.14-5.44,0-10.89,0-16.38,8.24.87,12.66-1.9,12.93-7.7C85,40,80.88,37.25,71.66,37Z"/>
</svg>
