<svg xmlns="http://www.w3.org/2000/svg" viewBox="0 0 27.62 21.96"><defs><style>.ec1e5b78-a6f3-42b0-a7c7-7b24ee55e51a{fill:#b2b2b2;}</style></defs><g id="e5d5d73b-8972-483a-8f45-06fdf589eee4" data-name="Capa 2"><g id="aa836f15-e5bc-4c58-8a85-76b4f8c0a451" data-name="Capa 1"><path class="ec1e5b78-a6f3-42b0-a7c7-7b24ee55e51a" d="M0,12.17c.12-.66.2-1.33.37-2A8.94,8.94,0,0,1,2.81,6.1,9,9,0,0,1,7.34,3.68a13.21,13.21,0,0,1,2.09-.2,1,1,0,0,1,.93.7,1.12,1.12,0,0,1-.18,1.25A11.92,11.92,0,0,0,9.05,6.87a6.59,6.59,0,0,0-.88,4.51,6.71,6.71,0,0,0,3.94,5.3,7.09,7.09,0,0,0,2.79.66,1.13,1.13,0,0,1,1,.8,1.07,1.07,0,0,1-.31,1.25,8.85,8.85,0,0,1-4.48,2.37A9,9,0,0,1,3.86,20.2a8.93,8.93,0,0,1-3.4-4.66,19.74,19.74,0,0,1-.42-2c0-.09,0-.17,0-.26Z"/><path class="ec1e5b78-a6f3-42b0-a7c7-7b24ee55e51a" d="M20.67,13.86l-.21,0H16.22a1.16,1.16,0,0,1-1.28-1.15,1.32,1.32,0,0,1,.25-.74c.59-.83,1.21-1.63,1.82-2.44l.19-.28H14.93V7h4.48a1.15,1.15,0,0,1,1.14.66,1.11,1.11,0,0,1-.16,1.28c-.61.8-1.21,1.61-1.81,2.42l-.18.26h2.27Z"/><path class="ec1e5b78-a6f3-42b0-a7c7-7b24ee55e51a" d="M25.33,4.62h2.28V6.93h-4.5a1.16,1.16,0,0,1-1.24-1.17,1.42,1.42,0,0,1,.25-.71c.59-.82,1.2-1.62,1.81-2.43l.21-.3H21.87V0l.23,0h4.21a1.18,1.18,0,0,1,1.24.8,1.07,1.07,0,0,1-.17,1.07L25.52,4.35Z"/></g></g></svg>