<svg xmlns="http://www.w3.org/2000/svg" viewBox="0 0 13.75 31.43"><defs><style>.a4c21226-2ccc-413d-9698-eec0567b38c7{fill:#b2b2b2;}</style></defs><g id="bd55adc0-13a1-42c4-b129-a59bae332b98" data-name="Capa 2"><g id="ad0315b5-cfec-446f-b4e8-19c9e9399f5f" data-name="Capa 1"><path class="a4c21226-2ccc-413d-9698-eec0567b38c7" d="M5.53,0A8.84,8.84,0,0,1,6.77.48,3.32,3.32,0,0,1,8.41,3.91,3.37,3.37,0,0,1,2.36,5.37a1.29,1.29,0,0,0-.14-.18L1.13,6.67,0,8.17C0,8.06,0,8,0,8c.06-1.83.1-3.67.18-5.5A1.69,1.69,0,0,1,1.73.72a3.75,3.75,0,0,1,.87.1c.09,0,.22.05.28,0A4.13,4.13,0,0,1,4.67,0Z"/><path class="a4c21226-2ccc-413d-9698-eec0567b38c7" d="M10,12.36a5.54,5.54,0,0,1,2,1.16,5.27,5.27,0,0,1-.23,8,3.61,3.61,0,0,1-.66.44.37.37,0,0,0-.21.49c.14.66.25,1.33.38,2H6v7H4.11v-7H.54c0-.37,0-.72.08-1.06.35-3.78.71-7.56,1-11.34A4.83,4.83,0,0,1,2.74,9.14a4.07,4.07,0,0,1,3-1.43,1.39,1.39,0,0,1,.77.23c.85.59,1.7,1.18,2.51,1.83A2.49,2.49,0,0,1,10,12.36Zm.21,4c-.4,0-.76,0-1.13,0a3.34,3.34,0,0,1-3.2-2.79,28.36,28.36,0,0,1-.08-3.06c0-.18,0-.35,0-.53H3.94a36.82,36.82,0,0,0,.13,3.81,5.3,5.3,0,0,0,6.17,4.39Z"/></g></g></svg>