<svg xmlns="http://www.w3.org/2000/svg" xmlns:xlink="http://www.w3.org/1999/xlink" viewBox="0 0 23.66 17.75"><defs><style>.a5d03dc7-c267-42c3-b2f1-e4464241b674{fill:#fff;}.b4f40b27-35dd-43ba-8d86-6ff4619a8414{fill:url(#f675aab6-f856-4206-8699-970cc569996f);}.e18294cb-4499-42f5-8ead-78ae3ad5b617{fill:#387bad;}.e98de10e-54ff-4a23-aa05-8689d8fa5d08{fill:url(#bbbd9cac-231e-46fd-9235-26548d03bee4);}</style><linearGradient id="f675aab6-f856-4206-8699-970cc569996f" y1="11.15" x2="5.58" y2="11.15" gradientUnits="userSpaceOnUse"><stop offset="0" stop-color="#387bad"/><stop offset="1" stop-color="#eff5f9"/></linearGradient><linearGradient id="bbbd9cac-231e-46fd-9235-26548d03bee4" x1="18.21" y1="4.31" x2="23.66" y2="4.31" xlink:href="#f675aab6-f856-4206-8699-970cc569996f"/></defs><g id="f43a821f-dc7a-4793-8c37-77d4b5656683" data-name="Capa 2"><g id="f08959ae-f11a-4ade-aa92-9a52fd08c03a" data-name="Capa 1"><path class="a5d03dc7-c267-42c3-b2f1-e4464241b674" d="M5.39,1.66c.87.56,1.66,1.22,2.49,1.83q1.84,1.37,3.67,2.76a.39.39,0,0,0,.58,0c2-1.53,4-3,6.08-4.56.17,0,.2.1.22.23a2.3,2.3,0,0,1,0,.37v5.6a2.07,2.07,0,0,1-.09.66c0,.11-.13.09-.21.13-.72.63-1.52,1.17-2.28,1.75l-3.79,2.84a.33.33,0,0,1-.49,0l-6-4.51a.28.28,0,0,0-.24-.08c-.24,0-.33-.09-.27-.33a1.3,1.3,0,0,0,.15-.75c0-1.8,0-3.6,0-5.4C5.22,2,5.14,1.77,5.39,1.66Z"/><path class="a5d03dc7-c267-42c3-b2f1-e4464241b674" d="M18.15,8.67l.12-.06a1.93,1.93,0,0,1,.65-.71C20.18,7,21.39,6,22.65,5.13c.21-.15.39-.33.61-.48s.23-.19.39-.07c0,.29,0,.58,0,.87V15.94a1.64,1.64,0,0,1-1.81,1.8c-1.05,0-2.1,0-3.16,0-.32,0-.41-.09-.41-.42q0-4.12,0-8.26C18.28,8.93,18.36,8.75,18.15,8.67Z"/><path class="b4f40b27-35dd-43ba-8d86-6ff4619a8414" d="M5.11,8.41c.1.19.36.16.47.34-.12,0-.2,0-.19.14s0,.24,0,.36v8c0,.46,0,.46-.46.46-1.1,0-2.2,0-3.29,0A1.59,1.59,0,0,1,0,16.12Q0,10.48,0,4.83a1.5,1.5,0,0,1,0-.2c.19-.18.33,0,.46.1.56.37,1.07.81,1.6,1.2C3,6.63,4,7.33,4.91,8.06,5,8.15,5.16,8.22,5.11,8.41Z"/><path class="e18294cb-4499-42f5-8ead-78ae3ad5b617" d="M5.11,8.41.41,4.88C.29,4.79.15,4.72,0,4.63c0-.78,0-1.56,0-2.35A2.4,2.4,0,0,1,3.6.32,11.14,11.14,0,0,1,5.39,1.66q0,3.24,0,6.48C5.38,8.33,5.4,8.53,5.11,8.41Z"/><path class="e98de10e-54ff-4a23-aa05-8689d8fa5d08" d="M23.65,4.58c-1,.73-1.92,1.46-2.89,2.18S19.1,8,18.27,8.61c0-1.23,0-2.46,0-3.69V2.13a.71.71,0,0,0-.08-.45A15.21,15.21,0,0,1,20.26.23a2.4,2.4,0,0,1,3.4,2.11C23.67,3.08,23.65,3.83,23.65,4.58Z"/></g></g></svg>