<svg xmlns="http://www.w3.org/2000/svg" viewBox="0 0 1199.83 899.83"><defs><style>.ac38877d-afe7-40e3-b9a5-c2acfea0cca0{fill:#34a753;}.a3459e80-5c01-4717-b013-dee8836a5b47{fill:#4284f3;}.b5e0c4a8-bb57-4d06-b27a-a1b7226a97d2{fill:#c4221f;}.af4b14dc-2dc8-4076-b9a0-0a42ab754598{fill:#fabb04;}.b4090f51-6d42-4158-82f5-2bce41e7669a{fill:#e94335;}</style></defs><g id="e068802b-d817-4343-948a-9a898b647319" data-name="Capa 2"><g id="a3ad3e94-f66d-4a4c-860d-5046d4f94cde" data-name="Capa 1"><path class="ac38877d-afe7-40e3-b9a5-c2acfea0cca0" d="M926.87,899.83c.06-1.66.18-3.32.18-5V441.77c0-1.66-.09-3.33-.13-5l1-1.49c1.65-1.11,3.35-2.14,4.94-3.33q131-98.22,262-196.41c1.47-1.1,2.62-3.09,5-2.59V832.85c-2.29.06-1.67,2-2,3.23-8.61,32.57-29.12,53.21-61.76,61.76-1.22.32-3.17-.3-3.24,2Z"/><path class="a3459e80-5c01-4717-b013-dee8836a5b47" d="M272.88,436.73c0,1.67-.1,3.33-.1,5q0,226.57,0,453.13c0,1.66.12,3.32.18,5H67a3.13,3.13,0,0,0,.31-.39,1.08,1.08,0,0,0,.11-.35,28.64,28.64,0,0,0-3.2-1.19q-49.54-12.74-62.3-62.25c-.27-1.06.27-2.94-1.91-2.8V233c2-.61,2.94,1.22,4.14,2.12q93.06,69.67,186,139.45,41.31,31,82.7,61.83Z"/><path class="b5e0c4a8-bb57-4d06-b27a-a1b7226a97d2" d="M143,0c0,2.4,2,1.73,3.16,2a122.76,122.76,0,0,1,50.07,22.51q38.89,29.21,77.73,58.47c-1.52,2.28-.88,4.86-.88,7.3q-.06,169.07,0,338.13c0,2.67-.1,5.33-.15,8q-41.35-30.92-82.7-61.83-93-69.72-186-139.45C2.94,234.18,2,232.35,0,233V103c2.14.33,1.68-1.44,1.93-2.51.9-3.71,1.44-7.53,2.57-11.17,14.7-47.52,47-75.93,95-87.25,1.3-.31,3.54.66,3.51-2Z"/><path class="af4b14dc-2dc8-4076-b9a0-0a42ab754598" d="M927.26,82.2c8.55-6.57,17-13.21,25.67-19.7q25.89-19.5,51.89-38.86a121.24,121.24,0,0,1,48.27-21.57c1.1-.23,2.35,0,3.21-1,.1-.12.28-.37.25-.4a7.08,7.08,0,0,0-.7-.64h40c-.11,2.21,1.78,1.65,2.84,1.85,51.58,9.81,89.75,48,99.3,99.31.2,1-.41,3,1.84,2.82V233c-2.36-.5-3.51,1.49-5,2.59q-131,98.16-262,196.41c-1.59,1.19-3.29,2.22-4.94,3.33-.1-2.49-.29-5-.29-7.47q0-169.33,0-338.67C927.63,86.84,927.39,84.52,927.26,82.2Z"/><path class="b4090f51-6d42-4158-82f5-2bce41e7669a" d="M927.26,82.2c.13,2.32.37,4.64.37,7q0,169.34,0,338.67c0,2.49.19,5,.29,7.47l-1,1.49q-34.42,25.67-68.85,51.34-126.9,95.11-253.7,190.38c-3.44,2.58-5.49,2.51-8.89,0Q436.72,559.17,277.8,440.11c-1.59-1.19-3.28-2.25-4.92-3.38v-.37c.05-2.66.15-5.32.15-8q0-169.06,0-338.13c0-2.44-.64-5,.88-7.3q50.21,37.55,100.42,75.1,110.73,83,221.37,166.17c3.28,2.47,5.22,2.38,8.44,0q159.6-119.9,319.36-239.59C924.71,83.7,926,83,927.26,82.2Z"/></g></g></svg>