<?xml version="1.0" encoding="UTF-8"?>
<svg id="Capa_2" data-name="Capa 2" xmlns="http://www.w3.org/2000/svg" viewBox="0 0 216.77 222.14">
  <defs>
    <style>
      .cls-1 {
        fill: #bad0bd;
      }

      .cls-2 {
        fill: #74bf8e;
      }

      .cls-3 {
        fill: #c2d9c6;
      }

      .cls-4 {
        fill: #df3d31;
      }

      .cls-5 {
        fill: #e26f5f;
      }

      .cls-6 {
        fill: #4aaf6b;
      }

      .cls-7 {
        fill: #c2dfc1;
      }

      .cls-8 {
        fill: #e05e52;
      }

      .cls-9 {
        fill: #f5ddba;
      }

      .cls-10 {
        fill: #ecb10e;
      }

      .cls-11 {
        fill: #edd99d;
      }

      .cls-12 {
        fill: #e53832;
      }

      .cls-13 {
        fill: #ea6f67;
      }

      .cls-14 {
        fill: #61a478;
      }

      .cls-15 {
        fill: #78ab88;
      }

      .cls-16 {
        fill: #b5d3bb;
      }

      .cls-17 {
        fill: #4874b9;
      }

      .cls-18 {
        fill: #54b06c;
      }

      .cls-19 {
        fill: #2e9f4d;
      }
    </style>
  </defs>
  <g id="Capa_1-2" data-name="Capa 1">
    <g>
      <path class="cls-19" d="m75.67,166.65c1.13.35,1.79,1.52,2.99,1.77.5.48,1,.97,1.49,1.45-1.96.28-.91.81-.04,1.76.34.37.83,2.02,1.51.54.33-.73-.56-1.63-.98-2.05.51.08,1.02.15,1.52.23,1.84.85,3.68,1.69,5.62,2.3.01.07.04.14.07.2.81,1.74-3.01.45-3.04,2.25-.03,2.02,2.33-.76,2.55-.84,2.04-.68,2.45,1.8,3.86,2.42.68.3,1.71-.28,2.31.07.73.43.7,1.58,1.27,1.78.56.2,1.81-1.01,2.62-.99.99.01,2.2.98,3.17,1.19,1.19.26,2.44.04,3.65.09.53,0,1.06,0,1.59.02.31.07.37.26.18.58-.02,0,.09.59.75.76.58.15,2.95-.31,3.61-.32.99-.02,6.94.51,5.95-1.67,1.31.53,2.74.86,4.16.7,1.19-.14,2.21-1.09,3.3-1.21,1.31-.14,2.3-.02,3.35-.5.2.15.42.25.67.3.29-.1.5-.28.63-.54.18-.48.52-.72,1.01-.72.5.18,1,.34,1.5.49,2.34-.28,2.05-1.45.41-2.58.25-.11.5-.22.75-.33,2.01-.15,3.8-.93,5.51-1.91.81-.35,1.62-.7,2.43-1.05.61.09,1.2.04,1.76-.23,1.46-.4,2.86-.9,3.71-2.29.65-.57,1.48-.82,2.23-1.21,9.53,7.7,19.2,15.5,29.14,22.66,1.16.89,2.31,1.8,3.5,2.65.91.65,1.64,1.41,1.96,2.5-1.91,1.69-3.82,3.37-5.73,5.06-.26.21-.51.42-.77.63-1.41.95-2.83,1.89-4.24,2.84-.24.14-.48.28-.73.43-2.03,1.27-4.06,2.55-6.1,3.82-.35.21-.72.37-1.09.56-.42.21-.85.42-1.27.62-1.61.78-3.21,1.57-4.7,2.56-3.22,1.4-6.34,3.02-9.71,4.06-1.99.62-3.92,1.42-5.97,1.87-.61-1.13-3.43-1.92-4.51-1.41-1.49.7-.4.96-2,1.04-.7.03-1.22-.41-2.04-.22-1.36.31-2.61,1.3-4.03,1.67-1.93.5-3.78,1.29-5.79,1.47-4.7.42-9.99.56-14.72.42-1.6-.05-11.57-1.98-11.43,1.01-.6.19-1.03-.25-1.53-.42,1.16-2.09-2.16-2.01-3.62-2.22-.95-.14-1.64,0-2.48-.59-.79-.56-.14-.99-1.02-1.42-.53-.26-1.76-.18-2.44-.35-.17-.5-.48-.77-.94-.81-.45.1-.91.13-1.37.1-2.79.12-2.42.12-3.64-2.24-.49.07-1.44.21-1.54.82-.18,1.09.88.24,1.03.76.17.6.55.59.41,1.33-.13.67-1.73-.12-1.28,1.08l-.48.03c-.37-.33-.83-.21-1.25-.27-.16-.16-.33-.32-.49-.48-.53-.58-1.22.26-1.76-.2-.24-.09-.4-.37-.71-.31-4.27-1.65-8.59-3.19-12.73-5.16-1.32-.85-2.64-1.7-3.96-2.55,2.68-.03-2.37-3.05-2.8-3.4-1.23-.98-2.63-3.1-3.19-.08l-4.22-2.51c-1.15-.91-2.31-1.82-3.46-2.73,2.02-.28-1.88-2.96-1.28-.96-.93-.44-1.65-1.18-2.49-1.76.45-1.53-.79-1.85-1.79-3.26-.43-.61-2.61-3-2.68-.74-.08,0-.17,0-.25.01-.42-.41-.84-.83-1.26-1.24,3.04-.93,1.85-1.93-.06-3.69-.29-.26-2.41-1.71-2.21-2.17.2-.45.82.13.9-.45-.64-.38-2.35-1.83-2.96-1.2-.44.46,1.29,2.67.61,3.77-.81-.93-1.61-1.86-2.42-2.78-.28-.4-.55-.8-.83-1.21,2.01-1.24-.64-3.76-.71-.78-.15-.1-.3-.2-.45-.3-1.76-2.11-3.52-4.23-5.28-6.34-.08-.1-.16-.2-.24-.29-.83-1.53-1.96-2.88-2.67-4.48,2.2.04.73-.97,1.38-2.76.46-.73-.06-.47-.66-1.09-.89-.91-1.39,1.67-.51,2.06.92.4,2.26-1.22,1.16-.97-1.56,1.11-1.92,1.2-2.28,1.3-.65-.86-1.2-1.78-1.62-2.78.93-.57-1-2.07.14-3.22-.83.12-1.33.3-1.43,1-.76-1.35-1.5-2.71-2.27-4.04-.3-.52-.95-.91-.47-1.64,1.92.04,5.27-3.77,6.79-4.94,2.2-1.69,4.41-3.37,6.62-5.05,4.82-3.66,9.64-7.31,14.46-10.96.08,1.25-2.61,3.71-1.09,4.03,1.2.25,3.72-3.98,2.09-4.79.68-.52,1.35-1.06,2.04-1.56,1.66-1.2,3.14-2.63,4.92-3.67.42.89.35,1.29.28,2.16-.04.48-1.18.61-.87,1.26.31.65,2.91-.26,2.6-1.23,1.1.43,2.51,5.2,3.14,6.36,1.19,2.18,2.68,4.18,3.85,6.37-1.52.73-.85-.31-1.54-.84-.55-.42-1.76-1.68-2.22-2.33-.75-1.07-.81-5.06-2.6-4.88-2.46.25.82,3.23,1.03,3.58.73,1.2-.41,2.51.54,3.64.51.6,1.71.41,2.35.98.61.55.81,1.71.94,2.44.11.63-.22,2.51.33,2.85.83.53.68-1.01.85-1.1.65-.33.58-1.6,1.57-.42.19.22-.03,1.71.17,2.26.36,1.03.59,1.25,1.42,1.44-.45-.1,2.73-.7,2.57-.62,1.64,1.66,3.29,3.32,4.93,4.98-1.48.25-.54,2.76,0,3.61.9,1.41,2.25,1.19,3.47,2.07,1.06.77,1.28,1.97,2.54,2.4.84.29,2.67-.19,2.99-1.09Zm35.78,18.2c.33-.19.58-.61.47-.81-.75-1.46,4.66-1,5.48-.91,1.68.18,1.02.27,1.6.53.31.15-.05.71.9.64.82-.06.77-1.01,1.02-1.06.49-.1.71.62,1.06.57.68-.09,1.42-.3,2.1-.5.48.03.95,0,1.43-.07.3-.3.43-.67.39-1.1.17-.15,1.31.74,1.6.75.69.02,1.94-.73,2.73-.88.69-.13,1.02.04,1.64-.27.52-.25.79-1.04,1.39-1.32,1.28-.58,2.38.71,3.19.39.57-.23.35-1.39,1.07-1.61.44-.14,1.25.72,1.46.62.51-.24,1.69-3.24.33-3.2-.73.02.03,1.06-.29,1.21-.83.39-1.32.09-2.17-.11-.54-.13-1.1-.74-1.65-.45-.57.3.27.73.04,1.05-.62.87-.27,1.05-1.89.78-.73-.12-1.2-1.31-2.04-.55.37.66,1.7.14.82,1.36-.78,1.07-1.66-.02-2.66.39-.48.2-.4,1.13-1.04,1.34-.46.15-1.67-.69-2.2-.71-1.5-.06-2.95.96-4.44,1.18-3.7.54-7.59-.18-11.31-.05-1.29.05-2.98.02-4.16.5-.19.08-.16.79-.59.97-.4.17-1.58-.07-1.95-.09-.08-.78,1.36-.48.35-1.39-.32-.29-2.45,0-2.81,0,2.07,1.65-.65,1.1-.71,2.29-.07,1.35,2.82.81,3.73.68.94-.14,2.44-.33,3.28-.83.62-.37-.1-.76.6-1.02.3-.11,1.68-.17,1.97-.05.98.41.48,1.35,1.27,1.71Zm-81.05-33.75c.52.86,1.5.43,1.74,1.27-.06.21-.15.41-.25.59.01.19,1.52.49,1.78.4.8-.28.76-1.15,1.31-1.66.95-.86,2.3-.96,3.2-1.64.53-.4.85-1.04,1.41-1.46.46-.34,1.07-.19,1.56-.5,1.21-.77,2.08-3.22,3.56-3.56.27-.06.18,1.16.8.53.84-.85.44-1.64.23-2.8-2.69.81-.35-1.98,1.2-2.18-2.18-.86-3.59.8-4.87,2.33-1.24,1.49-1.57,2.02-3.37,2.83-1.96.88-1.23,2.36-3.21,3.21-.77.33-1.63.42-2.37.86-.91.55-1.5,2-2.72,1.8Zm-3.83,6.38c0-.84-1.6-2.06-2.6-1.75-.88.27-.68,1.26-1.23,1.89-.48.55-1.22.75-1.81,1.13-1.62,1.03-3.4,2.3-3.63,4.38-.08.7-.57.2-.17.91.17.31,1.02-.6,1.45-.06.78.99-1.95,2.2.12,3.03,1.21.49,2.34-.49,2.48-.91-.1.28-.62-1.47-.53-1.91.17-.81.62-.94,1.03-1.62.4-.65-.37-.88.31-1.34.41-.28,1.4.13,1.96-.11,1.07-.45,2.92-2.42,2.61-3.64Zm67.21,23.06c-.67,1.15-1.22,1.21-2.06.62-1.47-1.05-7.11-3.61-8.08-1.09.85-.3,1.09.77,1.74,1.03.63.25,1.32-.1,1.93.09.14.05.77.75,1.29.96.86.36,1.84-.54,2.21.88,1.04.04,2.77.69,3.33-.57.12-.28-.36-1.46-.36-1.92Zm-65.15-23.38c.34.2.53,0,.73-.23.73-.83,3.3-4.8.29-4.74-2.02.04-2.37,5-1.03,4.97Zm39.1,13.86c.43.07.88.06,1.13.62.63,1.42,1.2,1,2.21,1.55.47.25.73.88,1.18.97,1.25.25,2.95-.04,2.27-1.47.04.08-3-.78-3.06-.82-1.21-.88-2.33-3.31-3.74-.86Zm-46.22-.05c.75.57-.05,1.38.6,1.96.85.77-.31,4.84,1.51,4.81.95-.02.72-2.53.54-3.12-.12-.4-.9-1.33-.92-1.57-.04-.58.93-1.58.92-1.63-.2-1.07-1.17-.74-2.65-.44Zm75.59,13.19c.59,0,.91,0,1.24,0,.68-.02,1.56-1.51,1.1-2.03-.62-.7-1.82.46-2.56.26-.89-.24-1.4-2.07-2.15-.57-.46.93,1.35,2.61,2.38,2.34Zm-36.39-18.15c.35.17.66.1.97.27.48.26,1.11,2.26,2.12,2.16.1.82,1.03,1.11,1.64.52.89-.86.1-.68-.42-1.48-1.14-1.72-2.66-3.32-4.3-1.47Zm-28.57,16.16c-.75-.56-.93-1.17-.86-1.9.22-2.19-4.04-5.74-2.74-2.33.36.94,1.2,1.23,1.7,2.32.62,1.35-.03,2.16,1.9,1.91Zm50.39-2.96c.36-.27.9-.07,1.13-.6.38-.88-1.84-1.32-2.17-1.63-1.37-1.29-.45-1.53-1.92.04.15.08.23.76.38.91.31.31.81-.04,1.16.15.05.03,1.42,1.1,1.43,1.12Zm-7.53,30.22c-.67-.46-1.06.01-1.06.37,0,.5,4.91.58,4.79.7.62-.63.34-.98-.41-1.51-.88-.62-2.37.19-3.32.43Zm-27.83-8.36c.17-.47.19-.89.41-1.06,1.26-1.03-1.04-3.19-1.63-2.8-1.21.81,1.03,3.05,1.22,3.86Zm19.57,9.39c1.07.1,1.89.07,2.62-.47.93-.68.08-.57-.11-1.02.06.14-.95-1.23-1-1.23-.96-.06-.95.53-1.17,1.02.56.16.73.46.5.9-.3.26-.58.53-.85.81Zm6.6-.4c-.24-.1-.46-.25-.51-.2-1.17,1-5.04.55-3.26,2.07,1.53,1.3,2.67-.67,3.77-1.87Zm-50.97-56.78c-.75.39-1.44.88-1.91,1.63-.39.63.21,1.23.88,1.23.39,0,.69-.78.89-1,.28-.3,1.65-1.8.14-1.86Zm65.13,59.58c.67.75,1.58.46,2.26.88,1.4.86,1.57-1.05.59-1.69-.25-.16-2.44.39-2.85.81Zm-61.79-40.6c-.85,2.23-.75,2.46.95,2.74,2.83.47-.96-2.75-.95-2.74Zm24.52-21.06c-.2-.62-.79-.93-1.11-1.45-.85-1.38-1.41.37-.87,1.36.52.95,1.25,1.5,1.98.09Zm34.27,61.42c.44-.07.63-.32.58-.7-.05-.4-.32-.69-.64-.92-.61,1.02-1.15-.75-2.11-.34-2.26.97,2.21,1.99,2.18,1.96Zm-14.36-5.51c.03-.4-1.31-2.16-1.51-2.06-2.75,1.44,1.46,2.56,1.51,2.06Zm-11.36-42.9c.41-.16,1.22-.18,1.03-.84-1-3.4-3.51.98-1.03.84Zm-24.61-18.8c-1.21-.1-3.23,1.01-3.59,1.78-.43.93,1.45.32,1.71.17.92-.54.58-1.54,1.87-1.95Zm17.52,9.75c.58-.12,1.25.02,1.16.54,0,.14,0,.29.01.43.47.59,1.11-.84,1.05-1.19-.3-1.9-1.72-.41-2.22.23Zm32.34,58.26c-.62.03-1.19.08-1.19.64,0,1.07,5.4.55,1.19-.64Zm-43.12-20.59c.66-.32,1.3,1.06,1.89-.04.41-.76-.27-1.32-.72-1.38-.85-.12-.7.94-1.18,1.43Zm15.78,10.67c-.43,0-.65-.03-.77.17-.24.39,5.73,3.24.77-.17Zm-.81-42.39c.79-.01,1.21-.38,1.25-.94.16-2.44-2.48.16-1.25.94Zm-.9-4.14c-.37-.11.25-.91-.47-.84-.51.05-.75.57-.89,1.06.04.01,1.51,2.03,1.36-.23Zm21.47,56.71c.41-.1,1.04-.17,1.03-.66-.06-2.19-3.4.5-1.03.66Zm-30.3-66.52c.68-.03,1.02-.46,1.02-1.02,0-2.4-2.65,1.27-1.02,1.02Zm-19.64,31.31c-.51-.62-.81-1.26-.45-2.02.41-.87-.58-.05-.68.11-.52.89,0,2.26,1.13,1.91Zm34.84-19.3c.01-.78-.4-1.13-.77-1.49-.5-.5-.78-.21-.84.39-.1.98,1.04.84,1.61,1.1Zm4.28,10.91c.82-.02,1.62.38,2.09-.49.63-1.16-1.73.05-2.09.49Zm-.12,33.93c.21.68-1.49.43-.63,1.38,1.07,1.19,1.16-.62.63-1.38Zm-21.47-10.04c.02-.38-.03-.79-.42-.8-.71-.02-.81,1.65-.29,1.72.9.13.29-.35.71-.92Zm-10.53-11.23c-.22.21-.82-.06-.8.48.07,1.68,2.8-.44.8-.48Zm16.77,16.98c-.33.13-.94-.15-1.02.4-.21,1.5,2.98-.79,1.02-.4Zm-10.3-10.64c-.04-.35-.26-.43-.53-.33-.32-.06-.55.05-.71.33-.07.66,1.13.56,1.24,0Zm24.13,19.14c.34.06.55-.07.63-.39-.04-.52-1.36-.51-1.32.05.13.3.36.42.69.35Zm-3.07-1.87c-.25-.57-.7-.77-1.25-.79-.55-.02.51,1,1.25.79Zm-38.74-38.12c-.02-.32-.26-.43-.5-.41-1.12.08-.08,1.83.5.41Zm24.54,26.67c-.34.09-.29.36-.29.6.05,1.67,1.42-.35.29-.6Zm15.26,9.22c.02-.32-.21-.43-.46-.46-1.13-.12-.07,1.71.46.46Zm13.43-31.74c.13.26.23.64.65.71.96.15-.92-2.03-.65-.71Z"/>
      <path class="cls-4" d="m151.31,8.29c.08.01.16.04.24.07.06,1.53,1.68.86,2.26,2.19,1.57-.4,2.81,1.08,4.37.76,1.27.66,2.55,1.32,3.82,1.98,1,.48,1.99.96,2.99,1.44,2.07,1.34,4.14,2.67,6.21,4.01.76.49,1.5,1.02,2.24,1.53.32,1.44,1.05,1.94,2.54,1.72,2.22,1.77,4.43,3.54,6.65,5.31-.75.54-.53,1.2-.24,1.86-1.29,1.28-2.57,2.56-3.86,3.84-3.62-.61.02-2.14-1.47-3.13-.36-.24-.53,1.06-1.22.6-.58-.38-.09-2.47-.16-3.13-.1-1.01-.38-2.54-1.42-3.1-1.37-.73-.19.87-.17.83-.1.36,1.28.78-.37,1.17-.82.19-1.96-.45-1.5-1.33-1.23.99-2.96.15-3.71-.96.1,1.58-1.94.95-2.88,1.01-.93.06-2.45.93-3.05-.12-.16.66-.27,1.12-.36,1.49-1.24-.43-.66.83-1.12,1.15-1.41-1.57-1.54,4.61-1.5,5.39.04.68-.55,5.6.51,5.87-.24.07-.45.19-.63.37-.1.26,1.05.35.75.6-.05.04-.87.33-.67.55,1.21-.08.5,1.78,1.42,1.91.65.1,3.41-2.33,4.3-1.05.44.64-2.78,3.07-3.14,3.41-.63.59-.91.75-1.37,1.55-.21.36.02.98-.31,1.29-.53.5-1.18.41-1.84.79-.89.51-3.37,2.58-3.65,3.57-.21.74,1.34,1.36.49,2.37-.33.39-1.7-.29-2.5,0-.84.32-2.25,1.37-.99,2.26.71.51,2-.55,3.12.07-.71.75-2.62,3.57-3.72,3.69-.61.07-3.03-2.48-3.55-2.96-.13-1.42-1.04-1.68-2.24-1.55-.25-.15-.5-.3-.75-.44.12-.95,1.98-3.11,2.77-2.57.25.17-.19,1.28.04,1.58.39.5,2.46,1.11,3.09,1.05-.62-2.09-1.44-1.57.34-3.08.56-.47,3.3-2.71.88-2.42-.85.1-.88,1.89-1.93,1.19.6.41.8-1.83.89-1.97-.66-.06-.12.79-.73.68-.03-.25-.07-2.6-.43-2.65-.43-.07-.05.66-.49.7-.1-.28-.26-.52-.49-.72-.55-.04.06.82-.63.69-.09-.56-.17-1.14-.26-1.69-.62-.03-.08.8-.67.71-.28-.54-.2-1.16-.3-1.7-.64-.04-.1.79-.68.72-.04-.29-.17-.53-.4-.71-.55-.09-.02.78-.66.69-.09-.55-.18-1.13-.27-1.7-.61-.05-.08.77-.64.72-.07-.27-.2-.51-.4-.7-.59-.12-.02.76-.59.69-.07-.27-.2-.5-.4-.69-.6-.13-.03.75-.58.69-.46-.48-.07-1.22-.43-1.73-.52.09-.05.72-.61.74-.02-.04-.26-1.74-.45-1.59-.18.25-.37.51-.55.76-.21-2.2-.65-.18-.99-.12-.04-.14-.18-1.7-.44-1.74-.43-.07-.05.66-.49.7-.1-.28-.26-.52-.49-.71-.51-.02-.02.66-.51.71-.11-.27-.27-.51-.48-.71-.52-.02-.04.65-.51.71-.12-.27-.28-.51-.47-.72-.55-.06.02.8-.58.71-.3-.53-.18-1.16-.31-1.71-.63-.03-.11.79-.68.72-.05-.28-.19-.52-.41-.7-.57-.1-.01.77-.58.7-.36-.51-.14-1.16-.31-1.69-.67-.09-.11.76-.71.69-.02-.33-.18-.57-.48-.7-.44.03.07.7-.47.71-.3-.18-.02-.74-.52-.71-.45.03.05.69-.47.71-.31-.16-.02-.73-.51-.71-.46.02.02.69-.56.71.01.07-.07-1.93-.55-1.69-.05.03,0,.85-.03.83-.3-.12-.5-.85-.83-.85-.48,0,0,.67-.49.71-.09-.29-.26-.52-.49-.71-.48,0-.04.67-.57.72-.21-.15.01-.79-.67-.7.04.35.03.7-.04,1.05.23.32.53.54.91.68.28.62.22,1.31.5,1.92.82,1.79,2.42,1.86,4.22,2.44,1.92.62,3.64,1.29,5.54,2,1.52.57,2.04,1.17,3.39,2.08,1.35.92,4.31,1.39,5.04,3.01,1.18,2.59-1.88.65-2.81.11-1.68-.98-4.44-.84-5.82-1.91.08-.38.15-.76.22-1.15-.18-.23-.4-.31-.68-.24-.11-.39-.38-.45-.35-1.37-.6.5-1.27.62-1.99.36-.51-.39-.97-.33-1.36.18-.28.26-.58.31-.93.14-.33-.25-.34-.53-.05-.83-.83-.67-1.69-1.59-3.18-2.02-2.1-.6-3.03-.6-5.23-.69-1.28-.06-2.28-.59-3.49-.83-1.04-.21-2.09.02-3.08-.17-1.19-.23-1.85-1.15-3.07-1.29-1.15-.13-2.61.56-3.82.55-1.77-.02-3.03-.23-4.78.03-1.27.19-2.46.31-3.74.34-.62,0-1.23,0-1.85,0-.4.2-.68.51-.83.95-.84.28-1.32.03-2.17.06-1.12.04-1.33-.04-2.29.59-.88.58-.67,1.59-2.1,1.4,1.24,1,3.58,1.08,5.03.31,1.92-1.02,1.48-1.03,3.52-.64.96.18,2.13-.5,1.96,1.02-1.18.08-2.36.14-3.49.53-1.24-.09-2.35.43-3.51.73-.41.05-.87-.16-1.22.24-1.24.06-2.37.54-3.49,1.02-1.69.58-3.4,1.08-4.98,1.94-.66.28-1.4.37-1.97.84-15.71,6.66-29.09,21.1-34.52,37.31-.34.51-.28,1.29-1,1.55-.18-.1-.36-.2-.54-.3-.48-.42-.96-.85-1.44-1.27-.94-1.03-2.05-1.82-3.29-2.45-.34-.25-.67-.51-1.01-.76-.41-.64-1.15-.82-1.71-1.27h0c-.38-.55-.94-.88-1.51-1.2-.14-.1-.29-.2-.43-.3-1.06-1.05-2.19-2.02-3.55-2.68-.25-.18-.49-.36-.74-.54-.4-.76-1.27-1.05-1.75-1.73.69-.78,1.22.37,1.69.1.38-.21.58-1.37.81-1.43.36-.09.84.86,1.24.91.38.04,1.1-.32,1.44-.15,1.23.59.41,1.11.89,1.91.52.87,1.65,1.08,1.84,2.09.22,1.16-1.46,1.74.43,1.37.48-.1.95-.97,1.6-.97.53,0,.55.61.94.75.91.32,2.24,1.18,3.08.47.61-.53.81-2.77,1.05-3.61.41-1.45.8-2.15.03-3.53-.21.57.07,2.64-.46,2.9-.27-.15-.03-.82-.6-.73-.11.54-.22,1.09-.34,1.66-.17-.22-.31-.45-.44-.69-.27-.18-.74.87-.99.91-.63.1-.99.18-1.64-.13-.72-.34-1.89-1.64-1.21-2.47,1.14-1.4,1.67.48,2.16.74.07.04,2.23.68,1.8.11-.11-.14-.87-.23-.67-.6.66-1.24.29.82.24-1.51-.02-.69-.16-1.76-.26-2.43.37-.06.56-.24.56-.54-.46-.16-.73-.47-.82-.93-.06-.87.25-1.67-.06-2.53-.75-2.09-1.99-.38-3.2-1.56-.43-.42.36-1.13.2-1.84-.06-.28-2.1-2.07-2.41-2.45.12,1.74-.53,1.47-2.07,1.55-1.05.06-3.5.32-4.44-.17-1.68-.88-.66-3.84-.9-5.54-.3-2.16-2.19-3.76-4.33-4.35-.68-.19-1.88.12-2.39-.13-.36-.17-.31-1.12-.09-1.07.18.18.4.3.65.37.15-.45.23-.9.25-1.38.34.02.4.5.83.32.06-.74.12-1.5.19-2.44.19.19.38.37.57.56.36.11.39-2.18.41-2.37.23.03.42.14.57.33.45-.33.6-.81.44-1.45.17.18.36.32.58.42.17-.09.38-1.41.58-1.31.15.15.31.28.49.39.27-.03.32-1.52.33-1.58.15.32.39.49.72.52.11-.41.19-.83.27-1.25.29-.06.54.04.75.3.27-.08.23-2.14.25-2.35.33-.09.39.44.78.3.06-.43.13-.85.21-1.27.3-.05.57.06.8.32.17,0,.19-2.31.2-2.45.58.74,1.3-.15,1.8.53.12-1.34.94-.92,1.17-2.43,1.55.89.44-1.04,1.15-.99.14.17.31.3.51.39.41-.14.03-1.08.16-1.12.07-.02.88-.09.79,0,.08-.09.88-.04,1.17-.36.38-.43.16-1.31.16-1.87.26.12.53.22.8.3.2-.12.81-2.49,2.01-.95.09-.53.16-.93.22-1.34.55.51,1.26-.26,1.8.38.11-1.33.94-.93,1.18-2.45.34.04.4.52.83.33.06-.74.12-1.5.19-2.44.44.92,1.23-.15,1.67.5.11-.46.23-.91.36-1.45.39.86,1.2-.2,1.63.45.11-.46.23-.91.33-1.32,1.51.86.4-1.06,1.09-1.02.13.15.29.26.47.34.16-.09.38-1.41.57-1.31.14.16.31.29.49.39.28-.44.38-.93.32-1.48.92.75,1.94-.18,2.8.47.13-1.45.89-.63,1.7-1.11.49-.29.3-1.4,1.32-1.1.05-.4.09-.81.16-1.4.44.98,1.25-.09,1.68.57.12-.46.23-.91.35-1.37,1.2.76.33-.41,1.01-.94.86.51,1.82-.19,2.62.33.12-.46.23-.91.39-1.54.34,1.07,1.18-.16,1.6.54.12-.45.23-.91.35-1.37.82.71,1.85-.21,2.67.37.59-2.92-.03-.08,1.1-1.13.6-.56.6-.26,1.24-1.23.82.66,1.84-.24,2.66.42.19-.5,0-1.02.29-1.36.87.48,1.82-.17,2.62.32.12-.45.24-.91.36-1.36.49.45,2.21.4,2.76.23-.04-.28,0-.54.12-.79.29-.4.71-.47,1.27-.22,1.62-.37,5.89.83,6.75-.28-.13.17,1.18.21,1.57-.23.77-.87-.12-2.55.06-3.69.24-1.52-.18-.84.85-1.1-.4.1,2.09.17,1.79.01.71.36,1.11,1.42.5,1.87-.74.54-2.13-1.2-2.3.36-.16,1.5,3.16,1.5,3.55-.17,1.21.89,4.46.24,5.91.24,1.29,0,3.73.61,4.95.02.38-.19.65.3.9-.34.22-.56-.44-.91-.38-1.2.04-.19-.72-.2-.25-.82.27-.36.99-.12,1.23.19.51.64-.14,4.68-.14,5.52,0,2.47-.01,4.95-.02,7.42-.01,4.58-.03,9.16-.03,13.74,0,.68-.66,5.08.98,4.76,1.26-.24.66-3.07.66-4,0-4.44,0-8.89,0-13.33,0-2.44,0-4.89,0-7.33,0-1.44-.6-4.69-.1-6.04.75-2.02.3-.11.52.18.32.43.2.63.68,1.07.56.51,1.28-.41,1.64.46.24-.59.05-1.11.37-1.5.42.36.06.97.47,1.28.23.17,1.93-.02,2.29-.02,1.48-.02,3.9-.59,5.31-.13.98.31,1.02.81,1.94,1.14,1.04.37,2.49-.29,3.61.04.8-2.06-1.31-1.18-1.8-2.04-.85-1.51.94-1.46,1.74-1.99,1.81-1.19.91-1.28-.7-1.19-.75.04-3.72-.36-4.16.14,3.72,2.81-9.17,3.3-6.88.31.82-1.07,4.22.91,5.51-.49,1.88-2.04-3.69-.95-4.47-.9-5.81.32-11.74.05-17.49-.44-.35-.03-2.92-.7-1.9.75.48.68,1.49-.05,1.89.42,1.26,1.51-3.99.31-4.45.21-2.6-.52-5.6-.55-8.24-.09-1.97.34-3.1,1.92-4.87,2.65-.41-.03-.82-.09-1.23-.18-.37,0-.5.2-.39.6.14.32.05.56-.25.72-.39.06-.73-.05-1.02-.33-.36-.45-.78-.56-1.27-.33-.3.26-.5.58-.61.95-.56.39-.96.5-1.72.81-.34.29-.72.52-1.13.69-.54.32-1.07.31-1.59-.04-.05.03-1.99.02-.67.92.34.23,2.44.1,2.82-.07.56-.25,1.2-1.46,1.77-1.42.84.06.97,2.18.52,2.86-.69,1.04-1.08-.13-1.73.12-.69.26-1.63.89-2.15,1.5-1.08-1.13-3.87,1.31-4.98,1.86-1.92.96-5.49,2.43-7.56,2.39.78-1.56,2.24-2.54,3.9-3.01.68-.19,1.54-.11,2.17-.35.36-.13.3-.62.66-.78.82-.36,2.91-.34,3.26-1.35.3-.86-.59-2-1.48-1.27-.3.24.53,1.08-.2,1.59-.1.07-.81-.58-.97-.53-.38.12-.87.69-1.18.74-1.24.2-2.5-.11-3.83.36-.5.18-1.8.73-2.21,1.17-.24.26-.56,1.31-.77,1.44-.48.3-1.45-.71-2.04.02-.22.27.16.8.24.73.05-.04.27.65.02.81-.37.23-.53-.42-.67-.36-.12.05-.5-.58-.94-.25-.84.62.14.86-.13,1.37-.24.45-.99.63-.92,1.33.12,1.05,1.88-.22.63,1.39.1-.13-2.33,1.04-1.96,1.22-.31-.15-.2-.52-.31-.77.21.44.22-2.27.08-1.62-.11-.2-.22-.4-.33-.6.25-.37.57-.67.95-.9.09-.25,1.14-.51.78-1.01-1.26-1.69-3.71,3.2-3.85,3.23-.59.16-1.09-2.26-.86-2.63,2.41-1.98,5.36-3.41,8.14-4.79,2.27-1.13,5.44-3.46,8.02-3.66,1.6.27,6.25-1.98,7.48-2.97.42-.16.83-.35,1.26-.49,5.87-1.84,11.81-3.38,17.9-4.29,1.21.14,2.31-.39,3.48-.52.99-.08,1.99-.15,2.98-.23.25.01.5.03.74.04,2.72-.07,5.61,0,8.33.11,1.37.06,7.08,1.04,7.85-.32,4.22-.15,8.81.77,12.96,1.52,4.13.75,8.31,2.46,12.42,2.97.03.65-1.06,1.38-.18,1.69.34.12,1.43-.93,1.66-1.19.17.06.33.13.5.19,1.14,1.98,1.88.94,3.46,1.95.73.46-.02.88.86,1.23.48.19,2.11-.33,2.41-.7Zm-16.75,1.69c-.28.34,0,.7,0,1.06,0,.24,1.16.45,1.32.39.36-.14-.05-.72.28-.93.31-.2.71-.19,1.02-.39.18.56.93-.1,1.23.17.38.35,0,1.25.25,1.67.73,1.24,1.21.68,2.49.66.21,0,1.1-.47,1.14-.46.28.14.14.59.23.64.97.49-.45.86,1.12.92.29.01,1.05-.15,1.26-.4,2.09-2.59-4.09-3.14-5.03-3.46-1.23-.42-5.79-3.2-5.32.12Zm18.24,37.07c.6-.6,1.57-.33,2.16-.97.06-.22.11-.44.14-.67.42-.65.58,1.56.67,1.59,0,0,2.44-1.86,2.37-1.67.75-1.76-.93-.65-1.02-.66-.45-1.42-2.33-.19-2.39-2.02-.44.86-.06,1.58-.44,2.08-.67.08-.01-.92-.82-.71.11.59-.11,1.13-.3,1.68-.47-.07.07-.87-.64-.7-.11.68-.12,1.36.26,2.06Zm-22.06-39.66c-.53-.03-1.02.11-1.53.22-.59.12-1.11,1.64-.44,1.9.17-.14.33-.28.5-.42-.19-.34,1.79,1.06,1.27.86.75.3,1.72.12,2.44.47.29-.69.43,0,.79.02,1.35.08-.63-1.73-.47-1.51-.61-.89-1.47-1.49-2.56-1.54Zm24.95,8.66c-.37.25-.09.53-.21.74,0,.02-.26,1.77.2,1.66.15-.18.34-.28.57-.3,1.24,1.35-.3,1,2.04,1.12.68.79,1.06.91,1.72.86.25-.02.61.38.81.18.06-.05.38-1.57-.02-1.57-.61,0-1.87.43-1.95-.68-.63.4-.85-1.78-1.82.04.26-1.39-.93-1.35-1.35-2.06Zm-4.75-1.99c-.28,1.36-1.35,1.02-1.68.76-.71-.56-2.32-3.75-2.94-3.89-.91-.21-.81,1.98-.65,2.49.97-.48,1.41,1.82,2.09,2.16.44.23.84-.11,1.22.02.38.13.54.76.66.79-.02,0,1.29-.02,1.28-.02.04-.66.24-1.33.02-2.31Zm-44.19,26.08c1.16.06,2.33.05,3.48.2,1.48.2,3.15-.62,4.43.94.37.45,1.29.23,1.88-.11.55-.32,1.01-.79,1.78-1.41-4.08.02-7.82-.27-11.57.38Zm57.01-22.87c.07-.58-.33-.93-1-.97-1.08-.07-2.83-2.04-3.65-1.44-1.35,1,.7,1.29,1.01,1.54.62.5,3.51,2.59,3.64.86Zm-22.16-9.71c-.46.08-.86.18-1.26.2-1.9.1,3.39,2.05,4.19,2.01,3.3-.15-1.82-2.14-2.93-2.21Zm25.29,13.18c.53,0,.78-.24.82-.67.13-1.39-5.36-2.58-.82.67Zm-45.17,17.24c-.2.28.11.69-.25.9-.13.12-.25.25-.38.37-.1.7,2.54.3,2.8.07.13-.12.43-1.34-.07-1.3-.45.03.05.69-.47.71-.3-.15-.03-.74-.51-.7-.5.04.13.77-.24.8-.76,0-.21-.75-.88-.84Zm3.98,3.08c-.28-.23-.68-.68-.78-.62-.78.46-3.48-.3-3.47.73.01.9,3.76.2,4.25-.11Zm41.26-18.49c-.13-.61-.17-1.43-.97-1.48-.78-.04-.92,3.53.97,1.48Zm-51.36,14.44c.34.47-.31,1.08.31,1.4,2.04,1.05,2.32-1.4,1.99-1.41-.57,0,.1.76-.47.77-.12-.29-.29-.54-.51-.76-.55-.08,0,.79-.6.7-.19-.21,0-.72-.72-.7Zm17.6-31.68c-.4.15-1.15.08-1.23.9-.16,1.68,4.46-.8,1.23-.9Zm29.65,14.61c-.54.8-.48,1.4-.44,2.01.03.56,1.31.35,1.36.27.73-1.07-1.03-1.34-.92-2.29Zm-9.81-6.82c.28-.02.57-.04.85-.07,1.24-.12-.99-1.32-1.48-1.16-.94.31-.28,1.32.63,1.23Zm4.6,1.89c.36-.08.82-.15.81-.59-.04-2.32-3.19.1-.81.59Zm-20.41-9.27c-1.42-.15-1.46.82-1.91,1.32-.61.68.36.56.59.51.18-.04,1.03-1.61,1.32-1.83Zm42.17,22.94c-.18-1.12-1.26-.26-1.37.45-.09.58,1.36.39,1.37-.45Zm-8.74-7.5c-.05-.35-.27-.42-.54-.38-1.32.2.35,2.01.54.38Zm-18.67-5.63c-.27-.44.28-1-.27-1.35-.51-.33-.34,1.15.27,1.35Z"/>
      <path class="cls-10" d="m46.12,88.7c.48.42.96.85,1.44,1.27.2,1.39-.21,1.81-1.22,2.54-1.54,1.12-1.39.37-1.22,2.59.16,2.04-.68,1.99-1.17,3.88-.36,1.43.59,2.73.55,4.11-.02.68-.25,1.02-.39,1.61-.2.85-.25,1.46-.36,2.36-.13,1.05-1.07,2.54-.92,3.56.21,1.34,1.47,1.98,1.56,3.57.06.99-.79,2.46.89,2.42.25,1.94.3,3.92.64,5.83.56,3.16,1.51,6.25,2.29,9.38l-.92.97c-1.78,1.04-3.27,2.46-4.92,3.67-.69.5-1.36,1.04-2.04,1.56-.39.17-.72.43-1,.76-4.82,3.65-9.65,7.3-14.46,10.96-2.21,1.68-4.42,3.36-6.62,5.05-1.52,1.17-4.87,4.98-6.79,4.94-.68-.43-.86-1.18-1.21-1.82-.75-1.35-1-2.95-2.02-4.17-.08-.26-.16-.53-.24-.79-.16-.89-.65-1.64-1.01-2.44-.34-.28-.11-.72-.28-1.04-.3-.78-.6-1.56-.9-2.34-.11-.38-.22-.76-.33-1.14-.56-1.83-.85-3.74-1.68-5.49l-.31-1.49c.09-.56-.14-1.05-.38-1.53-.57-1.6-.64-3.32-1.09-4.95-.34-.7,0-1.57-.52-2.23.01-.25.03-.5.04-.75.08-.53.04-1.04-.29-1.49-.08-.75-.17-1.5-.25-2.25-.17-.99-.33-1.99-.5-2.98.32-2.25-.45-4.48-.15-6.74.4-.75.39-2.1.6-2.97.2-.8.49-1.21.6-2.08.24-1.85.2-3.82.41-5.7.1-.85.72-5.36.31-5.89-.76-.98-.73.88-1.66.97-.03-.33-.06-.66-.1-.99.11-.83.22-1.66.32-2.49.05,0,1.82-.4,1.7-.22.73-1.06-.66-1.29-1.2-2.01,0-.17,0-.34,0-.51,1.21.21,1.01.65,1.79-.11.41-.39.39-2.55.53-3.2.24-1.11,1.66-4.39-.49-4.49,1.27-1.18,2.33-1.66.25-2.16-.04-2.81,1.54-6.59,2.47-9.21.79-2.22,1.45-5.74,3.12-7.47.73,2.65,2.82.5,2.65-1.19-.19-1.76-1.58,1.76-2.65,1.19.31-1.53,1.26-2.78,1.81-4.21,1.23.51,2.26,1.4,3.44,1.95,1.06.49,1.88,1.53,3.17,1.52.1.09.19.18.29.28-.15.36-.44.77-.03,1.08.39.3.84.1,1.24-.1.1.08.19.16.29.24.4,1.29,4.28,5.17,5.96,4.48.47,2.05,2.5,2.9,4.04,4.02,1.36.99,2.75,3.19,4.68,2.69.25.18.49.36.74.54-.14,1.28,2.34,3.19,3.55,2.68.14.1.29.2.43.3-.2,1.27.49,1.45,1.51,1.21,0,0,0,0,0,0-.01.6-.1,1.23.53,1.61.52.31.8-.17,1.18-.35.34.25.67.51,1.01.76-.11.22.95,1.6,1.18,1.82.83.76.8,1.07,2.11.63Zm-37.02,15.4c.59-.55,1.18-.45,1.75-.45,5.47,0,10.94,0,16.41,0,2.42,0,4.85.06,7.26-.11,3.09-.21,2.16-.98,2.33-3.6.13-2.17,1.16-3.86-.2-5.81-1.29-1.85-3.76-2.84-5.59-4.02-3.53-2.27-6.13-5.35-9.4-7.9-1.41-1.1-3.42-1.43-4.66-2.69-.87-.89-.74-2.82-1.48-3.45-2.82-2.41-4.49,4.23-4.98,5.71-1.29,3.93-3.04,8.1-3.59,12.21-.25,1.86-.59,3.94-.51,5.8.03.7.08,1.65.37,2.32.14.34,1.33,1.6,1.33,1.77,0,.55-1.3,1.47-1.57,1.97-.3.58-.43,1.19-.54,1.82-.38,2.07,0,4.32,0,6.41-.03,4.3.17,8.46.89,12.71.79,4.66,1.96,9.22,3.28,13.75.22.76,2.29,8.48,4.28,6.13.67-.8-.3-4.12-.18-5.26.25-2.42.56-1.87,2.41-2.47,1.36-.44,2.12-.92,3.63-1,1.57-.08,3,.31,4.46-.52,2.99-1.7,4.97-4.61,8.37-5.44,2.71-.66,3.47-3.03,3.71-5.78.36-4.24-.95-8.59-.76-12.84.14-3.11,1.14-6.89-2.92-7.21-4.82-.37-9.79-.09-14.63-.07-1.91,0-3.97.25-5.87,0-1.73-.22-2.24-1.08-3.6-2.04Zm.72-32.97c-1.28.29-2.19.42-2.1,1.82.04.56-1.39,3.18-.28,3.41.38.08,2.05-4.86,2.38-5.23Z"/>
      <path class="cls-4" d="m155.07,56.44c-1.12-.63-2.41.43-3.12-.07-1.26-.89.15-1.94.99-2.26.8-.3,2.17.38,2.5,0,.85-1.02-.7-1.64-.49-2.37.29-.99,2.77-3.06,3.65-3.57.66-.38,1.31-.29,1.84-.79.33-.31.11-.93.31-1.29.46-.81.74-.96,1.37-1.55.36-.34,3.58-2.77,3.14-3.41-.89-1.27-3.65,1.15-4.3,1.05-.92-.14-.2-1.99-1.42-1.91-.2-.22.62-.5.67-.55.3-.25-.85-.34-.75-.6.17-.18.38-.3.63-.37-1.06-.27-.47-5.19-.51-5.87-.04-.78.09-6.96,1.5-5.39.46-.32-.12-1.57,1.12-1.15.09-.37.2-.83.36-1.49.6,1.04,2.13.17,3.05.12.94-.06,2.98.57,2.88-1.01.75,1.11,2.48,1.95,3.71.96-.46.88.69,1.52,1.5,1.33,1.65-.38.27-.81.37-1.17-.01.05-1.2-1.56.17-.83,1.04.56,1.32,2.09,1.42,3.1.07.66-.42,2.75.16,3.13.69.45.86-.84,1.22-.6,1.49.99-2.15,2.52,1.47,3.13-3.59,4.15-7.74,7.83-11.62,11.71-3.91,3.92-7.68,8.09-11.84,11.73Z"/>
      <path class="cls-4" d="m102.29,46.11c.17-1.52-1.01-.84-1.96-1.02-2.04-.39-1.6-.38-3.52.64-1.46.78-3.79.7-5.03-.31,1.43.19,1.22-.82,2.1-1.4.96-.64,1.17-.56,2.29-.59.86-.03,1.33.22,2.17-.06.15-.44.43-.76.83-.95.62,0,1.23,0,1.85,0,1.29-.03,2.47-.15,3.74-.34,1.75-.26,3.01-.05,4.78-.03,1.21.01,2.67-.68,3.82-.55,1.22.14,1.88,1.07,3.07,1.29.99.19,2.04-.03,3.08.17,1.21.24,2.21.78,3.49.83,2.2.1,3.13.09,5.23.69,1.49.43,2.35,1.34,3.18,2.02-.3.3-.28.57.05.83.34.17.65.12.93-.14.39-.51.85-.57,1.36-.18.72.26,1.39.14,1.99-.36-.03.92.24.98.35,1.37.28-.07.5.01.68.24-.07.38-.14.77-.22,1.15,1.38,1.07,4.13.93,5.82,1.91.93.54,3.99,2.49,2.81-.11-.74-1.62-3.69-2.09-5.04-3.01-1.35-.91-1.88-1.52-3.39-2.08-1.9-.71-3.62-1.38-5.54-2-1.8-.58-3.41-.66-4.22-2.44-.28-.61-.22-1.3-.5-1.92-.37-.14-.68-.36-.91-.68.07-.35.08-.7.04-1.05.68-.1.45.55.67.7.52-.05.09-.72.57-.72.24.19.4.42.49.71.5-.04.01-.71.49-.71.33,0,.53.72.83.85.03.01-.03-.81.03-.83.48-.24.57,1.77.55,1.69.58-.02.1-.69.56-.71.49-.02.2.54.51.71.53-.02.03-.68.47-.71.49-.03.22.53.52.71.54,0,.03-.68.47-.71.31.13.47.36.48.7.6.07.04-.78.71-.69.17.53-.05,1.18.31,1.69.57.07.01-.8.58-.7.22.19.36.42.41.7.57.06.04-.75.68-.72.12.55,0,1.18.31,1.71.6.09.03-.77.58-.71.2.21.36.45.47.72.48-.06,0-.74.51-.71.21.2.37.44.48.71.48-.05,0-.73.51-.71.22.19.39.43.49.71.44-.04.06-.77.49-.7.26.04.41,1.61.44,1.74.35-.06.78-2.09.99.12.18-.25.37-.51.55-.76.19-.14.44,1.55.45,1.59.56-.02.09-.65.61-.74.36.5-.03,1.25.43,1.73.55.06-.02-.82.58-.69.19.2.32.43.4.69.57.06,0-.81.59-.69.2.19.34.43.4.7.55.05.02-.76.64-.72.09.57.18,1.14.27,1.7.64.09.11-.79.66-.69.23.18.36.42.4.71.58.07.04-.76.68-.72.11.55.03,1.17.3,1.7.6.09.06-.74.67-.71.08.55.17,1.13.26,1.69.69.13.08-.73.63-.69.22.2.38.44.49.72.45-.04.06-.77.49-.7.36.06.4,2.41.43,2.65.62.12.07-.74.73-.68-.08.14-.28,2.38-.89,1.97,1.05.71,1.08-1.08,1.93-1.19,2.42-.3-.32,1.94-.88,2.42-1.78,1.51-.96.99-.34,3.08-.63.06-2.7-.55-3.09-1.05-.23-.3.21-1.4-.04-1.58-.78-.54-2.65,1.61-2.77,2.57-9.33-5.07-18.35-7.97-28.83-9.47-1.57-.03-3.14-.06-4.71-.09-1.66-.36-3.32-.33-4.99,0-1.24.17-2.51.17-3.73.53-.08-.01-.17-.03-.25-.04Zm4.4-2.32c1.26.8,6.28.7,7.35-.14-2.61-.35-4.98-.37-7.35.14Z"/>
      <path class="cls-19" d="m97.56,221.35c-.14-2.99,9.83-1.06,11.43-1.01,4.73.14,10.02,0,14.72-.42,2.01-.18,3.86-.97,5.79-1.47,1.42-.37,2.67-1.36,4.03-1.67.82-.19,1.35.26,2.04.22,1.59-.08.51-.34,2-1.04,1.08-.51,3.89.28,4.51,1.41-6.43,2.68-14.5,3.64-21.38,4.22-2.16-.28-4.32-.37-6.47.05-1,0-1.96.44-2.98.23-1.49-.41-3.01-.16-4.52-.18-1.32,0-2.64,0-3.95,0-1.74-.15-3.5.14-5.21-.34Z"/>
      <path class="cls-19" d="m79.16,217.38c-.46-1.2,1.15-.41,1.28-1.08.14-.74-.24-.74-.41-1.33-.15-.52-1.21.34-1.03-.76.1-.61,1.05-.76,1.54-.82,1.21,2.35.85,2.35,3.64,2.24.46.03.92,0,1.37-.1.46.04.77.31.94.81.67.17,1.91.09,2.44.35.88.43.24.87,1.02,1.42.84.59,1.53.45,2.48.59,1.47.21,4.78.13,3.62,2.22-2.45-.04-4.84-.46-7.21-1.05-2.72-.68-5.45-1.28-8.18-1.91-.5-.19-.99-.39-1.49-.58Z"/>
      <path class="cls-10" d="m45.86,101.41c-.64.77-.16,1.73-.42,2.6-.29.98-.22,2.08-.31,3.12,0,1.74,0,3.49,0,5.23-.08,1.42-.11,2.83.19,4.23-1.69.04-.84-1.43-.89-2.42-.09-1.59-1.36-2.23-1.56-3.57-.16-1.02.78-2.51.92-3.56.11-.89.16-1.51.36-2.36.14-.59.37-.93.39-1.61.05-1.38-.91-2.68-.55-4.11.48-1.89,1.33-1.84,1.17-3.88-.18-2.22-.33-1.47,1.22-2.59,1-.73,1.42-1.15,1.22-2.54.18.1.36.2.54.3.02.16.04.31.06.47-.22.98-.44,1.96-.66,2.94-.31.51-.47,1.07-.47,1.67-.43.72-.52,1.51-.44,2.33-.27.35-.29.77-.29,1.19-.5.79-.49,1.66-.44,2.55Z"/>
      <path class="cls-19" d="m61.74,154.69c.17-.08-3.02.53-2.57.62-.84-.18-1.07-.41-1.42-1.44-.19-.55.02-2.04-.17-2.26-.99-1.18-.93.09-1.57.42-.18.09-.02,1.62-.85,1.1-.55-.34-.21-2.23-.33-2.85-.13-.73-.33-1.89-.94-2.44-.64-.58-1.85-.38-2.35-.98-.95-1.13.19-2.44-.54-3.64-.21-.35-3.49-3.34-1.03-3.58,1.79-.18,1.86,3.8,2.6,4.88.45.65,1.67,1.91,2.22,2.33.69.54.02,1.58,1.54.84,1.77,2.36,3.49,4.76,5.42,7Z"/>
      <path class="cls-19" d="m75.67,166.65c-.32.91-2.15,1.38-2.99,1.09-1.26-.43-1.48-1.63-2.54-2.4-1.22-.88-2.57-.66-3.47-2.07-.54-.85-1.48-3.36,0-3.61.08,0,.15.01.23.03,1.86,2,4.06,3.58,6.29,5.11.56.4,1.13.79,1.69,1.19.26.22.52.43.78.65Z"/>
      <path class="cls-10" d="m.62,100.42c.93-.1.9-1.96,1.66-.97.41.53-.21,5.04-.31,5.89-.21,1.88-.17,3.85-.41,5.7-.12.88-.41,1.28-.6,2.08-.21.87-.2,2.22-.6,2.97.02-1.48-.69-2.95-.1-4.45,0-1.92,0-3.83.01-5.75.01-1.27.05-2.54.03-3.81-.01-.59.09-1.13.32-1.66Z"/>
      <path class="cls-19" d="m51.79,204.98c.55-3.02,1.96-.91,3.19.08.43.35,5.48,3.37,2.8,3.4-1.39-.36-2.41-1.46-3.75-1.93-.74-.51-1.49-1.03-2.23-1.54Z"/>
      <path class="cls-4" d="m151.31,8.29c-.31.37-1.93.89-2.41.7-.88-.35-.13-.77-.86-1.23-1.58-1.01-2.32.03-3.46-1.95,2.34.55,4.58,1.39,6.73,2.48Z"/>
      <path class="cls-4" d="m117.21.63c-.77,1.36-6.48.38-7.85.32-2.72-.11-5.61-.18-8.33-.11,1.39-.52,2.83-.13,4.24-.29.49,0,.97.01,1.46.02,3.08,0,6.17,0,9.25,0,.41.02.81.03,1.22.05Z"/>
      <path class="cls-19" d="m48.24,131.8c.21.41.42.81.62,1.22.15.65.31,1.29.46,1.94.31.98-2.29,1.88-2.6,1.23-.31-.65.83-.78.87-1.26.07-.87.14-1.27-.28-2.16l.92-.97Z"/>
      <path class="cls-4" d="m158.17,11.3c-1.56.32-2.8-1.16-4.37-.76-.58-1.33-2.19-.66-2.26-2.19,2.35.66,4.54,1.69,6.63,2.95Z"/>
      <path class="cls-3" d="m157.76,211.44c1.5-.99,3.09-1.78,4.7-2.56-.22.67-.93.94-1.23,1.56-1.24.03-2.18,1.16-3.48,1Z"/>
      <path class="cls-13" d="m115.99.58c-3.08,0-6.17,0-9.25,0,.65-.75,8.4-.79,9.25,0Z"/>
      <path class="cls-4" d="m175.98,21.98c-1.49.21-2.22-.28-2.54-1.72,1.03.3,1.76,1.05,2.54,1.72Z"/>
      <path class="cls-17" d="m204.99,164.64c-2.08-.79-1.81-2.23.34-.67-.11.22-.22.45-.34.67Z"/>
      <path class="cls-4" d="m144.08,5.62c-.24.26-1.33,1.31-1.66,1.19-.88-.31.2-1.04.18-1.69.5.17.99.33,1.49.5Z"/>
      <path class="cls-4" d="m182.39,29.16c-.29-.67-.52-1.33.24-1.86,1.16.85,1.16.89-.24,1.86Z"/>
      <path class="cls-14" d="m118.97,221.69c-.5,0-1,0-1.5,0-1.08-.02-2.16-.03-3.24-.05,2.15-.42,4.31-.33,6.47-.05-.58.03-1.16.07-1.73.1Z"/>
      <path class="cls-4" d="m145.55,55.62c1.2-.14,2.11.13,2.24,1.55-.75-.52-1.49-1.03-2.24-1.55Z"/>
      <path class="cls-17" d="m208.48,156.43c-4.06-.55-1.22-1.63.05-.21.02.08,0,.15-.05.21Z"/>
      <path class="cls-11" d="m.27,105.88c0,1.92,0,3.83-.01,5.75-.37-1.92-.32-3.83.01-5.75Z"/>
      <path class="cls-1" d="m106.78,221.89c-.91.17-1.87-.28-2.75.25-.48.03-.89-.14-1.25-.45,1.32,0,2.64,0,3.95,0,.02.06.03.13.04.2Z"/>
      <path class="cls-19" d="m131.4,174.14c1.64,1.12,1.93,2.3-.41,2.58-.5-.15-1-.32-1.5-.49-.5,0-.83.23-1.01.72-.13.26-.34.44-.63.54-.25-.04-.47-.14-.67-.3-1.04.48-2.04.36-3.35.5-1.09.12-2.11,1.07-3.3,1.21-1.42.16-2.85-.16-4.16-.7.98,2.18-4.96,1.65-5.95,1.67-.67.01-3.03.47-3.61.32-.66-.17-.77-.76-.75-.76.19-.32.13-.51-.18-.58-.53-.01-1.06-.02-1.59-.02-1.21-.06-2.46.17-3.65-.09-.97-.21-2.19-1.17-3.17-1.19-.81-.01-2.06,1.2-2.62.99-.57-.2-.54-1.35-1.27-1.78-.6-.35-1.63.23-2.31-.07-1.41-.62-1.82-3.1-3.86-2.42-.22.07-2.57,2.86-2.55.84.02-1.81,3.85-.52,3.04-2.25,3.46,1.14,6.98,2.06,10.54,2.79.79.16,1.55.56,2.4.41,1.66.16,3.31.32,4.97.48.93-.1,1.8.42,2.73.26,1.33,0,2.65,0,3.98,0,1.03.01,2.09.19,3.09,0,2.85-.52,5.74-.64,8.6-.99,2.44-.4,4.89-.78,7.22-1.66Z"/>
      <path class="cls-16" d="m132.14,173.81c.41-.32.83-.64,1.24-.96,1.44-.26,2.71-1.26,4.27-.96-1.72.99-3.51,1.76-5.51,1.91Z"/>
      <path class="cls-6" d="m145.56,168.33c-.85,1.39-2.25,1.88-3.71,2.29.33-.33.66-.65.99-.98.87-.51,1.75-1.01,2.72-1.31Z"/>
      <path class="cls-18" d="m82.18,170.35c-.51-.08-1.02-.15-1.52-.23-.17-.08-.33-.17-.5-.25-.5-.48-1-.97-1.49-1.45,1.34.34,2.46,1.07,3.52,1.93Z"/>
      <path class="cls-2" d="m142.84,169.64c-.33.33-.66.65-.99.98-.56.28-1.15.32-1.76.23.82-.62,1.71-1.09,2.75-1.21Z"/>
      <path class="cls-19" d="m111.45,184.85c-.79-.36-.29-1.3-1.27-1.71-.29-.12-1.67-.07-1.97.05-.7.27.02.65-.6,1.02-.84.5-2.35.69-3.28.83-.91.13-3.8.67-3.73-.68.07-1.19,2.78-.64.71-2.29.36,0,2.48-.29,2.81,0,1.01.91-.43.6-.35,1.39.37.02,1.55.26,1.95.09.42-.18.39-.9.59-.97,1.18-.48,2.87-.45,4.16-.5,3.73-.13,7.61.59,11.31.05,1.49-.22,2.94-1.24,4.44-1.18.53.02,1.74.86,2.2.71.65-.21.56-1.14,1.04-1.34,1-.41,1.88.68,2.66-.39.89-1.22-.44-.7-.82-1.36.84-.76,1.32.43,2.04.55,1.63.27,1.27.1,1.89-.78.23-.32-.61-.75-.04-1.05.55-.29,1.11.32,1.65.45.86.2,1.34.5,2.17.11.32-.15-.44-1.19.29-1.21,1.36-.04.18,2.95-.33,3.2-.21.1-1.02-.75-1.46-.62-.72.22-.5,1.38-1.07,1.61-.81.32-1.9-.97-3.19-.39-.61.27-.87,1.06-1.39,1.32-.62.3-.96.14-1.64.27-.79.15-2.04.9-2.73.88-.29,0-1.42-.9-1.6-.75.03.43-.1.8-.39,1.1-.47.07-.95.1-1.43.07-.68.2-1.42.41-2.1.5-.36.05-.57-.67-1.06-.57-.26.05-.21,1-1.02,1.06-.95.07-.59-.5-.9-.64-.58-.27.09-.36-1.6-.53-.81-.09-6.23-.55-5.48.91.11.21-.14.63-.47.81Z"/>
      <path class="cls-19" d="m30.4,151.09c1.22.21,1.8-1.24,2.72-1.8.73-.44,1.59-.52,2.37-.86,1.98-.86,1.24-2.33,3.21-3.21,1.8-.81,2.12-1.33,3.37-2.83,1.27-1.53,2.69-3.19,4.87-2.33-1.55.21-3.89,2.99-1.2,2.18.21,1.16.62,1.96-.23,2.8-.62.63-.53-.59-.8-.53-1.47.34-2.34,2.79-3.56,3.56-.49.31-1.1.16-1.56.5-.56.42-.88,1.06-1.41,1.46-.89.68-2.25.78-3.2,1.64-.55.5-.51,1.38-1.31,1.66-.26.09-1.77-.21-1.78-.4.11-.19.19-.39.25-.59-.25-.84-1.22-.41-1.74-1.27Z"/>
      <path class="cls-19" d="m26.57,157.47c.31,1.22-1.54,3.19-2.61,3.64-.56.23-1.56-.17-1.96.11-.68.46.09.7-.31,1.34-.41.67-.86.8-1.03,1.62-.09.44.43,2.18.53,1.91-.15.42-1.28,1.4-2.48.91-2.07-.83.66-2.04-.12-3.03-.42-.54-1.28.37-1.45.06-.39-.71.1-.22.17-.91.23-2.08,2-3.35,3.63-4.38.59-.38,1.33-.58,1.81-1.13.55-.63.35-1.61,1.23-1.89,1-.31,2.59.91,2.6,1.75Z"/>
      <path class="cls-19" d="m34.36,191.78c-.74-.66-1.48-1.33-2.22-1.99-.34-.49-.75-.91-1.24-1.25-.08-.16-.17-.32-.25-.48.68-1.1-1.05-3.31-.61-3.77.61-.64,2.32.82,2.96,1.2-.08.57-.71,0-.9.45-.2.46,1.92,1.9,2.21,2.17,1.9,1.76,3.09,2.76.06,3.69Z"/>
      <path class="cls-19" d="m93.78,180.54c0,.46.48,1.65.36,1.92-.56,1.26-2.3.61-3.33.57-.37-1.41-1.34-.52-2.21-.88-.52-.22-1.14-.92-1.29-.96-.61-.2-1.31.16-1.93-.09-.65-.26-.88-1.33-1.74-1.03.96-2.52,6.61.04,8.08,1.09.84.6,1.39.53,2.06-.62Z"/>
      <path class="cls-19" d="m28.63,157.15c-1.34.03-.99-4.93,1.03-4.97,3.01-.06.43,3.91-.29,4.74-.2.23-.39.43-.73.23Z"/>
      <path class="cls-19" d="m67.73,171.02c1.4-2.45,2.53-.03,3.74.86.06.04,3.1.9,3.06.82.68,1.43-1.02,1.72-2.27,1.47-.45-.09-.71-.72-1.18-.97-1.01-.55-1.58-.13-2.21-1.55-.25-.57-.71-.56-1.13-.62Z"/>
      <path class="cls-19" d="m21.51,170.96c1.48-.29,2.46-.63,2.65.44,0,.05-.96,1.05-.92,1.63.02.25.8,1.17.92,1.57.18.59.4,3.11-.54,3.12-1.81.03-.66-4.04-1.51-4.81-.65-.58.15-1.39-.6-1.96Z"/>
      <path class="cls-19" d="m97.09,184.15c-1.02.28-2.84-1.41-2.38-2.34.75-1.5,1.26.33,2.15.57.74.2,1.94-.96,2.56-.26.46.52-.42,2-1.1,2.03-.33.01-.65,0-1.24,0Z"/>
      <path class="cls-19" d="m60.71,166c1.64-1.85,3.16-.25,4.3,1.47.53.8,1.31.62.42,1.48-.61.59-1.53.29-1.64-.52-1,.1-1.64-1.9-2.12-2.16-.31-.17-.62-.1-.97-.27Z"/>
      <path class="cls-19" d="m32.14,182.16c-1.93.25-1.28-.56-1.9-1.91-.5-1.09-1.34-1.38-1.7-2.32-1.31-3.41,2.96.14,2.74,2.33-.07.74.11,1.34.86,1.9Z"/>
      <path class="cls-19" d="m40.35,197.01l-.33-.24c-1.25-1.4-2.81-2.45-4.14-3.76.07-2.26,2.24.14,2.68.74,1,1.41,2.24,1.73,1.79,3.26Z"/>
      <path class="cls-19" d="m39.36,138.77c.27-.33.6-.59,1-.76,1.63.81-.89,5.04-2.09,4.79-1.52-.32,1.17-2.77,1.09-4.03Z"/>
      <path class="cls-19" d="m82.53,179.21s-1.38-1.09-1.43-1.12c-.35-.2-.84.16-1.16-.15-.16-.15-.23-.83-.38-.91,1.47-1.58.56-1.33,1.92-.04.33.31,2.55.75,2.17,1.63-.23.53-.77.33-1.13.6Z"/>
      <path class="cls-19" d="m75,209.43c.95-.24,2.43-1.05,3.32-.43.75.52,1.04.88.41,1.51.12-.12-4.8-.2-4.79-.7,0-.36.39-.83,1.06-.37Z"/>
      <path class="cls-19" d="m47.18,201.07c-.19-.82-2.43-3.05-1.22-3.86.59-.39,2.89,1.76,1.63,2.8-.22.18-.24.59-.41,1.06Z"/>
      <path class="cls-19" d="m66.74,210.46c.27-.28.55-.55.85-.81.22-.44.06-.73-.5-.9.22-.49.21-1.08,1.17-1.02.05,0,1.06,1.37,1,1.23.19.45,1.04.34.11,1.02-.73.54-1.56.57-2.62.47Z"/>
      <path class="cls-19" d="m73.35,210.06c-1.1,1.2-2.24,3.18-3.77,1.87-1.78-1.52,2.09-1.07,3.26-2.07.05-.05.27.1.51.2Z"/>
      <path class="cls-19" d="m22.38,153.28c1.51.06.14,1.56-.14,1.86-.2.22-.5,1-.89,1-.67,0-1.27-.6-.88-1.23.47-.75,1.16-1.25,1.91-1.63Z"/>
      <path class="cls-19" d="m87.51,212.86c.42-.42,2.61-.97,2.85-.81.98.64.8,2.55-.59,1.69-.68-.41-1.59-.13-2.26-.88Z"/>
      <path class="cls-19" d="m25.72,172.26s3.77,3.21.95,2.74c-1.7-.28-1.79-.51-.95-2.74Z"/>
      <path class="cls-19" d="m80.15,169.87c.17.08.33.17.5.25.41.42,1.31,1.32.98,2.05-.68,1.48-1.17-.17-1.51-.54-.87-.95-1.93-1.48.04-1.76Z"/>
      <path class="cls-19" d="m50.24,151.2c-.73,1.42-1.46.87-1.98-.09-.54-.99.02-2.74.87-1.36.32.52.91.83,1.11,1.45Z"/>
      <path class="cls-19" d="m84.51,212.61s-4.44-.99-2.18-1.96c.97-.41,1.5,1.36,2.11.34.33.23.59.52.64.92.05.37-.14.62-.58.7Z"/>
      <path class="cls-19" d="m20.62,168.08c-.1.77-1.45,2.38-2.37,1.98-.89-.39-.38-2.97.51-2.06.6.62,1.12.36,1.86.07Z"/>
      <path class="cls-19" d="m70.16,207.1c-.05.5-4.26-.62-1.51-2.06.2-.1,1.54,1.66,1.51,2.06Z"/>
      <path class="cls-19" d="m58.8,164.2c-2.48.14.03-4.24,1.03-.84.19.66-.62.68-1.03.84Z"/>
      <path class="cls-19" d="m34.19,145.41c-1.29.41-.96,1.41-1.87,1.95-.26.15-2.15.76-1.71-.17.36-.77,2.38-1.88,3.59-1.78Z"/>
      <path class="cls-19" d="m51.7,155.16c.51-.64,1.93-2.13,2.22-.23.06.35-.58,1.78-1.05,1.19,0-.14,0-.29-.01-.43.09-.52-.58-.65-1.16-.54Z"/>
      <path class="cls-19" d="m84.05,213.42c4.21,1.19-1.18,1.71-1.19.64,0-.56.56-.61,1.19-.64Z"/>
      <path class="cls-19" d="m40.92,192.82c.47-.48.33-1.55,1.18-1.43.45.06,1.12.63.72,1.38-.59,1.1-1.23-.28-1.89.04Z"/>
      <path class="cls-19" d="m26.68,183.28c.07-2.98,2.73-.45.71.78-.31-.19-.55-.45-.71-.78Z"/>
      <path class="cls-19" d="m56.71,203.49c4.96,3.41-1.01.56-.77.17.12-.2.35-.18.77-.17Z"/>
      <path class="cls-19" d="m18.03,171.86c-.36-.45-.71-.9-.9-1.46.36-.09.72-.19,1.08-.28.55.77,2.02,1.78-.18,1.74Z"/>
      <path class="cls-19" d="m15.52,167.62c-.48-.71-1.01-1.39-1.29-2.22.09-.7.6-.88,1.43-1-1.14,1.16.79,2.65-.14,3.22Z"/>
      <path class="cls-19" d="m55.9,161.09c-1.24-.78,1.4-3.38,1.25-.94-.04.56-.46.93-1.25.94Z"/>
      <path class="cls-19" d="m44.11,199.73c-.49-.23-.92-.55-1.28-.96-.6-1.99,3.3.69,1.28.96Z"/>
      <path class="cls-19" d="m55,156.96c.15,2.25-1.31.24-1.36.23.14-.49.38-1.01.89-1.06.72-.07.09.72.47.84Z"/>
      <path class="cls-19" d="m76.47,213.66c-2.37-.16.96-2.85,1.03-.66.01.49-.62.56-1.03.66Z"/>
      <path class="cls-19" d="m46.17,147.14c-1.63.26,1.02-3.42,1.02-1.02,0,.56-.34.99-1.02,1.02Z"/>
      <path class="cls-19" d="m26.53,178.46c-1.12.34-1.65-1.02-1.13-1.91.1-.16,1.09-.98.68-.11-.37.77-.06,1.41.45,2.02Z"/>
      <path class="cls-19" d="m61.38,159.15c-.57-.26-1.72-.12-1.61-1.1.06-.6.34-.89.84-.39.37.37.79.71.77,1.49Z"/>
      <path class="cls-19" d="m65.65,170.06c.36-.44,2.72-1.65,2.09-.49-.47.87-1.27.47-2.09.49Z"/>
      <path class="cls-19" d="m65.53,203.99c.53.76.44,2.58-.63,1.38-.86-.95.84-.7.63-1.38Z"/>
      <path class="cls-19" d="m44.06,193.95c-.42.57.19,1.05-.71.92-.52-.07-.42-1.74.29-1.72.39.01.44.42.42.8Z"/>
      <path class="cls-19" d="m33.53,182.72c2,.04-.73,2.16-.8.48-.02-.54.58-.27.8-.48Z"/>
      <path class="cls-19" d="m50.3,199.7c1.97-.39-1.22,1.89-1.02.4.08-.55.68-.27,1.02-.4Z"/>
      <path class="cls-19" d="m40,189.06c-.11.56-1.31.67-1.24,0,.16-.27.4-.38.71-.33.27-.1.49-.02.53.33Z"/>
      <path class="cls-19" d="m64.13,208.2c-.33.07-.56-.05-.69-.35-.04-.56,1.28-.57,1.32-.05-.08.32-.29.45-.63.39Z"/>
      <path class="cls-19" d="m61.07,206.33c-.74.21-1.79-.81-1.25-.79.55.02,1,.22,1.25.79Z"/>
      <path class="cls-19" d="m22.33,168.21c-.58,1.42-1.62-.33-.5-.41.24-.02.48.09.5.41Z"/>
      <path class="cls-19" d="m46.87,194.87c1.13.24-.24,2.27-.29.6,0-.24-.06-.51.29-.6Z"/>
      <path class="cls-19" d="m62.13,204.09c-.52,1.25-1.59-.58-.46-.46.25.03.47.13.46.46Z"/>
      <path class="cls-19" d="m75.56,172.35c-.27-1.33,1.61.86.65.71-.42-.07-.52-.44-.65-.71Z"/>
      <path class="cls-4" d="m11.53,62.11c-.12-.39,0-.72.26-1.01.47.66,1.13,1.65,2.04.63,1.12-1.25-.86-1.22-1.6-1.4.24-.42.49-.83.73-1.25.88-.41.84.67,1.4.95.49-1.64,2.29-3.45,3.68-4.39,1.46-.98,3.15-.4,4-2.24-1.16.58-1.71-.58-2.69-.63.33-.41.74-.69,1.22-.86.53-.04.94.18,1.22.67.47-.1,2.12-.89,2.12-1.57,0-1.54-1.03-.07-1.68.51-.84-1.04-.93-1.58-.6-2.79.09-.34.96-2.39,1.47-2.22.15.37.4.64.74.82-.32,0,2.11-2.82,2.25-2.98,1.29-1.47,2.52-2.92,3.86-4.35,1.3-1.39,2.16-3.07,3.57-4.38.4-.37,1.08-.64,1.36-1.13.29-.53-.13-1.58.31-1.91.22-.17,1.33.31,1.75.13-.08.04,1.1-1.35,1.09-1.35.61-.94.68-1.89,1.33-2.62,1.43-1.58,7.56-2.08,2.72-4.51.15-.3.41-.47.72-.59.1.1,3.08,1.42,3.13,1.42,1-.05.69-.02,1.16-.98,1.29-2.64-.63-2.09-2.21-2.08,1.44-1.04,2.77-2.24,4.38-3.03-.22.77-.43,1.53,1.13,1.81.33-.06-.03-.35-.18-.23-.5.41-3.21.89-1.57,2.05.72.51,1.99-.76,1.75-1.82-.25-.97-.49-1.5-1.13-1.81.52-.53,1.13-.92,1.8-1.22-.23.38.26,2.8.86,2.63.14-.04,2.59-4.92,3.85-3.23.37.49-.69.76-.78,1.01-.38.23-.7.53-.95.9.11.2.22.4.33.6.14-.65.12,2.07-.08,1.62.11.24,0,.62.31.77-.36-.18,2.07-1.35,1.96-1.22,1.25-1.61-.51-.34-.63-1.39-.08-.7.68-.87.92-1.33.27-.51-.71-.75.13-1.37.44-.32.82.31.94.25.14-.06.3.59.67.36.26-.16.04-.85-.02-.81-.08.06-.46-.47-.24-.73.59-.73,1.56.28,2.04-.02.22-.13.53-1.18.77-1.44.41-.44,1.71-.99,2.21-1.17,1.33-.47,2.59-.15,3.83-.36.3-.05.79-.62,1.18-.74.16-.05.87.6.97.53.73-.51-.1-1.35.2-1.59.89-.73,1.78.41,1.48,1.27-.35,1.01-2.44.99-3.26,1.35-.36.16-.3.65-.66.78-.64.24-1.49.15-2.17.35-1.66.47-3.12,1.45-3.9,3.01-.46.59-1.15.85-1.74,1.38.16-.22-.25-.36-.45-.28-2.63,1.02-.15.97-.17,1.63.39-.27.61-.64.62-1.35.27-.54.17.65.35.5.97-.76-.02-.46,1.07-.18.28.07.26-1.63.32-1.71,2.08.04,5.65-1.43,7.56-2.39,1.11-.55,3.91-2.99,4.98-1.86.53-.61,1.46-1.24,2.15-1.5.66-.25,1.05.92,1.73-.12.45-.68.32-2.8-.52-2.86-.57-.04-1.21,1.17-1.77,1.42-.38.17-2.48.3-2.82.07-1.32-.9.62-.89.67-.92.52.35,1.05.36,1.59.04.41-.18.78-.41,1.13-.69.76-.31,1.15-.42,1.72-.81.1-.37.3-.68.61-.95.49-.23.91-.12,1.27.33.28.28.62.39,1.02.33.3-.16.39-.4.25-.72-.11-.4.02-.6.39-.6.41.09.82.15,1.23.18,1.77-.73,2.9-2.31,4.87-2.65,2.64-.46,5.64-.43,8.24.09.46.09,5.71,1.29,4.45-.21-.39-.47-1.41.25-1.89-.42-1.03-1.44,1.55-.78,1.9-.75,5.75.49,11.68.76,17.49.44.79-.04,6.36-1.13,4.47.9-1.3,1.4-4.69-.58-5.51.49-2.29,2.99,10.6,2.5,6.88-.31.44-.5,3.41-.1,4.16-.14,1.61-.09,2.51,0,.7,1.19-.81.53-2.59.48-1.74,1.99.48.86,2.6-.01,1.8,2.04-1.12-.33-2.58.32-3.61-.04-.92-.32-.96-.82-1.94-1.14-1.41-.45-3.83.12-5.31.13-.36,0-2.06.19-2.29.02-.41-.31-.05-.91-.47-1.28-.32.39-.13.91-.37,1.5-.37-.87-1.09.05-1.64-.46-.48-.44-.37-.64-.68-1.07-.22-.3.23-2.2-.52-.18-.5,1.35.1,4.6.1,6.04,0,2.44,0,4.89,0,7.33,0,4.44,0,8.89,0,13.33,0,.93.61,3.75-.66,4-1.65.32-.98-4.08-.98-4.76,0-4.58.01-9.16.03-13.74,0-2.47.02-4.95.02-7.42,0-.84.65-4.88.14-5.52-.24-.3-.96-.54-1.23-.19-.47.62.29.63.25.82-.06.29.59.64.38,1.2-.25.64-.52.16-.9.34-1.22.6-3.67,0-4.95-.02-1.45,0-4.7.64-5.91-.24-.39,1.66-3.71,1.67-3.55.17.16-1.56,1.56.18,2.3-.36.61-.45.21-1.51-.5-1.87.3.16-2.18.09-1.79-.01-1.04.26-.61-.42-.85,1.1-.18,1.14.71,2.81-.06,3.69-.39.44-1.7.4-1.57.23-.86,1.11-5.13-.09-6.75.28-.56-.25-.98-.18-1.27.22-.12.25-.16.51-.12.79-.55.17-2.27.22-2.76-.23-.12.46-.24.91-.36,1.36-.8-.49-1.76.16-2.62-.32-.28.34-.1.87-.29,1.36-.82-.66-1.84.24-2.66-.42-.64.97-.65.68-1.24,1.23-1.13,1.05-.51-1.8-1.1,1.13-.83-.58-1.85.34-2.67-.37-.12.46-.23.91-.35,1.37-.41-.7-1.26.52-1.6-.54-.16.63-.28,1.08-.39,1.54-.79-.52-1.76.18-2.62-.33-.69.53.19,1.7-1.01.94-.12.46-.23.92-.35,1.37-.42-.66-1.24.41-1.68-.57-.07.6-.11,1-.16,1.4-1.02-.3-.83.8-1.32,1.1-.81.48-1.57-.34-1.7,1.11-.86-.65-1.89.28-2.8-.47.06.55-.04,1.04-.32,1.48-.18-.1-.35-.23-.49-.39-.2-.1-.41,1.22-.57,1.31-.18-.08-.34-.19-.47-.34-.69-.05.42,1.88-1.09,1.02-.1.41-.22.87-.33,1.32-.42-.65-1.24.4-1.63-.45-.13.53-.25.99-.36,1.45-.44-.65-1.23.42-1.67-.5-.07.93-.14,1.7-.19,2.44-.43.19-.49-.29-.83-.33-.24,1.52-1.06,1.11-1.18,2.45-.54-.64-1.25.13-1.8-.38-.07.4-.14.8-.22,1.34-1.2-1.54-1.82.83-2.01.95-.27-.08-.54-.18-.8-.3,0,.55.22,1.44-.16,1.87-.29.32-1.08.27-1.17.36.09-.09-.72-.03-.79,0-.13.04.25.98-.16,1.12-.2-.09-.37-.22-.51-.39-.71-.04.39,1.88-1.15.99-.23,1.5-1.06,1.08-1.17,2.43-.5-.68-1.22.21-1.8-.53,0,.14-.03,2.45-.2,2.45-.23-.26-.5-.36-.8-.32-.08.42-.15.85-.21,1.27-.39.15-.45-.38-.78-.3-.02.21.02,2.27-.25,2.35-.21-.26-.46-.36-.75-.3-.07.42-.16.84-.27,1.25-.33-.03-.57-.2-.72-.52,0,.06-.06,1.56-.33,1.58-.18-.1-.35-.23-.49-.39-.2-.1-.41,1.22-.58,1.31-.22-.1-.42-.24-.58-.42.16.64.01,1.12-.44,1.45-.15-.18-.33-.29-.57-.33-.01.19-.05,2.48-.41,2.37-.19-.19-.38-.37-.57-.56-.07.93-.13,1.7-.19,2.44-.43.18-.49-.3-.83-.32-.02.47-.11.93-.25,1.38-.25-.07-.46-.19-.65-.37-.22-.05-.27.9.09,1.07.51.24,1.71-.06,2.39.13,2.14.59,4.03,2.19,4.33,4.35.24,1.7-.78,4.66.9,5.54.94.49,3.39.23,4.44.17,1.54-.08,2.2.19,2.07-1.55.31.38,2.34,2.17,2.41,2.45.16.71-.63,1.42-.2,1.84,1.21,1.19,2.45-.52,3.2,1.56.31.86,0,1.66.06,2.53.09.46.36.77.82.93,0,.3-.19.48-.56.54.1.67.25,1.74.26,2.43.06,2.33.43.27-.24,1.51-.2.37.56.46.67.6.43.57-1.73-.08-1.8-.11-.48-.26-1.02-2.15-2.16-.74-.68.84.49,2.13,1.21,2.47.65.31,1,.22,1.64.13.25-.04.71-1.09.99-.91.13.24.27.47.44.69.12-.57.23-1.11.34-1.66.58-.09.33.58.6.73.53-.26.25-2.33.46-2.9.78,1.38.39,2.08-.03,3.53-.24.84-.43,3.08-1.05,3.61-.83.72-2.16-.15-3.08-.47-.39-.13-.41-.75-.94-.75-.65,0-1.12.88-1.6.97-1.89.37-.21-.2-.43-1.37-.19-1.02-1.32-1.22-1.84-2.09-.47-.8.34-1.31-.89-1.91-.34-.16-1.06.2-1.44.15-.41-.05-.89-1-1.24-.91-.24.06-.44,1.22-.81,1.43-.48.27-1.01-.88-1.69-.1-.75-.57-1.5-1.13-2.25-1.7-.49-1.05-.08-1.52,2.75-1.1,1.76-1.52-1.76-1.12-1.63.06.05.49,3.33,2.37,1.63-.06-1.65-1.37-.62-.96-.36-1.51.29-.62.05-.7.08-1.29.02-.32-.45-2.02-.78-2.08-1.16-.21-.51.66-1.06,1.07-.52.39-.68.53-1.35.73-1.15.34-3.71.53-4.81-.09-1.33-.76-2.61-1.61-3.69-2.71.82.2,1.65.27,2.49.21.16.24.37.45.6.62,1.19.3,1.46.49,2.81.18,1.39-.31,3.19-.78,3.87-2.13.75-1.49.25-4.47.21-6.07-.05-1.88-.21-3.62-2.07-4.61-2.25-1.19-10.53-1.63-11.75,1.29-.49,1.17.36,3.53.73,4.72.46,1.46,2.61,3.69,2.4,5.23-.25-.08-.5-.16-.75-.24-.1-.08-.19-.16-.29-.24-.26-.5-.74-.74-1.21-.98-.1-.09-.19-.18-.29-.28-.41-.41-.81-.82-1.22-1.23.39-.42.39-.87-.11-1.11-.39-.19-.55.21-.61.56-1.34-.93-2.45-2.2-3.95-2.92ZM45.33,29.76c-.74-.28-1.6-.14-1.64-.99-.02-.38-4.17,1.6-1.75,2.52,1.06.4,2.66-1.25,3.39-1.52Zm4.75-5.1c-.12-.26-.17-.48-.3-.62-.55-.59-4.42,1.82-3.49,2.85.66.73,3.3-1.96,3.79-2.23ZM105.81,4.74c-.5-.03-1.58.98-1.52,1.52-.02-.2,3.24.9,3.47.51.42-.71-1.13-2.16-1.95-2.03ZM35.71,36.77c-.44.06-1.02-.3-1.26.22.04-.08-2.65,1.42-1.65,1.74.77.25.6-.36,1.12-.45.34-.06.53.12.87.07.12-.02,1.23-2.17.91-1.59Zm44.89-26.33c.09-.29.2-.56.25-.84.15-.8-.13-1.23-.98-.71-1.07.66-.38,1.58-.45,2.52.82.09-.26-1.63,1.18-.98Zm-49.28,29.58c.18.59-.05,1.61,1.11,1,.24-.12.14.85.48.13.13-.27.18-.59-.31-.57-.44.02-.47-.23-.37-.55.11-.36.12-.72-.33-.73-.42,0-.64.31-.58.71ZM98.62,7c.28-.32,1.01-.16.95-.77-.16-1.7-3.51.17-.95.77Zm1.69-.35c.56-.66,1.28.01,1.81-.43.1.11.19.23.27.36.4.16-.3-1.56-1.01-1.61.12.83-1.08.67-1.06,1.69Zm-49.34,16.04c-.48.78-.52,1.23.21,1.32.3.16.54.11.74-.15.11-.39-.79-.71-.95-1.17Zm-14.23,12.08c.52-.04.24-.7.67-.66.28.18.44.12.49-.19-.06-.51-1.49-.14-1.16.85Z"/>
      <path class="cls-4" d="m134.55,9.97c-.47-3.32,4.09-.54,5.32-.12.93.32,7.12.87,5.03,3.46-.21.26-.97.41-1.26.4-1.57-.06-.15-.44-1.12-.92-.1-.05.05-.5-.23-.64-.04-.02-.93.45-1.14.46-1.27.03-1.76.59-2.49-.66-.25-.42.13-1.32-.25-1.67-.3-.28-1.06.39-1.23-.17-.31.2-.71.19-1.02.39-.33.21.08.8-.28.93-.17.06-1.32-.15-1.32-.39-.01-.36-.28-.73,0-1.06Z"/>
      <path class="cls-4" d="m152.8,47.05c-.39-.7-.37-1.38-.26-2.06.71-.16.17.64.64.7.18-.55.4-1.09.3-1.68.81-.2.15.8.82.71.38-.5,0-1.21.44-2.08.06,1.83,1.94.6,2.39,2.02.09.01,1.76-1.1,1.02.66.08-.19-2.36,1.67-2.37,1.67-.09-.03-.25-2.24-.67-1.59-.03.23-.08.45-.14.67-.59.64-1.56.37-2.16.97Z"/>
      <path class="cls-4" d="m130.73,7.38c1.09.05,1.95.65,2.56,1.54-.15-.23,1.82,1.59.47,1.51-.36-.02-.5-.71-.79-.02-.72-.36-1.68-.18-2.44-.47.52.2-1.46-1.2-1.27-.86-.17.14-.33.28-.5.42-.68-.26-.15-1.78.44-1.9.51-.1,1-.25,1.53-.22Z"/>
      <path class="cls-4" d="m155.68,16.04c.42.71,1.61.68,1.35,2.06.96-1.82,1.19.36,1.82-.04.09,1.1,1.34.68,1.95.68.4,0,.08,1.52.02,1.57-.2.19-.56-.2-.81-.18-.66.05-1.04-.07-1.72-.86-2.34-.13-.8.23-2.04-1.12-.23.02-.42.12-.57.3-.47.12-.21-1.64-.2-1.66.11-.21-.16-.49.21-.74Z"/>
      <path class="cls-10" d="m29.89,76.08c.75.57,1.5,1.13,2.25,1.7.49.67,1.35.97,1.75,1.73-1.93.5-3.32-1.7-4.68-2.69-1.54-1.12-3.57-1.97-4.04-4.02,0,0,.04-.04.04-.04,1.7.91,3.09,2.26,4.68,3.32Z"/>
      <path class="cls-4" d="m150.93,14.05c.23.98.02,1.65-.02,2.31,0,0-1.3.01-1.28.02-.13-.03-.29-.66-.66-.79-.38-.13-.77.2-1.22-.02-.68-.34-1.12-2.65-2.09-2.16-.16-.51-.26-2.7.65-2.49.61.14,2.22,3.33,2.94,3.89.33.26,1.4.6,1.68-.76Z"/>
      <path class="cls-4" d="m106.74,40.13c3.75-.65,7.49-.35,11.57-.38-.77.62-1.23,1.09-1.78,1.41-.58.34-1.51.56-1.88.11-1.28-1.56-2.95-.73-4.43-.94-1.15-.16-2.32-.14-3.48-.2Z"/>
      <path class="cls-4" d="m163.74,17.27c-.14,1.72-3.02-.36-3.64-.86-.31-.25-2.36-.55-1.01-1.54.82-.6,2.57,1.37,3.65,1.44.67.04,1.07.39,1,.97Z"/>
      <path class="cls-4" d="m141.58,7.56c1.1.07,6.23,2.06,2.93,2.21-.8.04-6.09-1.91-4.19-2.01.41-.02.81-.12,1.26-.2Z"/>
      <path class="cls-8" d="m67.2,9.3c.57-.91,1.66-.84,2.49-1.26,1.57-.79,3.21-1.48,5-1.71-1.23.98-5.88,3.24-7.48,2.97Z"/>
      <path class="cls-4" d="m166.88,20.73c-4.55-3.25.95-2.06.82-.67-.04.43-.29.66-.82.67Z"/>
      <path class="cls-4" d="m121.71,37.97c.67.09.12.83.88.84.37-.03-.26-.76.24-.8.47-.04.2.55.51.7.52-.02.02-.68.47-.71.5-.03.2,1.18.07,1.3-.26.24-2.89.63-2.8-.07.13-.12.25-.25.38-.37.36-.2.06-.62.25-.9Z"/>
      <path class="cls-4" d="m125.69,41.05c-.48.31-4.23,1.01-4.25.11-.02-1.02,2.69-.27,3.47-.73.1-.06.5.39.78.62Z"/>
      <path class="cls-10" d="m38.18,82.72c-1.21.51-3.68-1.4-3.55-2.68,1.36.66,2.49,1.62,3.55,2.68Z"/>
      <path class="cls-4" d="m166.95,22.56c-1.89,2.06-1.75-1.52-.97-1.48.79.04.84.86.97,1.48Z"/>
      <path class="cls-10" d="m46.12,88.7c-1.31.44-1.28.13-2.11-.63-.24-.22-1.29-1.6-1.18-1.82,1.23.63,2.35,1.41,3.29,2.45Z"/>
      <path class="cls-4" d="m115.59,37.01c.73-.02.54.49.72.7.61.09.05-.78.6-.7.22.22.39.47.51.76.57-.01-.1-.78.47-.77.33,0,.05,2.46-1.99,1.41-.63-.33.02-.93-.31-1.4Z"/>
      <path class="cls-4" d="m133.19,5.32c3.23.1-1.38,2.58-1.23.9.08-.82.83-.75,1.23-.9Z"/>
      <path class="cls-4" d="m162.84,19.93c-.12.94,1.64,1.21.92,2.29-.05.07-1.33.28-1.36-.27-.04-.61-.09-1.22.44-2.01Z"/>
      <path class="cls-4" d="m153.03,13.11c-.91.09-1.57-.92-.63-1.23.5-.16,2.72,1.03,1.48,1.16-.28.03-.57.05-.85.07Z"/>
      <path class="cls-4" d="m157.63,15c-2.38-.49.77-2.91.81-.59,0,.44-.45.51-.81.59Z"/>
      <path class="cls-4" d="m137.22,5.73c-.29.22-1.14,1.79-1.32,1.83-.23.05-1.2.17-.59-.51.45-.5.49-1.47,1.91-1.32Z"/>
      <path class="cls-10" d="m41.82,85.49c-.37.18-.66.66-1.18.35-.64-.39-.54-1.01-.53-1.61.55.44,1.3.63,1.71,1.27Z"/>
      <path class="cls-4" d="m179.39,28.67c0,.84-1.46,1.02-1.37.45.11-.7,1.19-1.57,1.37-.45Z"/>
      <path class="cls-10" d="m40.12,84.23c-1.02.24-1.7.07-1.51-1.21.57.32,1.13.65,1.51,1.21Z"/>
      <path class="cls-4" d="m170.65,21.17c-.19,1.64-1.86-.18-.54-.38.27-.04.5.03.54.38Z"/>
      <path class="cls-4" d="m151.98,15.54c-.61-.2-.78-1.68-.27-1.35.55.35,0,.91.27,1.35Z"/>
      <path class="cls-10" d="m9.1,104.1c1.36.96,1.87,1.82,3.6,2.04,1.9.24,3.95,0,5.87,0,4.84-.02,9.8-.3,14.63.07,4.06.31,3.06,4.09,2.92,7.21-.19,4.25,1.12,8.59.76,12.84-.24,2.75-1,5.12-3.71,5.78-3.4.83-5.39,3.74-8.37,5.44-1.46.83-2.88.43-4.46.52-1.51.08-2.27.56-3.63,1-1.85.6-2.16.05-2.41,2.47-.12,1.15.85,4.47.18,5.26-1.99,2.36-4.06-5.36-4.28-6.13-1.32-4.53-2.49-9.09-3.28-13.75-.72-4.25-.92-8.41-.89-12.71.01-2.1-.37-4.34,0-6.41.11-.63.24-1.25.54-1.82.27-.5,1.57-1.42,1.57-1.97,0-.18-1.19-1.43-1.33-1.77-.29-.68-.34-1.63-.37-2.32-.07-1.86.27-3.95.51-5.8.54-4.11,2.3-8.28,3.59-12.21.49-1.49,2.16-8.13,4.98-5.71.74.63.61,2.56,1.48,3.45,1.24,1.26,3.26,1.6,4.66,2.69,3.26,2.54,5.87,5.63,9.4,7.9,1.83,1.18,4.29,2.17,5.59,4.02,1.36,1.95.33,3.64.2,5.81-.16,2.62.77,3.39-2.33,3.6-2.41.17-4.84.1-7.26.11-5.47,0-10.94,0-16.41,0-.56,0-1.16-.11-1.75.45Z"/>
      <path class="cls-10" d="m1.34,94.19c.59-2.98.95-6,1.69-8.94.09-.36.26-.67.38-1.01,2.08.51,1.01.99-.25,2.16,2.15.09.73,3.38.49,4.49-.14.65-.12,2.81-.53,3.2-.78.75-.58.32-1.79.11Z"/>
      <path class="cls-10" d="m16.2,65.58c.41.41.81.82,1.22,1.23-1.29.01-2.11-1.02-3.17-1.52-1.18-.55-2.21-1.44-3.44-1.95.04-.53.43-.85.72-1.23,1.5.72,2.6,1.98,3.95,2.92.24.18.48.37.72.55Z"/>
      <path class="cls-10" d="m20.67,69.11c1.08,1.1,2.36,1.95,3.69,2.71.28.31.57.62.85.94,0,0-.04.04-.04.04-1.68.69-5.56-3.19-5.96-4.48.25.08.5.16.75.24.14.31.37.5.71.55Z"/>
      <path class="cls-10" d="m9.83,71.14c-.34.37-2.01,5.31-2.38,5.23-1.1-.23.32-2.85.28-3.41-.09-1.4.82-1.54,2.1-1.82Z"/>
      <path class="cls-10" d="m9,67.55c1.07.57,2.46-2.95,2.65-1.19.18,1.69-1.92,3.84-2.65,1.19,0,0,0,0,0,0Z"/>
      <path class="cls-10" d="m.84,96.93c.38-.7.02-1.56.5-2.23.54.72,1.93.95,1.2,2.01.12-.18-1.65.22-1.7.22Z"/>
      <path class="cls-10" d="m17.71,67.09c.48.24.95.48,1.21.98-.4.2-.85.4-1.24.1-.41-.31-.13-.72.03-1.08Z"/>
      <path class="cls-17" d="m209.53,153.2c-1.18-.01-2.93-.45-3.19,1.13-.43-1-1.18-2.73.23-3.02.62-.13,2.8,1.19,2.96,1.9,0,0,0-.01,0-.01Z"/>
      <path class="cls-17" d="m205.02,160.85c-1.25.11-2.62.91-2.5-.77.04-.5,1.01-2.21,1.36-.92.18.67.57,1.17,1.14,1.69Z"/>
      <path class="cls-17" d="m193.05,181.21c-.6-.97.63-1.31.42-1.97-.17-.52-1.16-.89-1.16-1.12-.04-1.82,2.86-.1,1.43,1.75-.28.37-.43.84-.68,1.34Z"/>
      <path class="cls-17" d="m190.73,180.02c.44,2.71-.79,2.65-.25-.02.08,0,.17.01.25.02Z"/>
      <path class="cls-17" d="m197.89,164.08s3.16-.13,1.63.52c-.94.4-1.26.31-1.63-.52Z"/>
      <path class="cls-17" d="m205.43,156.98c-.74,1.75-1.95-1.66-1.13-.71.31.37,1.09-.02,1.13.71Z"/>
      <path class="cls-4" d="m42.07,24.24c4.84,2.43-1.29,2.93-2.72,4.51-.66.72-.72,1.67-1.33,2.62,0,0-1.17,1.39-1.09,1.35-.41.19-1.53-.29-1.75-.13-.44.33-.01,1.39-.31,1.91-.27.49-.96.76-1.36,1.13-1.41,1.31-2.27,2.99-3.57,4.38-1.34,1.43-2.56,2.87-3.86,4.35-.14.16-2.57,2.98-2.25,2.98-.34-.18-.59-.45-.74-.82-.51-.17-1.37,1.88-1.47,2.22-.33,1.21-.24,1.75.6,2.79.65-.58,1.69-2.05,1.68-.51,0,.68-1.65,1.48-2.12,1.57-.28-.49-.69-.71-1.22-.67-.49.17-.9.46-1.22.86.99.05,1.54,1.22,2.69.63-.85,1.85-2.54,1.26-4,2.24-1.39.94-3.18,2.75-3.68,4.39-.56-.29-.52-1.36-1.4-.95,2.94-6.98,8.04-13.52,12.91-19.27,4.68-5.53,10.12-11.57,16.2-15.58Z"/>
      <path class="cls-4" d="m44.87,22.01c1.58,0,3.49-.56,2.21,2.08-.47.97-.16.93-1.16.98-.05,0-3.03-1.32-3.13-1.42.59-.68,1.38-1.1,2.08-1.64Z"/>
      <path class="cls-4" d="m12.23,60.34c.74.17,2.72.15,1.6,1.4-.91,1.01-1.56.02-2.04-.63.11-.27.15-.59.44-.76Z"/>
      <path class="cls-4" d="m106.7,43.79c2.37-.51,4.74-.5,7.35-.14-1.07.84-6.09.94-7.35.14Z"/>
      <path class="cls-5" d="m111.25,45.61c-1.66,0-3.32,0-4.99,0,1.66-.34,3.32-.37,4.99,0Z"/>
      <path class="cls-9" d="m45.12,112.37c0-1.74,0-3.49,0-5.23.33,1.75.32,3.49,0,5.23Z"/>
      <path class="cls-15" d="m106.78,221.89c-.01-.07-.03-.13-.04-.2,1.51.01,3.03-.24,4.52.18-1.49,0-2.99.01-4.48.02Z"/>
      <g>
        <polygon class="cls-17" points="210.98 149.44 210.98 149.44 210.98 149.45 210.98 149.44"/>
        <path class="cls-17" d="m216.7,110.64c.02-.67.23-1.39-.2-2.03-.02.26-.04.51-.06.77-.36.49-.62.9-.78,1.25.16-.36.42-.77.78-1.25.02-.26.04-.51.06-.77.25-1.84-.4-3.62-.29-5.45-.64-1.69-.42-3.5-.76-5.23-.32-1.42-.64-2.83-.96-4.25.01-.24.02-.49.03-.73-.03-.47-.05-.95-.08-1.42-1.43-.55-2.92-.66-4.44-.56-.06-.04-.13-.06-.21-.06-.02-.07-.05-.13-.08-.19-7.25,0-14.5-.02-21.75-.01-23.99,0-47.98.02-71.96.03-.01.04-.02.08-.03.12.01-.04.02-.08.03-.12-1.5-.21-3-.02-4.51-.05-.35.02-.72.02-.75.51.01.92.03,1.84.04,2.75-.02.58-.05,1.16-.07,1.74.03.49.06.99.08,1.48,0,4.15,0,8.31,0,12.46.06,0,.13,0,.19,0,0-4.15,0-8.29.01-12.44,0,4.15,0,8.29-.01,12.44-.06,0-.13,0-.19,0,0,6.14,0,12.27,0,18.41-.01.78-.1,1.57-.03,2.35.11,1.13-.3,2.29.25,3.38,0,0,.01,0,.01,0,.51.49,1.16.09,1.71.28,15.64,0,31.28,0,46.92-.01,2.36,0,4.72-.03,7.07-.05.91.03,1.82.06,2.73.09.93.1.28.81.47,1.2-.73,2.08-1.02,4.29-1.93,6.32.02.07,0,.12-.06.16-.64,1.79-1.21,3.6-2.2,5.24-.11.24-.22.49-.33.74-2.49,4.86-5.68,9.2-9.64,12.96-2.49,2.37-5.25,4.4-7.99,6.45,9.53,7.7,19.2,15.5,29.14,22.66,1.16.89,2.31,1.8,3.5,2.65.91.65,1.64,1.41,1.96,2.5,2.48-2.04,4.67-4.38,6.92-6.66.38-.54.77-1.07,1.31-1.46,3.61-4.77,7.06-9.53,10.4-14.5.19-.31.38-.63.57-.94.3-.53.6-1.05.91-1.58.08-.15.16-.29.24-.44.09-.16.18-.33.26-.49.09-.37.26-.71.53-.98.49-1.08.98-2.16,1.47-3.23-2.08-.79-1.81-2.23.34-.67.23-.44.47-.88.7-1.32.04-.39.2-.72.46-1.01.17-.42.35-.84.52-1.25.06-.17.12-.34.17-.5.19-1.24,1.27-2.16,1.29-3.46-4.06-.55-1.22-1.63.05-.21.49-.95.77-1.97,1-3.01.7-1.17.68-2.63,1.46-3.77.2-.73.4-1.46.6-2.19.07-.18.14-.35.21-.53.61-2.3.94-4.68,1.71-6.94h0c.4-.64.21-1.47.7-2.08.01-.31.02-.63.03-.94l.06-.25c.24-.98.47-1.96.48-2.97.77-5.45,1.55-10.91,1.72-16.42.45-2.15.14-4.32.2-6.48Zm-100.75-19.71s0,0,0,0c15.51.02,31.02.04,46.53.04-15.51,0-31.02-.02-46.53-.04Zm74.54,89.08c.08,0,.17.01.25.02.44,2.71-.79,2.65-.25-.02Zm3.24-.14c-.28.37-.43.84-.68,1.34-.6-.97.63-1.31.42-1.97-.17-.52-1.16-.89-1.16-1.12-.04-1.82,2.86-.1,1.43,1.75Zm5.79-15.26c-.94.4-1.26.31-1.63-.52.04,0,3.16-.13,1.63.52Zm3-4.52c.04-.5,1.01-2.21,1.36-.92.18.67.57,1.17,1.14,1.69-1.25.11-2.62.91-2.5-.77Zm1.77-3.81c.31.37,1.09-.02,1.13.71-.74,1.75-1.95-1.66-1.13-.71Zm2.04-1.94c-.43-1-1.18-2.73.23-3.02.62-.12,2.77,1.18,2.95,1.89-1.18-.02-2.92-.45-3.18,1.13Z"/>
      </g>
      <path class="cls-7" d="m108.51,176.79c1.33-.32,2.65-.3,3.98,0-1.33,0-2.65,0-3.98,0Z"/>
      <path class="cls-12" d="m20.67,69.11c-.34-.05-.58-.24-.71-.55.21-1.54-1.94-3.76-2.4-5.23-.38-1.2-1.23-3.55-.73-4.72,1.22-2.92,9.51-2.48,11.75-1.29,1.87.99,2.02,2.73,2.07,4.61.04,1.6.54,4.58-.21,6.07-.68,1.35-2.48,1.82-3.87,2.13-1.35.3-1.62.12-2.81-.18-.24-.17-.44-.38-.6-.62-.84.06-1.67,0-2.49-.21Z"/>
      <path class="cls-4" d="m25.21,72.75c-.28-.31-.56-.62-.85-.94,1.11.62,3.66.42,4.81.09.67-.2.84-.34,1.35-.73.55-.41-.1-1.29,1.06-1.07.33.06.8,1.76.78,2.08-.03.59.21.67-.08,1.29-.26.55-1.3.14-1.39,1.06-1.09.03-1.49.49-1.01,1.55-1.59-1.06-2.98-2.41-4.68-3.32Z"/>
      <path class="cls-4" d="m45.33,29.76c-.73.27-2.33,1.93-3.39,1.52-2.42-.92,1.73-2.9,1.75-2.52.04.85.9.71,1.64.99Z"/>
      <path class="cls-4" d="m34.38,75.42c-.04,1.98-3.32.1-3.37-.39-.13-1.18,3.39-1.58,3.37.39Z"/>
      <path class="cls-4" d="m50.08,24.66c-.5.27-3.13,2.96-3.79,2.23-.93-1.03,2.94-3.44,3.49-2.85.13.14.18.36.3.62Z"/>
      <path class="cls-4" d="m105.81,4.74c.82-.13,2.37,1.32,1.95,2.03-.22.38-3.49-.71-3.47-.51-.06-.54,1.01-1.55,1.52-1.52Z"/>
      <path class="cls-4" d="m50.71,21.06c-.08.8-1.36,2.06-2.08,1.55-1.64-1.16,1.07-1.64,1.57-2.05.15-.13.52.17.51.5Z"/>
      <path class="cls-4" d="m35.71,36.77c.32-.58-.79,1.57-.91,1.59-.35.05-.54-.13-.87-.07-.52.09-.36.69-1.12.45-1-.32,1.68-1.82,1.65-1.74.24-.53.82-.17,1.26-.22Z"/>
      <path class="cls-4" d="m80.6,10.43c-1.44-.65-.36,1.06-1.18.98.07-.94-.62-1.86.45-2.52.84-.52,1.12-.1.98.71-.05.28-.16.55-.25.84Z"/>
      <path class="cls-4" d="m31.32,40.01c-.06-.41.15-.72.58-.71.46,0,.44.37.33.73-.1.32-.07.57.37.55.48-.02.44.3.31.57-.34.71-.24-.26-.48-.13-1.16.61-.93-.41-1.11-1Z"/>
      <path class="cls-4" d="m98.62,7c-2.56-.6.79-2.47.95-.77.06.6-.68.45-.95.77Z"/>
      <path class="cls-4" d="m59.26,19.3c-.01.57-.23.94-.62,1.21.02-.66-2.46-.61.17-1.63.2-.08.61.06.45.42Z"/>
      <path class="cls-4" d="m100.32,6.65c-.02-1.02,1.18-.85,1.06-1.69.71.05,1.41,1.77,1.01,1.61-.08-.13-.17-.25-.27-.36-.53.44-1.25-.23-1.81.43Z"/>
      <path class="cls-4" d="m59.26,19.02c.59-.4,1.28-.66,1.74-1.24-.05.08-.04,1.79-.32,1.71-1.09-.29-.1-.58-1.07.18-.19.15-.08-1.04-.35-.64Z"/>
      <path class="cls-4" d="m50.97,22.69c.16.46,1.05.78.95,1.17-.2.26-.44.31-.74.15-.73-.09-.69-.54-.21-1.32Z"/>
      <path class="cls-4" d="m49.25,18.97c.64.32.88.85.81,1.54-1.23,0-1.02-.77-.8-1.54,0,0,0,0,0,0Z"/>
      <path class="cls-4" d="m16.2,65.58c-.24-.18-.48-.37-.72-.55.06-.35.22-.75.61-.56.51.24.5.7.11,1.11Z"/>
      <path class="cls-4" d="m36.74,34.77c-.33-1,1.11-1.36,1.16-.85-.05.31-.21.37-.49.19-.44-.04-.15.62-.67.66Z"/>
    </g>
  </g>
</svg>