<?xml version="1.0" encoding="UTF-8"?>
<svg id="Capa_2" data-name="Capa 2" xmlns="http://www.w3.org/2000/svg" viewBox="0 0 18.13 17.7">
  <defs>
    <style>
      .cls-1 {
        fill: #248fb5;
      }
    </style>
  </defs>
  <g id="Tablet">
    <g>
      <path class="cls-1" d="m2.61,13.07c0-1.27-.02-2.55.02-3.82.01-.31.16-.69.38-.91,1.81-1.79,3.66-3.53,5.48-5.31.4-.39.66-.45,1.1-.02,1.82,1.81,3.69,3.57,5.51,5.37.21.21.38.56.38.85.03,2.58,0,5.17.02,7.75,0,.54-.18.72-.72.71-1.12-.03-2.23-.03-3.35,0-.45.01-.56-.15-.56-.58.02-1.43,0-2.86.01-4.29,0-.43-.13-.59-.57-.58-.84.03-1.68.03-2.52,0-.49-.02-.59.19-.59.63.02,1.39-.02,2.78.02,4.17.01.53-.17.67-.68.65-1.06-.04-2.11,0-3.17-.01-.76,0-.77-.01-.77-.8,0-1.27,0-2.54,0-3.82Z"/>
      <path class="cls-1" d="m9.05,1.42c-1.04.97-2.04,1.9-3.03,2.84-1.61,1.52-3.2,3.05-4.81,4.57-.11.11-.22.28-.35.3-.26.04-.63.09-.76-.05-.13-.14-.12-.56,0-.76.17-.29.48-.51.73-.75C3.35,5.17,5.88,2.78,8.41.38c.54-.51.73-.51,1.28,0,2.69,2.54,5.37,5.08,8.06,7.62.13.12.32.24.35.38.04.22.05.54-.07.68-.13.14-.47.19-.67.12-.22-.07-.4-.3-.58-.48-2.46-2.33-4.92-4.65-7.37-6.98-.1-.09-.2-.18-.36-.32Z"/>
    </g>
  </g>
</svg>