<?xml version="1.0" encoding="UTF-8"?>
<svg id="Capa_2" data-name="Capa 2" xmlns="http://www.w3.org/2000/svg" viewBox="0 0 25.39 19.93">
  <defs>
    <style>
      .cls-1 {
        fill: #afafaf;
      }
    </style>
  </defs>
  <g id="pc">
    <g id="ff076b86-c8dd-48fe-893f-70ea2b8fbd4d">
      <g id="fee161c3-272c-4a7c-a1f3-8d24903b0142">
        <g id="b050cd9b-7679-4536-8c51-8e8550ce0faa">
          <path class="cls-1" d="m10.58,13.29c.26.63.47,1.2.72,1.76,0,.08.24.14.36.14h9c1.31,0,2.38,1.05,2.38,2.36,0,1.31-1.05,2.38-2.36,2.38-1.31,0-2.38-1.05-2.38-2.36,0-.06,0-.12,0-.18v-.29h-6.23c.13.79-.13,1.6-.7,2.16-.41.41-.95.64-1.53.66-1.18.06-2.22-.76-2.44-1.92-.24-1.29.59-2.53,1.87-2.81,0-.09,0-.19-.08-.28-1.69-4.19-3.37-8.4-5.06-12.63-.06-.26-.32-.43-.59-.39H1.07C.53,1.93.06,1.54,0,1,0,.45.45,0,1,0c.02,0,.03,0,.05,0h3.75c.29-.03.56.15.65.43.39,1,.81,2,1.2,3,.05.22.26.37.49.34h17.55c.65,0,.83.26.6.85l-1.95,4.9c-.44,1.09-.89,2.17-1.3,3.26-.09.34-.41.56-.76.52h-10.7Zm7.31-5.23h3.28q.7,0,1-.64l.42-1c.08-.22.17-.43.26-.67h-4.6l-.36,2.31Zm-5.73-2.34h-4.6c.28.71.56,1.38.82,2.05.04.19.23.32.42.29h3.67l-.31-2.34Zm1.27,2.32h3.51l.3-2.33h-4.12l.31,2.33Zm-4.56.95c.32.79.6,1.52.91,2.23,0,.08.19.14.3.14h2.84c-.1-.77-.19-1.49-.3-2.21-.04-.09-.12-.15-.21-.16h-3.54Zm8.58,2.37h2.94c.09,0,.2-.13.24-.22.23-.56.45-1.12.67-1.68.06-.14.11-.28.18-.46h-3.48c-.09.02-.16.08-.2.17-.16.73-.25,1.45-.35,2.21v-.02Zm-.65-2.37h-3.24c.1.75.19,1.47.3,2.19,0,.06.15.15.23.16h2.19c.08,0,.22-.1.23-.17.11-.67.2-1.39.29-2.18Zm3.85,8.06c-.26-.01-.48.19-.49.45,0,0,0,0,0,0,0,.26.21.48.47.49.25-.01.45-.2.47-.45-.01-.24-.21-.44-.45-.45v-.04Zm-10.91.94c.26-.02.47-.23.47-.49-.01-.26-.23-.46-.49-.45,0,0,0,0,0,0-.24,0-.44.19-.45.43,0,.01,0,.02,0,.03,0,.26.21.47.47.48Z"/>
        </g>
      </g>
    </g>
  </g>
</svg>