<?xml version="1.0" encoding="UTF-8"?>
<svg id="Capa_2" data-name="Capa 2" xmlns="http://www.w3.org/2000/svg" viewBox="0 0 16.04 20.75">
  <defs>
    <style>
      .cls-1 {
        fill: #afafaf;
      }
    </style>
  </defs>
  <g id="pc">
    <g id="f7eff155-c3bb-4c86-92ab-9f0bf1b2803b">
      <g id="b59273a9-9efb-4cb2-b871-cacd691bc697">
        <path class="cls-1" d="m8.02,20.75h-4C1.28,20.75-.22,19.07.02,16.35c.24-4.42,4.01-7.81,8.43-7.57,4.42.24,7.81,4.01,7.57,8.43h0c.02,1.93-1.54,3.51-3.47,3.53-.01,0-.02,0-.03,0-1.5.02-3.01,0-4.5,0Z"/>
        <path class="cls-1" d="m12.15,4.1c0,2.26-1.84,4.1-4.1,4.1-2.26,0-4.1-1.84-4.1-4.1h0C3.95,1.84,5.79,0,8.05,0c2.26,0,4.1,1.84,4.1,4.1h0Z"/>
      </g>
    </g>
  </g>
</svg>