<svg xmlns="http://www.w3.org/2000/svg" viewBox="0 0 19.26 15.54"><defs><style>.a13841b1-96f6-40ab-8ab2-ec6568195098{fill:#b2b2b2;}</style></defs><g id="bb54da63-98e1-4978-b9ab-789f6749a72e" data-name="Capa 2"><g id="a528e10a-55c2-4dc9-8958-0b1bda43336b" data-name="Capa 1"><path class="a13841b1-96f6-40ab-8ab2-ec6568195098" d="M9.66,0c2.43,0,4.86,0,7.29,0,1.1,0,1.71.22,1.79,1.42.13,2.14.34,4.28.51,6.42a1.6,1.6,0,0,1-1.38,2,8.34,8.34,0,0,0-5.62,4.26c-1.05,1.93-4.67,2-5.6.07A8,8,0,0,0,1.74,10,2.18,2.18,0,0,1,0,7.52C.13,5.66.24,3.8.3,1.94.35.44,1-.1,2.54,0c2.37.17,4.75,0,7.12,0ZM12,3.24H6.75c.32,3.37.67,6.67.92,10,.08,1.14.77,1.24,1.61,1.22s1.73.1,1.83-1.18C11.37,10,11.69,6.65,12,3.24ZM18,2.69c-1.81.78-3.91-.54-4.88,1.18-1.32,2.32-1,4.58,1.89,5.89a13.69,13.69,0,0,0,2.27-.89,1.94,1.94,0,0,0,1-1.29C18.23,6.08,18.06,4.58,18,2.69ZM1.38,2.93C.23,7.31.74,8.54,3.94,9.74c2.51-1.27,3-3.18,1.91-5.56,0-.1,0-.26-.07-.33-.24-.26-.49-.67-.77-.71C3.8,3,2.57,3,1.38,2.93ZM1.29,1.59l.15.58h16.2l.16-.56c-.38-.18-.76-.51-1.14-.52q-7.08,0-14.17,0C2.09,1.09,1.69,1.42,1.29,1.59Zm12.86,8.73-2.1-2V12.2ZM6.75,8.79l-.39-.18L4.75,10.32l2,1.77Z"/></g></g></svg>