<?xml version="1.0" encoding="UTF-8"?>
<svg id="Capa_2" data-name="Capa 2" xmlns="http://www.w3.org/2000/svg" viewBox="0 0 18.56 12.09">
  <defs>
    <style>
      .cls-1 {
        fill: #848484;
      }
    </style>
  </defs>
  <g id="Capa_1-2" data-name="Capa 1">
    <path class="cls-1" d="m9.28,0c2.41,0,4.81,0,7.22,0,.38,0,.76.02,1.14,0,.54-.03.92.5.92.92,0,1.2,0,2.4,0,3.6,0,2.16,0,4.33,0,6.49,0,.23-.01.47-.15.67-.19.28-.46.42-.8.42-1.02,0-2.05,0-3.07,0-4.5,0-9.01,0-13.51,0-.19,0-.39,0-.57-.1C.17,11.81,0,11.56,0,11.22,0,7.78,0,4.34,0,.9,0,.39.39,0,.9,0c2.07,0,4.14,0,6.21,0,.72,0,1.44,0,2.17,0Zm8.05,1.27c-.06.03-.1.06-.14.09-1.19.77-2.38,1.54-3.57,2.32-1.23.8-2.47,1.6-3.69,2.41-.22.15-.37.17-.61.01-.72-.46-1.46-.87-2.19-1.3-.99-.58-1.98-1.14-2.96-1.72-1-.59-2-1.17-3-1.76-.04-.02-.09-.04-.12-.06-.1.19-.19.38-.3.55-.05.08-.04.14.04.18.53.31,1.06.61,1.59.93.94.55,1.88,1.1,2.82,1.66.37.22.75.43,1.14.66-1.7,1.73-3.39,3.46-5.1,5.21.15.13.3.26.46.39.14-.14.3-.3.46-.46.91-.92,1.82-1.84,2.73-2.77.65-.66,1.29-1.33,1.93-1.99.03-.03.1-.04.13-.02.85.49,1.7.99,2.54,1.5.13.08.21.06.32,0,.66-.43,1.32-.86,1.97-1.29.09-.06.13-.04.2.03.39.42.78.84,1.18,1.26.72.76,1.44,1.52,2.15,2.28.45.48.9.97,1.35,1.45.02.02.1.04.12.02.11-.1.21-.22.32-.33.05-.05.04-.1,0-.15-.1-.1-.2-.21-.3-.31-.64-.68-1.29-1.37-1.93-2.05-.46-.48-.91-.97-1.37-1.46-.36-.38-.72-.74-1.1-1.14,1.79-1.17,3.57-2.31,5.33-3.47-.14-.23-.27-.43-.4-.64Z"/>
  </g>
</svg>