<svg xmlns="http://www.w3.org/2000/svg" viewBox="0 0 28.32 28.33"><defs><style>.e2d3c588-b95f-4fae-b4b5-9850e0282dd1{fill:#b2b2b2;}</style></defs><g id="bda0f17d-0c90-4cdf-9b98-6ea1f087b538" data-name="Capa 2"><g id="be05bdc5-fde9-4495-8384-1565e772b786" data-name="Capa 1"><path class="e2d3c588-b95f-4fae-b4b5-9850e0282dd1" d="M28.32,14.45a2.85,2.85,0,0,1-.88,1.36L15.78,27.46a2.77,2.77,0,0,1-1.34.87h-.56a2.77,2.77,0,0,1-1.34-.87Q6.6,21.5.65,15.57a1.79,1.79,0,0,1-.53-2,2.21,2.21,0,0,1,.48-.73Q6.71,6.71,12.82.6A1.8,1.8,0,0,1,15.5.6L27.72,12.82a2.34,2.34,0,0,1,.6,1.07ZM14.17,27.62a1.26,1.26,0,0,0,.91-.46L27.14,15.09a1.14,1.14,0,0,0,0-1.86l-12-12a1.14,1.14,0,0,0-1.88,0l-12,12a1.15,1.15,0,0,0,0,1.88l8.1,8.1,4,4A1.21,1.21,0,0,0,14.17,27.62Z"/><path class="e2d3c588-b95f-4fae-b4b5-9850e0282dd1" d="M14.14,24.91c.14-.13.23-.22.33-.3a.33.33,0,0,1,.45,0,.31.31,0,0,1,0,.45c-.42.57-1,.7-1.45.17-.19-.21-.4-.4-.6-.61a.35.35,0,1,1,.5-.49C13.66,24.4,13.88,24.65,14.14,24.91Z"/><path class="e2d3c588-b95f-4fae-b4b5-9850e0282dd1" d="M11.38,6.09c-.28,0-.49-.3-.33-.48A6.81,6.81,0,0,1,12,4.68c.06,0,.3,0,.38.1a.38.38,0,0,1,0,.37c-.28.31-.59.6-.89.89A.27.27,0,0,1,11.38,6.09Z"/><path class="e2d3c588-b95f-4fae-b4b5-9850e0282dd1" d="M7.24,10.22a1.58,1.58,0,0,1-.18.3c-.22.24-.44.47-.68.69a.34.34,0,0,1-.53,0,.35.35,0,0,1,0-.52c.24-.24.47-.49.73-.71A.5.5,0,0,1,7,9.94C7.09,10,7.15,10.11,7.24,10.22Z"/><path class="e2d3c588-b95f-4fae-b4b5-9850e0282dd1" d="M23.09,11.54c0,.07-.09.2-.18.24a.39.39,0,0,1-.35,0,8,8,0,0,1-.87-.88.41.41,0,0,1,0-.38.43.43,0,0,1,.38-.08c.33.28.62.6.92.91C23.07,11.39,23.07,11.44,23.09,11.54Z"/><path class="e2d3c588-b95f-4fae-b4b5-9850e0282dd1" d="M4.35,15.23a2.35,2.35,0,0,1,.29.16c.24.23.47.46.7.7a.35.35,0,1,1-.48.51,9.9,9.9,0,0,1-.72-.73.55.55,0,0,1-.07-.4C4.1,15.38,4.25,15.31,4.35,15.23Z"/><path class="e2d3c588-b95f-4fae-b4b5-9850e0282dd1" d="M17.4,22.5c-.08-.06-.22-.12-.26-.21a.45.45,0,0,1,0-.36,7.83,7.83,0,0,1,.82-.81.43.43,0,0,1,.41,0c.09.07.15.33.09.4a12.46,12.46,0,0,1-.88.9S17.5,22.47,17.4,22.5Z"/><path class="e2d3c588-b95f-4fae-b4b5-9850e0282dd1" d="M16.72,5.11a2.24,2.24,0,0,1,.29.17l.68.68a.36.36,0,0,1,0,.54.35.35,0,0,1-.51,0,7.07,7.07,0,0,1-.71-.74.44.44,0,0,1,0-.39C16.47,5.24,16.62,5.19,16.72,5.11Z"/><path class="e2d3c588-b95f-4fae-b4b5-9850e0282dd1" d="M21.34,9.79c-.05.07-.09.21-.18.24a.42.42,0,0,1-.38,0A6.28,6.28,0,0,1,20,9.2a.43.43,0,0,1,0-.41c.06-.09.31-.15.37-.09a11.56,11.56,0,0,1,.94.91S21.32,9.7,21.34,9.79Z"/><path class="e2d3c588-b95f-4fae-b4b5-9850e0282dd1" d="M23.83,16.11a1.58,1.58,0,0,1-.18.3l-.66.67a.36.36,0,0,1-.54,0,.34.34,0,0,1,0-.53,9.22,9.22,0,0,1,.71-.69.48.48,0,0,1,.39-.07C23.68,15.86,23.74,16,23.83,16.11Z"/><path class="e2d3c588-b95f-4fae-b4b5-9850e0282dd1" d="M5.76,17.34c0-.08.11-.22.2-.27a.45.45,0,0,1,.36,0,7.41,7.41,0,0,1,.83.85.41.41,0,0,1,0,.41.41.41,0,0,1-.38.07c-.32-.27-.61-.58-.91-.88A.81.81,0,0,1,5.76,17.34Z"/><path class="e2d3c588-b95f-4fae-b4b5-9850e0282dd1" d="M10.73,21.62a.34.34,0,0,1-.54.28,6,6,0,0,1-.83-.84.41.41,0,0,1,0-.41.42.42,0,0,1,.4-.07,12,12,0,0,1,.88.87A.32.32,0,0,1,10.73,21.62Z"/><path class="e2d3c588-b95f-4fae-b4b5-9850e0282dd1" d="M16.09,4.54c-.05.07-.1.2-.19.24a.41.41,0,0,1-.36,0,8.63,8.63,0,0,1-.85-.86.39.39,0,0,1,0-.39.42.42,0,0,1,.38-.09c.33.29.63.61.93.92C16.07,4.39,16.07,4.45,16.09,4.54Z"/><path class="e2d3c588-b95f-4fae-b4b5-9850e0282dd1" d="M9.57,7.86c-.08-.06-.22-.12-.26-.21a.41.41,0,0,1,0-.36,8.23,8.23,0,0,1,.84-.83.46.46,0,0,1,.41,0,.44.44,0,0,1,.06.41,11.63,11.63,0,0,1-.85.87S9.67,7.82,9.57,7.86Z"/><path class="e2d3c588-b95f-4fae-b4b5-9850e0282dd1" d="M3.45,14.17c.07.08.14.15.19.22a.3.3,0,0,1,0,.46.46.46,0,0,1-.44,0,.8.8,0,0,1-.09-1.36.34.34,0,0,1,.51,0,.33.33,0,0,1,0,.5Z"/><path class="e2d3c588-b95f-4fae-b4b5-9850e0282dd1" d="M20,19.27c.07.05.21.1.25.19a.42.42,0,0,1,0,.35,6.9,6.9,0,0,1-.86.85.41.41,0,0,1-.41-.05.4.4,0,0,1-.06-.39c.28-.32.59-.6.89-.9A.64.64,0,0,1,20,19.27Z"/><path class="e2d3c588-b95f-4fae-b4b5-9850e0282dd1" d="M13.07,4.36c-.08-.06-.22-.11-.25-.2a.45.45,0,0,1,0-.38A9.07,9.07,0,0,1,13.66,3a.27.27,0,0,1,.43,0c.07.11.11.34,0,.42a8.61,8.61,0,0,1-.85.86S13.17,4.32,13.07,4.36Z"/><path class="e2d3c588-b95f-4fae-b4b5-9850e0282dd1" d="M5.49,12a2.48,2.48,0,0,1-.19.31q-.32.33-.66.66a.36.36,0,0,1-.54,0,.36.36,0,0,1,0-.54c.24-.24.46-.48.71-.69a.47.47,0,0,1,.4-.06C5.35,11.73,5.41,11.88,5.49,12Z"/><path class="e2d3c588-b95f-4fae-b4b5-9850e0282dd1" d="M23.72,12.12a1.58,1.58,0,0,1,.3.18c.23.21.45.44.67.66a.36.36,0,0,1,0,.54c-.15.16-.34.15-.54,0a9.28,9.28,0,0,1-.69-.71.47.47,0,0,1-.06-.4C23.46,12.26,23.61,12.2,23.72,12.12Z"/><path class="e2d3c588-b95f-4fae-b4b5-9850e0282dd1" d="M12.48,23.36a.34.34,0,0,1-.54.29,6.59,6.59,0,0,1-.83-.84.4.4,0,0,1,0-.41.42.42,0,0,1,.4-.07,10.33,10.33,0,0,1,.88.87A.35.35,0,0,1,12.48,23.36Z"/><path class="e2d3c588-b95f-4fae-b4b5-9850e0282dd1" d="M16.42,22.79c.28,0,.47.31.31.51a6.89,6.89,0,0,1-.91.88c-.06.06-.29,0-.38-.07a.4.4,0,0,1-.06-.36c.28-.33.59-.63.9-.93C16.32,22.79,16.39,22.8,16.42,22.79Z"/><path class="e2d3c588-b95f-4fae-b4b5-9850e0282dd1" d="M19.6,8c-.06.08-.12.21-.22.26a.39.39,0,0,1-.35,0,8.23,8.23,0,0,1-.83-.84A.44.44,0,0,1,18.25,7,.41.41,0,0,1,18.63,7c.32.28.61.6.91.91C19.57,7.89,19.57,8,19.6,8Z"/><path class="e2d3c588-b95f-4fae-b4b5-9850e0282dd1" d="M7.87,9.58c-.28,0-.48-.29-.32-.48a7.82,7.82,0,0,1,.91-.91.42.42,0,0,1,.38.08c.08.07.12.3.06.36-.28.33-.59.62-.9.92A.21.21,0,0,1,7.87,9.58Z"/><path class="e2d3c588-b95f-4fae-b4b5-9850e0282dd1" d="M22.06,17.86a1,1,0,0,1-.12.25q-.37.41-.78.78a.32.32,0,0,1-.47,0,.32.32,0,0,1,0-.47c.26-.27.51-.54.79-.78a.42.42,0,0,1,.38,0C21.94,17.62,22,17.77,22.06,17.86Z"/><path class="e2d3c588-b95f-4fae-b4b5-9850e0282dd1" d="M9,19.85a.34.34,0,0,1-.53.3,6.91,6.91,0,0,1-.85-.86.42.42,0,0,1,0-.39c.08-.08.32-.14.38-.08.33.28.62.59.93.9C9,19.75,9,19.82,9,19.85Z"/><path class="e2d3c588-b95f-4fae-b4b5-9850e0282dd1" d="M25.57,14.35a1.71,1.71,0,0,1-.22.36c-.19.21-.4.42-.62.62s-.4.2-.54,0a.37.37,0,0,1,0-.54,8.84,8.84,0,0,1,.69-.68.49.49,0,0,1,.39-.08C25.42,14.1,25.48,14.25,25.57,14.35Z"/></g></g></svg>