<?xml version="1.0" encoding="UTF-8"?>
<svg id="Capa_2" data-name="Capa 2" xmlns="http://www.w3.org/2000/svg" viewBox="0 0 323.74 349.88">
  <defs>
    <style>
      .cls-1 {
        fill: #afafaf;
      }
    </style>
  </defs>
  <g id="pc">
    <g id="a6129c1d-c1fb-4209-98ee-4913f04fc784">
      <g id="bec08858-7c38-4473-9d52-089073a4afdb">
        <path class="cls-1" d="m0,175.07V21.57C0,7.11,7,0,21.38,0h281c14,0,21.36,7.33,21.36,21.2v307.49c0,14-7.2,21.19-21.25,21.19H21c-13.92,0-21-7-21-20.83v-153.98Zm18.47,122.8h287.63V21.87H18.47v276Z"/>
        <path class="cls-1" d="m29.8,285.94c25.61-46,50.94-91.44,76.6-137.5l106.71,77.56c3.1-2.57,6.27-5.16,9.41-7.8,10.47-8.77,21-17.49,31.35-26.38,2.28-2,3.86-2.17,6.42-.36,9.93,7,20.1,13.67,30,20.67,1.52,1.07,3.19,3.25,3.2,4.93.21,22.81.14,45.63.14,68.91l-263.83-.03Z"/>
        <path class="cls-1" d="m224.84,87.77c-12.12.06-21.98-9.72-22.04-21.84-.06-12.12,9.72-21.98,21.84-22.04,12.12-.06,21.98,9.72,22.04,21.84.06,12.12-9.72,21.98-21.84,22.04h0Z"/>
      </g>
    </g>
  </g>
</svg>