<?xml version="1.0" encoding="UTF-8"?>
<svg id="Capa_2" data-name="Capa 2" xmlns="http://www.w3.org/2000/svg" viewBox="0 0 68.73 109.53">
  <defs>
    <style>
      .cls-1 {
        fill: #248fb5;
      }
    </style>
  </defs>
  <g id="pc">
    <path class="cls-1" d="m68.73,109.53c-2.45-4.97-5.09-9.66-8.64-13.8-4.03-4.69-8.53-8.75-14.84-10.03-1.57-.32-3.24-.5-4.82-.34-4.3.43-6.92,3.34-7.13,7.62-1.33-1.23-1.89-2.44-1.02-4.01.95-1.7,2.24-3.41,3.81-4.52,1.89-1.33,4.24-2.02,6.34-2.97-2.33-.93-5.4.06-10.91,3.69,2.05-3.31,4.92-4.65,8.07-5.9-6.35-.89-11.99-3.02-16.3-8.6,2.03.21,3.62.38,5.21.54-6.88-5.74-13.31-11.78-18.02-20.05,2.27,1.06,4.15,1.94,6.03,2.82l.28-.41c-.52-.42-1.03-.87-1.57-1.26-8.85-6.33-11.8-14.86-9.8-25.43.72-3.83,1.23-7.78,1.18-11.66-.07-5.57-1.85-10.65-6.25-14.47C.21.65.18.42,0,0c5.99-.12,10.6,2.24,14.2,6.7,3.53,4.37,4.76,9.58,5.49,15.16.85-2,1.7-3.99,2.55-5.99.23,0,.46-.01.7-.02,1.05,6.07,2.1,12.15,3.1,17.95.57-2.45,1.21-5.19,1.85-7.94.19-.02.38-.04.57-.06,4.05,7.9,6.79,16.26,8.18,25.09.22-.02.44-.04.66-.07,0-2.64.01-5.28.02-8.09,4.39,5.56,8.2,11.32,9.47,18.39.5,2.8.7,5.65,1.26,8.43.71,3.56,1.63,7.08,2.43,10.47-5.78-4.44-11.47-9.48-16.37-15.4-4.9-5.92-9.24-12.25-12.3-19.28-3.05-7.03-5.48-14.33-8.36-21.55,1.17,5.24,1.99,10.6,3.59,15.71,4.48,14.24,12.57,26.14,24.31,35.46,3.76,2.99,7.65,5.81,11.45,8.75,7.16,5.53,12.23,12.57,15.03,21.19.48,1.48.61,3.08.9,4.63Z"/>
  </g>
</svg>