<?xml version="1.0" encoding="UTF-8"?>
<svg id="Capa_2" data-name="Capa 2" xmlns="http://www.w3.org/2000/svg" viewBox="0 0 34.12 31.94">
  <defs>
    <style>
      .cls-1 {
        fill: #848484;
      }
    </style>
  </defs>
  <g id="pc">
    <g id="bf5b545a-c08b-4f52-84ed-18b55d789fa0">
      <g id="aee2593d-9605-425a-85da-1b6b93be3f6d">
        <path class="cls-1" d="m34.12,18.5l-5.93,1.56-10.91,3-.64.14-2.25-7,17.55-5c.54,1.81,1.07,3.57,1.61,5.33.17.56.38,1.11.57,1.66v.31Z"/>
        <path class="cls-1" d="m34.12,23l-14.44,3.9-.53-1.94,14.31-3.96.66,1.77v.23Z"/>
        <path class="cls-1" d="m14.3,14.8l-2-7.35,11.59-3.23,2.11,7.43-11.7,3.15Z"/>
        <path class="cls-1" d="m13.75,21.5l-1.95.64L6.63,2.14h-1.82c-.19,0-.36.19-.54.3s-.21.21-.32.21H0V0h4l-.06.16c.34.16.69.28,1.06.35,1.09.05,2.18,0,3.37,0l5.38,20.99Z"/>
        <path class="cls-1" d="m10.17,27.48c0-2.71,1.78-4.62,4.19-4.57,2.33.16,4.14,2.07,4.18,4.4.14,2.42-1.71,4.49-4.12,4.62-.06,0-.11,0-.17,0-2.69-.06-4.11-1.61-4.08-4.46Zm2.12.06c-.09,1.07.71,2.01,1.77,2.09.12,0,.24,0,.36,0,1,0,1.63-1,1.53-2.22s-.79-2-1.71-1.94c-1.1.03-1.98.94-1.95,2.05,0,0,0,.01,0,.02Z"/>
      </g>
    </g>
  </g>
</svg>