<?xml version="1.0" encoding="UTF-8"?>
<svg id="Capa_2" data-name="Capa 2" xmlns="http://www.w3.org/2000/svg" viewBox="0 0 18.22 16.71">
  <defs>
    <style>
      .cls-1 {
        fill: #777;
      }
    </style>
  </defs>
  <g id="Tablet">
    <g>
      <path class="cls-1" d="m1.3,8.3c1.16.2,2.07-.16,2.8-1.08.72.74,1.51,1.3,2.58,1.29,1.06-.01,1.84-.55,2.54-1.37.63.76,1.38,1.26,2.38,1.26.98,0,1.73-.47,2.37-1.23.84.82,1.74,1.4,3.01,1.06,0,.18.03.34.03.49,0,2.13,0,4.27,0,6.4,0,1.04-.53,1.57-1.56,1.57-4.17,0-8.34,0-12.51,0-1.08,0-1.59-.51-1.6-1.58-.01-2.09-.02-4.17-.03-6.26,0-.17,0-.35,0-.57Zm7.12,1.07c-1.31,0-2.59.02-3.88,0-.41,0-.48.15-.48.51.01,1.92,0,3.84,0,5.76,0,.16.02.31.03.48h4.32v-6.74Zm5.94,1.91c0-.47,0-.94,0-1.42,0-.32-.15-.49-.47-.49-.94,0-1.89,0-2.83,0-.3,0-.45.17-.45.46,0,.94,0,1.89,0,2.83,0,.29.14.46.45.46.94,0,1.89,0,2.83,0,.32,0,.48-.16.48-.48,0-.46,0-.91,0-1.37Z"/>
      <path class="cls-1" d="m5.78.03h3.06v5.2h-4.04c.33-1.74.65-3.45.98-5.2Z"/>
      <path class="cls-1" d="m.2,5.27C.81,3.63,1.37,2.06,1.99.51c.08-.21.41-.43.63-.45.81-.05,1.62-.02,2.48-.02-.13.71-.26,1.38-.38,2.04-.17.94-.35,1.89-.52,2.83-.04.24-.12.37-.4.37-1.17-.01-2.34,0-3.61,0Z"/>
      <path class="cls-1" d="m13.39,5.25h-3.83V0c.91,0,1.82,0,2.72.01.08,0,.2.2.22.31.3,1.61.59,3.23.89,4.92Z"/>
      <path class="cls-1" d="m14.06,5.24c-.31-1.73-.62-3.45-.95-5.23.72,0,1.4-.03,2.08.02.2.01.48.21.57.4.76,1.58,1.49,3.17,2.26,4.81h-3.96Z"/>
      <path class="cls-1" d="m8.83,5.88c.1.93-.49,1.66-1.55,1.91-.95.23-1.8-.01-2.5-.7-.11-.11-.2-.3-.2-.46,0-.72.05-.75.78-.75,1.15,0,2.3,0,3.48,0Z"/>
      <path class="cls-1" d="m9.44,5.88c.62,0,1.11,0,1.59,0,.65,0,1.3-.01,1.95,0,.18,0,.52.09.52.16.03.3.07.7-.1.9-.92,1.12-2.78,1.09-3.68-.05-.18-.23-.18-.61-.29-1.01Z"/>
      <path class="cls-1" d="m14.25,5.91h3.97c-.07,1.06-1.04,1.9-2.13,1.85-1.09-.05-1.89-.83-1.85-1.85Z"/>
      <path class="cls-1" d="m4.05,5.91c-.1,1.03-.98,1.82-2.02,1.82-1.04,0-1.93-.78-2.03-1.82h4.05Z"/>
    </g>
  </g>
</svg>