<?xml version="1.0" encoding="UTF-8"?>
<svg id="Capa_2" data-name="Capa 2" xmlns="http://www.w3.org/2000/svg" viewBox="0 0 281.88 15.58">
  <defs>
    <style>
      .cls-1 {
        fill: #4b4b4b;
      }

      .cls-2 {
        fill: #a3a3a3;
      }
    </style>
  </defs>
  <g id="Capa_1-2" data-name="Capa 1">
    <g>
      <polygon class="cls-2" points="1 6.11 26.77 13.54 52.54 6.11 79.82 13.54 99.05 8.71 110.77 13.54 125.29 3.89 141.34 11.1 152.58 13.54 162.9 3.89 176.44 13.54 187.33 3.89 207.15 13.54 224.58 3.89 242.77 13.54 272.14 3.89 281.88 8.71 281.88 14.09 1.14 13.54 1 6.11"/>
      <g>
        <polygon class="cls-1" points="0 .91 25.32 15.58 .14 14.54 0 .91"/>
        <polygon class="cls-1" points="5.13 14.49 26.29 5.24 51.83 14.49 88.84 5.24 98.28 14.49 110.71 5.24 120.33 14.49 147.03 5.24 154.76 14.49 179.56 0 186.53 12.51 215.94 7.24 223.68 12.51 249.23 3 272.9 14.49 5.13 14.49"/>
      </g>
    </g>
  </g>
</svg>