<?xml version="1.0" encoding="UTF-8"?>
<svg id="Capa_2" data-name="Capa 2" xmlns="http://www.w3.org/2000/svg" viewBox="0 0 278 16.81">
  <defs>
    <style>
      .cls-1 {
        fill: #c20f0f;
      }
    </style>
  </defs>
  <g id="Capa_1-2" data-name="Capa 1">
    <g>
      <polygon class="cls-1" points="179.49 .8 179.59 .8 179.53 .73 179.49 .8"/>
      <polygon class="cls-1" points="74.84 .91 0 0 6.46 10.77 21.02 2.34 46.03 11.31 60.24 2.34 71.98 11.31 81.83 4.62 96.99 9.22 130.82 2.07 140.12 5.65 160.94 2.07 175.72 9.22 179.49 .8 75.05 .73 74.84 .91"/>
      <polygon class="cls-1" points="179.59 .8 194.77 16.81 201.83 2.07 218.56 11.9 226.18 2.07 245.7 14.13 255 2.07 269.5 8.77 269.5 2.07 278 12.79 278 .87 179.59 .8"/>
    </g>
  </g>
</svg>