<svg xmlns="http://www.w3.org/2000/svg" viewBox="0 0 15.81 15.83"><defs><style>.abadd933-42d0-4699-a933-f26fd3a40f8c{fill:#fff;}</style></defs><g id="ac76aa45-9287-4c86-8b49-24434276342a" data-name="Capa 2"><g id="fd801fbe-6ee1-4fbf-a395-116c2c37c05b" data-name="Capa 1"><path class="abadd933-42d0-4699-a933-f26fd3a40f8c" d="M15.8,15.17a1.36,1.36,0,0,0-.11-.28L10.11,4,8.25.35A.55.55,0,0,0,7.58,0a.6.6,0,0,0-.4.39L2.06,10.88c-.65,1.35-1.31,2.69-2,4a.84.84,0,0,0-.1.46c.05.3.28.45.64.45H15.22A.55.55,0,0,0,15.8,15.17Zm-8.09-.64a1,1,0,1,1,0-2.07,1,1,0,1,1,0,2.07Zm1.13-9.1c-.06.65-.1,1.3-.15,2-.07,1-.14,1.94-.22,2.91,0,.15,0,.3,0,.45a.73.73,0,0,1-1.45,0c0-.53-.08-1.05-.12-1.58-.08-1-.15-1.94-.22-2.9a7.16,7.16,0,0,1,0-1.13,1.07,1.07,0,0,1,1.1-.94A1.12,1.12,0,0,1,8.84,5.43Z"/></g></g></svg>