<svg xmlns="http://www.w3.org/2000/svg" viewBox="0 0 28.6 30.43"><defs><style>.fd91d055-f21f-4ace-bf3b-403265c694c3{fill:#b2b2b2;}</style></defs><g id="bcfcb496-0901-4145-b324-0985bb8c0588" data-name="Capa 2"><g id="b425f1aa-8b95-4937-93d5-63863e4e2bf4" data-name="Capa 1"><path class="fd91d055-f21f-4ace-bf3b-403265c694c3" d="M14.25,30.41A29.71,29.71,0,0,1,2.9,28.53C1.54,28,.3,27.31.1,25.73c-.26-2.07-.1-4.1,1.81-5.43a15.94,15.94,0,0,1,6.6-2.4,2.19,2.19,0,0,0,1.82-1.67.77.77,0,0,0-.16-.66,8.68,8.68,0,0,1-2.56-3.65,1,1,0,0,0-.42-.45,2.65,2.65,0,0,1-.45-4.36c.64-.56.58-2.6-.1-3.44s-.75-.94.26-1.59C9.12.67,11.47-.41,14.17.15c1.68.35,3.31.88,5,1.07S21.78,2.71,21.8,4.5a9.44,9.44,0,0,1-.18,1.59A1,1,0,0,0,22,7.26c1.24.94.92,3.42-.47,4.16a1.4,1.4,0,0,0-.61.64,9.45,9.45,0,0,1-2.44,3.46.9.9,0,0,0-.21.77,2.24,2.24,0,0,0,1.8,1.59,33.51,33.51,0,0,1,5.49,1.78c3,1.29,3.33,3.79,2.81,6.46a3,3,0,0,1-2,2.09,27.78,27.78,0,0,1-10,2.2C15.7,30.45,15,30.41,14.25,30.41Zm6.3-23.54c-2.2-.41-2.2-.41-4.13-1.93a1,1,0,0,0-.51-.17,11.77,11.77,0,0,0-7,1.54c-.45.27-1,.45-.9,1.17,0,.12-.3.34-.49.4A.94.94,0,0,0,6.84,9.1c.1.51.36,1.33.66,1.39.71.12.84.51,1,1A8.48,8.48,0,0,0,9.21,13c1.95,3.3,5.72,4.1,8.58,1.83a7.07,7.07,0,0,0,2.31-3.42c.15-.43.27-.78.88-.87.31,0,.7-.73.74-1.15s-.18-1.3-.44-1.37C20.6,7.82,20.55,7.41,20.55,6.87ZM12.73,29.48C9.31,26.53,8.21,23,9,18.59c-1.68.54-3.2.94-4.66,1.5C1.67,21.1,1,22.23,1,25a2.32,2.32,0,0,0,1.48,2.28,22.63,22.63,0,0,0,2.78,1A27.6,27.6,0,0,0,12.73,29.48Zm7-10.77c.23,5.77.23,5.77-3.6,10.68,0,0,.08.09.12.08a24.49,24.49,0,0,0,10-2.26A2.22,2.22,0,0,0,27.36,26c.48-1.89.37-3.83-1.35-5A18,18,0,0,0,19.71,18.71ZM8.38,5.42c3.84-1.5,4.69-1.67,7.67-1.59a1.43,1.43,0,0,1,1.23.59,3.63,3.63,0,0,0,2.86,1.4.75.75,0,0,0,.59-.42A2.57,2.57,0,0,0,18.39,2c-.44-.05-.91,0-1.36,0a2.15,2.15,0,0,1-.92-.15c-3.19-1.75-6-.65-8.66,1Zm1.86,13a6.41,6.41,0,0,0,4.1,1.79,6.18,6.18,0,0,0,4-1.8l-1.22-2a6.42,6.42,0,0,1-5.67,0Zm4.1,11c.25-.18.46-.35.69-.49a1.29,1.29,0,0,0,.64-1.74,14.61,14.61,0,0,1-.49-2.2c-.16-.83-.63-1.72.45-2.36L14.3,21.42,13,22.54c.68.94.68.93.44,2.09-.13.65-.25,1.31-.4,2C12.68,28.4,12.67,28.4,14.34,29.39Zm-2.45-2.12c.26-1.19.5-2.17.7-3.17.09-.47,0-.82-.65-.68a1.22,1.22,0,0,1-.86-.32,15,15,0,0,1-1.23-1.29A8.29,8.29,0,0,0,11.89,27.27Zm6.78-5.37c-.37.38-.73.77-1.09,1.15s-.58.65-1.1.35c-.06,0-.51.34-.49.47.19,1.09.45,2.16.72,3.4A8,8,0,0,0,18.67,21.9ZM9.91,19.5c-.24.76.57,2,1.93,2.79l1.42-1.24Zm8.85,0-3.41,1.57,1.58,1.38C17.46,21.33,19,21,18.76,19.48Z"/><path class="fd91d055-f21f-4ace-bf3b-403265c694c3" d="M14.53,14.08a4.75,4.75,0,0,1-2.42-.7c-.22-.18-.54-.32-.33-.66s.5-.15.74,0a3.24,3.24,0,0,0,3.3.28c.21-.1.4-.23.6-.35s.4-.17.57.07,0,.41-.15.56A3.73,3.73,0,0,1,14.53,14.08Z"/><path class="fd91d055-f21f-4ace-bf3b-403265c694c3" d="M11.37,10a.87.87,0,1,1,.89-.83A.87.87,0,0,1,11.37,10Z"/><path class="fd91d055-f21f-4ace-bf3b-403265c694c3" d="M16.49,9.27a.85.85,0,0,1,.92-.83.87.87,0,0,1,.81.91.91.91,0,0,1-.91.83A.89.89,0,0,1,16.49,9.27Z"/></g></g></svg>