<?xml version="1.0" encoding="UTF-8"?>
<svg id="Capa_2" data-name="Capa 2" xmlns="http://www.w3.org/2000/svg" viewBox="0 0 13.35 16.35">
  <defs>
    <style>
      .cls-1 {
        fill: #848484;
      }
    </style>
  </defs>
  <g id="Movil">
    <path class="cls-1" d="m13.07,8.07L8.3,1.18c-.1-.26-.27-.49-.48-.66-.52-.57-1.4-.69-2.05-.24-.29.2-.48.48-.59.78L.28,8.14c-.49.72-.32,1.7.4,2.19s1.7.32,2.19-.4l2.39-3.45v8.3c0,.87.7,1.57,1.57,1.57s1.57-.7,1.57-1.57v-7.91l2.08,3c.49.71,1.48.89,2.19.4s.89-1.48.4-2.19Z"/>
  </g>
</svg>