<?xml version="1.0" encoding="UTF-8"?>
<svg id="Capa_2" data-name="Capa 2" xmlns="http://www.w3.org/2000/svg" viewBox="0 0 32 32">
  <defs>
    <style>
      .cls-1 {
        fill: #fff;
      }
    </style>
  </defs>
  <g id="Encabezadotransparente">
    <path class="cls-1" d="m28.52,0H3.48C1.56,0,0,1.56,0,3.48v25.03c0,1.92,1.56,3.48,3.48,3.48h25.03c1.92,0,3.48-1.56,3.48-3.48V3.48c0-1.92-1.56-3.48-3.48-3.48Zm-4.52,22.11c0,1.05-.88,1.89-1.95,1.89h-12.54c-1.08,0-1.95-.85-1.95-1.89h0c0-1.05.88-1.9,1.95-1.9h12.54c1.08,0,1.95.85,1.95,1.89h0Zm0-5.75c0,1.05-.88,1.89-1.95,1.89h-12.54c-1.08,0-1.95-.85-1.95-1.89h0c0-1.05.88-1.9,1.95-1.9h12.54c1.08,0,1.95.85,1.95,1.89h0Zm0-5.75c0,1.05-.88,1.89-1.95,1.89h-12.54c-1.08,0-1.95-.85-1.95-1.89h0c0-1.05.88-1.9,1.95-1.9h12.54c1.08,0,1.95.85,1.95,1.89h0Z"/>
  </g>
</svg>