<svg xmlns="http://www.w3.org/2000/svg" viewBox="0 0 19.32 18.88"><defs><style>.b0be7bb2-95fe-4aae-8e82-51e88031fcb5{fill:#b2b2b2;}.e1159eab-4af0-4695-a08e-3849af8a1e78{fill:#fff;}</style></defs><g id="e5b3431b-eda5-4e59-b4c1-f0d815b97764" data-name="Capa 2"><g id="a1baf977-a1c5-411c-9690-867f6038050c" data-name="Capa 1"><path class="b0be7bb2-95fe-4aae-8e82-51e88031fcb5" d="M3.94,18.88V7.43l-.25-.07L3.08,8.67a.94.94,0,0,1-.34.07c-2.93-.48-3.18-1-2.28-3.8S3.29,1.26,5.77.77A5,5,0,0,0,13.5.8C16.08,1.22,18,2.34,18.91,5s.49,3.43-2.74,3.68l-.42-1.53-.22,0a16.27,16.27,0,0,0-.28,2.29c0,2.67.18,5.34.17,8,0,.48-.56,1.37-.88,1.38C11,18.91,7.54,18.88,3.94,18.88Z"/><path class="e1159eab-4af0-4695-a08e-3849af8a1e78" d="M12,1.12H6.93A4.2,4.2,0,0,1,12,.63Z"/></g></g></svg>