<?xml version="1.0" encoding="UTF-8"?>
<svg id="Capa_2" data-name="Capa 2" xmlns="http://www.w3.org/2000/svg" viewBox="0 0 11.37 15.23">
  <defs>
    <style>
      .cls-1 {
        fill: #777;
      }
    </style>
  </defs>
  <g id="Tablet">
    <path class="cls-1" d="m8.73,15.23c-.93.03-1.76-.26-2.43-.9C3.5,11.66,1.43,8.54.22,4.85c-.57-1.76-.01-3.16,1.31-4.33.81-.72,1.14-.71,1.72.18.44.66.79,1.38,1.16,2.09.18.36.18.69-.23.93-.37.22-.7.52-1.07.76-.32.21-.45.47-.28.81.46.95.86,1.94,1.42,2.84.7,1.12,1.52,2.16,2.31,3.22.14.18.33.33.5.48.21.19.44.19.68.03.22-.14.46-.26.67-.41.35-.25.67-.24.96.09.6.67,1.22,1.32,1.78,2.02.33.41.26.62-.15.96-.66.54-1.47.67-2.29.71Z"/>
  </g>
</svg>