<svg xmlns="http://www.w3.org/2000/svg" viewBox="0 0 291.02 236.63">
  <defs>
    <style>
      .a {
        fill: #1d1d1b;
      }
    </style>
  </defs>
  <path class="a" d="M283.93,0H53.08A7.08,7.08,0,0,0,46,7.08V29H7.08A7.08,7.08,0,0,0,0,36.08V229.54a7.09,7.09,0,0,0,7.08,7.09H237.93a7.09,7.09,0,0,0,7.09-7.09V207.63h38.91a7.09,7.09,0,0,0,7.09-7.09V7.08A7.08,7.08,0,0,0,283.93,0ZM218.64,207.19a7.08,7.08,0,0,1-7.08,7.09H33.46a7.09,7.09,0,0,1-7.09-7.09V58.43a7.09,7.09,0,0,1,7.09-7.08h178.1a7.08,7.08,0,0,1,7.08,7.08Zm46-29a7.08,7.08,0,0,1-7.08,7.09H245V36.08A7.08,7.08,0,0,0,237.93,29H72.4a7.07,7.07,0,0,1,7.06-6.65h178.1a7.08,7.08,0,0,1,7.08,7.08Z"/>
</svg>
