<svg xmlns="http://www.w3.org/2000/svg" viewBox="0 0 180.8 159.01"><defs><style>.ff2a1b04-5701-4180-bc6e-4edb9770f2ac{fill:#e5e5e5;}</style></defs><g id="b499d559-9212-4bfa-9660-a6af8267f41a" data-name="Capa 2"><g id="a63f0ff9-768c-4f01-b554-2370aa63133f" data-name="Capa 1"><path class="ff2a1b04-5701-4180-bc6e-4edb9770f2ac" d="M67.39,75.24c-9,10.57-20.24,16.17-33.61,16.55C24.23,92,16.34,89.24,10,83S.3,68.88.05,59A60.81,60.81,0,0,1,5.78,30.56,57.06,57.06,0,0,1,22.45,8.66C29.45,3.19,36.33.13,43.2,0,48.93-.12,53.77,1.53,57.46,5.1s5.73,8.27,6,14.13a31,31,0,0,1-6,20c-4.2,5.73-9.29,8.66-15.15,8.92a11.29,11.29,0,0,1-7.76-2.3,8.2,8.2,0,0,1-3.19-6.36,9,9,0,0,1,2.42-6.37c1.4,2.42,3.18,3.57,5.35,3.57,3.18-.13,6.11-2.29,8.65-6.62a25.7,25.7,0,0,0,3.7-14,14.54,14.54,0,0,0-2.55-8.28,7.55,7.55,0,0,0-6.24-2.93C39,5,35.18,7.52,31.11,12.61A61.53,61.53,0,0,0,21.18,31.7a63,63,0,0,0-3.44,22c.26,8.78,2.93,15.91,7.77,21.38A22.26,22.26,0,0,0,43.71,83a22.84,22.84,0,0,0,12.35-3.82,49.91,49.91,0,0,0,11.2-11Z"/><path class="ff2a1b04-5701-4180-bc6e-4edb9770f2ac" d="M158.66,113.69q-6.1,7.64-22.15,12.6c-4.07,11.33-8.91,19.73-14.51,25s-11.33,7.89-17.31,7.76a10.35,10.35,0,0,1-7.26-2.8,8.84,8.84,0,0,1-2.54-7c.25-9,8.78-16.55,25.84-22.28l1.53-5.85c4.32-16.81,7-27,8-30.17l3.7-12c-.51.89-1.4,2.93-2.93,6.37-7.26,16.16-13.62,27.24-19.1,33.1s-10.82,8.78-16,8.65A11.73,11.73,0,0,1,86.36,122q-3.63-5-3.44-13c.13-6.61,2.67-16.67,7.38-30.29s7.26-22.53,7.39-27.12a11.34,11.34,0,0,0-1.91-7,6.39,6.39,0,0,0-5.22-2.93c-3.31-.12-6.37,1.79-9.3,5.48a20.84,20.84,0,0,0-4.58,12.22,12.42,12.42,0,0,0,3.82,9.8,3.83,3.83,0,0,1,1.4,2.29c0,1.27-.89,2.93-2.42,5.09S76.3,79.7,74.77,79.7s-3.18-1.28-4.71-3.82A15.08,15.08,0,0,1,67.9,68c.13-7.51,2.93-14.76,8.27-21.76S87.76,35.65,94.89,35.91a15,15,0,0,1,12.34,6.61c3.19,4.33,4.59,9.81,4.46,16.55-.26,8-2.93,19.23-8.15,33.36-3.56,9.8-5.34,16.8-5.47,20.87q-.19,5.73,3.82,5.73c4.83.13,11.2-7.51,19.09-22.66s15.15-33.6,21.77-55.25A2.85,2.85,0,0,1,144.28,39c.76-.38,3.05-.64,7.13-1.15s6.23-.63,6.49-.63c1,0,1.53.38,1.4,1l-3.57,13.62L145.55,94.34c-1.4,5.85-3.69,14.51-7,26a40.47,40.47,0,0,0,20.37-13.87ZM119.2,132.4c-6,2-10.82,4.58-14.26,7.64s-5.34,6-5.34,8.78a6.19,6.19,0,0,0,1.4,4,5.3,5.3,0,0,0,3.82,1.65c2.92.13,5.6-1.65,7.89-5.22A81.28,81.28,0,0,0,119.2,132.4Z"/><path class="ff2a1b04-5701-4180-bc6e-4edb9770f2ac" d="M180.8,114.28c-4.74-8.81-16.44-10.14-21.63-7.72-2.29,1-16.55,20.87-3.18,9.42,10.28-8.81,16.7-1.52,19.48,4.93A14.91,14.91,0,0,0,180.8,114.28Z"/></g></g></svg>