<svg xmlns="http://www.w3.org/2000/svg" viewBox="0 0 20.05 20.03"><defs><style>.af99fb0f-c923-4621-9536-eb250bd11e1f{fill:#b2b2b2;}</style></defs><g id="bea9af72-dd36-4038-a330-79bf7063d6a2" data-name="Capa 2"><g id="a8df1b61-8a87-4bba-acd1-00cfb59a4ed7" data-name="Capa 1"><path class="af99fb0f-c923-4621-9536-eb250bd11e1f" d="M10.71,0a9.53,9.53,0,0,1,1.17.41,4,4,0,0,1,2.24,3.38,3.94,3.94,0,0,1-1,3,3.85,3.85,0,0,0-.93,1.83,4.2,4.2,0,0,0-.07.62v2.18a2.13,2.13,0,0,1,1.77.55,2.26,2.26,0,0,1,.49,1.8h4.92a.91.91,0,0,1,.33,0,.49.49,0,0,1,.37.49c0,.73,0,1.47,0,2.2a3.68,3.68,0,0,1-1.19,2.48A3.85,3.85,0,0,1,16.07,20H4A3.9,3.9,0,0,1,.1,17,5.15,5.15,0,0,1,0,16.09c0-.56,0-1.13,0-1.7a.61.61,0,0,1,.67-.67h5a2.22,2.22,0,0,1,.49-1.81,2.11,2.11,0,0,1,1.74-.53l0-.05c0-.77,0-1.53,0-2.3A3.46,3.46,0,0,0,7,6.88a4.6,4.6,0,0,1-.93-1.62A4.14,4.14,0,0,1,8.94.11L9.37,0ZM1.19,14.9c0,.52,0,1,0,1.51a2.32,2.32,0,0,0,.12.57A2.73,2.73,0,0,0,4,18.85H16.25a2.76,2.76,0,0,0,2.45-1.76,6,6,0,0,0,.17-2.15l0,0ZM11,11.36V9.44a5.25,5.25,0,0,1,.23-1.62,5.37,5.37,0,0,1,1.1-1.89A2.77,2.77,0,0,0,13,3.83,2.8,2.8,0,0,0,11.1,1.35,2.78,2.78,0,0,0,8,2a2.85,2.85,0,0,0-.77,3A3.87,3.87,0,0,0,8.06,6.3,4.16,4.16,0,0,1,9,8.54c.07.76.06,1.53.08,2.29,0,.17,0,.35,0,.53Zm2.27,2.36v-.43c0-.53-.21-.74-.74-.74H7.31a.54.54,0,0,0-.47.44,5.71,5.71,0,0,0,0,.72Z"/></g></g></svg>