<?xml version="1.0" encoding="UTF-8"?>
<svg id="Capa_2" data-name="Capa 2" xmlns="http://www.w3.org/2000/svg" viewBox="0 0 79.23 64.37">
  <g id="Capa_1-2" data-name="Capa 1">
    <g>
      <g>
        <path d="m34.59,4.34v3.89h-14.22v-3.89h14.22Z"/>
        <path d="m37.82,32.91c-.14.19-.35.6-.67.88-1.09.95-2.21,1.88-3.36,2.77-.64.5-.86,1.01-.62,1.82.39,1.32.76,2.66.96,4.02.09.57-.08,1.47-.46,1.75-.39.28-1.29.13-1.8-.14-1.31-.69-2.54-1.53-3.78-2.36-.51-.34-.92-.37-1.44-.02-1.21.8-2.45,1.55-3.68,2.32-.63.39-1.39.77-1.93.13-.36-.42-.48-1.23-.38-1.81.24-1.43.63-2.83,1.04-4.22.21-.69.04-1.11-.51-1.54-1.14-.9-2.22-1.86-3.33-2.8-.56-.47-1-1.1-.6-1.74.28-.44.97-.8,1.52-.88,1.4-.19,2.82-.25,4.23-.27.78-.01,1.22-.27,1.49-1.03.5-1.36,1.02-2.72,1.68-4.01.24-.48.83-.95,1.36-1.08.72-.19,1.11.44,1.35,1.07.55,1.42,1.07,2.85,1.71,4.22.18.38.71.77,1.13.82,1.54.21,3.1.28,4.65.41.87.07,1.37.51,1.42,1.67Z"/>
        <path d="m37.82,50.81c-10.19,0-20.38,0-30.57,0-2.32,0-2.99-.67-2.99-2.97,0-9.46,0-18.92,0-28.38,0-.34.03-.69.05-1.08h46.31c.02.38.06.76.06,1.13,0,9.34,0,18.68,0,28.02.94-2.04,2.31-3.96,4.24-5.48,0-7.27,0-14.53,0-21.8,0-3.05.03-6.09,0-9.14-.05-4.33-2.61-6.83-6.93-6.84-1.27,0-2.55-.04-3.82-.04-1.78,0-1.78,0-1.88-1.76C42.21.92,41.43,0,40.21,0c-1.31,0-2.11.92-2.13,2.5-.02,1.84-.02,3.68,0,5.53.02,1.56.64,2.38,1.86,2.53,1.21.14,1.99-.52,2.39-2.03.01-.06.09-.1.17-.19,1.94,0,3.93-.06,5.91.02,1.51.06,2.22.86,2.28,2.39.03.88,0,1.77,0,2.66q0,1.45-1.42,1.45c-14.38,0-28.77,0-43.15,0-.35,0-.71-.03-1.06,0-.6.05-.82-.21-.8-.8.03-1.1-.02-2.2.02-3.29.06-1.57.8-2.36,2.38-2.41,1.94-.06,3.89-.01,5.94-.01.07.3.1.51.17.7.36,1.08,1.2,1.64,2.26,1.52,1.02-.12,1.8-.8,1.83-1.89.06-2.26.06-4.53-.03-6.8C16.77.72,15.85.01,14.75,0c-1.04-.01-1.9.78-2.05,1.92-.06.45-.08.92-.05,1.38.05.69-.2.94-.91.92-1.63-.03-3.26.03-4.89.03C2.71,4.27.06,6.72.04,10.88c-.06,12.51-.05,25.01,0,37.52.02,4.09,2.72,6.66,6.81,6.67,10.32.01,20.65,0,30.97,0,0-1.42,0-2.83,0-4.25Z"/>
      </g>
      <g>
        <path d="m50.56,37.71c-.85,1.05-1.9,2.41-3.02,3.7-.21.24-.73.3-1.1.31-1.43.03-2.86.01-4.39.01v18.52h26.86c-.64-3.14,2.37-3.6,3.73-5.33l.32.08c.02.45.06.91.07,1.37,0,1.88.02,3.77,0,5.65-.02,1.63-.71,2.34-2.31,2.34-10.2.01-20.39.01-30.59,0-1.57,0-2.29-.76-2.3-2.37,0-7.33,0-14.66,0-21.99,0-1.39.63-2.25,1.88-2.27,3.84-.06,7.69-.02,10.86-.02Z"/>
        <path d="m49.02,54.83c.17-6.86,4.16-15.98,16.49-16.14v-6.38c2.52,1.89,4.76,3.56,7,5.24,2.22,1.66,4.45,3.33,6.73,5.04-4.5,3.51-8.96,6.98-13.66,10.64v-7.11c-7.52-.78-13.14,1.83-16.55,8.71Z"/>
      </g>
    </g>
  </g>
</svg>