<?xml version="1.0" encoding="UTF-8"?>
<svg id="Capa_2" data-name="Capa 2" xmlns="http://www.w3.org/2000/svg" viewBox="0 0 25.56 25.49">
  <defs>
    <style>
      .cls-1 {
        fill: #afafaf;
      }
    </style>
  </defs>
  <g id="pc">
    <g id="f95ad922-e723-4a71-83ac-71022cd74211">
      <g id="ae671894-fa5a-4bfa-80d0-be30a0b9efda">
        <path class="cls-1" d="m25.54,17.93h0v-2.53h0v-3.22h0v-5.74s0-.09,0-.13c0-.04,0-.07,0-.11h0v-.32c-.23-1.92-1.28-3.64-2.88-4.71-.88-.62-1.91-1-2.99-1.1-.24,0-.48-.06-.72,0H6.78L6.54,0h0c-.17,0-.35,0-.52.05h0c-.42.03-.83.11-1.22.25h0l-.21.06c-.47.14-.91.36-1.31.64-.45.23-.86.54-1.21.91-.39.39-.73.82-1,1.3-.29.4-.51.85-.65,1.32H.42c-.12.27-.2.56-.24.85-.02.07-.02.16,0,.23H.18c-.07.18-.13.37-.16.57-.03.17-.03.33,0,.5v12.54H.02c.01.45.09.9.22,1.33,0,.05,0,.09,0,.14.39,1.33,1.19,2.51,2.29,3.36.63.53,1.37.91,2.17,1.13.5.18,1.03.28,1.57.28.12.03.25.03.37,0h12.38c.09,0,.2,0,.27-.07h0c.41,0,.81-.05,1.2-.17.44-.08.86-.23,1.25-.44.41-.17.79-.4,1.13-.69h0c.1,0,.16-.1.24-.16.3-.26.59-.54.84-.85.26-.27.48-.58.66-.91h0c.31-.48.54-1.01.68-1.56.08-.23.14-.47.16-.72h0c.06-.21.09-.43.08-.65h0c.03-.44.03-.87.01-1.31Zm-4.71,4.19h0s-.07,0-.11,0c-.24.15-.48.29-.74.42-.04.02-.07.06-.09.1h0c-.08,0-.17.01-.24.05-.5.2-1.03.33-1.57.38-.09,0-.18.04-.23.11H7.83c-.42-.02-.84-.08-1.25-.18h0l-.14-.08c-1.17-.42-2.17-1.2-2.85-2.24-.21-.3-.34-.65-.53-.95h-.04c-.06-.12-.1-.24-.14-.37-.19-.77-.28-1.57-.25-2.36v-4.87h0c.01-.08.01-.17,0-.25v-1.83c0-.57.02-1.15.07-1.72-.02-.09-.02-.19,0-.28,0-.02,0-.04,0-.06.07,0,.06-.15.08-.23l.09-.59c.04-.12.07-.24.06-.37h0c.09-.06.09-.14.09-.21.11-.31.23-.61.38-.9.01-.05.01-.1,0-.15h0c.24-.29.43-.62.68-.91.03-.04.03-.09,0-.13h0c.06-.08.15-.13.25-.15.23-.19.45-.4.69-.59.05-.03.09-.08.1-.14.05.03.11.03.16,0,.32-.19.65-.36,1-.5,0,0,.09,0,.1-.08h.05c.11-.02.22-.04.33-.08.45-.15.92-.23,1.4-.26.51-.06,1.02-.08,1.53-.08h.33s.07.01.1,0h3.27c1.43,0,2.86-.07,4.28.08.55.04,1.09.14,1.62.3.09-.01.19-.01.28,0,.78.3,1.48.76,2.07,1.36.11.11.21.23.31.34.33.4.62.84.86,1.3h0c.18.45.32.92.42,1.39,0,.03,0,.05,0,.08l.05.42h0v9.92s-.05.03-.07.06c-.1.37-.13.76-.23,1.13-.03.04-.03.1,0,.14-.04,0-.08.04-.1.08-.16.42-.35.84-.56,1.24v.06c-.21.14-.36.36-.42.6-.05,0-.09.02-.12.05-.29.34-.61.65-.95.95Z"/>
        <path class="cls-1" d="m13.32,17.44h0c.37-.03.74-.12,1.08-.27l.37-.16c.48-.2.91-.51,1.25-.91.34-.36.58-.78.73-1.25h0c.26-.69.32-1.43.15-2.15-.3-1.41-1.35-2.54-2.74-2.93-.24-.06-.49-.1-.74-.13-.25-.05-.52-.05-.77,0h0c-.31.01-.62.08-.91.2-.26.08-.51.2-.73.36h0c-.47.26-.87.64-1.16,1.09-.19.26-.34.54-.45.84-.07.18-.13.37-.16.57-.1.4-.13.81-.08,1.22.11,1.07.65,2.04,1.5,2.7.57.46,1.27.74,2,.8h.16c.17.02.33.03.5.02Z"/>
        <path class="cls-1" d="m18.88,8.93h0c.16-.01.31-.05.46-.11l.15-.07c.19-.09.36-.22.5-.38.14-.15.24-.33.31-.53h0c.11-.29.13-.61.06-.91-.12-.6-.56-1.08-1.14-1.26-.11,0-.21,0-.32,0-.1-.03-.22-.03-.32,0h0c-.13,0-.27.03-.39.08-.11.04-.21.09-.31.15h0c-.2.12-.37.28-.49.47-.08.11-.15.22-.19.35-.03.08-.06.16-.07.24-.03.17-.03.35,0,.52.04.45.27.87.63,1.15.25.2.55.32.87.34h.28l-.03-.04Z"/>
      </g>
    </g>
  </g>
</svg>