<?xml version="1.0" encoding="UTF-8"?>
<svg id="Capa_2" data-name="Capa 2" xmlns="http://www.w3.org/2000/svg" viewBox="0 0 66.3 70.56">
  <defs>
    <style>
      .cls-1 {
        fill: #fff;
      }
    </style>
  </defs>
  <g id="Capa_1-2" data-name="Capa 1">
    <g>
      <g>
        <path d="m46.67,70.56c-1.17-1.67-2.32-3.35-3.5-5.02-.86-1.21-.82-1.49.36-2.37,4.3-3.18,8.59-6.36,12.88-9.54.12-.09.31-.16.35-.29.14-.42.24-.86.35-1.3-.45-.02-1-.21-1.32-.02-.99.59-1.89,1.34-2.83,2.02-.91.65-1.32.58-1.99-.3-.41-.53-.8-1.08-1.19-1.62-.5-.68-.37-1.24.29-1.73,2.33-1.72,4.66-3.46,6.99-5.18.9-.66,1.31-.59,1.98.3,2.24,3.02,4.47,6.04,6.72,9.05.16.21.37.38.55.57v2.94c-4.37,3.2-8.75,6.4-13.12,9.61-1.27.93-2.51,1.91-3.76,2.87h-2.75Z"/>
        <path class="cls-1" d="m49.42,70.56c1.25-.96,2.49-1.93,3.76-2.87,4.37-3.21,8.74-6.41,13.12-9.61v12.48h-16.88Z"/>
        <path d="m54.01,38.62c.9,1.23,1.79,2.46,2.7,3.68.48.66.44,1.23-.24,1.73-.66.49-1.33.97-1.99,1.46-.64.47-1.18.37-1.64-.26-.82-1.14-1.65-2.26-2.46-3.41-.42-.6-.33-1.14.26-1.59.7-.53,1.39-1.08,2.08-1.62.43,0,.86,0,1.28,0Z"/>
        <path d="m39.39,49c.18-.27.3-.59.54-.79.71-.58,1.45-1.12,2.2-1.65.63-.45,1.2-.36,1.66.28,1.98,2.75,3.96,5.5,5.93,8.25.46.64.35,1.2-.28,1.66-.71.53-1.42,1.05-2.14,1.57-.62.45-1.15.31-1.58-.28-2-2.77-4-5.54-5.99-8.32-.14-.19-.21-.43-.34-.73Z"/>
        <path d="m44.8,59.8c-.21.28-.37.62-.63.83-.66.54-1.36,1.03-2.06,1.53-.61.44-1.15.3-1.57-.29-1.98-2.75-3.96-5.5-5.93-8.25-.45-.62-.4-1.19.23-1.67.66-.49,1.32-.99,1.98-1.48.63-.46,1.2-.4,1.66.24,1.98,2.75,3.96,5.5,5.92,8.25.15.21.23.48.39.83Z"/>
        <path d="m51.91,47.02c-.16.24-.31.58-.57.8-.71.58-1.45,1.12-2.2,1.65-.57.4-1.1.32-1.52-.25-.85-1.16-1.69-2.32-2.53-3.49-.41-.57-.33-1.1.22-1.52.75-.57,1.51-1.14,2.29-1.69.49-.35,1.03-.34,1.39.14.92,1.22,1.8,2.47,2.68,3.72.1.14.13.34.24.64Z"/>
      </g>
      <g>
        <path d="m7.46,55c-3.53,0-4.97-1.43-4.98-4.97-.02-9.11,0-18.22,0-27.32,0-.64.1-1.28.17-2.06h48.96c.05.71.13,1.42.14,2.14,0,4.03,0,8.05,0,12.08h2.51c0-8.19,0-16.38-.03-24.57,0-2.92-2-5.47-4.77-5.88-2.15-.31-4.38-.06-6.77-.06,0,1.92.06,3.65-.01,5.37-.12,2.92-1.84,4.68-4.41,4.64-2.52-.04-4.23-1.88-4.32-4.77-.06-1.72-.01-3.44-.01-5.22h-13.6c0,1.87.04,3.52,0,5.17-.08,2.88-1.78,4.75-4.29,4.82-2.62.07-4.42-1.82-4.52-4.84-.06-1.65,0-3.3,0-5.33-2.11,0-3.92-.11-5.71.02C2.45,4.49.07,6.89.05,10.27c-.07,13.67-.07,27.34,0,41.02.02,3.4,2.6,6.13,5.94,6.15,8.66.05,17.32.07,25.97.06v-2.49c-8.17,0-16.33,0-24.5,0Z"/>
        <path d="m13.48,10.14c.38,1.02,1.53,2.22,2.5,2.39.66.12,2.22-1.33,2.32-2.2.31-2.68.31-5.45,0-8.14-.1-.86-1.6-2.27-2.3-2.17-.96.13-2.15,1.29-2.53,2.29-.44,1.15-.1,2.6-.1,3.92,0,1.32-.33,2.76.1,3.92Z"/>
        <path d="m35.94,10.15c.35,1.01,1.51,2.19,2.5,2.38.62.12,2.16-1.36,2.26-2.23.3-2.68.3-5.44,0-8.12-.1-.85-1.62-2.27-2.27-2.17-.96.16-2.09,1.32-2.49,2.32-.43,1.06-.1,2.43-.1,3.66,0,1.4-.33,2.91.1,4.16Z"/>
        <path d="m10.59,34.86h7.3v-7.24h-7.3v7.24Z"/>
        <path d="m23.48,34.91h7.35v-7.31h-7.35v7.31Z"/>
        <path d="m43.73,27.57h-7.27v7.3h7.27v-7.3Z"/>
        <path d="m10.58,47.99h7.28v-7.49h-7.28v7.49Z"/>
        <path d="m23.38,47.88h7.43v-7.3h-7.43v7.3Z"/>
      </g>
    </g>
  </g>
</svg>