<?xml version="1.0" encoding="UTF-8"?>
<svg id="Capa_2" data-name="Capa 2" xmlns="http://www.w3.org/2000/svg" viewBox="0 0 30.98 25.29">
  <defs>
    <style>
      .cls-1 {
        fill: #5e5e5e;
      }
    </style>
  </defs>
  <g id="Capa_1-2" data-name="Capa 1">
    <path class="cls-1" d="m30.97,3.1c-.04-.06-.11,0-.16.03-.65.34-1.36.48-2.06.67-.32.09-.67.1-.99.22-.08,0-.15,0-.23,0,.02-.07.07-.1.12-.14.11-.11.26-.16.38-.24.56-.4.98-.92,1.38-1.46.32-.44.55-.92.74-1.43.02-.07.08-.16.03-.2-.06-.05-.13.04-.19.08-.17.11-.33.21-.51.29-.5.22-1,.46-1.52.63-.29.1-.59.2-.89.29-.25.08-.51.14-.77.2-.05.01-.1.05-.17-.02-.36-.34-.72-.68-1.14-.95-.26-.17-.53-.32-.8-.46-.28-.14-.59-.21-.89-.31-.53-.17-1.06-.33-1.63-.28-.27,0-.55,0-.82,0-.14-.03-.29,0-.4.04-.27.12-.56.16-.84.24-.79.24-1.52.62-2.15,1.15-.57.47-1.07,1-1.45,1.65-.35.6-.63,1.22-.78,1.9-.06.28-.1.56-.13.85-.02.23-.06.46-.04.7.04.4.06.8.14,1.19.02.1,0,.15-.13.14-.43-.02-.86-.03-1.28-.11-.26-.05-.52-.04-.77-.08-.43-.08-.86-.19-1.29-.3-.81-.21-1.61-.46-2.39-.77-.6-.24-1.18-.54-1.75-.84-.47-.24-.93-.51-1.36-.81-.33-.23-.67-.43-.98-.68-.4-.32-.81-.63-1.19-.98-.25-.24-.52-.47-.77-.71-.41-.4-.8-.82-1.14-1.28-.05-.07-.14-.1-.19,0-.17.36-.37.71-.47,1.1-.12.44-.26.86-.29,1.33-.02.43-.03.85-.01,1.28.02.44.14.87.26,1.3.19.65.48,1.25.86,1.79.41.58.9,1.08,1.48,1.5.03.02.08.04.05.09-.02.05-.07.03-.11.03-.18-.02-.36,0-.54-.04-.19-.08-.39-.06-.58-.11-.02-.03-.04-.03-.07-.02,0,0-.02-.01-.03,0-.27-.1-.54-.21-.82-.31-.17-.06-.32-.18-.5-.23-.08-.02-.15-.01-.12.09.06.23.02.46.07.69.02.15.05.3.07.45,0,.02,0,.03.03.04,0,.01,0,.02,0,.03,0,.04,0,.07.03.1,0,.01,0,.02,0,.04,0,.04-.01.08.03.11,0,0,0,.02,0,.03,0,.19.08.35.14.52.11.29.2.6.36.87.24.4.47.8.78,1.16.4.45.84.86,1.32,1.22.29.22.63.33.93.53.06.04.13.07.21.06h0s0,0,0,0c.03.08.11.08.17.1.3.1.59.23.92.26-.14.12-.29.07-.43.1-.23.06-.46.12-.7.12-.36,0-.72.01-1.08,0-.12,0-.25.02-.37-.06-.05-.04-.18-.04-.17.09,0,.06.01.13.04.2.15.38.34.74.56,1.09.54.86,1.24,1.56,2.1,2.1.41.25.84.43,1.28.61.56.21,1.13.28,1.72.29.05,0,.12-.03.14.03.02.07-.03.12-.08.16-.17.12-.34.24-.51.36-.37.24-.74.45-1.13.66-.36.19-.71.4-1.09.55-.29.11-.59.22-.88.33-.32.12-.66.19-.98.3-.35.12-.72.11-1.07.2-.22.05-.44.17-.68.14-.21-.03-.42-.02-.63,0-.48.07-.95.06-1.43.03-.21-.01-.42-.05-.63-.05-.04,0-.1-.02-.12.04-.02.05.04.06.07.08.35.25.72.46,1.1.66.32.16.63.34.95.47.43.17.86.34,1.29.51.54.22,1.12.33,1.66.54.45.17.95.13,1.41.29.46.16.96.14,1.44.18.7,0,1.39,0,2.09,0,.71,0,1.42.02,2.13-.03.15-.01.29-.02.44-.05.51-.1,1.01-.2,1.52-.3.02,0,.03,0,.03-.03.03-.01.08,0,.1-.04,0,0,0,0,0,0,.49-.09.98-.22,1.44-.41-.01-.02-.03-.02-.04-.02.02,0,.03,0,.04.02.02,0,.05,0,.07-.01.06.03.11,0,.14-.06.17-.03.32-.1.48-.17.03,0,.07-.01.1-.02.77-.31,1.52-.65,2.25-1.06.85-.47,1.65-1.02,2.4-1.63.82-.67,1.58-1.39,2.26-2.2.37-.45.77-.89,1.08-1.39.3-.47.62-.92.89-1.4.23-.42.47-.83.69-1.25.31-.6.53-1.24.78-1.86.24-.59.38-1.21.56-1.82.14-.49.2-.99.3-1.48.06-.28.13-.56.1-.85,0-.01,0-.02,0-.03.05-.04.04-.11.04-.16,0-.27.05-.54.07-.81.03-.46.09-.92.03-1.38-.04-.35.04-.56.34-.78.75-.55,1.42-1.2,2.01-1.91.23-.28.43-.58.66-.87.04-.05.08-.13.05-.18Zm-5.05,1.19c.05-.1.14-.17.26-.17.06,0,.12.01.17.05-.05-.03-.1-.05-.17-.05-.12,0-.22.08-.26.17Zm-6.06-2.48c.07.01.13-.04.12-.13,0-.05-.01-.09-.04-.12.03.03.05.07.05.12,0,.09-.05.14-.12.13Zm-2.32,5.21s0-.02,0-.03c0,.01,0,.02,0,.03Zm.05-3.1s.02.01.03.01c0,0-.02,0-.03-.01,0,0,0,0,0,0Zm-8.75,13.91s.1.03.09.1c0,.01,0,.02,0,.03,0,0,0-.02,0-.03,0-.07-.05-.09-.09-.1Zm-.21-.14s0-.04.03-.05h0s-.03.03-.03.05Zm-4.37-6.93s.09,0,.11-.02c-.02.02-.07.02-.11.02-.2,0-.37-.06-.49-.15.12.1.29.15.49.15Zm.14.59c0-.1,0-.19,0-.29,0,.1,0,.19,0,.29,0,.1,0,.21,0,.31,0-.1,0-.21,0-.31Zm4.93,10.45h0s-.01.02-.01.03c0,0,0-.02.01-.03Zm3.24-13.31s.05-.01.06-.05c0-.03-.02-.05-.06-.05.03,0,.05.01.06.05,0,.03-.03.05-.06.05Z"/>
  </g>
</svg>