<svg xmlns="http://www.w3.org/2000/svg" viewBox="0 0 30.97 30.98"><defs><style>.b889082d-95f1-48da-8317-4f6dfc6b3bc9{fill:#00b4d8;}</style></defs><g id="a316c02f-8cf2-4cf1-b5db-89ebc9a645fa" data-name="Capa 2"><g id="a60c8350-3357-4020-89dc-a99c4b8f7303" data-name="Capa 1"><g id="a521f857-7198-4c63-b957-0d4ec44e5872" data-name="hLupa"><path class="b889082d-95f1-48da-8317-4f6dfc6b3bc9" d="M30.05,27.88l-7.74-7.69A12.65,12.65,0,0,0,20,2.49,12.49,12.49,0,0,0,2.64,20.16a12.59,12.59,0,0,0,17.49,2.19l.59.56,7.14,7.14c1.05,1.06,2,1.21,2.69.46S31.08,28.91,30.05,27.88Zm-17.55-6a9.38,9.38,0,1,1,9.34-9.47A9.36,9.36,0,0,1,12.5,21.85Z"/><path class="b889082d-95f1-48da-8317-4f6dfc6b3bc9" d="M12.39,16.67a4.2,4.2,0,0,1-4.11-4.22,1.56,1.56,0,0,0-1.62-1.53A1.58,1.58,0,0,0,5.19,12.6a7.29,7.29,0,0,0,7,7.11c1.11,0,1.78-.51,1.83-1.44S13.48,16.8,12.39,16.67Z"/></g></g></g></svg>