<svg xmlns="http://www.w3.org/2000/svg" viewBox="0 0 15.12 17.7"><defs><style>.a2bbf255-3b39-4506-956c-7af68352e7cc{fill:#b2b2b2;}</style></defs><g id="ba8dddfe-a850-4bc8-94e3-35cf56cc7cb0" data-name="Capa 2"><g id="e1520b25-ac1e-4939-8a13-b05499f8b0d3" data-name="Capa 1"><path class="a2bbf255-3b39-4506-956c-7af68352e7cc" d="M7.32,0a7.77,7.77,0,0,1,6.41,3.36,6.26,6.26,0,0,1,1.39,4.09,3.91,3.91,0,0,1,0,.48c-.17.92-.33,1.84-.51,2.75a2.22,2.22,0,0,1-.8,1.34,3.2,3.2,0,0,0-.94,1.5,5.82,5.82,0,0,1-2.31,3.15,5.65,5.65,0,0,1-8.17-1.84A17.64,17.64,0,0,1,.55,10.47,11.67,11.67,0,0,1,0,7.37,7.11,7.11,0,0,1,6.52.07C6.82,0,7.13,0,7.32,0ZM4.53,6.19s0,0,0,0l-.26.44A6,6,0,0,1,2,9a.75.75,0,0,0-.36.52,3.57,3.57,0,0,0,.48,2.84,2.16,2.16,0,0,1,.18.3,20,20,0,0,0,1.11,1.9,4.64,4.64,0,0,0,3.74,2.12,4.72,4.72,0,0,0,4.36-2.79,8.77,8.77,0,0,1,1.31-2.3,1.59,1.59,0,0,0,.39-1.24c0-.89-.16-1-1.05-1.07A11,11,0,0,1,7.1,8C6.21,7.45,5.4,6.8,4.53,6.19Z"/><path class="a2bbf255-3b39-4506-956c-7af68352e7cc" d="M7.45,15.34a3.84,3.84,0,0,1-2-.58c-.18-.14-.44-.26-.27-.54s.41-.12.61,0a2.66,2.66,0,0,0,2.72.23c.17-.08.33-.19.5-.29s.33-.14.47.06,0,.34-.13.46A3,3,0,0,1,7.45,15.34Z"/><path class="a2bbf255-3b39-4506-956c-7af68352e7cc" d="M4.85,12a.71.71,0,0,1-.69-.72.73.73,0,0,1,.71-.71.74.74,0,0,1,.72.75A.73.73,0,0,1,4.85,12Z"/><path class="a2bbf255-3b39-4506-956c-7af68352e7cc" d="M9.07,11.38a.72.72,0,1,1,1.43.06.73.73,0,0,1-.75.68A.73.73,0,0,1,9.07,11.38Z"/></g></g></svg>