<?xml version="1.0" encoding="UTF-8"?>
<svg id="Capa_2" data-name="Capa 2" xmlns="http://www.w3.org/2000/svg" viewBox="0 0 78.67 78.61">
  <g id="Capa_1-2" data-name="Capa 1">
    <path d="m25.82,61.19v8.72c-2.33,0-4.54.08-6.74-.03-1.64-.08-2.16.57-2.08,2.14.1,2.14.03,4.29.03,6.58H.03c0-2.67-.09-5.25.06-7.81.04-.65.76-1.33,1.3-1.87,10.13-10.15,20.24-20.31,30.44-30.39,1.51-1.49,1.97-2.67,1.09-4.78-6.51-15.66,3.34-29.51,15.51-32.92,12.76-3.58,26.96,4.8,29.69,17.62,2.91,13.68-5.92,27.03-19.37,29.01-2.58.38-5.31.23-7.92-.11-1.5-.2-2.38.12-3.37,1.13-3.63,3.71-7.38,7.3-10.99,11.03-1.19,1.23-2.4,1.85-4.15,1.72-2.06-.15-4.14-.04-6.51-.04ZM61.19,21.88c3.52.16,6.94-2.91,7.15-6.42.23-3.77-2.86-7.17-6.66-7.34-3.63-.16-6.98,2.97-7.13,6.66-.15,3.72,2.86,6.92,6.64,7.09Z"/>
  </g>
</svg>