<?xml version="1.0" encoding="UTF-8"?>
<svg id="Capa_2" data-name="Capa 2" xmlns="http://www.w3.org/2000/svg" viewBox="0 0 78.15 78.35">
  <g id="Movil">
    <g>
      <path d="m.03,41.54C.03,32.11.08,22.67,0,13.24-.03,9.18,3.55,5.01,7.79,4.79c.51-.03,1.02-.04,1.52-.04,12.62,0,25.24,0,37.86,0,2.85,0,3.97,1.15,4,4.05.03,2.33-1.94,4.4-4.23,4.4-11.51,0-23.02,0-34.54,0-2.94,0-3.83.88-3.83,3.78,0,16.32,0,32.64,0,48.96,0,2.98.82,3.82,3.75,3.82,16.41,0,32.83,0,49.24,0,2.85,0,3.72-.88,3.72-3.73,0-11.6,0-23.21,0-34.81,0-2.29.84-3.66,2.59-4.27,1.67-.58,4.22.09,5.29,1.52.38.51.61,1.27.61,1.91.03,13.18.05,26.35,0,39.53-.02,4.68-3.89,8.41-8.55,8.41-18.86,0-37.73-.03-56.59.02C4.53,78.36-.05,74.6,0,69.69c.09-9.38.03-18.77.03-28.16Z"/>
      <path d="m60.17,8.48c3.54,3.34,7.03,6.63,10.42,9.83-1.83,1.92-3.55,3.83-5.39,5.63-5.78,5.65-11.56,11.3-17.44,16.85-1.18,1.11-2.72,1.86-4.16,2.67-1.93,1.09-3.94,2.03-5.87,3.12-.75.42-1.18.34-1.74-.32-1.06-1.28-2.28-2.42-3.33-3.71-.3-.37-.45-1.11-.29-1.55.95-2.6,1.99-5.17,3.04-7.74.19-.46.46-.92.81-1.26,7.81-7.73,15.64-15.45,23.47-23.17.1-.09.22-.16.48-.34Z"/>
      <path d="m72.7,15.84c-3.38-3.28-6.68-6.48-10.11-9.81,1.9-1.9,3.71-3.78,5.6-5.57.9-.86,1.84-.36,2.56.35,1.48,1.45,2.9,2.97,4.34,4.47.95,1,2.01,1.94,2.76,3.08.36.54.43,1.78.06,2.2-1.59,1.83-3.4,3.48-5.2,5.28Z"/>
      <path d="m28.77,49.54c.43-1.74.8-3.22,1.22-4.88,1.47,1.37,2.78,2.59,4.35,4.05-1.96.29-3.63.54-5.57.83Z"/>
    </g>
  </g>
</svg>