<svg xmlns="http://www.w3.org/2000/svg" viewBox="0 0 199.92 512"><g id="a451eff3-315b-45da-bac4-43618ada2bba" data-name="Capa 2"><g id="a66b12f9-9a80-4cc1-9554-7816a8b88de9" data-name="Capa 1"><path d="M84.94,512c-7.51-1-15.18-1.36-22.5-3.17a172.76,172.76,0,0,1-28.12-9.09c-9.09-4-9-11.56-.41-16.78,10.28-6.24,22-8.1,33.59-9.92,5-.78,10.12-1.21,15.28-1.81V312.86c-9.86-.62-19.65-.73-29.3-2-14.76-1.91-29.43-4.59-44.12-7a16.15,16.15,0,0,1-4.12-1.65c-5.87-2.8-6.13-3.53-4.07-9.48Q21.83,233,42.42,173.3C48.05,157,46.6,141,38.94,125.6c-7.83-15.76-15.8-31.45-23.63-47.21C5.66,59,12.73,42.83,33.45,36.7c6.49-1.92,13-3.87,19.41-6,8.29-2.8,13.3-8.44,14.1-17.38.58-6.52,3.79-11,10-13.28h46c6.87,2.53,9.36,7.72,10.16,14.75.84,7.43,5.21,12.84,12.52,15.3,9.06,3.06,18.39,5.42,27.23,9,13.55,5.52,19.75,19.76,14.05,33.24-5.48,13-12.42,25.29-18.42,38.05-4.43,9.41-9.11,18.8-12.37,28.64-4.82,14.59-.86,28.79,4,42.76q19.37,55.44,38.55,111c2.08,6,2,7.44-4.11,9.34a173.54,173.54,0,0,1-28.87,6.75c-16,2.07-32.07,3-48.45,4.4V471.07c7,1,14.14,1.47,21,3.05a216.87,216.87,0,0,1,25.09,7.44c4.3,1.57,8.84,4.47,8.9,9.75.06,5.07-4.33,7.45-8.38,9.61-10.41,5.56-21.85,7.36-33.31,9.07-4.87.72-9.76,1.34-14.64,2Z"/></g></g></svg>