<?xml version="1.0" encoding="UTF-8"?>
<svg id="Capa_2" data-name="Capa 2" xmlns="http://www.w3.org/2000/svg" viewBox="0 0 26.08 34.23">
  <defs>
    <style>
      .cls-1 {
        fill: #848484;
      }
    </style>
  </defs>
  <g id="pc">
    <g id="b2fc18a0-9e8e-467d-96a4-901a6e950a11">
      <g id="bae5eeec-17d9-465b-9db3-f94184933c98">
        <path class="cls-1" d="m2.69,34.23c-.49-.15-.97-.36-1.43-.6-.85-.59-1.33-1.59-1.25-2.63V9.15c-.04-1.21.64-2.32,1.73-2.83.56-.26,1.18-.37,1.79-.32.39.08.78-.12.93-.49.49-.95,1.48-1.54,2.55-1.51.33-.02.67-.02,1,0,.19,0,.27-.05.31-.25.13-.55.26-1.1.43-1.64C9.11.87,10.24.01,11.53,0h3c1.29.02,2.42.88,2.77,2.12.17.54.32,1.09.43,1.64,0,.2.14.24.32.25.58,0,1.16.03,1.73.11.9.18,1.65.79,2,1.63.06.18.24.28.42.26.54-.02,1.09.02,1.62.12,1.38.32,2.33,1.59,2.26,3v21.87c.07,1.24-.63,2.39-1.76,2.9-.3.12-.61.22-.92.29l-20.71.04Zm1.32-26.23h-.75c-.89,0-1.25.39-1.25,1.29v21.65c0,.94.34,1.28,1.28,1.28h19.49c.95,0,1.29-.33,1.29-1.27V8.97c-.03-.44-.34-.8-.77-.9-.41-.03-.82-.03-1.23,0v.92c0,.55-.45,1-1,1H5.08c-.55.04-1.03-.38-1.07-.93,0-.02,0-.04,0-.06v-1Zm2,0h14v-.92c.04-.55-.37-1.03-.92-1.08-.03,0-.06,0-.08,0h-1.77c-.58.1-1.13-.28-1.23-.86,0,0,0-.01,0-.02l-.5-2.12c-.03-.59-.54-1.04-1.13-1.01-.03,0-.07,0-.1.01h-2.47c-.59-.08-1.14.33-1.22.92,0,.03,0,.06,0,.08l-.57,2.11c-.08.55-.58.94-1.13.89h-1.87c-.55,0-1,.45-1,1v1Z"/>
        <path class="cls-1" d="m7.01,15.75l.88-.94c.79-.79,1.57-1.58,2.37-2.36.36-.42,1-.46,1.41-.09.15.13.26.31.31.5.11.36,0,.74-.26,1-1.34,1.34-2.67,2.68-4,4-.39.39-1.02.39-1.41,0-.68-.66-1.35-1.32-2-2-.38-.39-.38-1.01,0-1.4.39-.39,1.02-.39,1.41,0,.45.37.85.81,1.29,1.29Z"/>
        <path class="cls-1" d="m7.01,21.73l3.2-3.21c.26-.34.71-.48,1.11-.34.53.17.81.73.64,1.26-.03.1-.08.2-.14.28-.07.09-.15.17-.23.25-1.24,1.24-2.48,2.49-3.73,3.73-.29.47-.91.61-1.38.32-.13-.08-.24-.19-.32-.32-.61-.62-1.23-1.22-1.83-1.85-.41-.37-.45-1-.09-1.41.37-.41,1-.45,1.41-.09.04.03.07.07.11.11l1.25,1.27Z"/>
        <path class="cls-1" d="m7.01,27.75l3.2-3.22c.26-.34.71-.48,1.11-.34.53.17.81.73.64,1.26-.03.1-.08.2-.14.28-.07.1-.16.19-.25.27l-3.7,3.71c-.29.47-.91.61-1.38.32-.13-.08-.24-.19-.32-.32-.62-.61-1.24-1.22-1.84-1.84-.41-.37-.43-1.01-.06-1.41.14-.15.31-.25.51-.3.37-.09.75.03,1,.31l1.23,1.28Z"/>
        <path class="cls-1" d="m18.01,16.12h-2.83c-.55,0-1-.45-1-1s.45-1,1-1h5.75c.55,0,1,.45,1,1s-.45,1-1,1h-2.92Z"/>
        <path class="cls-1" d="m18.06,22.13h-2.88c-.55,0-1-.45-1-1s.45-1,1-1h5.75c.55,0,1,.45,1,1s-.45,1-1,1c-.92.01-1.92,0-2.87,0Z"/>
        <path class="cls-1" d="m18.01,28.15h-2.65c-.84,0-1.31-.36-1.31-1s.47-1,1.29-1h5.41c.84,0,1.31.36,1.31,1s-.46,1-1.32,1h-2.73Z"/>
        <path class="cls-1" d="m13.01,6c-.55,0-1-.45-1-1s.45-1,1-1,1,.45,1,1-.45,1-1,1Z"/>
      </g>
    </g>
  </g>
</svg>