<?xml version="1.0" encoding="UTF-8"?>
<svg id="Capa_2" data-name="Capa 2" xmlns="http://www.w3.org/2000/svg" viewBox="0 0 61.29 57.64">
  <g id="Capa_1-2" data-name="Capa 1">
    <g>
      <g>
        <path d="m43.69,43.58c3.33-4.4,6.61-8.72,9.89-13.05.7-.92,1.37-1.86,2.08-2.78,1.49-1.92,3.09-2.3,4.56-1.12,1.4,1.13,1.43,2.79.05,4.61-3.49,4.61-7,9.21-10.49,13.81-1.29,1.7-2.54,3.44-3.85,5.13-1.59,2.05-3.73,2.02-5.14-.1-1.76-2.65-3.48-5.33-5.16-8.02-1.09-1.74-.84-3.32.58-4.27,1.44-.96,3.13-.48,4.27,1.22.96,1.44,1.92,2.89,2.88,4.33.03.04.09.06.35.23Z"/>
        <path d="m51.67,30.53c-1.25,1.57-2.57,2.66-4.53,2.57-3.87-.17-7.76-.06-11.63-.05-2.18,0-2.67.49-2.67,2.65-.01,5.62-.01,11.23,0,16.85,0,2.07.5,2.59,2.55,2.6,5.62.02,11.23.02,16.85,0,2.14,0,2.65-.53,2.66-2.68.02-2.84.15-5.68-.04-8.51-.15-2.15.78-3.59,2.36-5.13.06.68.15,1.16.15,1.64.01,4.05.02,8.11,0,12.16-.02,3.39-1.64,5.01-4.99,5.02-5.73,0-11.46,0-17.19,0-3.06,0-4.9-1.74-4.93-4.8-.05-5.79-.05-11.58,0-17.37.02-3.17,1.85-4.93,4.99-4.94,4.75-.01,9.49,0,14.24,0,.44,0,1.59,0,2.2,0Z"/>
      </g>
      <path d="m51.67,30.53c-.06-5.28-.02-8.05.35-13.3.5-7.01-1.38-11.93-7.64-15.09-1.46-.74-2.95-2-4.44-2.02C28.13-.05,16.32,0,4.52.04,1.16.05.03,1.2.02,4.6c-.03,14.21-.03,28.42,0,42.63,0,3.48,1.21,4.62,4.74,4.63,7,.03,14.01,0,21.01,0,1.48,0,2.97,0,4.45,0,0-.74,0-1.49-.01-2.23H6.17c0-7.04-.09-13.92.06-20.79.05-2.14,1.57-3.49,3.79-3.5,10.61-.04,21.22-.06,31.84,0,2.53.02,3.83,1.66,3.85,4.09,0,.36,0,.72,0,1.08,1.25,0,2.5,0,3.75,0h1.49c-.88,1.77-1.86,2.65-3.82,2.57-.47-.02-.94-.03-1.41-.04M11.61,2.1h28.63c0,5.03.16,9.91-.13,14.76-.06.99-1.83,2.65-2.85,2.68-7.5.23-15.01.14-22.51.12-1.91,0-3.07-1.09-3.11-2.95-.09-4.78-.03-9.56-.03-14.61Z"/>
      <path d="m30.41,33.99c-6.43-.03-12.85-.03-19.28.04-.59,0-1.17.91-1.75,1.39.53.41,1.05,1.18,1.59,1.19,6.42.05,12.83.05,19.25.05,0-.4,0-.79,0-1.19,0-.54.08-1.02.18-1.48Z"/>
      <path d="m11.51,39.04c-.71,0-1.41.85-2.11,1.3.74.4,1.47,1.13,2.22,1.15,4.39.11,8.79.05,13.18.05,1.8,0,3.6.01,5.41.01,0-.85,0-1.71,0-2.56-6.24-.02-12.47-.02-18.71.04Z"/>
      <path d="m30.2,43.89c-6.21-.02-12.42-.02-18.64.04-.73,0-1.44.8-2.16,1.22.73.42,1.44,1.18,2.18,1.2,4.29.12,8.58.06,12.88.06,1.92,0,3.84,0,5.76.01,0-.84,0-1.69,0-2.53Z"/>
      <path d="m32.1,17.45c1.85-.04,4.06.42,4.1-2.53.03-2.79.14-5.59-.08-8.37-.06-.81-1.02-2.02-1.78-2.22-4.57-1.2-6.03-.02-6.03,4.59,0,.6,0,1.2,0,1.79,0,1.4,0,2.79,0,4.19,0,2.72,1.95,2.58,3.78,2.54Z"/>
    </g>
  </g>
</svg>