<?xml version="1.0" encoding="UTF-8"?>
<svg id="Capa_2" data-name="Capa 2" xmlns="http://www.w3.org/2000/svg" viewBox="0 0 104.07 105.37">
  <defs>
    <style>
      .cls-1 {
        fill: #848484;
      }
    </style>
  </defs>
  <g id="pc">
    <g id="pc-2" data-name="pc">
      <g>
        <path class="cls-1" d="m6.11,54.5c2.15-2.14,4.11-4.09,6.07-6.04.34.16.69.22.81.41,3.2,5.12,7.34,5.54,12.08,2.31.82-.56,1.69-1.59,1.81-2.5.27-2.09.08-4.23.08-6.54h9.1v3.88c0,1.02-.14,2.08.11,3.04.19.74.88,1.94,1.34,1.94,2.98,0,5.11,4.39,8.39,1.83,1.64-1.28,2.79-3.17,4.29-4.95,2.45,2.55,4.35,4.53,6.44,6.7-1.4,1.51-2.77,3.11-4.27,4.58-1.06,1.04-1.53,1.94-.52,3.33.64.88,1.18,1.96,1.35,3.02.54,3.45,2.48,4.52,5.76,3.95,1.24-.22,2.55-.03,4.01-.03v8.62h-3.81c-.93,0-1.92-.21-2.76.06-.89.29-2.33,1.04-2.33,1.59,0,2.97-4.49,5.07-1.8,8.37,1.32,1.62,3.17,2.8,4.94,4.31-2.54,2.37-4.53,4.22-7,6.52-1.06-1.19-2.27-2.55-3.49-3.9-.37-.41-.72-1.05-1.17-1.14-.78-.17-1.91-.32-2.42.1-2.16,1.81-6.04.69-7.12,4.22-.03.08,0,.18,0,.28-.15,2.18.32,5.87-.58,6.24-2.38.98-5.35.53-8.46.67,0-2.46-.08-4.56.03-6.66.08-1.52-.27-2.5-1.95-2.71-.63-.08-1.33-.28-1.82-.65-3.93-3-6.84-1.52-9.37,1.99-.42.59-1.05,1.03-1.98,1.91-1.58-1.76-3.13-3.47-4.67-5.18-.3-.34-.57-.7-1.01-1.25.98-1.03,1.88-2.07,2.87-2.99,1.02-.94,2.14-1.76,2.99-2.45-1.22-3.08-2.11-5.59-3.24-7.99-.29-.63-1.3-1.23-2.02-1.28-2.19-.17-4.41-.06-6.79-.06v-8.63c2.21,0,4.41.15,6.56-.08.82-.09,1.63-.95,2.3-1.62.35-.35.22-1.13.54-1.54,3.29-4.34,1.85-7.64-2.21-10.41-.36-.25-.6-.68-1.11-1.27h.03Zm34.82,19.22c.03-5.54-4.06-9.69-9.57-9.7-5.07-.02-9.36,4.24-9.42,9.35-.07,5.55,3.96,9.71,9.5,9.8,5.31.09,9.46-4.04,9.49-9.45Z"/>
        <path class="cls-1" d="m25.37,12.75c3.39,3.76,6.78,7.52,10.14,11.25,4.02-4.13,7.48-7.68,11.23-11.53-3.45-3.25-7.14-6.72-10.69-10.07.98-2.32,2.21-2.71,4.02-2.21,5.62,1.54,11.25,3.06,16.91,4.44,1.75.43,2.09,1.35,2.06,2.95-.08,5.09.05,10.18-.08,15.27-.05,2.01.56,3.42,1.99,4.85,13.69,13.8,27.32,27.65,40.92,41.54,2.53,2.58,2.84,5.84,1.13,8.63-1.72,2.81-5.08,4.37-8.12,3.27-1.66-.6-3.21-1.83-4.49-3.09-13.44-13.26-26.85-26.56-40.17-39.93-1.64-1.64-3.24-2.42-5.57-2.34-4.62.16-9.26,0-13.88.08-1.67.03-2.44-.46-2.86-2.17-1.39-5.65-3.07-11.23-4.42-16.89-.27-1.13.4-2.49.64-3.74.42-.1.83-.2,1.25-.3h0Zm70.9,65.18c.44,0,.88-.02,1.33-.03.81-1.22,2.14-2.37,2.32-3.68.26-1.88-1.18-3.03-3.14-3.01-2.02.02-3.29,1.37-2.99,3.16.22,1.29,1.61,2.38,2.48,3.55h0Z"/>
      </g>
    </g>
  </g>
</svg>