<?xml version="1.0" encoding="UTF-8"?>
<svg id="Capa_2" data-name="Capa 2" xmlns="http://www.w3.org/2000/svg" viewBox="0 0 81.13 69.31">
  <g id="Movil">
    <g>
      <path d="m46.62,64.55c-2.27.12-4.21.32-6.16.31-6.81-.05-13.64.02-20.44-.31-6-.3-11.95-1.21-17.65-3.25-2.34-.84-2.62-1.12-2.23-3.51.67-4.05,1.83-7.96,4.17-11.43,1.65-2.44,3.89-4.19,6.52-5.39,3.29-1.5,6.64-2.87,10-4.23.36-.14,1.01.09,1.36.36.66.52,1.17,1.24,1.79,1.81,6.01,5.59,13.34,4.47,18.35-.93,1.68-1.81,1.66-1.84,4.01-.38-6.5,8.89-6.13,17.81.28,26.95Z"/>
      <path d="m32.45,0c2.64.1,5.12.72,7.43,1.82,1.22.58,2.63,1.43,3.24,2.54,1.96,3.62,4.25,7.19,3.81,11.66-.08.87.41,1.83.74,2.71.73,2.01.73,4.07.04,6.01-.57,1.62-1.57,3.09-2.4,4.61-.53.96-1.08,1.91-1.64,2.86-.81,1.39-1.48,2.9-2.48,4.14-4.91,6.12-13.14,5.81-17.65-.76-2.03-2.96-3.66-6.2-5.38-9.36-.93-1.72-1.13-3.65-.94-5.59.05-.54.07-1.21.38-1.59,1.16-1.39.94-3.01,1.04-4.61.1-1.61.06-3.27.46-4.81,1.25-4.89,4.59-7.72,9.39-8.91,1.3-.32,2.65-.49,3.98-.72Z"/>
      <path d="m62.58,69.28c-8.73.61-18.53-7.03-18.56-18.4-.03-10.24,8.24-18.53,18.51-18.58,10.38-.05,18.43,8.28,18.6,17.37.21,11.53-7.58,19.59-18.54,19.61Zm8.87-16.92c.63,0,1.09,0,1.55,0,1.08,0,1.91-.39,1.89-1.58-.02-1.17-.82-1.55-1.91-1.55-2.77,0-5.54-.06-8.31-.03-.86,0-1.37-.17-1.74-1.06-.33-.8-.93-1.54-1.57-2.14-2.18-2.05-5.22-2.38-7.67-.93-2.62,1.54-3.85,4.41-3.15,7.34.61,2.57,3.13,4.69,5.88,4.94,2.73.25,5.26-1.29,6.58-3.96.19-.38.54-.93.84-.96,1.42-.1,2.85-.05,4.43-.05,0,.99,0,1.79,0,2.6.02,1.96.36,2.5,1.57,2.52,1.26.02,1.61-.54,1.63-2.58,0-.8,0-1.59,0-2.55Z"/>
      <path d="m60.12,50.8c0,1.96-1.36,3.29-3.3,3.24-1.79-.04-3.19-1.49-3.19-3.29,0-1.81,1.45-3.26,3.22-3.24,1.98.03,3.27,1.33,3.26,3.29Z"/>
    </g>
  </g>
</svg>