<?xml version="1.0" encoding="UTF-8"?>
<svg id="Capa_2" data-name="Capa 2" xmlns="http://www.w3.org/2000/svg" viewBox="0 0 73.74 62.27">
  <g id="Capa_1-2" data-name="Capa 1">
    <g>
      <g>
        <path d="m45.07,35.62c-.85,1.05-1.9,2.41-3.02,3.7-.21.24-.73.3-1.1.31-1.43.03-2.86.01-4.39.01v18.52h26.86c-.64-3.14,2.37-3.6,3.73-5.33l.32.08c.02.45.06.91.07,1.37,0,1.88.02,3.77,0,5.65-.02,1.63-.71,2.34-2.31,2.34-10.2.01-20.39.01-30.59,0-1.57,0-2.29-.76-2.3-2.37,0-7.33,0-14.66,0-21.99,0-1.39.63-2.25,1.88-2.27,3.84-.06,7.69-.02,10.86-.02Z"/>
        <path d="m43.53,52.73c.17-6.86,4.16-15.98,16.49-16.14v-6.38c2.52,1.89,4.76,3.56,7,5.24,2.22,1.66,4.45,3.33,6.73,5.04-4.5,3.51-8.96,6.98-13.66,10.64v-7.11c-7.52-.78-13.14,1.83-16.55,8.71Z"/>
      </g>
      <path d="m24.66,52.92c-4.76,0-9.52-.03-14.27.02-2.86.03-5.08-1.07-6.38-3.59-1.29-2.51-.93-4.95.69-7.3,5.58-8.08,11.1-16.2,16.65-24.3,1.48-2.16,5.37-2.13,6.86.04,4.07,5.94,8.13,11.88,12.2,17.82,1.39,0,2.73,0,3.97,0-4.14-6.04-8.28-12.09-12.42-18.13-.2-.29-.37-.6-.56-.91,2.08-.6,3.92-.12,4.5,1.56.53,1.54,1.45,1.61,2.69,1.48.3-.03.6-.06.9-.08.08-4.03-2.34-5.98-8.27-6.58,1.9-2.91,3.74-5.74,5.62-8.62-2.42-2.31-5.41-3.27-8.35-4.34h-7.45c-2.16.96-4.33,1.88-6.46,2.89-.67.32-1.23.88-1.93,1.4,1.9,2.9,3.73,5.69,5.71,8.73h-3.44v3.19c1.02.05,2.02.1,3.32.17-.67,1.03-1.23,1.92-1.81,2.77-4.75,6.95-9.36,14.01-14.32,20.81-4.64,6.36-1.14,14.56,5.69,16.04l24.53.15c0-1.08,0-2.16,0-3.24-2.56,0-5.11,0-7.67,0ZM17.18,5.24c4.65-2.98,10.99-2.95,15.15.04-1.61,2.44-3.2,4.9-4.86,7.31-.2.3-.77.41-1.19.48-2.69.46-4.71-.2-5.94-2.96-.76-1.71-2.05-3.19-3.16-4.87Z"/>
      <path d="m26.07,33.17c-.83.13-1.71.14-2.54.01-2.25-.37-4.27.45-5.33,2.29-1.12,1.95-.87,4.32.74,6,1.85,1.94,3.76,3.82,5.8,5.89,2.08-2.09,4.04-3.99,5.93-5.96,1.55-1.62,1.78-3.95.7-5.88-1.03-1.84-3.06-2.7-5.3-2.35Zm2.14,6.1c-1.04,1.14-2.11,2.26-3.49,3.73-1.29-1.41-2.33-2.55-3.36-3.69-.72-.8-.9-1.67-.08-2.47.81-.8,1.66-.66,2.46.1.3.29.61.55,1.01.92.39-.33.77-.65,1.14-.99.77-.7,1.59-.79,2.34-.07.82.78.71,1.67-.02,2.47Z"/>
    </g>
  </g>
</svg>