<?xml version="1.0" encoding="UTF-8"?>
<svg id="Capa_2" data-name="Capa 2" xmlns="http://www.w3.org/2000/svg" viewBox="0 0 68.68 70.97">
  <g id="Capa_1-2" data-name="Capa 1">
    <g>
      <g>
        <path d="m57.16,61.4c-6.81,4.92-14.83,3.19-18.97-1.87-4.37-5.35-4.14-13.05.54-17.94,4.76-4.98,12.45-5.64,17.9-1.64,5.26,3.86,7.77,12.09,2.61,19.39,1.22,1.16,2.48,2.34,3.72,3.55,1.69,1.66,3.37,3.33,5.03,5.02.98,1,.91,2.2-.13,2.81-.96.56-1.68.11-2.36-.57-2.56-2.57-5.13-5.12-7.68-7.7-.28-.29-.44-.69-.67-1.04Zm1.6-10.46c.03-5.65-4.44-10.22-10.04-10.27-5.68-.05-10.31,4.48-10.33,10.11-.03,5.68,4.5,10.25,10.17,10.26,5.63.02,10.18-4.48,10.2-10.1Z"/>
        <path d="m48.18,58.73c-3.93-.09-7.35-3.55-7.46-7.54-.03-1.15.63-1.98,1.6-2.02.92-.03,1.59.67,1.7,1.8.25,2.57,1.85,4.17,4.42,4.43,1.23.13,1.86.75,1.79,1.79-.07.99-.83,1.56-2.05,1.53Z"/>
      </g>
      <path d="m24.66,52.92c-4.76,0-9.52-.03-14.27.02-2.86.03-5.08-1.07-6.38-3.59-1.29-2.51-.93-4.95.69-7.3,5.58-8.08,11.1-16.2,16.65-24.3,1.48-2.16,5.37-2.13,6.86.04,4.79,6.99,9.57,13.99,14.36,20.98,1.03-.51,2.11-.87,3.21-1.11-4.6-6.73-9.21-13.45-13.82-20.17-.2-.29-.37-.6-.56-.91,2.08-.6,3.92-.12,4.5,1.56.53,1.54,1.45,1.61,2.69,1.48.3-.03.6-.06.9-.08.08-4.03-2.34-5.98-8.27-6.58,1.9-2.91,3.74-5.74,5.62-8.62-2.42-2.31-5.41-3.27-8.35-4.34h-7.45c-2.16.96-4.33,1.88-6.46,2.89-.67.32-1.23.88-1.93,1.4,1.9,2.9,3.73,5.69,5.71,8.73h-3.44v3.19c1.02.05,2.02.1,3.32.17-.67,1.03-1.23,1.92-1.81,2.77-4.75,6.95-9.36,14.01-14.32,20.81-4.64,6.36-1.14,14.56,5.69,16.04l28.36.18c-.45-1.05-.76-2.15-.94-3.26-3.52,0-7.04,0-10.56,0ZM17.18,5.24c4.65-2.98,10.99-2.95,15.15.04-1.61,2.44-3.2,4.9-4.86,7.31-.2.3-.77.41-1.19.48-2.69.46-4.71-.2-5.94-2.96-.76-1.71-2.05-3.19-3.16-4.87Z"/>
      <path d="m26.07,33.17c-.83.13-1.71.14-2.54.01-2.25-.37-4.27.45-5.33,2.29-1.12,1.95-.87,4.32.74,6,1.85,1.94,3.76,3.82,5.8,5.89,2.08-2.09,4.04-3.99,5.93-5.96,1.55-1.62,1.78-3.95.7-5.88-1.03-1.84-3.06-2.7-5.3-2.35Zm2.14,6.1c-1.04,1.14-2.11,2.26-3.49,3.73-1.29-1.41-2.33-2.55-3.36-3.69-.72-.8-.9-1.67-.08-2.47.81-.8,1.66-.66,2.46.1.3.29.61.55,1.01.92.39-.33.77-.65,1.14-.99.77-.7,1.59-.79,2.34-.07.82.78.71,1.67-.02,2.47Z"/>
    </g>
  </g>
</svg>