<svg xmlns="http://www.w3.org/2000/svg" viewBox="0 0 22.72 21.73"><defs><style>.a9c94bc4-a466-4b55-852b-392008259d94{fill:#b2b2b2;}</style></defs><g id="f0d6ccd3-0983-45fe-93a7-27781eb41f52" data-name="Capa 2"><g id="fe40b814-2572-4dff-be9c-c63220e28520" data-name="Capa 1"><path class="a9c94bc4-a466-4b55-852b-392008259d94" d="M9.83,21.73a10.25,10.25,0,0,1-7.71-4.44A10.76,10.76,0,0,1,5.4,1.54C8.1,0,11-.58,14,.74A6.59,6.59,0,0,1,18,6.66,7.16,7.16,0,0,1,16.32,12,7.11,7.11,0,0,0,15,15.75c-.1.8-.14,1.6-.25,2.39C14.4,20.87,13.36,21.76,9.83,21.73ZM12.17,3a1.57,1.57,0,0,0-1.63-1.49A1.54,1.54,0,0,0,9.09,3.13a1.61,1.61,0,0,0,1.63,1.52A1.69,1.69,0,0,0,12.17,3ZM5.7,3.72a1.63,1.63,0,0,0-1.58,1.5,1.57,1.57,0,0,0,1.54,1.6A1.58,1.58,0,0,0,7.2,5.3,1.65,1.65,0,0,0,5.7,3.72ZM4.4,9.89A1.54,1.54,0,0,0,2.9,8.34,1.49,1.49,0,0,0,1.36,9.83a1.54,1.54,0,0,0,1.46,1.59A1.54,1.54,0,0,0,4.4,9.89Zm-.07,7a1.52,1.52,0,0,0,1.5-1.45,1.58,1.58,0,0,0-1.66-1.57,1.51,1.51,0,0,0-1.41,1.55A1.36,1.36,0,0,0,4.33,16.9Z"/><path class="a9c94bc4-a466-4b55-852b-392008259d94" d="M21,1.92c1,3.24.91,6.56,1,9.93h-2C20.13,8.51,20,5.17,21,1.92Z"/><path class="a9c94bc4-a466-4b55-852b-392008259d94" d="M21.3,19.67A2.1,2.1,0,0,1,20,16.76a2.13,2.13,0,0,1,1.17-1c.62-.21,1,.29,1.34.81a1.28,1.28,0,0,1,0,1.52C22.06,18.63,21.7,19.13,21.3,19.67Z"/><path class="a9c94bc4-a466-4b55-852b-392008259d94" d="M19.93,12.44h2.2c-.21.92-.38,1.78-.62,2.62a.68.68,0,0,1-.48.41.62.62,0,0,1-.47-.39C20.33,14.24,20.15,13.38,19.93,12.44Z"/></g></g></svg>