<?xml version="1.0" encoding="UTF-8"?>
<svg id="Capa_2" data-name="Capa 2" xmlns="http://www.w3.org/2000/svg" xmlns:xlink="http://www.w3.org/1999/xlink" viewBox="0 0 1357.94 58.82">
  <defs>
    <style>
      .cls-1 {
        fill: #c9c9c9;
      }

      .cls-1, .cls-2, .cls-3 {
        fill-rule: evenodd;
      }

      .cls-2 {
        fill: #2fc7e0;
      }

      .cls-4 {
        opacity: .26;
      }

      .cls-3 {
        fill: url(#Degradado_sin_nombre_14);
      }
    </style>
    <linearGradient id="Degradado_sin_nombre_14" data-name="Degradado sin nombre 14" x1="678.97" y1="0" x2="678.97" y2="56.82" gradientUnits="userSpaceOnUse">
      <stop offset="0" stop-color="#c7c7c7" stop-opacity=".5"/>
      <stop offset=".15" stop-color="#c7c7c7" stop-opacity=".62"/>
      <stop offset=".38" stop-color="#c7c7c7" stop-opacity=".78"/>
      <stop offset=".61" stop-color="#c7c7c7" stop-opacity=".9"/>
      <stop offset=".82" stop-color="#c7c7c7" stop-opacity=".98"/>
      <stop offset="1" stop-color="#c8c8c8"/>
    </linearGradient>
  </defs>
  <g id="pc">
    <g>
      <g>
        <path class="cls-1" d="m1328.35,31.11c4.35,9.85,5.39,18.15-1.45,23.92-14.82-26.12-31.92-43.35-51.29-51.71,7.19,15.89,10.66,30.29,4.92,40.8-23.87-22.87-49.05-38.7-76.37-42.12,11.18,17.92,17.37,33.91,14.36,46.68-30.81-22.79-60.91-25.5-87.04-12.74,4.6-9.08,10.4-17.65,18.49-23.34-26.66-6.97-53.25,2.03-71.87,27.55h-1.33c.94-13-1.07-26.06-5.89-38.13-17.98,7.07-26.08,19.68-24.2,38.13h-.12c-6.48-15.81-15.41-24.05-25.5-28.46l-1.63.61-1.63-.61c-10.1,4.41-19.03,12.65-25.5,28.46h-.12c1.88-18.45-6.22-31.06-24.2-38.13-4.82,12.07-6.83,25.13-5.89,38.13h-1.33c-18.62-25.51-45.21-34.52-71.87-27.55,8.09,5.68,13.89,14.26,18.49,23.34-26.13-12.76-56.23-10.06-87.04,12.74-3.01-12.78,3.18-28.76,14.36-46.68-27.32,3.42-52.49,19.25-76.37,42.12-5.74-10.5-2.27-24.91,4.92-40.8-19.37,8.35-36.47,25.59-51.29,51.71-6.84-5.77-5.8-14.08-1.45-23.92-13.68,6.33-23.86,13.96-28.64,23.43v4.28h675.13v-4.28c-4.78-9.47-14.96-17.1-28.64-23.43Zm-310.19,9.04c.41-.35.84-.68,1.26-1.02.42.34.85.67,1.26,1.02h-2.52Z"/>
        <path class="cls-1" d="m651.38,31.11c4.35,9.85,5.39,18.15-1.45,23.92-14.82-26.12-31.92-43.35-51.29-51.71,7.19,15.89,10.66,30.29,4.92,40.8-23.87-22.87-49.05-38.7-76.37-42.12,11.18,17.92,17.37,33.91,14.36,46.68-30.81-22.79-60.91-25.5-87.04-12.74,4.6-9.08,10.4-17.65,18.49-23.34-26.66-6.97-53.25,2.03-71.87,27.55h-1.33c.94-13-1.07-26.06-5.89-38.13-17.98,7.07-26.08,19.68-24.2,38.13h-.12c-6.48-15.81-15.41-24.05-25.5-28.46l-3.11,1.16-3.11-1.16c-10.1,4.41-19.03,12.65-25.5,28.46h-.12c1.88-18.45-6.22-31.06-24.2-38.13-4.82,12.07-6.83,25.13-5.89,38.13h-1.33c-18.62-25.51-45.21-34.52-71.87-27.55,8.09,5.68,13.89,14.26,18.49,23.34-26.13-12.76-56.23-10.06-87.04,12.74-3.01-12.78,3.18-28.76,14.36-46.68-27.32,3.42-52.49,19.25-76.37,42.12-5.74-10.5-2.27-24.91,4.92-40.8-19.37,8.35-36.47,25.59-51.29,51.71-6.84-5.77-5.8-14.08-1.45-23.92-13.68,6.33-23.86,13.96-28.64,23.43v4.28h678.09v-4.28c-4.78-9.47-14.96-17.1-28.64-23.43Z"/>
        <path class="cls-3" d="m1357.94,10.87l-3.16-1.17c-10.15,4.41-19.13,12.65-25.65,28.46h-.12c1.9-18.45-6.25-31.06-24.33-38.13-4.85,12.07-6.87,25.13-5.92,38.13h-1.34c-18.72-25.51-45.47-34.52-72.28-27.55,8.13,5.68,13.97,14.26,18.6,23.34-26.28-12.76-56.55-10.06-87.54,12.74-3.03-12.78,3.19-28.76,14.44-46.68-27.48,3.42-52.79,19.25-76.8,42.12-5.77-10.5-2.29-24.91,4.94-40.8-19.48,8.35-36.67,25.59-51.58,51.71-6.88-5.77-5.84-14.08-1.46-23.92-12.07,5.56-21.44,12.11-26.8,20.04-5.36-7.92-14.73-14.48-26.8-20.04,4.37,9.85,5.42,18.15-1.46,23.92-14.91-26.12-32.1-43.35-51.58-51.71,7.23,15.89,10.72,30.29,4.94,40.8-24.01-22.87-49.33-38.7-76.8-42.12,11.24,17.92,17.47,33.91,14.44,46.68-30.99-22.79-61.26-25.5-87.54-12.74,4.63-9.08,10.46-17.65,18.6-23.34-26.81-6.97-53.56,2.03-72.28,27.55h-1.34c.95-13-1.08-26.06-5.92-38.13-18.08,7.07-26.23,19.68-24.33,38.13h-.12c-6.51-15.81-15.49-24.05-25.65-28.46l-2.14.79-2.14-.79c-10.15,4.41-19.13,12.65-25.65,28.46h-.12c1.9-18.45-6.25-31.06-24.33-38.13-4.85,12.07-6.87,25.13-5.92,38.13h-1.34c-18.72-25.51-45.47-34.52-72.28-27.55,8.13,5.68,13.97,14.26,18.6,23.34-26.28-12.76-56.55-10.06-87.54,12.74-3.03-12.78,3.19-28.76,14.44-46.68-27.48,3.42-52.79,19.25-76.8,42.12-5.77-10.5-2.29-24.91,4.94-40.8-19.48,8.35-36.67,25.59-51.58,51.71-6.88-5.77-5.84-14.08-1.46-23.92-13.72,6.32-23.95,13.92-28.77,23.37-4.82-9.44-15.05-17.05-28.77-23.37,4.37,9.85,5.42,18.15-1.46,23.92-14.91-26.12-32.1-43.35-51.58-51.71,7.23,15.89,10.72,30.29,4.94,40.8C240.1,19.25,214.78,3.42,187.31,0c11.24,17.92,17.47,33.91,14.44,46.68-30.99-22.79-61.26-25.5-87.54-12.74,4.63-9.08,10.46-17.65,18.6-23.34-26.81-6.97-53.56,2.03-72.28,27.55h-1.34c.95-13-1.08-26.06-5.92-38.13-18.08,7.07-26.23,19.68-24.33,38.13h-.12C22.3,22.34,13.32,14.1,3.16,9.7l-3.16,1.17v25.04c.94.73,1.88,1.48,2.79,2.25H0v18.67h1357.94v-18.67h-2.79c.91-.77,1.84-1.52,2.79-2.25V10.87Z"/>
      </g>
      <g class="cls-4">
        <path class="cls-2" d="m371.21,55.03c-5.68-4.76-5.95-11.26-3.42-18.91.62,1.29,1.22,2.62,1.8,4.03h.12c-.31-3.06-.34-5.96-.11-8.7.05-.12.1-.23.15-.35-.04.02-.08.04-.12.06,1.28-13.62,9.39-23.29,24.28-29.14,2.22,5.55,3.83,11.31,4.85,17.18-9.91,9.09-19.09,21.03-27.54,35.83Z"/>
        <g>
          <path class="cls-2" d="m653.28,36c.26.77.49,1.52.69,2.27.74-1.67,1.51-3.26,2.3-4.75-1-.52-2.04-1.03-3.09-1.54.1,1.31.12,2.65.1,4.03Z"/>
          <path class="cls-2" d="m481.7,28.53c-2.26,7.34-2.92,14.11-1.48,20.15,10.37-7.63,20.66-13,30.75-16.3-10-3.29-19.79-4.52-29.27-3.85Z"/>
          <path class="cls-2" d="m415.62,24.79c-1.26,7.28-.78,13.84,2.23,19.33,14.93-14.22,30.37-25.72,46.51-33.2-17.38-2.3-34.37,2.27-48.74,13.87Z"/>
          <path class="cls-2" d="m598.64,3.33c3.26,7.2,5.74,14.1,6.96,20.47,5.72,4.38,11.04,9.82,15.84,16.36h1.34c-.49-6.67-.18-13.35.87-19.9-7.87-7.47-16.2-13.13-25.01-16.93Z"/>
          <path class="cls-2" d="m549.16,12.61c2.76-.72,5.51-1.26,8.26-1.63-9.8-4.58-19.86-7.67-30.23-8.97,5.89,9.44,10.37,18.33,12.88,26.51,9.6.62,18.87,3.15,27.69,7.44-4.63-9.08-10.46-17.65-18.6-23.34Z"/>
          <path class="cls-2" d="m27.99,38.27c.2-.74.43-1.5.69-2.27-.03-1.38,0-2.72.1-4.03-1.05.51-2.08,1.02-3.09,1.54.8,1.5,1.56,3.08,2.3,4.75Z"/>
          <path class="cls-2" d="m170.99,32.38c10.09,3.3,20.38,8.67,30.75,16.3,1.43-6.04.78-12.81-1.48-20.15-9.48-.66-19.27.56-29.27,3.85Z"/>
          <path class="cls-2" d="m312.37,40.15h-.12c.31-3.06.34-5.96.11-8.7-.05-.12-.1-.23-.15-.35.04.02.08.04.12.06-1.28-13.62-9.39-23.29-24.28-29.14-2.22,5.55-3.83,11.31-4.85,17.18,9.91,9.09,19.09,21.03,27.54,35.83,5.68-4.76,5.95-11.26,3.42-18.91-.62,1.29-1.22,2.62-1.8,4.03Z"/>
          <path class="cls-2" d="m217.6,10.92c16.14,7.49,31.58,18.98,46.51,33.2,3.02-5.49,3.49-12.06,2.23-19.33-14.37-11.6-31.36-16.17-48.74-13.87Z"/>
          <path class="cls-2" d="m59.18,40.15h1.34c4.8-6.54,10.12-11.98,15.84-16.36,1.22-6.37,3.7-13.26,6.96-20.47-8.81,3.8-17.14,9.45-25.01,16.93,1.06,6.56,1.36,13.24.87,19.9Z"/>
          <path class="cls-2" d="m132.8,12.61c-8.13,5.68-13.97,14.26-18.6,23.34,8.82-4.28,18.1-6.81,27.69-7.44,2.5-8.18,6.99-17.07,12.88-26.51-10.37,1.3-20.43,4.39-30.23,8.97,2.75.38,5.51.92,8.26,1.63Z"/>
          <path class="cls-2" d="m344.09,11.7l-3.11,1.16-3.11-1.16c-8.41,3.67-16,10.01-22.04,21.16,11.87,5.95,20.72,13,25.12,21.56v.13s.02-.04.03-.06c.01.02.02.04.03.06v-.13c4.4-8.56,13.25-15.61,25.12-21.56-6.05-11.14-13.64-17.49-22.04-21.16Z"/>
          <path class="cls-2" d="m850.91,32.38c10.09,3.3,20.38,8.67,30.75,16.3,1.43-6.04.78-12.81-1.48-20.15-9.48-.66-19.27.56-29.27,3.85Z"/>
          <path class="cls-2" d="m992.29,40.15h-.12c.31-3.06.34-5.96.11-8.7-.05-.12-.1-.23-.15-.35.04.02.08.04.12.06-1.28-13.62-9.39-23.29-24.28-29.14-2.22,5.55-3.83,11.31-4.85,17.18,9.91,9.09,19.09,21.03,27.54,35.83,5.68-4.76,5.95-11.26,3.42-18.91-.62,1.29-1.22,2.62-1.8,4.03Z"/>
          <path class="cls-2" d="m897.52,10.92c16.14,7.49,31.58,18.98,46.51,33.2,3.02-5.49,3.49-12.06,2.23-19.33-14.37-11.6-31.36-16.17-48.74-13.87Z"/>
          <path class="cls-2" d="m739.11,40.15h1.34c4.8-6.54,10.12-11.98,15.84-16.36,1.22-6.37,3.7-13.26,6.96-20.47-8.81,3.8-17.14,9.45-25.01,16.93,1.06,6.56,1.36,13.24.87,19.9Z"/>
          <path class="cls-2" d="m812.72,12.61c-8.13,5.68-13.97,14.26-18.6,23.34,8.82-4.28,18.1-6.81,27.69-7.44,2.5-8.18,6.99-17.07,12.88-26.51-10.37,1.3-20.43,4.39-30.23,8.97,2.75.38,5.51.92,8.26,1.63Z"/>
          <path class="cls-2" d="m1329.17,31.97c.1,1.31.12,2.65.1,4.03.26.77.49,1.52.69,2.27.74-1.67,1.51-3.26,2.3-4.75-1-.52-2.04-1.03-3.09-1.54Z"/>
          <path class="cls-2" d="m1157.68,28.53c-2.26,7.34-2.92,14.11-1.48,20.15,10.37-7.63,20.66-13,30.75-16.3-10-3.29-19.79-4.52-29.27-3.85Z"/>
          <path class="cls-2" d="m1045.61,31.17s.08-.04.12-.06c-.05.12-.1.23-.15.35-.24,2.74-.2,5.64.11,8.7h-.12c-.58-1.41-1.18-2.74-1.8-4.03-2.53,7.66-2.26,14.15,3.42,18.91,8.45-14.8,17.63-26.73,27.54-35.83-1.01-5.87-2.63-11.63-4.85-17.18-14.89,5.85-23,15.52-24.28,29.14Z"/>
          <path class="cls-2" d="m1091.6,24.79c-1.26,7.28-.78,13.84,2.23,19.33,14.93-14.22,30.37-25.72,46.51-33.2-17.38-2.3-34.37,2.27-48.74,13.87Z"/>
          <path class="cls-2" d="m1274.62,3.33c3.26,7.2,5.74,14.1,6.96,20.47,5.72,4.38,11.04,9.82,15.84,16.36h1.34c-.49-6.67-.18-13.35.87-19.9-7.87-7.47-16.2-13.13-25.01-16.93Z"/>
          <path class="cls-2" d="m1020.07,10.7l-1.14.43-1.14-.43c-8.41,3.67-16,10.01-22.04,21.16,9.01,4.51,16.27,9.66,21.18,15.62v6.06c.59-1.15,1.26-2.28,2-3.38.74,1.1,1.42,2.23,2,3.38v-6.06c4.91-5.96,12.17-11.11,21.18-15.62-6.05-11.14-13.64-17.49-22.04-21.16Z"/>
          <path class="cls-2" d="m1225.14,12.61c2.76-.72,5.51-1.26,8.26-1.63-9.8-4.58-19.86-7.67-30.23-8.97,5.89,9.44,10.37,18.33,12.88,26.51,9.6.62,18.87,3.15,27.69,7.44-4.63-9.08-10.46-17.65-18.6-23.34Z"/>
        </g>
      </g>
    </g>
  </g>
</svg>