<?xml version="1.0" encoding="UTF-8"?>
<svg id="Capa_2" data-name="Capa 2" xmlns="http://www.w3.org/2000/svg" viewBox="0 0 4673.15 97.14">
  <defs>
    <style>
      .cls-1 {
        fill: #fff;
      }
    </style>
  </defs>
  <g id="Encabezadotransparente">
    <g id="pc">
      <path class="cls-1" d="m585.83,0H0v7.32c8.25,16.19,25.86,29.24,49.49,40.06-7.5-16.84-9.3-31.04,2.51-40.9,25.61,44.65,55.16,74.1,88.62,88.4-12.43-27.16-18.42-51.78-8.5-69.73,41.24,39.1,84.74,66.17,131.93,72-19.32-30.63-30.01-57.95-24.8-79.81,53.24,38.97,105.23,43.59,150.38,21.77-7.94,15.53-17.98,30.17-31.94,39.9,46.04,11.91,92-3.47,124.18-47.1h2.29c-1.61,22.23,1.86,44.56,10.17,65.17,31.07-12.09,45.05-33.64,41.8-65.17h.19c11.19,27.04,26.6,41.11,44.06,48.65l3.97-1.46,4.28,1.58c17.46-7.47,32.87-21.49,44.06-48.34h.19c-3.26,31.32,10.73,52.74,41.8,64.74,8.34-20.5,11.81-42.66,10.17-64.74h2.29c32.15,43.32,78.1,58.63,124.18,46.79-13.98-9.64-24-24.22-31.94-39.63,45.15,21.67,97.14,17.08,150.38-21.64,5.21,21.7-5.49,48.87-24.8,79.28,47.19-5.83,90.69-32.68,131.93-71.53,9.92,17.83,3.94,42.29-8.5,69.3,33.46-14.17,63-43.47,88.62-87.81,11.81,9.8,10.02,23.91,2.51,40.62,23.34-10.63,40.77-23.41,49.17-39.21,8.49,15.63,25.79,28.32,48.83,38.87-7.5-16.84-9.3-31.04,2.51-40.9,25.61,44.65,55.16,74.1,88.62,88.4-12.43-27.16-18.42-51.78-8.5-69.73,41.24,39.1,84.74,66.17,131.93,72-19.32-30.63-30.01-57.95-24.81-79.81,53.24,38.97,105.24,43.59,150.38,21.77-7.94,15.53-17.98,30.17-31.94,39.9,46.04,11.91,92-3.47,124.15-47.1h2.29c-1.61,22.23,1.86,44.56,10.17,65.17,31.07-12.09,45.05-33.64,41.8-65.17h.19c11.19,27.04,26.6,41.11,44.06,48.65l3.97-1.46,4.28,1.58c17.46-7.47,32.87-21.49,44.06-48.34h.19c-3.26,31.32,10.73,52.74,41.8,64.74,8.34-20.5,11.81-42.66,10.17-64.74h2.29c32.15,43.32,78.1,58.63,124.18,46.79-13.98-9.64-24-24.22-31.94-39.63,45.14,21.67,97.14,17.08,150.38-21.64,5.21,21.7-5.49,48.87-24.8,79.28,47.19-5.83,90.69-32.68,131.93-71.53,9.92,17.83,3.94,42.29-8.5,69.3,33.46-14.17,63-43.47,88.62-87.81,11.81,9.8,10.01,23.91,2.51,40.62,23.42-10.66,40.88-23.49,49.25-39.36,8.47,15.7,25.8,28.43,48.91,39.01-7.5-16.84-9.3-31.04,2.51-40.9,25.61,44.65,55.16,74.1,88.62,88.4-12.43-27.16-18.42-51.78-8.5-69.73,41.24,39.1,84.74,66.17,131.93,72-19.32-30.63-30.01-57.95-24.8-79.81,53.24,38.97,105.23,43.59,150.38,21.77-7.94,15.53-17.98,30.17-31.94,39.9,46.04,11.91,92-3.47,124.18-47.1h2.29c-1.61,22.23,1.86,44.56,10.17,65.17,31.07-12.09,45.05-33.64,41.8-65.17h.19c11.19,27.04,26.6,41.11,44.06,48.65l3.97-1.46,4.28,1.58c17.46-7.47,32.87-21.49,44.06-48.34h.19c-3.26,31.32,10.73,52.74,41.8,64.74,8.34-20.5,11.81-42.66,10.17-64.74h2.29c32.15,43.32,78.1,58.63,124.18,46.79-13.98-9.64-24-24.22-31.94-39.63,45.15,21.67,97.14,17.08,150.38-21.64,5.21,21.7-5.49,48.87-24.81,79.28,47.19-5.83,90.69-32.68,131.93-71.53,9.92,17.83,3.94,42.29-8.5,69.3,33.46-14.17,63-43.47,88.62-87.81,11.81,9.8,10.02,23.91,2.51,40.62,23.34-10.63,40.77-23.41,49.17-39.21,8.49,15.63,25.79,28.32,48.83,38.87-7.5-16.84-9.3-31.04,2.51-40.9,25.61,44.65,55.16,74.1,88.62,88.4-12.43-27.16-18.42-51.78-8.5-69.73,41.24,39.1,84.74,66.17,131.93,72-19.32-30.63-30.01-57.95-24.8-79.81,53.24,38.97,105.23,43.59,150.38,21.77-7.94,15.53-17.98,30.17-31.94,39.9,46.04,11.91,92-3.47,124.15-47.1h2.29c-1.61,22.23,1.86,44.56,10.17,65.17,31.07-12.09,45.05-33.64,41.8-65.17h.19c11.19,27.04,26.6,41.11,44.06,48.65l3.97-1.46,4.28,1.58c17.46-7.47,32.87-21.49,44.06-48.34h.19c-3.26,31.32,10.73,52.74,41.8,64.74,8.34-20.5,11.81-42.66,10.17-64.74h2.29c32.15,43.32,78.1,58.63,124.18,46.79-13.98-9.64-24-24.22-31.94-39.63,45.15,21.67,97.14,17.08,150.38-21.64,5.21,21.7-5.49,48.87-24.81,79.28,47.19-5.83,90.69-32.68,131.93-71.53,9.92,17.83,3.94,42.29-8.5,69.3,33.46-14.17,63-43.47,88.62-87.81,11.81,9.8,10.02,23.91,2.51,40.62,23.63-10.76,41.21-23.72,49.49-39.78V.62l-583.16-.62H1168.02m-583.3,34.91c-1.24-.99-2.51-1.95-3.72-2.98h2.14v.43h4.77c-1.04.86-2.11,1.68-3.19,2.54Zm1168.02,0c-1.24-.99-2.51-1.95-3.72-2.98h2.14v.43h4.77c-1.04.86-2.11,1.68-3.19,2.54Zm1168.15,0c-1.24-.99-2.51-1.95-3.72-2.98h2.14v.43h4.77c-1.04.86-2.11,1.68-3.19,2.54Zm1168.05,0v-.03c-1.24-.99-2.51-1.95-3.72-2.98h2.14v.43h4.81c-1.05.87-2.14,1.71-3.22,2.57Z"/>
    </g>
  </g>
</svg>