<?xml version="1.0" encoding="utf-8"?>
<!-- Generator: Adobe Illustrator 17.0.0, SVG Export Plug-In . SVG Version: 6.00 Build 0)  -->
<!DOCTYPE svg PUBLIC "-//W3C//DTD SVG 1.1//EN" "http://www.w3.org/Graphics/SVG/1.1/DTD/svg11.dtd">
<svg version="1.1" id="Layer_1" xmlns="http://www.w3.org/2000/svg" xmlns:xlink="http://www.w3.org/1999/xlink" x="0px" y="0px"
	 width="467px" height="121px" viewBox="0 0 467 121" enable-background="new 0 0 467 121" xml:space="preserve">
<g>
	<defs>
		<rect id="SVGID_9_" x="0" width="467" height="121"/>
	</defs>
	<clipPath id="SVGID_1_">
		<use xlink:href="#SVGID_9_"  overflow="visible"/>
	</clipPath>
	<g clip-path="url(#SVGID_1_)">
		<defs>
			<rect id="SVGID_11_" x="0" width="467" height="121"/>
		</defs>
		<clipPath id="SVGID_2_">
			<use xlink:href="#SVGID_11_"  overflow="visible"/>
		</clipPath>
		<path clip-path="url(#SVGID_2_)" fill="#FFFFFF" d="M118.688,96.904c-0.232,0-0.578-0.036-0.803-0.104L73.874,82.593
			c-1.807-0.555-2.77-2.669-2.766-4.467l-0.125-36.087c0.009-1.769,0.92-3.881,2.672-4.502l44.06-16.898
			c0.252-0.088,0.737-0.133,1-0.133c1.885,0,3.286,2.049,3.286,5.35v65.639C122.001,94.832,120.591,96.904,118.688,96.904
			 M73.068,79.984l43.777,13.193c0.096-0.387-0.845-0.954-0.845-1.684V25.856c0-0.671,0.957-1.203,0.869-1.578L72.504,39.409
			c-0.139,0.132-0.157,0.628-0.16,1.245l0.236,38.182C72.579,79.402,72.941,79.846,73.068,79.984"/>
		<path clip-path="url(#SVGID_2_)" fill="#F05325" d="M56,46.434c0-3.593,2.385-5.061,5.496-3.268l25.381,13.012
			c3.113,1.796,3.072,4.736-0.039,6.529L61.516,75.721C58.404,77.516,56,76.045,56,72.456V46.434z"/>
	</g>
</g>
<g>
	<path fill="#FFFFFF" d="M141.231,80.539V54.508l-2.758-0.434c-0.6-0.104-1.08-0.311-1.441-0.62
		c-0.361-0.31-0.542-0.744-0.542-1.302v-3.13h4.741v-2.356c0-1.817,0.273-3.45,0.821-4.895c0.547-1.446,1.332-2.676,2.355-3.689
		c1.022-1.012,2.267-1.786,3.734-2.324c1.466-0.536,3.119-0.806,4.958-0.806c1.467,0,2.83,0.197,4.091,0.589l-0.155,3.843
		c-0.042,0.6-0.32,0.971-0.837,1.115c-0.517,0.145-1.115,0.217-1.797,0.217c-0.91,0-1.721,0.099-2.433,0.295
		c-0.713,0.196-1.317,0.537-1.813,1.023c-0.496,0.485-0.873,1.126-1.131,1.921c-0.259,0.796-0.388,1.782-0.388,2.96v2.108h8.274
		v5.454h-8.026v26.062H141.231z"/>
	<path fill="#FFFFFF" d="M174.731,48.248c2.003,0,3.847,0.32,5.531,0.961c1.684,0.641,3.135,1.575,4.354,2.804
		c1.219,1.229,2.17,2.737,2.852,4.524c0.682,1.787,1.022,3.827,1.022,6.121c0,0.578-0.026,1.059-0.077,1.44
		c-0.052,0.383-0.145,0.682-0.279,0.899c-0.135,0.217-0.315,0.371-0.542,0.465c-0.228,0.092-0.517,0.139-0.868,0.139h-19.646
		c0.227,3.265,1.104,5.661,2.634,7.189c1.528,1.529,3.553,2.293,6.074,2.293c1.239,0,2.309-0.144,3.207-0.434
		c0.898-0.289,1.684-0.609,2.355-0.961c0.671-0.351,1.26-0.67,1.766-0.96c0.507-0.29,0.997-0.435,1.473-0.435
		c0.31,0,0.578,0.062,0.806,0.187c0.227,0.124,0.423,0.3,0.589,0.526l2.231,2.789c-0.848,0.992-1.798,1.824-2.852,2.495
		c-1.054,0.671-2.153,1.208-3.301,1.611c-1.146,0.403-2.314,0.687-3.501,0.853c-1.188,0.164-2.34,0.248-3.456,0.248
		c-2.211,0-4.266-0.367-6.166-1.101c-1.901-0.733-3.554-1.817-4.959-3.254c-1.405-1.436-2.51-3.212-3.315-5.33
		c-0.806-2.118-1.209-4.571-1.209-7.36c0-2.169,0.352-4.209,1.054-6.12c0.702-1.911,1.709-3.573,3.021-4.989
		c1.312-1.415,2.913-2.535,4.804-3.362C170.222,48.661,172.355,48.248,174.731,48.248z M174.886,53.732
		c-2.231,0-3.977,0.631-5.237,1.891c-1.26,1.26-2.065,3.048-2.417,5.361h14.379c0-0.992-0.134-1.926-0.402-2.805
		c-0.268-0.878-0.682-1.646-1.24-2.309c-0.558-0.661-1.26-1.183-2.106-1.565C177.014,53.924,176.021,53.732,174.886,53.732z"/>
	<path fill="#FFFFFF" d="M213.591,54.941c-0.206,0.33-0.424,0.562-0.65,0.697c-0.228,0.135-0.517,0.201-0.868,0.201
		c-0.371,0-0.77-0.104-1.192-0.31c-0.424-0.206-0.915-0.438-1.473-0.697c-0.558-0.259-1.192-0.491-1.905-0.697
		c-0.713-0.206-1.555-0.31-2.526-0.31c-1.508,0-2.695,0.32-3.564,0.961c-0.867,0.641-1.302,1.477-1.302,2.51
		c0,0.682,0.222,1.255,0.667,1.72c0.443,0.465,1.032,0.873,1.766,1.224c0.733,0.352,1.565,0.666,2.495,0.945
		c0.93,0.279,1.88,0.584,2.851,0.914c0.971,0.331,1.922,0.708,2.852,1.131c0.93,0.424,1.761,0.961,2.494,1.611
		c0.733,0.651,1.322,1.432,1.767,2.34c0.444,0.91,0.666,2.005,0.666,3.285c0,1.529-0.278,2.939-0.836,4.23
		c-0.559,1.291-1.375,2.406-2.448,3.347c-1.075,0.94-2.402,1.673-3.982,2.2c-1.58,0.527-3.394,0.79-5.438,0.79
		c-1.096,0-2.165-0.099-3.208-0.294c-1.043-0.197-2.045-0.47-3.006-0.821c-0.96-0.351-1.849-0.765-2.665-1.239
		c-0.816-0.476-1.534-0.992-2.153-1.55l1.767-2.913c0.227-0.352,0.495-0.619,0.806-0.806c0.31-0.187,0.702-0.278,1.177-0.278
		c0.476,0,0.925,0.134,1.349,0.402c0.423,0.269,0.914,0.558,1.472,0.867c0.558,0.311,1.214,0.6,1.968,0.868
		c0.754,0.269,1.71,0.403,2.867,0.403c0.908,0,1.689-0.109,2.339-0.326c0.651-0.217,1.188-0.5,1.612-0.852
		c0.423-0.352,0.732-0.76,0.93-1.225c0.195-0.465,0.294-0.945,0.294-1.441c0-0.743-0.223-1.353-0.666-1.828
		c-0.444-0.475-1.033-0.888-1.767-1.239c-0.733-0.351-1.57-0.667-2.51-0.945c-0.94-0.278-1.901-0.583-2.883-0.914
		c-0.982-0.33-1.941-0.718-2.882-1.162c-0.94-0.444-1.776-1.007-2.51-1.688c-0.733-0.682-1.322-1.52-1.767-2.511
		c-0.444-0.991-0.666-2.189-0.666-3.595c0-1.301,0.258-2.541,0.774-3.719s1.275-2.205,2.277-3.084
		c1.002-0.877,2.252-1.58,3.75-2.106c1.498-0.526,3.228-0.79,5.19-0.79c2.19,0,4.184,0.361,5.981,1.084
		c1.798,0.724,3.295,1.674,4.493,2.852L213.591,54.941z"/>
	<path fill="#FFFFFF" d="M232.247,81.034c-2.748,0-4.865-0.779-6.353-2.339c-1.488-1.561-2.231-3.714-2.231-6.462V54.477h-3.223
		c-0.414,0-0.771-0.135-1.069-0.402c-0.3-0.27-0.449-0.672-0.449-1.209v-3.037l5.113-0.837l1.611-8.677
		c0.082-0.413,0.273-0.733,0.573-0.961c0.299-0.227,0.676-0.341,1.131-0.341h3.967v10.01h8.367v5.454h-8.367v17.23
		c0,0.991,0.248,1.766,0.743,2.324c0.496,0.557,1.157,0.836,1.983,0.836c0.476,0,0.873-0.057,1.193-0.17
		c0.32-0.113,0.599-0.232,0.837-0.356c0.237-0.124,0.449-0.243,0.635-0.356c0.187-0.113,0.372-0.17,0.559-0.17
		c0.227,0,0.413,0.057,0.558,0.17c0.145,0.113,0.299,0.284,0.465,0.512l2.293,3.719c-1.115,0.93-2.396,1.632-3.843,2.107
		C235.294,80.797,233.796,81.034,232.247,81.034z"/>
	<path fill="#FFFFFF" d="M245.789,80.539V34.488h7.654v17.695c1.239-1.178,2.603-2.128,4.091-2.852
		c1.487-0.723,3.232-1.084,5.237-1.084c1.735,0,3.273,0.294,4.617,0.883c1.343,0.589,2.464,1.416,3.362,2.479
		c0.898,1.064,1.58,2.336,2.045,3.812c0.465,1.476,0.697,3.104,0.697,4.881v20.236h-7.654V60.303c0-1.941-0.449-3.445-1.348-4.51
		c-0.899-1.062-2.247-1.596-4.044-1.596c-1.323,0-2.562,0.301-3.719,0.898c-1.157,0.6-2.253,1.416-3.285,2.449v22.994H245.789z"/>
	<path fill="#FFFFFF" d="M294.597,48.248c2.375,0,4.529,0.383,6.461,1.147c1.932,0.764,3.579,1.85,4.943,3.254
		c1.363,1.404,2.417,3.119,3.16,5.145c0.744,2.024,1.116,4.287,1.116,6.786c0,2.521-0.372,4.793-1.116,6.817
		c-0.743,2.025-1.797,3.75-3.16,5.176c-1.364,1.426-3.012,2.521-4.943,3.285c-1.932,0.764-4.086,1.146-6.461,1.146
		c-2.376,0-4.535-0.383-6.477-1.146c-1.942-0.765-3.601-1.859-4.975-3.285c-1.374-1.426-2.438-3.15-3.191-5.176
		c-0.755-2.024-1.131-4.297-1.131-6.817c0-2.499,0.376-4.762,1.131-6.786c0.754-2.025,1.817-3.74,3.191-5.145
		s3.032-2.49,4.975-3.254C290.061,48.631,292.221,48.248,294.597,48.248z M294.597,75.115c2.645,0,4.602-0.888,5.872-2.665
		c1.271-1.776,1.906-4.38,1.906-7.81c0-3.429-0.636-6.043-1.906-7.84c-1.271-1.797-3.228-2.696-5.872-2.696
		c-2.686,0-4.669,0.904-5.95,2.712c-1.281,1.808-1.921,4.416-1.921,7.824c0,3.409,0.64,6.008,1.921,7.795
		C289.928,74.223,291.911,75.115,294.597,75.115z"/>
	<path fill="#FFFFFF" d="M316.258,80.539V48.744h4.679c0.992,0,1.643,0.465,1.953,1.395l0.495,2.354
		c0.559-0.62,1.142-1.188,1.751-1.704c0.609-0.517,1.26-0.961,1.952-1.333c0.692-0.372,1.436-0.666,2.231-0.883
		c0.795-0.218,1.668-0.325,2.619-0.325c2.003,0,3.651,0.542,4.942,1.627c1.291,1.084,2.257,2.525,2.897,4.322
		c0.496-1.053,1.116-1.957,1.859-2.711c0.744-0.754,1.56-1.369,2.448-1.844c0.888-0.476,1.833-0.826,2.836-1.055
		c1.002-0.227,2.009-0.34,3.021-0.34c1.756,0,3.315,0.269,4.679,0.805c1.364,0.538,2.511,1.323,3.44,2.355
		c0.93,1.033,1.637,2.293,2.122,3.781c0.485,1.487,0.728,3.191,0.728,5.113v20.236h-7.654V60.303c0-2.025-0.444-3.549-1.332-4.571
		c-0.889-1.022-2.19-1.534-3.905-1.534c-0.785,0-1.514,0.135-2.185,0.403c-0.672,0.268-1.261,0.655-1.767,1.162
		c-0.506,0.507-0.903,1.142-1.192,1.905c-0.29,0.766-0.435,1.643-0.435,2.635v20.236h-7.686V60.303c0-2.128-0.429-3.678-1.285-4.648
		c-0.858-0.971-2.123-1.457-3.797-1.457c-1.095,0-2.123,0.274-3.083,0.822c-0.961,0.547-1.855,1.296-2.681,2.246v23.273H316.258z"/>
	<path fill="#FFFFFF" d="M381.583,48.248c2.003,0,3.847,0.32,5.531,0.961c1.684,0.641,3.135,1.575,4.354,2.804
		c1.219,1.229,2.17,2.737,2.851,4.524c0.682,1.787,1.023,3.827,1.023,6.121c0,0.578-0.026,1.059-0.077,1.44
		c-0.052,0.383-0.145,0.682-0.279,0.899c-0.135,0.217-0.315,0.371-0.542,0.465c-0.228,0.092-0.517,0.139-0.868,0.139h-19.647
		c0.227,3.265,1.105,5.661,2.634,7.189c1.528,1.529,3.553,2.293,6.074,2.293c1.239,0,2.309-0.144,3.207-0.434
		c0.898-0.289,1.684-0.609,2.355-0.961c0.671-0.351,1.26-0.67,1.766-0.96c0.507-0.29,0.997-0.435,1.473-0.435
		c0.31,0,0.578,0.062,0.806,0.187c0.227,0.124,0.423,0.3,0.589,0.526l2.232,2.789c-0.848,0.992-1.798,1.824-2.852,2.495
		c-1.054,0.671-2.153,1.208-3.301,1.611c-1.147,0.403-2.313,0.687-3.501,0.853c-1.189,0.164-2.34,0.248-3.456,0.248
		c-2.211,0-4.266-0.367-6.166-1.101c-1.901-0.733-3.554-1.817-4.959-3.254c-1.405-1.436-2.51-3.212-3.315-5.33
		c-0.806-2.118-1.209-4.571-1.209-7.36c0-2.169,0.352-4.209,1.054-6.12c0.702-1.911,1.709-3.573,3.021-4.989
		c1.311-1.415,2.913-2.535,4.804-3.362C377.073,48.661,379.207,48.248,381.583,48.248z M381.737,53.732
		c-2.231,0-3.977,0.631-5.237,1.891c-1.26,1.26-2.065,3.048-2.417,5.361h14.379c0-0.992-0.134-1.926-0.402-2.805
		c-0.269-0.878-0.682-1.646-1.24-2.309c-0.558-0.661-1.26-1.183-2.106-1.565C383.865,53.924,382.873,53.732,381.737,53.732z"/>
</g>
</svg>
