<?xml version="1.0" encoding="UTF-8"?>
<svg id="Capa_2" data-name="Capa 2" xmlns="http://www.w3.org/2000/svg" viewBox="0 0 88.64 39.91">
  <defs>
    <style>
      .cls-1 {
        font-size: 19.06px;
      }

      .cls-1, .cls-2, .cls-3 {
        fill: #a5a5a5;
      }

      .cls-1, .cls-3 {
        font-family: ProtestGuerrilla-Regular, 'Protest Guerrilla';
      }

      .cls-3 {
        font-size: 18.24px;
      }
    </style>
  </defs>
  <g id="Capa_1-2" data-name="Capa 1">
    <g>
      <g>
        <polygon class="cls-2" points="43.52 9.75 50.27 9.65 54.41 9.63 52.32 6.05 50.12 2.3 47.29 5.41 43.52 9.75"/>
        <g>
          <polygon class="cls-2" points="20.17 6.72 19.31 6.71 13.68 6.63 14.01 6.05 11.92 9.63 16.06 9.65 22.81 9.75 20.17 6.72"/>
          <polygon class="cls-2" points="14.67 4.93 14.01 6.05 14.67 4.93 14.67 4.93"/>
          <polygon class="cls-2" points="18.64 4.99 16.21 2.3 14.67 4.93 17.76 4.97 18.64 4.99"/>
        </g>
        <g>
          <path class="cls-2" d="m58.67,3.64c-.03-.13-.14-.07-.2-.07-.76,0-1.53,0-2.29.01v3.15c.83-1.03,1.66-2.06,2.49-3.1Z"/>
          <path class="cls-2" d="m50.2,1.25c1.14,0,2.29,0,3.43,0h0s0-.01,0-.02h0c-1.22,0-2.45,0-3.67,0,0,0,0,0,0,0,.08.03.16.02.24.02Z"/>
          <path class="cls-2" d="m59.25,1.3c1.14,0,2.28,0,3.42,0,.08,0,.16-.02.24.02-.06-.01-.13-.04-.19-.04-1.16,0-2.32,0-3.48,0,0,0,0,.01,0,.02,0,0,0,0,0,0Z"/>
          <path class="cls-2" d="m59.24,1.3s0-.01,0-.02c-.63,0-1.25,0-1.88,0,0,0,0,0,0,0,.63.04,1.25,0,1.88.02Z"/>
          <path class="cls-2" d="m54.77,1.25v-.02c-.38,0-.76,0-1.13,0h0s0,.01,0,.02c.38,0,.75,0,1.13,0Z"/>
          <path class="cls-2" d="m6.87,2.72c.04-.09.15-.05.22-.04.85.05,1.7.05,2.55.08.66.02,1.31.04,1.96.08.82.05,1.64.05,2.46.08.6.02,1.19.05,1.79.07.14,0,.22.08.3.17.54.61,1.08,1.21,1.62,1.82l3.44.05c-.25-.29-.5-.57-.76-.86-1.03-1.17-2.05-2.33-3.07-3.5-.06-.07-.12-.16-.24-.15L2.24.03c.23.38.45.63.69,1,.49.77.9,1.58,1.48,2.29.4.49.79.98,1.18,1.47l2.96.04c.08.1.17.21.25.31-.61-.75-1.22-1.49-1.82-2.24-.05-.06-.14-.12-.11-.18Z"/>
          <path class="cls-2" d="m63.84,1.35c-.03-.05-.09-.03-.14-.03-.26,0-.52,0-.78,0,0,0,0,0,0,0-.08-.03-.16-.02-.24-.02-1.14,0-2.28,0-3.42,0,0,0,0,0,0,0-.63,0-1.25.02-1.88-.02h0c-.39,0-.79,0-1.18,0v2.31c.76,0,1.53,0,2.29-.01.07,0,.17-.06.2.07-.83,1.03-1.66,2.06-2.49,3.1v4.08c1.58-1.94,3.17-3.88,4.75-5.82.95-1.16,1.9-2.32,2.85-3.49.04-.04.1-.08.07-.15Z"/>
          <path class="cls-2" d="m53.64,1.25h0c-1.14,0-2.29,0-3.43,0-.08,0-.16.02-.24-.02,0,0,0,0,0,0-.4,0-.79,0-1.19,0-.17,0-.29.05-.41.18-1.2,1.35-2.4,2.7-3.6,4.05-1.65,1.85-3.3,3.7-4.95,5.55-2.19,2.46-4.38,4.92-6.56,7.38-.13.15-.19.12-.31,0-.5-.58-1-1.15-1.51-1.72-1.14-1.29-2.28-2.59-3.42-3.88-1.38-1.56-2.75-3.13-4.13-4.69-.54-.61-.76-.71-1.3-1.32h-.31s-2.98-.05-2.98-.05c.82.92,1.63,1.83,2.45,2.75,1.4,1.57,2.8,3.15,4.2,4.72,1.14,1.28,2.29,2.56,3.43,3.85,1.19,1.33,2.37,2.66,3.56,4,.13.14.2.17.34.01,1.14-1.31,2.28-2.6,3.43-3.9,1.04-1.18,2.07-2.35,3.11-3.53,1.51-1.72,3.02-3.43,4.53-5.15,1.14-1.29,2.28-2.59,3.42-3.88.58-.66,1.17-1.32,1.75-1.98.38-.05.77-.02,1.15-.02.33,0,.67,0,1,0,.63,0,1.26-.03,1.88,0,.41,0,.81,0,1.22,0V1.25c-.38,0-.75,0-1.13,0Z"/>
          <path class="cls-2" d="m49.32,15.23c-2.23,2.77-4.46,5.53-6.7,8.3-1.86,2.31-3.72,4.61-5.58,6.92-1.21,1.51-2.43,3.01-3.64,4.52-.19.24-.2.24-.39,0-2.46-3.03-4.92-6.06-7.38-9.1-2.85-3.51-5.71-7.02-8.56-10.54-2.76-3.4-5.51-6.79-8.27-10.19.39.48.77.95,1.16,1.43l-2.98-.04c1.96,2.44,3.91,4.88,5.87,7.31,3.35,4.18,6.7,8.35,10.05,12.53,2.39,2.98,4.78,5.96,7.17,8.95,1,1.25,2,2.49,2.99,3.74.09-.03.14-.11.19-.18,2.02-2.47,4.04-4.95,6.06-7.42,2.02-2.47,4.03-4.94,6.04-7.41,2.76-3.38,5.52-6.76,8.29-10.14.37-.46.74-.91,1.12-1.37v-4.05c-1.81,2.25-3.63,4.5-5.45,6.75Z"/>
        </g>
        <g>
          <path class="cls-2" d="m38.38,24.91l-3.65,4.81c.82,1.67,1.64,3.34,2.48,5,.18.36.59.84.91.85,1.83.08,3.66.04,5.66.04-1.81-3.59-3.6-7.14-5.4-10.7Z"/>
          <path class="cls-2" d="m33.07,14.4c-3.61,7.13-7.15,14.12-10.76,21.27,1.82,0,3.45-.03,5.08.01.7.02,1.1-.22,1.39-.85,1.15-2.45,2.33-4.87,3.51-7.3.18-.38.4-.74.66-1.2.19.28.32.43.41.6.13.27.26.54.4.81l3.64-4.79c-1.43-2.84-2.87-5.68-4.31-8.54Z"/>
          <path class="cls-2" d="m33.21,9.61c.63-1.41,1.24-2.76,1.82-4.13.13-.31.29-.73.18-.99-.62-1.46-1.32-2.89-2.07-4.5-.73,1.56-1.38,2.89-1.98,4.25-.11.26-.12.66-.01.92.65,1.49,1.35,2.95,2.05,4.45Z"/>
        </g>
      </g>
      <text class="cls-1" transform="translate(0 36.02)"><tspan x="0" y="0">De</tspan></text>
      <text class="cls-3" transform="translate(44.51 35.84)"><tspan x="0" y="0">ndros</tspan></text>
    </g>
  </g>
</svg>