<svg width="114" height="22" viewBox="0 0 114 22" fill="none" xmlns="http://www.w3.org/2000/svg">
<path fill-rule="evenodd" clip-rule="evenodd" d="M75.4344 0V2.64754H72.5153V0H75.4344ZM38.9191 18.7404V7.78689C39.5968 7.29372 40.1702 6.90437 40.7957 6.90437C41.3691 6.90437 41.8122 7.21585 41.8122 7.91667V18.7404H44.7313V7.78689C45.3829 7.29372 45.9563 6.90437 46.5819 6.90437C47.1553 6.90437 47.6244 7.21585 47.6244 7.91667V18.7404H50.5436V7.44945C50.5436 5.63251 49.6313 4.51639 47.8069 4.51639C46.7382 4.51639 45.9563 4.82787 44.5489 6.1776C43.9234 5.03552 43.4542 4.51639 41.9947 4.51639C40.7106 4.51639 40.0796 5.05465 39.0132 5.9644L39.0132 5.96446L39.0126 5.96491L39.012 5.96549C38.9315 6.0341 38.8486 6.10483 38.7628 6.1776V4.77596H36V18.7404H38.9191ZM56.8944 19C60.2306 19 61.4295 16.8716 61.4295 13.8087V9.70765C61.4295 6.64481 60.2306 4.51639 56.8944 4.51639C53.5583 4.51639 52.3593 6.64481 52.3593 9.70765V13.8087C52.3593 16.8716 53.5583 19 56.8944 19ZM55.2785 14.3279C55.2785 15.9372 55.8519 16.612 56.8944 16.612C57.937 16.612 58.5104 15.9372 58.5104 14.3279V9.18852C58.5104 7.57924 57.937 6.90437 56.8944 6.90437C55.8519 6.90437 55.2785 7.57924 55.2785 9.18852V14.3279ZM68.3016 18.7404L71.6899 4.77596H68.7186L66.8942 14.1202H66.8421L65.0437 4.77596H62.0724L65.4607 18.7404H68.3016ZM75.4344 18.7404V4.77596H72.5153V18.7404H75.4344ZM86.3203 15.1066C86.3203 17.6503 85.1735 19 83.3491 19C81.8895 19 81.1858 18.5068 80.2214 17.2869H80.1693V18.7404H77.4065V0H80.3257V5.96995L80.4214 5.89191C81.5068 5.00666 82.108 4.51639 83.3491 4.51639C85.1735 4.51639 86.3203 5.86612 86.3203 8.40984V15.1066ZM81.9938 16.612C81.4204 16.612 80.8991 16.3005 80.3257 15.8852V7.63115C80.8991 7.21585 81.4204 6.90437 81.9938 6.90437C82.7757 6.90437 83.4012 7.31967 83.4012 9.16257V14.3538C83.4012 16.1967 82.7757 16.612 81.9938 16.612ZM97.0238 14.0164C96.9717 16.9754 95.7467 19 92.4887 19C89.1526 19 87.9537 16.8716 87.9537 13.8087V9.70765C87.9537 6.64481 89.1526 4.51639 92.4887 4.51639C95.8249 4.51639 97.0238 6.64481 97.0238 9.70765V12.3033H90.8728V14.3279C90.8728 15.9372 91.4462 16.612 92.4887 16.612C93.5313 16.612 94.1047 15.9372 94.1047 14.3279V14.0164H97.0238ZM90.8728 9.9153V9.18852C90.8728 7.57924 91.4462 6.90437 92.4888 6.90437C93.5313 6.90437 94.1047 7.57924 94.1047 9.18852V9.9153H90.8728ZM104.157 18.8443C103.766 18.9481 103.427 19 102.697 19C100.508 19 99.2827 17.9877 99.2827 15.8593V7.16393H97.6667V4.77596H99.2827V1.0123H102.202V4.77596H104.157V7.16393H102.202V15.2104C102.202 15.9372 102.515 16.3525 103.192 16.3525H104.157V18.8443ZM111.055 17.6503C111.067 17.8089 111.097 17.9733 111.127 18.1434L111.127 18.1435C111.162 18.3352 111.197 18.5342 111.211 18.7404H114L113.977 18.6066L113.977 18.6065C113.903 18.1673 113.818 17.6608 113.818 17.2609V8.30601C113.818 5.7623 112.28 4.51639 109.569 4.51639C106.832 4.51639 105.034 6.04781 104.878 8.87705H107.797C107.849 7.68306 108.136 6.90437 109.465 6.90437C110.429 6.90437 110.898 7.52732 110.898 8.69536V9.52596C106.702 11.1093 104.669 12.7964 104.669 15.8593C104.669 17.6503 105.66 19 107.64 19C109.048 19 109.96 18.5328 111.055 17.6503ZM107.588 15.3402C107.588 16.2486 108.057 16.612 108.944 16.612C109.752 16.612 110.403 16.015 110.898 15.3142V11.6544C108.24 13.1598 107.588 14.1202 107.588 15.3402Z" fill="#0A2540"/>
<path d="M31.3017 3.44506C30.932 2.09524 29.8434 1.02747 28.4673 0.664835C25.982 0 15.9795 0 15.9795 0C15.9795 0 5.97689 0.0201465 3.49166 0.684982C2.11553 1.04762 1.02696 2.11538 0.657253 3.4652C-4.89692e-08 5.90293 0 11 0 11C0 11 -4.89692e-08 16.0971 0.677792 18.5549C1.0475 19.9048 2.13607 20.9725 3.5122 21.3352C5.99743 22 16 22 16 22C16 22 26.0026 22 28.4878 21.3352C29.8639 20.9725 30.9525 19.9048 31.3222 18.5549C32 16.1172 32 11 32 11C32 11 31.9795 5.90293 31.3017 3.44506Z" fill="#1551F0"/>
<path fill-rule="evenodd" clip-rule="evenodd" d="M16.9234 7.35228C16.9234 6.59817 16.3121 5.98685 15.558 5.98685C14.8039 5.98685 14.1926 6.59817 14.1926 7.35227V14.6346C14.1926 15.3887 14.8039 16 15.558 16C16.3121 16 16.9234 15.3887 16.9234 14.6346V7.35228ZM19.4923 16C19.617 16 19.7417 16 19.8664 15.8744L25.7279 11.6055C26.1023 11.3014 26.2906 11.1484 26.293 10.9925C26.2955 10.8346 26.1071 10.6738 25.7279 10.3499L19.8664 6.08101C19.617 5.95546 19.3676 5.95546 19.1181 6.08101C18.8687 6.20657 18.744 6.45768 18.744 6.7088V15.2467C18.744 15.4978 18.8687 15.7489 19.1181 15.8744C19.2429 16 19.3676 16 19.4923 16ZM11.0066 6.89713C11.7607 6.89713 12.372 7.50846 12.372 8.26256V13.7243C12.372 14.4784 11.7607 15.0897 11.0066 15.0897C10.2525 15.0897 9.64114 14.4784 9.64114 13.7243V8.26256C9.64114 7.50846 10.2525 6.89713 11.0066 6.89713ZM7.82057 9.62799C7.82057 9.12525 7.41302 8.71771 6.91029 8.71771C6.40755 8.71771 6 9.12525 6 9.62799V13.2691C6 13.7719 6.40755 14.1794 6.91029 14.1794C7.41302 14.1794 7.82057 13.7719 7.82057 13.2691V9.62799Z" fill="white"/>
</svg>
