<svg xmlns="http://www.w3.org/2000/svg" viewBox="0 0 15.87 12.18"><defs><style>.bb099bd9-5c6b-41e3-ba7d-8defd72f3af2{fill:#fff;}</style></defs><g id="a4fc5b70-f9f8-4612-ae4a-92791e85ded8" data-name="Capa 2"><g id="ebe21a56-e401-4572-ad7e-27b70a541875" data-name="Capa 1"><path class="bb099bd9-5c6b-41e3-ba7d-8defd72f3af2" d="M0,7.06.08,7,2.2,4.88l.06-.08.38.39,3,3c.07.07.1,0,.15,0L12,1.91,13.8.07,13.88,0,14,.08,15.78,1.9l.09.07h0L15.8,2l-.26.26-9.8,9.8-.07.09h0l-.08-.1-.28-.24L4.38,11l-1.1-1-.94-.85-1.1-1L.29,7.33A3.47,3.47,0,0,0,0,7.08Z"/></g></g></svg>